<?xml version="1.0" encoding="utf-8"?>
<svg xmlns="http://www.w3.org/2000/svg" xmlns:xlink="http://www.w3.org/1999/xlink" width="600" height="400" viewBox="0 0 2400 1600">
<defs>
  <clipPath id="clip950">
    <rect x="0" y="0" width="2400" height="1600"/>
  </clipPath>
</defs>
<path clip-path="url(#clip950)" d="
M0 1600 L2400 1600 L2400 0 L0 0  Z
  " fill="#ffffff" fill-rule="evenodd" fill-opacity="1"/>
<defs>
  <clipPath id="clip951">
    <rect x="480" y="0" width="1681" height="1600"/>
  </clipPath>
</defs>
<path clip-path="url(#clip950)" d="
M192.709 1486.45 L2352.76 1486.45 L2352.76 123.472 L192.709 123.472  Z
  " fill="#ffffff" fill-rule="evenodd" fill-opacity="1"/>
<defs>
  <clipPath id="clip952">
    <rect x="192" y="123" width="2161" height="1364"/>
  </clipPath>
</defs>
<polyline clip-path="url(#clip952)" style="stroke:#000000; stroke-linecap:butt; stroke-linejoin:round; stroke-width:2; stroke-opacity:0.1; fill:none" points="
  253.843,1486.45 253.843,123.472 
  "/>
<polyline clip-path="url(#clip952)" style="stroke:#000000; stroke-linecap:butt; stroke-linejoin:round; stroke-width:2; stroke-opacity:0.1; fill:none" points="
  593.473,1486.45 593.473,123.472 
  "/>
<polyline clip-path="url(#clip952)" style="stroke:#000000; stroke-linecap:butt; stroke-linejoin:round; stroke-width:2; stroke-opacity:0.1; fill:none" points="
  933.103,1486.45 933.103,123.472 
  "/>
<polyline clip-path="url(#clip952)" style="stroke:#000000; stroke-linecap:butt; stroke-linejoin:round; stroke-width:2; stroke-opacity:0.1; fill:none" points="
  1272.73,1486.45 1272.73,123.472 
  "/>
<polyline clip-path="url(#clip952)" style="stroke:#000000; stroke-linecap:butt; stroke-linejoin:round; stroke-width:2; stroke-opacity:0.1; fill:none" points="
  1612.36,1486.45 1612.36,123.472 
  "/>
<polyline clip-path="url(#clip952)" style="stroke:#000000; stroke-linecap:butt; stroke-linejoin:round; stroke-width:2; stroke-opacity:0.1; fill:none" points="
  1951.99,1486.45 1951.99,123.472 
  "/>
<polyline clip-path="url(#clip952)" style="stroke:#000000; stroke-linecap:butt; stroke-linejoin:round; stroke-width:2; stroke-opacity:0.1; fill:none" points="
  2291.62,1486.45 2291.62,123.472 
  "/>
<polyline clip-path="url(#clip950)" style="stroke:#000000; stroke-linecap:butt; stroke-linejoin:round; stroke-width:4; stroke-opacity:1; fill:none" points="
  192.709,1486.45 2352.76,1486.45 
  "/>
<polyline clip-path="url(#clip950)" style="stroke:#000000; stroke-linecap:butt; stroke-linejoin:round; stroke-width:4; stroke-opacity:1; fill:none" points="
  253.843,1486.45 253.843,1467.55 
  "/>
<polyline clip-path="url(#clip950)" style="stroke:#000000; stroke-linecap:butt; stroke-linejoin:round; stroke-width:4; stroke-opacity:1; fill:none" points="
  593.473,1486.45 593.473,1467.55 
  "/>
<polyline clip-path="url(#clip950)" style="stroke:#000000; stroke-linecap:butt; stroke-linejoin:round; stroke-width:4; stroke-opacity:1; fill:none" points="
  933.103,1486.45 933.103,1467.55 
  "/>
<polyline clip-path="url(#clip950)" style="stroke:#000000; stroke-linecap:butt; stroke-linejoin:round; stroke-width:4; stroke-opacity:1; fill:none" points="
  1272.73,1486.45 1272.73,1467.55 
  "/>
<polyline clip-path="url(#clip950)" style="stroke:#000000; stroke-linecap:butt; stroke-linejoin:round; stroke-width:4; stroke-opacity:1; fill:none" points="
  1612.36,1486.45 1612.36,1467.55 
  "/>
<polyline clip-path="url(#clip950)" style="stroke:#000000; stroke-linecap:butt; stroke-linejoin:round; stroke-width:4; stroke-opacity:1; fill:none" points="
  1951.99,1486.45 1951.99,1467.55 
  "/>
<polyline clip-path="url(#clip950)" style="stroke:#000000; stroke-linecap:butt; stroke-linejoin:round; stroke-width:4; stroke-opacity:1; fill:none" points="
  2291.62,1486.45 2291.62,1467.55 
  "/>
<path clip-path="url(#clip950)" d="M223.31 1532.02 L252.986 1532.02 L252.986 1535.95 L223.31 1535.95 L223.31 1532.02 Z" fill="#000000" fill-rule="evenodd" fill-opacity="1" /><path clip-path="url(#clip950)" d="M277.245 1530.21 Q280.602 1530.93 282.477 1533.2 Q284.375 1535.47 284.375 1538.8 Q284.375 1543.92 280.856 1546.72 Q277.338 1549.52 270.856 1549.52 Q268.68 1549.52 266.366 1549.08 Q264.074 1548.66 261.62 1547.81 L261.62 1543.29 Q263.565 1544.43 265.88 1545.01 Q268.194 1545.58 270.717 1545.58 Q275.116 1545.58 277.407 1543.85 Q279.722 1542.11 279.722 1538.8 Q279.722 1535.75 277.569 1534.03 Q275.44 1532.3 271.62 1532.3 L267.592 1532.3 L267.592 1528.45 L271.805 1528.45 Q275.254 1528.45 277.083 1527.09 Q278.912 1525.7 278.912 1523.11 Q278.912 1520.45 277.014 1519.03 Q275.139 1517.6 271.62 1517.6 Q269.699 1517.6 267.5 1518.01 Q265.301 1518.43 262.662 1519.31 L262.662 1515.14 Q265.324 1514.4 267.639 1514.03 Q269.977 1513.66 272.037 1513.66 Q277.361 1513.66 280.463 1516.09 Q283.565 1518.5 283.565 1522.62 Q283.565 1525.49 281.921 1527.48 Q280.278 1529.45 277.245 1530.21 Z" fill="#000000" fill-rule="evenodd" fill-opacity="1" /><path clip-path="url(#clip950)" d="M563.415 1532.02 L593.091 1532.02 L593.091 1535.95 L563.415 1535.95 L563.415 1532.02 Z" fill="#000000" fill-rule="evenodd" fill-opacity="1" /><path clip-path="url(#clip950)" d="M607.211 1544.91 L623.53 1544.91 L623.53 1548.85 L601.586 1548.85 L601.586 1544.91 Q604.248 1542.16 608.831 1537.53 Q613.438 1532.88 614.618 1531.53 Q616.864 1529.01 617.743 1527.27 Q618.646 1525.51 618.646 1523.82 Q618.646 1521.07 616.702 1519.33 Q614.78 1517.6 611.678 1517.6 Q609.479 1517.6 607.026 1518.36 Q604.595 1519.13 601.817 1520.68 L601.817 1515.95 Q604.641 1514.82 607.095 1514.24 Q609.549 1513.66 611.586 1513.66 Q616.956 1513.66 620.151 1516.35 Q623.345 1519.03 623.345 1523.52 Q623.345 1525.65 622.535 1527.57 Q621.748 1529.47 619.641 1532.07 Q619.063 1532.74 615.961 1535.95 Q612.859 1539.15 607.211 1544.91 Z" fill="#000000" fill-rule="evenodd" fill-opacity="1" /><path clip-path="url(#clip950)" d="M902.86 1532.02 L932.535 1532.02 L932.535 1535.95 L902.86 1535.95 L902.86 1532.02 Z" fill="#000000" fill-rule="evenodd" fill-opacity="1" /><path clip-path="url(#clip950)" d="M943.438 1544.91 L951.077 1544.91 L951.077 1518.55 L942.767 1520.21 L942.767 1515.95 L951.031 1514.29 L955.707 1514.29 L955.707 1544.91 L963.345 1544.91 L963.345 1548.85 L943.438 1548.85 L943.438 1544.91 Z" fill="#000000" fill-rule="evenodd" fill-opacity="1" /><path clip-path="url(#clip950)" d="M1272.73 1517.37 Q1269.12 1517.37 1267.29 1520.93 Q1265.49 1524.47 1265.49 1531.6 Q1265.49 1538.71 1267.29 1542.27 Q1269.12 1545.82 1272.73 1545.82 Q1276.37 1545.82 1278.17 1542.27 Q1280 1538.71 1280 1531.6 Q1280 1524.47 1278.17 1520.93 Q1276.37 1517.37 1272.73 1517.37 M1272.73 1513.66 Q1278.54 1513.66 1281.6 1518.27 Q1284.68 1522.85 1284.68 1531.6 Q1284.68 1540.33 1281.6 1544.94 Q1278.54 1549.52 1272.73 1549.52 Q1266.92 1549.52 1263.84 1544.94 Q1260.79 1540.33 1260.79 1531.6 Q1260.79 1522.85 1263.84 1518.27 Q1266.92 1513.66 1272.73 1513.66 Z" fill="#000000" fill-rule="evenodd" fill-opacity="1" /><path clip-path="url(#clip950)" d="M1602.74 1544.91 L1610.38 1544.91 L1610.38 1518.55 L1602.07 1520.21 L1602.07 1515.95 L1610.34 1514.29 L1615.01 1514.29 L1615.01 1544.91 L1622.65 1544.91 L1622.65 1548.85 L1602.74 1548.85 L1602.74 1544.91 Z" fill="#000000" fill-rule="evenodd" fill-opacity="1" /><path clip-path="url(#clip950)" d="M1946.65 1544.91 L1962.96 1544.91 L1962.96 1548.85 L1941.02 1548.85 L1941.02 1544.91 Q1943.68 1542.16 1948.27 1537.53 Q1952.87 1532.88 1954.05 1531.53 Q1956.3 1529.01 1957.18 1527.27 Q1958.08 1525.51 1958.08 1523.82 Q1958.08 1521.07 1956.14 1519.33 Q1954.21 1517.6 1951.11 1517.6 Q1948.91 1517.6 1946.46 1518.36 Q1944.03 1519.13 1941.25 1520.68 L1941.25 1515.95 Q1944.08 1514.82 1946.53 1514.24 Q1948.98 1513.66 1951.02 1513.66 Q1956.39 1513.66 1959.59 1516.35 Q1962.78 1519.03 1962.78 1523.52 Q1962.78 1525.65 1961.97 1527.57 Q1961.18 1529.47 1959.08 1532.07 Q1958.5 1532.74 1955.4 1535.95 Q1952.29 1539.15 1946.65 1544.91 Z" fill="#000000" fill-rule="evenodd" fill-opacity="1" /><path clip-path="url(#clip950)" d="M2295.87 1530.21 Q2299.23 1530.93 2301.1 1533.2 Q2303 1535.47 2303 1538.8 Q2303 1543.92 2299.48 1546.72 Q2295.96 1549.52 2289.48 1549.52 Q2287.31 1549.52 2284.99 1549.08 Q2282.7 1548.66 2280.25 1547.81 L2280.25 1543.29 Q2282.19 1544.43 2284.5 1545.01 Q2286.82 1545.58 2289.34 1545.58 Q2293.74 1545.58 2296.03 1543.85 Q2298.35 1542.11 2298.35 1538.8 Q2298.35 1535.75 2296.19 1534.03 Q2294.06 1532.3 2290.25 1532.3 L2286.22 1532.3 L2286.22 1528.45 L2290.43 1528.45 Q2293.88 1528.45 2295.71 1527.09 Q2297.54 1525.7 2297.54 1523.11 Q2297.54 1520.45 2295.64 1519.03 Q2293.76 1517.6 2290.25 1517.6 Q2288.32 1517.6 2286.12 1518.01 Q2283.93 1518.43 2281.29 1519.31 L2281.29 1515.14 Q2283.95 1514.4 2286.26 1514.03 Q2288.6 1513.66 2290.66 1513.66 Q2295.99 1513.66 2299.09 1516.09 Q2302.19 1518.5 2302.19 1522.62 Q2302.19 1525.49 2300.55 1527.48 Q2298.9 1529.45 2295.87 1530.21 Z" fill="#000000" fill-rule="evenodd" fill-opacity="1" /><polyline clip-path="url(#clip952)" style="stroke:#000000; stroke-linecap:butt; stroke-linejoin:round; stroke-width:2; stroke-opacity:0.1; fill:none" points="
  192.709,1396.88 2352.76,1396.88 
  "/>
<polyline clip-path="url(#clip952)" style="stroke:#000000; stroke-linecap:butt; stroke-linejoin:round; stroke-width:2; stroke-opacity:0.1; fill:none" points="
  192.709,1197.74 2352.76,1197.74 
  "/>
<polyline clip-path="url(#clip952)" style="stroke:#000000; stroke-linecap:butt; stroke-linejoin:round; stroke-width:2; stroke-opacity:0.1; fill:none" points="
  192.709,998.59 2352.76,998.59 
  "/>
<polyline clip-path="url(#clip952)" style="stroke:#000000; stroke-linecap:butt; stroke-linejoin:round; stroke-width:2; stroke-opacity:0.1; fill:none" points="
  192.709,799.444 2352.76,799.444 
  "/>
<polyline clip-path="url(#clip952)" style="stroke:#000000; stroke-linecap:butt; stroke-linejoin:round; stroke-width:2; stroke-opacity:0.1; fill:none" points="
  192.709,600.297 2352.76,600.297 
  "/>
<polyline clip-path="url(#clip952)" style="stroke:#000000; stroke-linecap:butt; stroke-linejoin:round; stroke-width:2; stroke-opacity:0.1; fill:none" points="
  192.709,401.151 2352.76,401.151 
  "/>
<polyline clip-path="url(#clip952)" style="stroke:#000000; stroke-linecap:butt; stroke-linejoin:round; stroke-width:2; stroke-opacity:0.1; fill:none" points="
  192.709,202.004 2352.76,202.004 
  "/>
<polyline clip-path="url(#clip950)" style="stroke:#000000; stroke-linecap:butt; stroke-linejoin:round; stroke-width:4; stroke-opacity:1; fill:none" points="
  192.709,1486.45 192.709,123.472 
  "/>
<polyline clip-path="url(#clip950)" style="stroke:#000000; stroke-linecap:butt; stroke-linejoin:round; stroke-width:4; stroke-opacity:1; fill:none" points="
  192.709,1396.88 211.607,1396.88 
  "/>
<polyline clip-path="url(#clip950)" style="stroke:#000000; stroke-linecap:butt; stroke-linejoin:round; stroke-width:4; stroke-opacity:1; fill:none" points="
  192.709,1197.74 211.607,1197.74 
  "/>
<polyline clip-path="url(#clip950)" style="stroke:#000000; stroke-linecap:butt; stroke-linejoin:round; stroke-width:4; stroke-opacity:1; fill:none" points="
  192.709,998.59 211.607,998.59 
  "/>
<polyline clip-path="url(#clip950)" style="stroke:#000000; stroke-linecap:butt; stroke-linejoin:round; stroke-width:4; stroke-opacity:1; fill:none" points="
  192.709,799.444 211.607,799.444 
  "/>
<polyline clip-path="url(#clip950)" style="stroke:#000000; stroke-linecap:butt; stroke-linejoin:round; stroke-width:4; stroke-opacity:1; fill:none" points="
  192.709,600.297 211.607,600.297 
  "/>
<polyline clip-path="url(#clip950)" style="stroke:#000000; stroke-linecap:butt; stroke-linejoin:round; stroke-width:4; stroke-opacity:1; fill:none" points="
  192.709,401.151 211.607,401.151 
  "/>
<polyline clip-path="url(#clip950)" style="stroke:#000000; stroke-linecap:butt; stroke-linejoin:round; stroke-width:4; stroke-opacity:1; fill:none" points="
  192.709,202.004 211.607,202.004 
  "/>
<path clip-path="url(#clip950)" d="M51.3625 1397.33 L81.0383 1397.33 L81.0383 1401.27 L51.3625 1401.27 L51.3625 1397.33 Z" fill="#000000" fill-rule="evenodd" fill-opacity="1" /><path clip-path="url(#clip950)" d="M101.131 1382.68 Q97.5197 1382.68 95.691 1386.25 Q93.8854 1389.79 93.8854 1396.92 Q93.8854 1404.02 95.691 1407.59 Q97.5197 1411.13 101.131 1411.13 Q104.765 1411.13 106.571 1407.59 Q108.399 1404.02 108.399 1396.92 Q108.399 1389.79 106.571 1386.25 Q104.765 1382.68 101.131 1382.68 M101.131 1378.98 Q106.941 1378.98 109.996 1383.58 Q113.075 1388.17 113.075 1396.92 Q113.075 1405.64 109.996 1410.25 Q106.941 1414.83 101.131 1414.83 Q95.3206 1414.83 92.2419 1410.25 Q89.1864 1405.64 89.1864 1396.92 Q89.1864 1388.17 92.2419 1383.58 Q95.3206 1378.98 101.131 1378.98 Z" fill="#000000" fill-rule="evenodd" fill-opacity="1" /><path clip-path="url(#clip950)" d="M121.293 1408.28 L126.177 1408.28 L126.177 1414.16 L121.293 1414.16 L121.293 1408.28 Z" fill="#000000" fill-rule="evenodd" fill-opacity="1" /><path clip-path="url(#clip950)" d="M140.39 1410.23 L156.709 1410.23 L156.709 1414.16 L134.765 1414.16 L134.765 1410.23 Q137.427 1407.47 142.01 1402.84 Q146.617 1398.19 147.797 1396.85 Q150.043 1394.33 150.922 1392.59 Q151.825 1390.83 151.825 1389.14 Q151.825 1386.39 149.88 1384.65 Q147.959 1382.91 144.857 1382.91 Q142.658 1382.91 140.205 1383.68 Q137.774 1384.44 134.996 1385.99 L134.996 1381.27 Q137.82 1380.14 140.274 1379.56 Q142.728 1378.98 144.765 1378.98 Q150.135 1378.98 153.33 1381.66 Q156.524 1384.35 156.524 1388.84 Q156.524 1390.97 155.714 1392.89 Q154.927 1394.79 152.82 1397.38 Q152.242 1398.05 149.14 1401.27 Q146.038 1404.46 140.39 1410.23 Z" fill="#000000" fill-rule="evenodd" fill-opacity="1" /><path clip-path="url(#clip950)" d="M50.9921 1198.19 L80.6679 1198.19 L80.6679 1202.12 L50.9921 1202.12 L50.9921 1198.19 Z" fill="#000000" fill-rule="evenodd" fill-opacity="1" /><path clip-path="url(#clip950)" d="M100.76 1183.54 Q97.1493 1183.54 95.3206 1187.1 Q93.515 1190.64 93.515 1197.77 Q93.515 1204.88 95.3206 1208.44 Q97.1493 1211.98 100.76 1211.98 Q104.395 1211.98 106.2 1208.44 Q108.029 1204.88 108.029 1197.77 Q108.029 1190.64 106.2 1187.1 Q104.395 1183.54 100.76 1183.54 M100.76 1179.83 Q106.571 1179.83 109.626 1184.44 Q112.705 1189.02 112.705 1197.77 Q112.705 1206.5 109.626 1211.1 Q106.571 1215.69 100.76 1215.69 Q94.9502 1215.69 91.8715 1211.1 Q88.816 1206.5 88.816 1197.77 Q88.816 1189.02 91.8715 1184.44 Q94.9502 1179.83 100.76 1179.83 Z" fill="#000000" fill-rule="evenodd" fill-opacity="1" /><path clip-path="url(#clip950)" d="M120.922 1209.14 L125.807 1209.14 L125.807 1215.02 L120.922 1215.02 L120.922 1209.14 Z" fill="#000000" fill-rule="evenodd" fill-opacity="1" /><path clip-path="url(#clip950)" d="M136.802 1211.08 L144.441 1211.08 L144.441 1184.72 L136.131 1186.38 L136.131 1182.12 L144.394 1180.46 L149.07 1180.46 L149.07 1211.08 L156.709 1211.08 L156.709 1215.02 L136.802 1215.02 L136.802 1211.08 Z" fill="#000000" fill-rule="evenodd" fill-opacity="1" /><path clip-path="url(#clip950)" d="M99.5335 984.389 Q95.9224 984.389 94.0937 987.954 Q92.2882 991.495 92.2882 998.625 Q92.2882 1005.73 94.0937 1009.3 Q95.9224 1012.84 99.5335 1012.84 Q103.168 1012.84 104.973 1009.3 Q106.802 1005.73 106.802 998.625 Q106.802 991.495 104.973 987.954 Q103.168 984.389 99.5335 984.389 M99.5335 980.685 Q105.344 980.685 108.399 985.292 Q111.478 989.875 111.478 998.625 Q111.478 1007.35 108.399 1011.96 Q105.344 1016.54 99.5335 1016.54 Q93.7234 1016.54 90.6447 1011.96 Q87.5892 1007.35 87.5892 998.625 Q87.5892 989.875 90.6447 985.292 Q93.7234 980.685 99.5335 980.685 Z" fill="#000000" fill-rule="evenodd" fill-opacity="1" /><path clip-path="url(#clip950)" d="M119.695 1009.99 L124.58 1009.99 L124.58 1015.87 L119.695 1015.87 L119.695 1009.99 Z" fill="#000000" fill-rule="evenodd" fill-opacity="1" /><path clip-path="url(#clip950)" d="M144.765 984.389 Q141.154 984.389 139.325 987.954 Q137.519 991.495 137.519 998.625 Q137.519 1005.73 139.325 1009.3 Q141.154 1012.84 144.765 1012.84 Q148.399 1012.84 150.205 1009.3 Q152.033 1005.73 152.033 998.625 Q152.033 991.495 150.205 987.954 Q148.399 984.389 144.765 984.389 M144.765 980.685 Q150.575 980.685 153.63 985.292 Q156.709 989.875 156.709 998.625 Q156.709 1007.35 153.63 1011.96 Q150.575 1016.54 144.765 1016.54 Q138.955 1016.54 135.876 1011.96 Q132.82 1007.35 132.82 998.625 Q132.82 989.875 135.876 985.292 Q138.955 980.685 144.765 980.685 Z" fill="#000000" fill-rule="evenodd" fill-opacity="1" /><path clip-path="url(#clip950)" d="M100.76 785.242 Q97.1493 785.242 95.3206 788.807 Q93.515 792.349 93.515 799.478 Q93.515 806.585 95.3206 810.15 Q97.1493 813.691 100.76 813.691 Q104.395 813.691 106.2 810.15 Q108.029 806.585 108.029 799.478 Q108.029 792.349 106.2 788.807 Q104.395 785.242 100.76 785.242 M100.76 781.539 Q106.571 781.539 109.626 786.145 Q112.705 790.729 112.705 799.478 Q112.705 808.205 109.626 812.812 Q106.571 817.395 100.76 817.395 Q94.9502 817.395 91.8715 812.812 Q88.816 808.205 88.816 799.478 Q88.816 790.729 91.8715 786.145 Q94.9502 781.539 100.76 781.539 Z" fill="#000000" fill-rule="evenodd" fill-opacity="1" /><path clip-path="url(#clip950)" d="M120.922 810.844 L125.807 810.844 L125.807 816.724 L120.922 816.724 L120.922 810.844 Z" fill="#000000" fill-rule="evenodd" fill-opacity="1" /><path clip-path="url(#clip950)" d="M136.802 812.789 L144.441 812.789 L144.441 786.423 L136.131 788.09 L136.131 783.83 L144.394 782.164 L149.07 782.164 L149.07 812.789 L156.709 812.789 L156.709 816.724 L136.802 816.724 L136.802 812.789 Z" fill="#000000" fill-rule="evenodd" fill-opacity="1" /><path clip-path="url(#clip950)" d="M101.131 586.096 Q97.5197 586.096 95.691 589.661 Q93.8854 593.202 93.8854 600.332 Q93.8854 607.438 95.691 611.003 Q97.5197 614.545 101.131 614.545 Q104.765 614.545 106.571 611.003 Q108.399 607.438 108.399 600.332 Q108.399 593.202 106.571 589.661 Q104.765 586.096 101.131 586.096 M101.131 582.392 Q106.941 582.392 109.996 586.999 Q113.075 591.582 113.075 600.332 Q113.075 609.059 109.996 613.665 Q106.941 618.249 101.131 618.249 Q95.3206 618.249 92.2419 613.665 Q89.1864 609.059 89.1864 600.332 Q89.1864 591.582 92.2419 586.999 Q95.3206 582.392 101.131 582.392 Z" fill="#000000" fill-rule="evenodd" fill-opacity="1" /><path clip-path="url(#clip950)" d="M121.293 611.698 L126.177 611.698 L126.177 617.577 L121.293 617.577 L121.293 611.698 Z" fill="#000000" fill-rule="evenodd" fill-opacity="1" /><path clip-path="url(#clip950)" d="M140.39 613.642 L156.709 613.642 L156.709 617.577 L134.765 617.577 L134.765 613.642 Q137.427 610.888 142.01 606.258 Q146.617 601.605 147.797 600.263 Q150.043 597.739 150.922 596.003 Q151.825 594.244 151.825 592.554 Q151.825 589.8 149.88 588.064 Q147.959 586.327 144.857 586.327 Q142.658 586.327 140.205 587.091 Q137.774 587.855 134.996 589.406 L134.996 584.684 Q137.82 583.55 140.274 582.971 Q142.728 582.392 144.765 582.392 Q150.135 582.392 153.33 585.077 Q156.524 587.763 156.524 592.253 Q156.524 594.383 155.714 596.304 Q154.927 598.202 152.82 600.795 Q152.242 601.466 149.14 604.684 Q146.038 607.878 140.39 613.642 Z" fill="#000000" fill-rule="evenodd" fill-opacity="1" /><path clip-path="url(#clip950)" d="M100.182 386.95 Q96.5706 386.95 94.7419 390.514 Q92.9363 394.056 92.9363 401.186 Q92.9363 408.292 94.7419 411.857 Q96.5706 415.398 100.182 415.398 Q103.816 415.398 105.621 411.857 Q107.45 408.292 107.45 401.186 Q107.45 394.056 105.621 390.514 Q103.816 386.95 100.182 386.95 M100.182 383.246 Q105.992 383.246 109.047 387.852 Q112.126 392.436 112.126 401.186 Q112.126 409.912 109.047 414.519 Q105.992 419.102 100.182 419.102 Q94.3715 419.102 91.2928 414.519 Q88.2373 409.912 88.2373 401.186 Q88.2373 392.436 91.2928 387.852 Q94.3715 383.246 100.182 383.246 Z" fill="#000000" fill-rule="evenodd" fill-opacity="1" /><path clip-path="url(#clip950)" d="M120.344 412.551 L125.228 412.551 L125.228 418.431 L120.344 418.431 L120.344 412.551 Z" fill="#000000" fill-rule="evenodd" fill-opacity="1" /><path clip-path="url(#clip950)" d="M149.58 399.797 Q152.936 400.514 154.811 402.783 Q156.709 405.051 156.709 408.385 Q156.709 413.5 153.191 416.301 Q149.672 419.102 143.191 419.102 Q141.015 419.102 138.7 418.662 Q136.408 418.246 133.955 417.389 L133.955 412.875 Q135.899 414.01 138.214 414.588 Q140.529 415.167 143.052 415.167 Q147.45 415.167 149.742 413.431 Q152.056 411.695 152.056 408.385 Q152.056 405.329 149.904 403.616 Q147.774 401.88 143.955 401.88 L139.927 401.88 L139.927 398.037 L144.14 398.037 Q147.589 398.037 149.418 396.672 Q151.246 395.283 151.246 392.69 Q151.246 390.028 149.348 388.616 Q147.473 387.181 143.955 387.181 Q142.033 387.181 139.834 387.598 Q137.635 388.014 134.996 388.894 L134.996 384.727 Q137.658 383.987 139.973 383.616 Q142.311 383.246 144.371 383.246 Q149.695 383.246 152.797 385.676 Q155.899 388.084 155.899 392.204 Q155.899 395.074 154.255 397.065 Q152.612 399.033 149.58 399.797 Z" fill="#000000" fill-rule="evenodd" fill-opacity="1" /><path clip-path="url(#clip950)" d="M99.0474 187.803 Q95.4363 187.803 93.6076 191.368 Q91.8021 194.909 91.8021 202.039 Q91.8021 209.146 93.6076 212.71 Q95.4363 216.252 99.0474 216.252 Q102.682 216.252 104.487 212.71 Q106.316 209.146 106.316 202.039 Q106.316 194.909 104.487 191.368 Q102.682 187.803 99.0474 187.803 M99.0474 184.099 Q104.858 184.099 107.913 188.706 Q110.992 193.289 110.992 202.039 Q110.992 210.766 107.913 215.372 Q104.858 219.956 99.0474 219.956 Q93.2373 219.956 90.1586 215.372 Q87.103 210.766 87.103 202.039 Q87.103 193.289 90.1586 188.706 Q93.2373 184.099 99.0474 184.099 Z" fill="#000000" fill-rule="evenodd" fill-opacity="1" /><path clip-path="url(#clip950)" d="M119.209 213.405 L124.094 213.405 L124.094 219.284 L119.209 219.284 L119.209 213.405 Z" fill="#000000" fill-rule="evenodd" fill-opacity="1" /><path clip-path="url(#clip950)" d="M147.126 188.798 L135.32 207.247 L147.126 207.247 L147.126 188.798 M145.899 184.724 L151.779 184.724 L151.779 207.247 L156.709 207.247 L156.709 211.136 L151.779 211.136 L151.779 219.284 L147.126 219.284 L147.126 211.136 L131.524 211.136 L131.524 206.622 L145.899 184.724 Z" fill="#000000" fill-rule="evenodd" fill-opacity="1" /><path clip-path="url(#clip950)" d="M650.493 12.096 L658.676 12.096 L658.676 65.6895 L688.126 65.6895 L688.126 72.576 L650.493 72.576 L650.493 12.096 Z" fill="#000000" fill-rule="evenodd" fill-opacity="1" /><path clip-path="url(#clip950)" d="M712.513 32.4315 Q706.517 32.4315 703.034 37.1306 Q699.55 41.7891 699.55 49.9314 Q699.55 58.0738 702.993 62.7728 Q706.477 67.4314 712.513 67.4314 Q718.468 67.4314 721.951 62.7323 Q725.435 58.0333 725.435 49.9314 Q725.435 41.8701 721.951 37.1711 Q718.468 32.4315 712.513 32.4315 M712.513 26.1121 Q722.235 26.1121 727.785 32.4315 Q733.334 38.7509 733.334 49.9314 Q733.334 61.0714 727.785 67.4314 Q722.235 73.7508 712.513 73.7508 Q702.75 73.7508 697.2 67.4314 Q691.691 61.0714 691.691 49.9314 Q691.691 38.7509 697.2 32.4315 Q702.75 26.1121 712.513 26.1121 Z" fill="#000000" fill-rule="evenodd" fill-opacity="1" /><path clip-path="url(#clip950)" d="M774.613 28.5427 L774.613 35.5912 Q771.453 33.9709 768.051 33.1607 Q764.648 32.3505 761.002 32.3505 Q755.452 32.3505 752.657 34.0519 Q749.903 35.7533 749.903 39.156 Q749.903 41.7486 751.888 43.2475 Q753.872 44.7058 759.868 46.0426 L762.42 46.6097 Q770.36 48.3111 773.681 51.4303 Q777.044 54.509 777.044 60.0587 Q777.044 66.3781 772.021 70.0644 Q767.038 73.7508 758.288 73.7508 Q754.642 73.7508 750.672 73.0216 Q746.743 72.3329 742.368 70.9151 L742.368 63.2184 Q746.5 65.3654 750.51 66.4591 Q754.521 67.5124 758.45 67.5124 Q763.716 67.5124 766.552 65.73 Q769.387 63.9071 769.387 60.6258 Q769.387 57.5877 767.321 55.9673 Q765.296 54.3469 758.369 52.8481 L755.776 52.2405 Q748.849 50.7821 745.771 47.7845 Q742.692 44.7463 742.692 39.4801 Q742.692 33.0797 747.229 29.5959 Q751.766 26.1121 760.111 26.1121 Q764.243 26.1121 767.889 26.7198 Q771.534 27.3274 774.613 28.5427 Z" fill="#000000" fill-rule="evenodd" fill-opacity="1" /><path clip-path="url(#clip950)" d="M817.836 28.5427 L817.836 35.5912 Q814.677 33.9709 811.274 33.1607 Q807.871 32.3505 804.225 32.3505 Q798.675 32.3505 795.88 34.0519 Q793.126 35.7533 793.126 39.156 Q793.126 41.7486 795.111 43.2475 Q797.096 44.7058 803.091 46.0426 L805.643 46.6097 Q813.583 48.3111 816.905 51.4303 Q820.267 54.509 820.267 60.0587 Q820.267 66.3781 815.244 70.0644 Q810.261 73.7508 801.511 73.7508 Q797.865 73.7508 793.895 73.0216 Q789.966 72.3329 785.591 70.9151 L785.591 63.2184 Q789.723 65.3654 793.733 66.4591 Q797.744 67.5124 801.673 67.5124 Q806.939 67.5124 809.775 65.73 Q812.611 63.9071 812.611 60.6258 Q812.611 57.5877 810.545 55.9673 Q808.519 54.3469 801.592 52.8481 L799 52.2405 Q792.072 50.7821 788.994 47.7845 Q785.915 44.7463 785.915 39.4801 Q785.915 33.0797 790.452 29.5959 Q794.989 26.1121 803.334 26.1121 Q807.466 26.1121 811.112 26.7198 Q814.758 27.3274 817.836 28.5427 Z" fill="#000000" fill-rule="evenodd" fill-opacity="1" /><path clip-path="url(#clip950)" d="M859.48 34.9026 L911.412 34.9026 L911.412 41.7081 L859.48 41.7081 L859.48 34.9026 M859.48 51.4303 L911.412 51.4303 L911.412 58.3168 L859.48 58.3168 L859.48 51.4303 Z" fill="#000000" fill-rule="evenodd" fill-opacity="1" /><path clip-path="url(#clip950)" d="M950.625 46.5287 L972.459 46.5287 L972.459 53.1722 L950.625 53.1722 L950.625 46.5287 Z" fill="#000000" fill-rule="evenodd" fill-opacity="1" /><path clip-path="url(#clip950)" d="M986.799 65.6895 L1000.17 65.6895 L1000.17 19.5497 L985.625 22.4663 L985.625 15.0127 L1000.09 12.096 L1008.27 12.096 L1008.27 65.6895 L1021.64 65.6895 L1021.64 72.576 L986.799 72.576 L986.799 65.6895 Z" fill="#000000" fill-rule="evenodd" fill-opacity="1" /><path clip-path="url(#clip950)" d="M1039.58 65.6895 L1052.95 65.6895 L1052.95 19.5497 L1038.41 22.4663 L1038.41 15.0127 L1052.87 12.096 L1061.05 12.096 L1061.05 65.6895 L1074.42 65.6895 L1074.42 72.576 L1039.58 72.576 L1039.58 65.6895 Z" fill="#000000" fill-rule="evenodd" fill-opacity="1" /><path clip-path="url(#clip950)" d="M1091.03 12.096 L1123.15 12.096 L1123.15 18.9825 L1098.52 18.9825 L1098.52 33.8088 Q1100.31 33.2012 1102.09 32.9176 Q1103.87 32.5936 1105.65 32.5936 Q1115.78 32.5936 1121.69 38.1433 Q1127.61 43.6931 1127.61 53.1722 Q1127.61 62.9348 1121.53 68.3631 Q1115.46 73.7508 1104.4 73.7508 Q1100.59 73.7508 1096.62 73.1026 Q1092.69 72.4545 1088.48 71.1582 L1088.48 62.9348 Q1092.12 64.9198 1096.01 65.892 Q1099.9 66.8642 1104.24 66.8642 Q1111.24 66.8642 1115.33 63.1779 Q1119.43 59.4916 1119.43 53.1722 Q1119.43 46.8528 1115.33 43.1664 Q1111.24 39.4801 1104.24 39.4801 Q1100.95 39.4801 1097.67 40.2093 Q1094.43 40.9384 1091.03 42.4778 L1091.03 12.096 Z" fill="#000000" fill-rule="evenodd" fill-opacity="1" /><path clip-path="url(#clip950)" d="M1143.73 62.2867 L1152.28 62.2867 L1152.28 72.576 L1143.73 72.576 L1143.73 62.2867 Z" fill="#000000" fill-rule="evenodd" fill-opacity="1" /><path clip-path="url(#clip950)" d="M1188.62 39.075 Q1183.11 39.075 1179.87 42.8424 Q1176.67 46.6097 1176.67 53.1722 Q1176.67 59.6941 1179.87 63.502 Q1183.11 67.2693 1188.62 67.2693 Q1194.12 67.2693 1197.32 63.502 Q1200.57 59.6941 1200.57 53.1722 Q1200.57 46.6097 1197.32 42.8424 Q1194.12 39.075 1188.62 39.075 M1204.86 13.4328 L1204.86 20.8865 Q1201.78 19.4281 1198.62 18.6585 Q1195.5 17.8888 1192.42 17.8888 Q1184.32 17.8888 1180.03 23.3575 Q1175.77 28.8262 1175.17 39.8852 Q1177.56 36.3609 1181.16 34.4975 Q1184.77 32.5936 1189.1 32.5936 Q1198.22 32.5936 1203.48 38.1433 Q1208.79 43.6525 1208.79 53.1722 Q1208.79 62.4892 1203.28 68.12 Q1197.77 73.7508 1188.62 73.7508 Q1178.12 73.7508 1172.57 65.73 Q1167.02 57.6687 1167.02 42.3968 Q1167.02 28.0566 1173.83 19.5497 Q1180.64 11.0023 1192.1 11.0023 Q1195.18 11.0023 1198.3 11.6099 Q1201.46 12.2175 1204.86 13.4328 Z" fill="#000000" fill-rule="evenodd" fill-opacity="1" /><path clip-path="url(#clip950)" d="M1223.13 71.3202 L1223.13 63.8666 Q1226.21 65.3249 1229.37 66.0946 Q1232.53 66.8642 1235.57 66.8642 Q1243.67 66.8642 1247.92 61.436 Q1252.21 55.9673 1252.82 44.8678 Q1250.47 48.3516 1246.87 50.215 Q1243.26 52.0784 1238.89 52.0784 Q1229.81 52.0784 1224.51 46.6097 Q1219.24 41.1005 1219.24 31.5808 Q1219.24 22.2638 1224.75 16.633 Q1230.26 11.0023 1239.41 11.0023 Q1249.91 11.0023 1255.41 19.0636 Q1260.96 27.0843 1260.96 42.3968 Q1260.96 56.6965 1254.16 65.2439 Q1247.39 73.7508 1235.93 73.7508 Q1232.85 73.7508 1229.69 73.1431 Q1226.53 72.5355 1223.13 71.3202 M1239.41 45.678 Q1244.92 45.678 1248.12 41.9107 Q1251.36 38.1433 1251.36 31.5808 Q1251.36 25.0589 1248.12 21.2916 Q1244.92 17.4837 1239.41 17.4837 Q1233.9 17.4837 1230.66 21.2916 Q1227.46 25.0589 1227.46 31.5808 Q1227.46 38.1433 1230.66 41.9107 Q1233.9 45.678 1239.41 45.678 Z" fill="#000000" fill-rule="evenodd" fill-opacity="1" /><path clip-path="url(#clip950)" d="M1282.72 65.6895 L1311.28 65.6895 L1311.28 72.576 L1272.87 72.576 L1272.87 65.6895 Q1277.53 60.8689 1285.55 52.7671 Q1293.61 44.6248 1295.68 42.2752 Q1299.61 37.8598 1301.15 34.8216 Q1302.73 31.7429 1302.73 28.7857 Q1302.73 23.9651 1299.33 20.927 Q1295.96 17.8888 1290.54 17.8888 Q1286.69 17.8888 1282.39 19.2256 Q1278.14 20.5624 1273.28 23.2765 L1273.28 15.0127 Q1278.22 13.0277 1282.52 12.015 Q1286.81 11.0023 1290.37 11.0023 Q1299.77 11.0023 1305.36 15.7013 Q1310.95 20.4004 1310.95 28.2591 Q1310.95 31.9859 1309.53 35.3482 Q1308.16 38.6699 1304.47 43.2069 Q1303.46 44.3817 1298.03 50.0125 Q1292.6 55.6027 1282.72 65.6895 Z" fill="#000000" fill-rule="evenodd" fill-opacity="1" /><path clip-path="url(#clip950)" d="M1350.94 19.2256 L1330.28 51.5113 L1350.94 51.5113 L1350.94 19.2256 M1348.79 12.096 L1359.08 12.096 L1359.08 51.5113 L1367.71 51.5113 L1367.71 58.3168 L1359.08 58.3168 L1359.08 72.576 L1350.94 72.576 L1350.94 58.3168 L1323.63 58.3168 L1323.63 50.4176 L1348.79 12.096 Z" fill="#000000" fill-rule="evenodd" fill-opacity="1" /><path clip-path="url(#clip950)" d="M1381.48 71.3202 L1381.48 63.8666 Q1384.56 65.3249 1387.72 66.0946 Q1390.88 66.8642 1393.92 66.8642 Q1402.02 66.8642 1406.27 61.436 Q1410.56 55.9673 1411.17 44.8678 Q1408.82 48.3516 1405.22 50.215 Q1401.61 52.0784 1397.24 52.0784 Q1388.16 52.0784 1382.86 46.6097 Q1377.59 41.1005 1377.59 31.5808 Q1377.59 22.2638 1383.1 16.633 Q1388.61 11.0023 1397.76 11.0023 Q1408.26 11.0023 1413.76 19.0636 Q1419.31 27.0843 1419.31 42.3968 Q1419.31 56.6965 1412.51 65.2439 Q1405.74 73.7508 1394.28 73.7508 Q1391.2 73.7508 1388.04 73.1431 Q1384.88 72.5355 1381.48 71.3202 M1397.76 45.678 Q1403.27 45.678 1406.47 41.9107 Q1409.71 38.1433 1409.71 31.5808 Q1409.71 25.0589 1406.47 21.2916 Q1403.27 17.4837 1397.76 17.4837 Q1392.25 17.4837 1389.01 21.2916 Q1385.81 25.0589 1385.81 31.5808 Q1385.81 38.1433 1389.01 41.9107 Q1392.25 45.678 1397.76 45.678 Z" fill="#000000" fill-rule="evenodd" fill-opacity="1" /><path clip-path="url(#clip950)" d="M1451.52 17.4837 Q1445.2 17.4837 1442 23.7221 Q1438.84 29.92 1438.84 42.3968 Q1438.84 54.833 1442 61.0714 Q1445.2 67.2693 1451.52 67.2693 Q1457.88 67.2693 1461.04 61.0714 Q1464.24 54.833 1464.24 42.3968 Q1464.24 29.92 1461.04 23.7221 Q1457.88 17.4837 1451.52 17.4837 M1451.52 11.0023 Q1461.69 11.0023 1467.03 19.0636 Q1472.42 27.0843 1472.42 42.3968 Q1472.42 57.6687 1467.03 65.73 Q1461.69 73.7508 1451.52 73.7508 Q1441.35 73.7508 1435.96 65.73 Q1430.62 57.6687 1430.62 42.3968 Q1430.62 27.0843 1435.96 19.0636 Q1441.35 11.0023 1451.52 11.0023 Z" fill="#000000" fill-rule="evenodd" fill-opacity="1" /><path clip-path="url(#clip950)" d="M1488.22 65.6895 L1501.59 65.6895 L1501.59 19.5497 L1487.05 22.4663 L1487.05 15.0127 L1501.51 12.096 L1509.69 12.096 L1509.69 65.6895 L1523.06 65.6895 L1523.06 72.576 L1488.22 72.576 L1488.22 65.6895 Z" fill="#000000" fill-rule="evenodd" fill-opacity="1" /><path clip-path="url(#clip950)" d="M1539.67 12.096 L1571.79 12.096 L1571.79 18.9825 L1547.16 18.9825 L1547.16 33.8088 Q1548.94 33.2012 1550.73 32.9176 Q1552.51 32.5936 1554.29 32.5936 Q1564.42 32.5936 1570.33 38.1433 Q1576.25 43.6931 1576.25 53.1722 Q1576.25 62.9348 1570.17 68.3631 Q1564.09 73.7508 1553.03 73.7508 Q1549.23 73.7508 1545.26 73.1026 Q1541.33 72.4545 1537.11 71.1582 L1537.11 62.9348 Q1540.76 64.9198 1544.65 65.892 Q1548.54 66.8642 1552.87 66.8642 Q1559.88 66.8642 1563.97 63.1779 Q1568.06 59.4916 1568.06 53.1722 Q1568.06 46.8528 1563.97 43.1664 Q1559.88 39.4801 1552.87 39.4801 Q1549.59 39.4801 1546.31 40.2093 Q1543.07 40.9384 1539.67 42.4778 L1539.67 12.096 Z" fill="#000000" fill-rule="evenodd" fill-opacity="1" /><path clip-path="url(#clip950)" d="M1599.42 65.6895 L1627.98 65.6895 L1627.98 72.576 L1589.57 72.576 L1589.57 65.6895 Q1594.23 60.8689 1602.25 52.7671 Q1610.31 44.6248 1612.38 42.2752 Q1616.31 37.8598 1617.85 34.8216 Q1619.43 31.7429 1619.43 28.7857 Q1619.43 23.9651 1616.03 20.927 Q1612.66 17.8888 1607.24 17.8888 Q1603.39 17.8888 1599.09 19.2256 Q1594.84 20.5624 1589.98 23.2765 L1589.98 15.0127 Q1594.92 13.0277 1599.22 12.015 Q1603.51 11.0023 1607.07 11.0023 Q1616.47 11.0023 1622.06 15.7013 Q1627.65 20.4004 1627.65 28.2591 Q1627.65 31.9859 1626.23 35.3482 Q1624.86 38.6699 1621.17 43.2069 Q1620.16 44.3817 1614.73 50.0125 Q1609.3 55.6027 1599.42 65.6895 Z" fill="#000000" fill-rule="evenodd" fill-opacity="1" /><path clip-path="url(#clip950)" d="M1645.23 12.096 L1677.36 12.096 L1677.36 18.9825 L1652.73 18.9825 L1652.73 33.8088 Q1654.51 33.2012 1656.29 32.9176 Q1658.07 32.5936 1659.86 32.5936 Q1669.98 32.5936 1675.9 38.1433 Q1681.81 43.6931 1681.81 53.1722 Q1681.81 62.9348 1675.74 68.3631 Q1669.66 73.7508 1658.6 73.7508 Q1654.79 73.7508 1650.82 73.1026 Q1646.89 72.4545 1642.68 71.1582 L1642.68 62.9348 Q1646.33 64.9198 1650.22 65.892 Q1654.1 66.8642 1658.44 66.8642 Q1665.45 66.8642 1669.54 63.1779 Q1673.63 59.4916 1673.63 53.1722 Q1673.63 46.8528 1669.54 43.1664 Q1665.45 39.4801 1658.44 39.4801 Q1655.16 39.4801 1651.88 40.2093 Q1648.64 40.9384 1645.23 42.4778 L1645.23 12.096 Z" fill="#000000" fill-rule="evenodd" fill-opacity="1" /><path clip-path="url(#clip950)" d="M1715.44 43.8551 Q1709.6 43.8551 1706.24 46.9743 Q1702.92 50.0935 1702.92 55.5622 Q1702.92 61.0309 1706.24 64.1501 Q1709.6 67.2693 1715.44 67.2693 Q1721.27 67.2693 1724.63 64.1501 Q1727.99 60.9904 1727.99 55.5622 Q1727.99 50.0935 1724.63 46.9743 Q1721.31 43.8551 1715.44 43.8551 M1707.25 40.3713 Q1701.99 39.075 1699.03 35.4697 Q1696.11 31.8644 1696.11 26.6793 Q1696.11 19.4281 1701.26 15.2152 Q1706.44 11.0023 1715.44 11.0023 Q1724.47 11.0023 1729.61 15.2152 Q1734.76 19.4281 1734.76 26.6793 Q1734.76 31.8644 1731.8 35.4697 Q1728.88 39.075 1723.66 40.3713 Q1729.57 41.7486 1732.85 45.759 Q1736.18 49.7694 1736.18 55.5622 Q1736.18 64.3527 1730.79 69.0517 Q1725.44 73.7508 1715.44 73.7508 Q1705.43 73.7508 1700.04 69.0517 Q1694.69 64.3527 1694.69 55.5622 Q1694.69 49.7694 1698.02 45.759 Q1701.34 41.7486 1707.25 40.3713 M1704.26 27.4489 Q1704.26 32.148 1707.17 34.7811 Q1710.13 37.4142 1715.44 37.4142 Q1720.7 37.4142 1723.66 34.7811 Q1726.66 32.148 1726.66 27.4489 Q1726.66 22.7499 1723.66 20.1168 Q1720.7 17.4837 1715.44 17.4837 Q1710.13 17.4837 1707.17 20.1168 Q1704.26 22.7499 1704.26 27.4489 Z" fill="#000000" fill-rule="evenodd" fill-opacity="1" /><path clip-path="url(#clip950)" d="M1752.14 65.6895 L1765.5 65.6895 L1765.5 19.5497 L1750.96 22.4663 L1750.96 15.0127 L1765.42 12.096 L1773.61 12.096 L1773.61 65.6895 L1786.97 65.6895 L1786.97 72.576 L1752.14 72.576 L1752.14 65.6895 Z" fill="#000000" fill-rule="evenodd" fill-opacity="1" /><path clip-path="url(#clip950)" d="M1821 17.4837 Q1814.68 17.4837 1811.48 23.7221 Q1808.32 29.92 1808.32 42.3968 Q1808.32 54.833 1811.48 61.0714 Q1814.68 67.2693 1821 67.2693 Q1827.36 67.2693 1830.52 61.0714 Q1833.72 54.833 1833.72 42.3968 Q1833.72 29.92 1830.52 23.7221 Q1827.36 17.4837 1821 17.4837 M1821 11.0023 Q1831.17 11.0023 1836.52 19.0636 Q1841.9 27.0843 1841.9 42.3968 Q1841.9 57.6687 1836.52 65.73 Q1831.17 73.7508 1821 73.7508 Q1810.83 73.7508 1805.45 65.73 Q1800.1 57.6687 1800.1 42.3968 Q1800.1 27.0843 1805.45 19.0636 Q1810.83 11.0023 1821 11.0023 Z" fill="#000000" fill-rule="evenodd" fill-opacity="1" /><path clip-path="url(#clip950)" d="M1874.8 39.075 Q1869.29 39.075 1866.05 42.8424 Q1862.85 46.6097 1862.85 53.1722 Q1862.85 59.6941 1866.05 63.502 Q1869.29 67.2693 1874.8 67.2693 Q1880.31 67.2693 1883.51 63.502 Q1886.75 59.6941 1886.75 53.1722 Q1886.75 46.6097 1883.51 42.8424 Q1880.31 39.075 1874.8 39.075 M1891.04 13.4328 L1891.04 20.8865 Q1887.96 19.4281 1884.8 18.6585 Q1881.68 17.8888 1878.61 17.8888 Q1870.5 17.8888 1866.21 23.3575 Q1861.96 28.8262 1861.35 39.8852 Q1863.74 36.3609 1867.34 34.4975 Q1870.95 32.5936 1875.28 32.5936 Q1884.4 32.5936 1889.66 38.1433 Q1894.97 43.6525 1894.97 53.1722 Q1894.97 62.4892 1889.46 68.12 Q1883.95 73.7508 1874.8 73.7508 Q1864.31 73.7508 1858.76 65.73 Q1853.21 57.6687 1853.21 42.3968 Q1853.21 28.0566 1860.01 19.5497 Q1866.82 11.0023 1878.28 11.0023 Q1881.36 11.0023 1884.48 11.6099 Q1887.64 12.2175 1891.04 13.4328 Z" fill="#000000" fill-rule="evenodd" fill-opacity="1" /><polyline clip-path="url(#clip952)" style="stroke:#009af9; stroke-linecap:butt; stroke-linejoin:round; stroke-width:12; stroke-opacity:1; fill:none" points="
  253.843,998.59 264.083,1020.81 274.323,1013.9 284.563,972.844 294.803,999.929 305.043,1021.05 315.283,965.376 325.523,1034.72 335.763,960.752 346.003,1039.4 
  356.244,956.042 366.484,1034.18 376.724,987.391 386.964,970.259 397.204,1053.73 407.444,969.391 417.684,958.836 427.924,1057.38 438.164,1021.92 448.404,928.772 
  458.645,967.784 468.885,1067.67 479.125,1063.32 489.365,962.898 499.605,901.148 509.845,949.534 520.085,1053.22 530.325,1112.91 540.565,1080.91 550.805,985.484 
  561.046,892.922 571.286,857.385 581.526,894.117 591.766,981.738 602.006,1080.95 612.246,1154.64 622.486,1180.45 632.726,1154.08 642.966,1085.87 653.206,994.33 
  663.447,899.741 673.687,819.459 683.927,765.395 694.167,743.389 704.407,753.884 714.647,793.261 724.887,855.358 735.127,932.852 745.367,1018.34 755.607,1105.09 
  765.848,1187.48 776.088,1261.19 786.328,1323.18 796.568,1371.61 806.808,1405.67 817.048,1425.32 827.288,1431.18 837.528,1424.27 847.768,1405.91 858.008,1377.54 
  868.249,1340.69 878.489,1296.84 888.729,1247.43 898.969,1193.77 909.209,1137.06 919.449,1078.36 929.689,1018.6 939.929,958.595 950.169,899.022 960.409,840.459 
  970.65,783.382 980.89,728.182 991.13,675.177 1001.37,624.622 1011.61,576.718 1021.85,531.624 1032.09,489.469 1042.33,450.352 1052.57,414.358 1062.81,381.559 
  1073.05,352.026 1083.29,325.832 1093.53,303.059 1103.77,283.805 1114.01,268.191 1124.25,256.372 1134.49,248.542 1144.73,244.95 1154.97,245.912 1165.21,251.833 
  1175.45,263.229 1185.69,280.769 1195.93,305.317 1206.17,338.016 1216.41,380.393 1226.65,434.553 1236.89,503.513 1247.13,591.88 1257.37,707.606 1267.61,869.391 
  1277.85,869.391 1288.09,707.606 1298.33,591.88 1308.57,503.513 1318.81,434.553 1329.05,380.393 1339.29,338.016 1349.53,305.317 1359.77,280.769 1370.01,263.229 
  1380.25,251.833 1390.49,245.912 1400.73,244.95 1410.97,248.542 1421.21,256.372 1431.45,268.191 1441.69,283.805 1451.93,303.059 1462.17,325.832 1472.41,352.026 
  1482.65,381.559 1492.89,414.358 1503.13,450.352 1513.37,489.469 1523.61,531.624 1533.86,576.718 1544.1,624.622 1554.34,675.177 1564.58,728.182 1574.82,783.382 
  1585.06,840.459 1595.3,899.022 1605.54,958.595 1615.78,1018.6 1626.02,1078.36 1636.26,1137.06 1646.5,1193.77 1656.74,1247.43 1666.98,1296.84 1677.22,1340.69 
  1687.46,1377.54 1697.7,1405.91 1707.94,1424.27 1718.18,1431.18 1728.42,1425.32 1738.66,1405.67 1748.9,1371.61 1759.14,1323.18 1769.38,1261.19 1779.62,1187.48 
  1789.86,1105.09 1800.1,1018.34 1810.34,932.852 1820.58,855.358 1830.82,793.261 1841.06,753.884 1851.3,743.389 1861.54,765.395 1871.78,819.459 1882.02,899.741 
  1892.26,994.33 1902.5,1085.87 1912.74,1154.08 1922.98,1180.45 1933.22,1154.64 1943.46,1080.95 1953.7,981.738 1963.94,894.117 1974.18,857.385 1984.42,892.922 
  1994.66,985.484 2004.9,1080.91 2015.14,1112.91 2025.38,1053.22 2035.62,949.534 2045.86,901.148 2056.1,962.898 2066.34,1063.32 2076.58,1067.67 2086.82,967.784 
  2097.06,928.772 2107.3,1021.92 2117.54,1057.38 2127.78,958.836 2138.02,969.391 2148.26,1053.73 2158.5,970.259 2168.74,987.391 2178.98,1034.18 2189.22,956.042 
  2199.46,1039.4 2209.7,960.752 2219.94,1034.72 2230.18,965.376 2240.42,1021.05 2250.66,999.929 2260.9,972.844 2271.14,1013.9 2281.38,1020.81 2291.62,998.59 
  
  "/>
<circle clip-path="url(#clip952)" cx="1501.49" cy="406.233" r="14" fill="#e26f46" fill-rule="evenodd" fill-opacity="1" stroke="#000000" stroke-opacity="1" stroke-width="3.2"/>
<circle clip-path="url(#clip952)" cx="713.504" cy="818.036" r="14" fill="#e26f46" fill-rule="evenodd" fill-opacity="1" stroke="#000000" stroke-opacity="1" stroke-width="3.2"/>
<circle clip-path="url(#clip952)" cx="1848.6" cy="725.714" r="14" fill="#e26f46" fill-rule="evenodd" fill-opacity="1" stroke="#000000" stroke-opacity="1" stroke-width="3.2"/>
<circle clip-path="url(#clip952)" cx="1742.74" cy="1381.91" r="14" fill="#e26f46" fill-rule="evenodd" fill-opacity="1" stroke="#000000" stroke-opacity="1" stroke-width="3.2"/>
<circle clip-path="url(#clip952)" cx="1490.77" cy="376.06" r="14" fill="#e26f46" fill-rule="evenodd" fill-opacity="1" stroke="#000000" stroke-opacity="1" stroke-width="3.2"/>
<circle clip-path="url(#clip952)" cx="1861.38" cy="751.549" r="14" fill="#e26f46" fill-rule="evenodd" fill-opacity="1" stroke="#000000" stroke-opacity="1" stroke-width="3.2"/>
<circle clip-path="url(#clip952)" cx="873.726" cy="1325.74" r="14" fill="#e26f46" fill-rule="evenodd" fill-opacity="1" stroke="#000000" stroke-opacity="1" stroke-width="3.2"/>
<circle clip-path="url(#clip952)" cx="2065.58" cy="1043.28" r="14" fill="#e26f46" fill-rule="evenodd" fill-opacity="1" stroke="#000000" stroke-opacity="1" stroke-width="3.2"/>
<circle clip-path="url(#clip952)" cx="457.12" cy="915.603" r="14" fill="#e26f46" fill-rule="evenodd" fill-opacity="1" stroke="#000000" stroke-opacity="1" stroke-width="3.2"/>
<circle clip-path="url(#clip952)" cx="620.608" cy="1175.68" r="14" fill="#e26f46" fill-rule="evenodd" fill-opacity="1" stroke="#000000" stroke-opacity="1" stroke-width="3.2"/>
<circle clip-path="url(#clip952)" cx="1042.05" cy="442.969" r="14" fill="#e26f46" fill-rule="evenodd" fill-opacity="1" stroke="#000000" stroke-opacity="1" stroke-width="3.2"/>
<circle clip-path="url(#clip952)" cx="1603.41" cy="952.97" r="14" fill="#e26f46" fill-rule="evenodd" fill-opacity="1" stroke="#000000" stroke-opacity="1" stroke-width="3.2"/>
<circle clip-path="url(#clip952)" cx="1199.04" cy="323.855" r="14" fill="#e26f46" fill-rule="evenodd" fill-opacity="1" stroke="#000000" stroke-opacity="1" stroke-width="3.2"/>
<circle clip-path="url(#clip952)" cx="1583.53" cy="794.774" r="14" fill="#e26f46" fill-rule="evenodd" fill-opacity="1" stroke="#000000" stroke-opacity="1" stroke-width="3.2"/>
<circle clip-path="url(#clip952)" cx="2225.1" cy="1026" r="14" fill="#e26f46" fill-rule="evenodd" fill-opacity="1" stroke="#000000" stroke-opacity="1" stroke-width="3.2"/>
<circle clip-path="url(#clip952)" cx="1706.2" cy="1414.51" r="14" fill="#e26f46" fill-rule="evenodd" fill-opacity="1" stroke="#000000" stroke-opacity="1" stroke-width="3.2"/>
<circle clip-path="url(#clip952)" cx="968.467" cy="820.678" r="14" fill="#e26f46" fill-rule="evenodd" fill-opacity="1" stroke="#000000" stroke-opacity="1" stroke-width="3.2"/>
<circle clip-path="url(#clip952)" cx="1886.75" cy="943.676" r="14" fill="#e26f46" fill-rule="evenodd" fill-opacity="1" stroke="#000000" stroke-opacity="1" stroke-width="3.2"/>
<circle clip-path="url(#clip952)" cx="380.464" cy="987.791" r="14" fill="#e26f46" fill-rule="evenodd" fill-opacity="1" stroke="#000000" stroke-opacity="1" stroke-width="3.2"/>
<circle clip-path="url(#clip952)" cx="340.458" cy="968.681" r="14" fill="#e26f46" fill-rule="evenodd" fill-opacity="1" stroke="#000000" stroke-opacity="1" stroke-width="3.2"/>
<circle clip-path="url(#clip952)" cx="987.146" cy="722.794" r="14" fill="#e26f46" fill-rule="evenodd" fill-opacity="1" stroke="#000000" stroke-opacity="1" stroke-width="3.2"/>
<circle clip-path="url(#clip952)" cx="1077.17" cy="311.724" r="14" fill="#e26f46" fill-rule="evenodd" fill-opacity="1" stroke="#000000" stroke-opacity="1" stroke-width="3.2"/>
<circle clip-path="url(#clip952)" cx="1138.27" cy="258.602" r="14" fill="#e26f46" fill-rule="evenodd" fill-opacity="1" stroke="#000000" stroke-opacity="1" stroke-width="3.2"/>
<circle clip-path="url(#clip952)" cx="1982.99" cy="851.204" r="14" fill="#e26f46" fill-rule="evenodd" fill-opacity="1" stroke="#000000" stroke-opacity="1" stroke-width="3.2"/>
<circle clip-path="url(#clip952)" cx="286.507" cy="994.866" r="14" fill="#e26f46" fill-rule="evenodd" fill-opacity="1" stroke="#000000" stroke-opacity="1" stroke-width="3.2"/>
<circle clip-path="url(#clip952)" cx="737.396" cy="951.606" r="14" fill="#e26f46" fill-rule="evenodd" fill-opacity="1" stroke="#000000" stroke-opacity="1" stroke-width="3.2"/>
<circle clip-path="url(#clip952)" cx="917.682" cy="1096.8" r="14" fill="#e26f46" fill-rule="evenodd" fill-opacity="1" stroke="#000000" stroke-opacity="1" stroke-width="3.2"/>
<circle clip-path="url(#clip952)" cx="975.26" cy="759.913" r="14" fill="#e26f46" fill-rule="evenodd" fill-opacity="1" stroke="#000000" stroke-opacity="1" stroke-width="3.2"/>
<circle clip-path="url(#clip952)" cx="574.046" cy="832.665" r="14" fill="#e26f46" fill-rule="evenodd" fill-opacity="1" stroke="#000000" stroke-opacity="1" stroke-width="3.2"/>
<circle clip-path="url(#clip952)" cx="358.68" cy="934.324" r="14" fill="#e26f46" fill-rule="evenodd" fill-opacity="1" stroke="#000000" stroke-opacity="1" stroke-width="3.2"/>
<circle clip-path="url(#clip952)" cx="1611.71" cy="966.429" r="14" fill="#e26f46" fill-rule="evenodd" fill-opacity="1" stroke="#000000" stroke-opacity="1" stroke-width="3.2"/>
<circle clip-path="url(#clip952)" cx="787.96" cy="1315.16" r="14" fill="#e26f46" fill-rule="evenodd" fill-opacity="1" stroke="#000000" stroke-opacity="1" stroke-width="3.2"/>
<circle clip-path="url(#clip952)" cx="1391.71" cy="239.157" r="14" fill="#e26f46" fill-rule="evenodd" fill-opacity="1" stroke="#000000" stroke-opacity="1" stroke-width="3.2"/>
<circle clip-path="url(#clip952)" cx="554.422" cy="935.649" r="14" fill="#e26f46" fill-rule="evenodd" fill-opacity="1" stroke="#000000" stroke-opacity="1" stroke-width="3.2"/>
<circle clip-path="url(#clip952)" cx="867.039" cy="1366.27" r="14" fill="#e26f46" fill-rule="evenodd" fill-opacity="1" stroke="#000000" stroke-opacity="1" stroke-width="3.2"/>
<circle clip-path="url(#clip952)" cx="1862.31" cy="803.124" r="14" fill="#e26f46" fill-rule="evenodd" fill-opacity="1" stroke="#000000" stroke-opacity="1" stroke-width="3.2"/>
<circle clip-path="url(#clip952)" cx="2052.87" cy="914.661" r="14" fill="#e26f46" fill-rule="evenodd" fill-opacity="1" stroke="#000000" stroke-opacity="1" stroke-width="3.2"/>
<circle clip-path="url(#clip952)" cx="795.495" cy="1350.91" r="14" fill="#e26f46" fill-rule="evenodd" fill-opacity="1" stroke="#000000" stroke-opacity="1" stroke-width="3.2"/>
<circle clip-path="url(#clip952)" cx="1460.52" cy="380.812" r="14" fill="#e26f46" fill-rule="evenodd" fill-opacity="1" stroke="#000000" stroke-opacity="1" stroke-width="3.2"/>
<circle clip-path="url(#clip952)" cx="955.353" cy="875.079" r="14" fill="#e26f46" fill-rule="evenodd" fill-opacity="1" stroke="#000000" stroke-opacity="1" stroke-width="3.2"/>
<circle clip-path="url(#clip952)" cx="539.461" cy="1100.03" r="14" fill="#e26f46" fill-rule="evenodd" fill-opacity="1" stroke="#000000" stroke-opacity="1" stroke-width="3.2"/>
<circle clip-path="url(#clip952)" cx="722.357" cy="830.081" r="14" fill="#e26f46" fill-rule="evenodd" fill-opacity="1" stroke="#000000" stroke-opacity="1" stroke-width="3.2"/>
<circle clip-path="url(#clip952)" cx="1156.71" cy="252.696" r="14" fill="#e26f46" fill-rule="evenodd" fill-opacity="1" stroke="#000000" stroke-opacity="1" stroke-width="3.2"/>
<circle clip-path="url(#clip952)" cx="1692.06" cy="1403.26" r="14" fill="#e26f46" fill-rule="evenodd" fill-opacity="1" stroke="#000000" stroke-opacity="1" stroke-width="3.2"/>
<circle clip-path="url(#clip952)" cx="1423.45" cy="270.186" r="14" fill="#e26f46" fill-rule="evenodd" fill-opacity="1" stroke="#000000" stroke-opacity="1" stroke-width="3.2"/>
<circle clip-path="url(#clip952)" cx="671.218" cy="843.396" r="14" fill="#e26f46" fill-rule="evenodd" fill-opacity="1" stroke="#000000" stroke-opacity="1" stroke-width="3.2"/>
<circle clip-path="url(#clip952)" cx="1583.88" cy="837.476" r="14" fill="#e26f46" fill-rule="evenodd" fill-opacity="1" stroke="#000000" stroke-opacity="1" stroke-width="3.2"/>
<circle clip-path="url(#clip952)" cx="2091.67" cy="929.109" r="14" fill="#e26f46" fill-rule="evenodd" fill-opacity="1" stroke="#000000" stroke-opacity="1" stroke-width="3.2"/>
<circle clip-path="url(#clip952)" cx="2072.81" cy="1072.22" r="14" fill="#e26f46" fill-rule="evenodd" fill-opacity="1" stroke="#000000" stroke-opacity="1" stroke-width="3.2"/>
<circle clip-path="url(#clip952)" cx="1255.27" cy="677.87" r="14" fill="#e26f46" fill-rule="evenodd" fill-opacity="1" stroke="#000000" stroke-opacity="1" stroke-width="3.2"/>
<circle clip-path="url(#clip952)" cx="896.327" cy="1211.87" r="14" fill="#e26f46" fill-rule="evenodd" fill-opacity="1" stroke="#000000" stroke-opacity="1" stroke-width="3.2"/>
<circle clip-path="url(#clip952)" cx="1734.24" cy="1406.66" r="14" fill="#e26f46" fill-rule="evenodd" fill-opacity="1" stroke="#000000" stroke-opacity="1" stroke-width="3.2"/>
<circle clip-path="url(#clip952)" cx="911" cy="1120.05" r="14" fill="#e26f46" fill-rule="evenodd" fill-opacity="1" stroke="#000000" stroke-opacity="1" stroke-width="3.2"/>
<circle clip-path="url(#clip952)" cx="1272.2" cy="1000.9" r="14" fill="#e26f46" fill-rule="evenodd" fill-opacity="1" stroke="#000000" stroke-opacity="1" stroke-width="3.2"/>
<circle clip-path="url(#clip952)" cx="603.424" cy="1083.05" r="14" fill="#e26f46" fill-rule="evenodd" fill-opacity="1" stroke="#000000" stroke-opacity="1" stroke-width="3.2"/>
<circle clip-path="url(#clip952)" cx="1280.61" cy="804.613" r="14" fill="#e26f46" fill-rule="evenodd" fill-opacity="1" stroke="#000000" stroke-opacity="1" stroke-width="3.2"/>
<circle clip-path="url(#clip952)" cx="1419.78" cy="248.815" r="14" fill="#e26f46" fill-rule="evenodd" fill-opacity="1" stroke="#000000" stroke-opacity="1" stroke-width="3.2"/>
<circle clip-path="url(#clip952)" cx="846.217" cy="1381.1" r="14" fill="#e26f46" fill-rule="evenodd" fill-opacity="1" stroke="#000000" stroke-opacity="1" stroke-width="3.2"/>
<circle clip-path="url(#clip952)" cx="1184.51" cy="283.123" r="14" fill="#e26f46" fill-rule="evenodd" fill-opacity="1" stroke="#000000" stroke-opacity="1" stroke-width="3.2"/>
<circle clip-path="url(#clip952)" cx="389.229" cy="973.902" r="14" fill="#e26f46" fill-rule="evenodd" fill-opacity="1" stroke="#000000" stroke-opacity="1" stroke-width="3.2"/>
<circle clip-path="url(#clip952)" cx="1024.15" cy="516.161" r="14" fill="#e26f46" fill-rule="evenodd" fill-opacity="1" stroke="#000000" stroke-opacity="1" stroke-width="3.2"/>
<circle clip-path="url(#clip952)" cx="1886.21" cy="961.388" r="14" fill="#e26f46" fill-rule="evenodd" fill-opacity="1" stroke="#000000" stroke-opacity="1" stroke-width="3.2"/>
<circle clip-path="url(#clip952)" cx="424.753" cy="1028.84" r="14" fill="#e26f46" fill-rule="evenodd" fill-opacity="1" stroke="#000000" stroke-opacity="1" stroke-width="3.2"/>
<circle clip-path="url(#clip952)" cx="2018.82" cy="1084.57" r="14" fill="#e26f46" fill-rule="evenodd" fill-opacity="1" stroke="#000000" stroke-opacity="1" stroke-width="3.2"/>
<circle clip-path="url(#clip952)" cx="800.447" cy="1403.56" r="14" fill="#e26f46" fill-rule="evenodd" fill-opacity="1" stroke="#000000" stroke-opacity="1" stroke-width="3.2"/>
<circle clip-path="url(#clip952)" cx="1187.79" cy="278.324" r="14" fill="#e26f46" fill-rule="evenodd" fill-opacity="1" stroke="#000000" stroke-opacity="1" stroke-width="3.2"/>
<circle clip-path="url(#clip952)" cx="314.38" cy="997.73" r="14" fill="#e26f46" fill-rule="evenodd" fill-opacity="1" stroke="#000000" stroke-opacity="1" stroke-width="3.2"/>
<circle clip-path="url(#clip952)" cx="2169.55" cy="980.068" r="14" fill="#e26f46" fill-rule="evenodd" fill-opacity="1" stroke="#000000" stroke-opacity="1" stroke-width="3.2"/>
<circle clip-path="url(#clip952)" cx="2238.87" cy="1037.8" r="14" fill="#e26f46" fill-rule="evenodd" fill-opacity="1" stroke="#000000" stroke-opacity="1" stroke-width="3.2"/>
<circle clip-path="url(#clip952)" cx="619.697" cy="1163.23" r="14" fill="#e26f46" fill-rule="evenodd" fill-opacity="1" stroke="#000000" stroke-opacity="1" stroke-width="3.2"/>
<circle clip-path="url(#clip952)" cx="505.073" cy="935.287" r="14" fill="#e26f46" fill-rule="evenodd" fill-opacity="1" stroke="#000000" stroke-opacity="1" stroke-width="3.2"/>
<circle clip-path="url(#clip952)" cx="1156.32" cy="269.192" r="14" fill="#e26f46" fill-rule="evenodd" fill-opacity="1" stroke="#000000" stroke-opacity="1" stroke-width="3.2"/>
<circle clip-path="url(#clip952)" cx="449.712" cy="945.214" r="14" fill="#e26f46" fill-rule="evenodd" fill-opacity="1" stroke="#000000" stroke-opacity="1" stroke-width="3.2"/>
<circle clip-path="url(#clip952)" cx="2082.95" cy="1024.54" r="14" fill="#e26f46" fill-rule="evenodd" fill-opacity="1" stroke="#000000" stroke-opacity="1" stroke-width="3.2"/>
<circle clip-path="url(#clip952)" cx="1224.92" cy="390.359" r="14" fill="#e26f46" fill-rule="evenodd" fill-opacity="1" stroke="#000000" stroke-opacity="1" stroke-width="3.2"/>
<circle clip-path="url(#clip952)" cx="262.751" cy="1014.42" r="14" fill="#e26f46" fill-rule="evenodd" fill-opacity="1" stroke="#000000" stroke-opacity="1" stroke-width="3.2"/>
<circle clip-path="url(#clip952)" cx="1047.5" cy="408.308" r="14" fill="#e26f46" fill-rule="evenodd" fill-opacity="1" stroke="#000000" stroke-opacity="1" stroke-width="3.2"/>
<circle clip-path="url(#clip952)" cx="973.182" cy="746.537" r="14" fill="#e26f46" fill-rule="evenodd" fill-opacity="1" stroke="#000000" stroke-opacity="1" stroke-width="3.2"/>
<circle clip-path="url(#clip952)" cx="1987.01" cy="928.229" r="14" fill="#e26f46" fill-rule="evenodd" fill-opacity="1" stroke="#000000" stroke-opacity="1" stroke-width="3.2"/>
<circle clip-path="url(#clip952)" cx="1028.15" cy="481.254" r="14" fill="#e26f46" fill-rule="evenodd" fill-opacity="1" stroke="#000000" stroke-opacity="1" stroke-width="3.2"/>
<circle clip-path="url(#clip952)" cx="683.773" cy="782.079" r="14" fill="#e26f46" fill-rule="evenodd" fill-opacity="1" stroke="#000000" stroke-opacity="1" stroke-width="3.2"/>
<circle clip-path="url(#clip952)" cx="850.408" cy="1447.87" r="14" fill="#e26f46" fill-rule="evenodd" fill-opacity="1" stroke="#000000" stroke-opacity="1" stroke-width="3.2"/>
<circle clip-path="url(#clip952)" cx="271.541" cy="986.378" r="14" fill="#e26f46" fill-rule="evenodd" fill-opacity="1" stroke="#000000" stroke-opacity="1" stroke-width="3.2"/>
<circle clip-path="url(#clip952)" cx="1416.94" cy="239.39" r="14" fill="#e26f46" fill-rule="evenodd" fill-opacity="1" stroke="#000000" stroke-opacity="1" stroke-width="3.2"/>
<circle clip-path="url(#clip952)" cx="1067.24" cy="338.631" r="14" fill="#e26f46" fill-rule="evenodd" fill-opacity="1" stroke="#000000" stroke-opacity="1" stroke-width="3.2"/>
<circle clip-path="url(#clip952)" cx="1161.98" cy="258.544" r="14" fill="#e26f46" fill-rule="evenodd" fill-opacity="1" stroke="#000000" stroke-opacity="1" stroke-width="3.2"/>
<circle clip-path="url(#clip952)" cx="720.238" cy="796.922" r="14" fill="#e26f46" fill-rule="evenodd" fill-opacity="1" stroke="#000000" stroke-opacity="1" stroke-width="3.2"/>
<circle clip-path="url(#clip952)" cx="1503.69" cy="435.409" r="14" fill="#e26f46" fill-rule="evenodd" fill-opacity="1" stroke="#000000" stroke-opacity="1" stroke-width="3.2"/>
<circle clip-path="url(#clip952)" cx="684.068" cy="732.949" r="14" fill="#e26f46" fill-rule="evenodd" fill-opacity="1" stroke="#000000" stroke-opacity="1" stroke-width="3.2"/>
<circle clip-path="url(#clip952)" cx="1674.46" cy="1338.47" r="14" fill="#e26f46" fill-rule="evenodd" fill-opacity="1" stroke="#000000" stroke-opacity="1" stroke-width="3.2"/>
<circle clip-path="url(#clip952)" cx="1398.99" cy="267.559" r="14" fill="#e26f46" fill-rule="evenodd" fill-opacity="1" stroke="#000000" stroke-opacity="1" stroke-width="3.2"/>
<circle clip-path="url(#clip952)" cx="918.003" cy="1087.34" r="14" fill="#e26f46" fill-rule="evenodd" fill-opacity="1" stroke="#000000" stroke-opacity="1" stroke-width="3.2"/>
<circle clip-path="url(#clip952)" cx="1126.59" cy="271.415" r="14" fill="#e26f46" fill-rule="evenodd" fill-opacity="1" stroke="#000000" stroke-opacity="1" stroke-width="3.2"/>
<circle clip-path="url(#clip952)" cx="1841.93" cy="738.173" r="14" fill="#e26f46" fill-rule="evenodd" fill-opacity="1" stroke="#000000" stroke-opacity="1" stroke-width="3.2"/>
<circle clip-path="url(#clip952)" cx="1677.69" cy="1372.32" r="14" fill="#e26f46" fill-rule="evenodd" fill-opacity="1" stroke="#000000" stroke-opacity="1" stroke-width="3.2"/>
<circle clip-path="url(#clip952)" cx="1008.92" cy="578.88" r="14" fill="#e26f46" fill-rule="evenodd" fill-opacity="1" stroke="#000000" stroke-opacity="1" stroke-width="3.2"/>
<circle clip-path="url(#clip952)" cx="750.122" cy="1044.5" r="14" fill="#e26f46" fill-rule="evenodd" fill-opacity="1" stroke="#000000" stroke-opacity="1" stroke-width="3.2"/>
<circle clip-path="url(#clip952)" cx="1591.64" cy="850.614" r="14" fill="#e26f46" fill-rule="evenodd" fill-opacity="1" stroke="#000000" stroke-opacity="1" stroke-width="3.2"/>
<circle clip-path="url(#clip952)" cx="265.699" cy="1022.66" r="14" fill="#e26f46" fill-rule="evenodd" fill-opacity="1" stroke="#000000" stroke-opacity="1" stroke-width="3.2"/>
<circle clip-path="url(#clip952)" cx="669.499" cy="877.489" r="14" fill="#e26f46" fill-rule="evenodd" fill-opacity="1" stroke="#000000" stroke-opacity="1" stroke-width="3.2"/>
<circle clip-path="url(#clip952)" cx="2203.91" cy="1013.35" r="14" fill="#e26f46" fill-rule="evenodd" fill-opacity="1" stroke="#000000" stroke-opacity="1" stroke-width="3.2"/>
<circle clip-path="url(#clip952)" cx="1896.63" cy="1035.88" r="14" fill="#e26f46" fill-rule="evenodd" fill-opacity="1" stroke="#000000" stroke-opacity="1" stroke-width="3.2"/>
<circle clip-path="url(#clip952)" cx="1878.31" cy="891.329" r="14" fill="#e26f46" fill-rule="evenodd" fill-opacity="1" stroke="#000000" stroke-opacity="1" stroke-width="3.2"/>
<circle clip-path="url(#clip952)" cx="1049.14" cy="417.002" r="14" fill="#e26f46" fill-rule="evenodd" fill-opacity="1" stroke="#000000" stroke-opacity="1" stroke-width="3.2"/>
<circle clip-path="url(#clip952)" cx="1965.5" cy="856.778" r="14" fill="#e26f46" fill-rule="evenodd" fill-opacity="1" stroke="#000000" stroke-opacity="1" stroke-width="3.2"/>
<circle clip-path="url(#clip952)" cx="1024.42" cy="528.469" r="14" fill="#e26f46" fill-rule="evenodd" fill-opacity="1" stroke="#000000" stroke-opacity="1" stroke-width="3.2"/>
<circle clip-path="url(#clip952)" cx="1808.28" cy="963.89" r="14" fill="#e26f46" fill-rule="evenodd" fill-opacity="1" stroke="#000000" stroke-opacity="1" stroke-width="3.2"/>
<circle clip-path="url(#clip952)" cx="506.532" cy="878.978" r="14" fill="#e26f46" fill-rule="evenodd" fill-opacity="1" stroke="#000000" stroke-opacity="1" stroke-width="3.2"/>
<circle clip-path="url(#clip952)" cx="1866.43" cy="788.419" r="14" fill="#e26f46" fill-rule="evenodd" fill-opacity="1" stroke="#000000" stroke-opacity="1" stroke-width="3.2"/>
<circle clip-path="url(#clip952)" cx="655.049" cy="1013.97" r="14" fill="#e26f46" fill-rule="evenodd" fill-opacity="1" stroke="#000000" stroke-opacity="1" stroke-width="3.2"/>
<circle clip-path="url(#clip952)" cx="1024.5" cy="542.808" r="14" fill="#e26f46" fill-rule="evenodd" fill-opacity="1" stroke="#000000" stroke-opacity="1" stroke-width="3.2"/>
<circle clip-path="url(#clip952)" cx="1785.09" cy="1177.44" r="14" fill="#e26f46" fill-rule="evenodd" fill-opacity="1" stroke="#000000" stroke-opacity="1" stroke-width="3.2"/>
<circle clip-path="url(#clip952)" cx="1975.32" cy="863.595" r="14" fill="#e26f46" fill-rule="evenodd" fill-opacity="1" stroke="#000000" stroke-opacity="1" stroke-width="3.2"/>
<circle clip-path="url(#clip952)" cx="2282" cy="1009.67" r="14" fill="#e26f46" fill-rule="evenodd" fill-opacity="1" stroke="#000000" stroke-opacity="1" stroke-width="3.2"/>
<circle clip-path="url(#clip952)" cx="820.546" cy="1404.66" r="14" fill="#e26f46" fill-rule="evenodd" fill-opacity="1" stroke="#000000" stroke-opacity="1" stroke-width="3.2"/>
<circle clip-path="url(#clip952)" cx="2254.85" cy="1024.82" r="14" fill="#e26f46" fill-rule="evenodd" fill-opacity="1" stroke="#000000" stroke-opacity="1" stroke-width="3.2"/>
<circle clip-path="url(#clip952)" cx="441.937" cy="1030.81" r="14" fill="#e26f46" fill-rule="evenodd" fill-opacity="1" stroke="#000000" stroke-opacity="1" stroke-width="3.2"/>
<circle clip-path="url(#clip952)" cx="1322.09" cy="406.429" r="14" fill="#e26f46" fill-rule="evenodd" fill-opacity="1" stroke="#000000" stroke-opacity="1" stroke-width="3.2"/>
<circle clip-path="url(#clip952)" cx="2080.18" cy="1031.83" r="14" fill="#e26f46" fill-rule="evenodd" fill-opacity="1" stroke="#000000" stroke-opacity="1" stroke-width="3.2"/>
<circle clip-path="url(#clip952)" cx="1718.67" cy="1418.5" r="14" fill="#e26f46" fill-rule="evenodd" fill-opacity="1" stroke="#000000" stroke-opacity="1" stroke-width="3.2"/>
<circle clip-path="url(#clip952)" cx="322.335" cy="998.169" r="14" fill="#e26f46" fill-rule="evenodd" fill-opacity="1" stroke="#000000" stroke-opacity="1" stroke-width="3.2"/>
<circle clip-path="url(#clip952)" cx="2197.28" cy="1030" r="14" fill="#e26f46" fill-rule="evenodd" fill-opacity="1" stroke="#000000" stroke-opacity="1" stroke-width="3.2"/>
<circle clip-path="url(#clip952)" cx="1525.51" cy="587.038" r="14" fill="#e26f46" fill-rule="evenodd" fill-opacity="1" stroke="#000000" stroke-opacity="1" stroke-width="3.2"/>
<circle clip-path="url(#clip952)" cx="344.724" cy="1016.35" r="14" fill="#e26f46" fill-rule="evenodd" fill-opacity="1" stroke="#000000" stroke-opacity="1" stroke-width="3.2"/>
<circle clip-path="url(#clip952)" cx="315.01" cy="923.417" r="14" fill="#e26f46" fill-rule="evenodd" fill-opacity="1" stroke="#000000" stroke-opacity="1" stroke-width="3.2"/>
<circle clip-path="url(#clip952)" cx="265.628" cy="1016.26" r="14" fill="#e26f46" fill-rule="evenodd" fill-opacity="1" stroke="#000000" stroke-opacity="1" stroke-width="3.2"/>
<circle clip-path="url(#clip952)" cx="1535.19" cy="550.266" r="14" fill="#e26f46" fill-rule="evenodd" fill-opacity="1" stroke="#000000" stroke-opacity="1" stroke-width="3.2"/>
<circle clip-path="url(#clip952)" cx="1190.7" cy="280.465" r="14" fill="#e26f46" fill-rule="evenodd" fill-opacity="1" stroke="#000000" stroke-opacity="1" stroke-width="3.2"/>
<circle clip-path="url(#clip952)" cx="1107.23" cy="261.284" r="14" fill="#e26f46" fill-rule="evenodd" fill-opacity="1" stroke="#000000" stroke-opacity="1" stroke-width="3.2"/>
<circle clip-path="url(#clip952)" cx="927.293" cy="1002.94" r="14" fill="#e26f46" fill-rule="evenodd" fill-opacity="1" stroke="#000000" stroke-opacity="1" stroke-width="3.2"/>
<circle clip-path="url(#clip952)" cx="2254.78" cy="1043.12" r="14" fill="#e26f46" fill-rule="evenodd" fill-opacity="1" stroke="#000000" stroke-opacity="1" stroke-width="3.2"/>
<circle clip-path="url(#clip952)" cx="1373.81" cy="266.997" r="14" fill="#e26f46" fill-rule="evenodd" fill-opacity="1" stroke="#000000" stroke-opacity="1" stroke-width="3.2"/>
<circle clip-path="url(#clip952)" cx="2050.11" cy="930.51" r="14" fill="#e26f46" fill-rule="evenodd" fill-opacity="1" stroke="#000000" stroke-opacity="1" stroke-width="3.2"/>
<circle clip-path="url(#clip952)" cx="1024.73" cy="523.507" r="14" fill="#e26f46" fill-rule="evenodd" fill-opacity="1" stroke="#000000" stroke-opacity="1" stroke-width="3.2"/>
<circle clip-path="url(#clip952)" cx="1307.16" cy="505.127" r="14" fill="#e26f46" fill-rule="evenodd" fill-opacity="1" stroke="#000000" stroke-opacity="1" stroke-width="3.2"/>
<circle clip-path="url(#clip952)" cx="522.108" cy="1063.39" r="14" fill="#e26f46" fill-rule="evenodd" fill-opacity="1" stroke="#000000" stroke-opacity="1" stroke-width="3.2"/>
<circle clip-path="url(#clip952)" cx="542.711" cy="1065.13" r="14" fill="#e26f46" fill-rule="evenodd" fill-opacity="1" stroke="#000000" stroke-opacity="1" stroke-width="3.2"/>
<circle clip-path="url(#clip952)" cx="880.557" cy="1304.29" r="14" fill="#e26f46" fill-rule="evenodd" fill-opacity="1" stroke="#000000" stroke-opacity="1" stroke-width="3.2"/>
<circle clip-path="url(#clip952)" cx="2061.76" cy="988.298" r="14" fill="#e26f46" fill-rule="evenodd" fill-opacity="1" stroke="#000000" stroke-opacity="1" stroke-width="3.2"/>
<circle clip-path="url(#clip952)" cx="1033.12" cy="490.175" r="14" fill="#e26f46" fill-rule="evenodd" fill-opacity="1" stroke="#000000" stroke-opacity="1" stroke-width="3.2"/>
<circle clip-path="url(#clip952)" cx="281.805" cy="975.541" r="14" fill="#e26f46" fill-rule="evenodd" fill-opacity="1" stroke="#000000" stroke-opacity="1" stroke-width="3.2"/>
<circle clip-path="url(#clip952)" cx="761.821" cy="1162.79" r="14" fill="#e26f46" fill-rule="evenodd" fill-opacity="1" stroke="#000000" stroke-opacity="1" stroke-width="3.2"/>
<circle clip-path="url(#clip952)" cx="1025.06" cy="539.457" r="14" fill="#e26f46" fill-rule="evenodd" fill-opacity="1" stroke="#000000" stroke-opacity="1" stroke-width="3.2"/>
<circle clip-path="url(#clip952)" cx="263.286" cy="1014.67" r="14" fill="#e26f46" fill-rule="evenodd" fill-opacity="1" stroke="#000000" stroke-opacity="1" stroke-width="3.2"/>
<circle clip-path="url(#clip952)" cx="984.562" cy="713.935" r="14" fill="#e26f46" fill-rule="evenodd" fill-opacity="1" stroke="#000000" stroke-opacity="1" stroke-width="3.2"/>
<circle clip-path="url(#clip952)" cx="2066.4" cy="1050.44" r="14" fill="#e26f46" fill-rule="evenodd" fill-opacity="1" stroke="#000000" stroke-opacity="1" stroke-width="3.2"/>
<circle clip-path="url(#clip952)" cx="1369.25" cy="263.767" r="14" fill="#e26f46" fill-rule="evenodd" fill-opacity="1" stroke="#000000" stroke-opacity="1" stroke-width="3.2"/>
<circle clip-path="url(#clip952)" cx="2212.49" cy="992.918" r="14" fill="#e26f46" fill-rule="evenodd" fill-opacity="1" stroke="#000000" stroke-opacity="1" stroke-width="3.2"/>
<circle clip-path="url(#clip952)" cx="717.968" cy="797.481" r="14" fill="#e26f46" fill-rule="evenodd" fill-opacity="1" stroke="#000000" stroke-opacity="1" stroke-width="3.2"/>
<circle clip-path="url(#clip952)" cx="2091.04" cy="911.793" r="14" fill="#e26f46" fill-rule="evenodd" fill-opacity="1" stroke="#000000" stroke-opacity="1" stroke-width="3.2"/>
<path clip-path="url(#clip952)" d="
M253.843 1099.89 L264.083 1089.19 L274.323 1079.25 L284.563 1070.16 L294.803 1061.96 L305.043 1054.6 L315.283 1047.95 L325.523 1041.82 L335.763 1035.99 L346.003 1030.31 
  L356.244 1024.66 L366.484 1019 L376.724 1013.32 L386.964 1007.68 L397.204 1002.13 L407.444 996.774 L417.684 991.709 L427.924 987.039 L438.164 982.869 L448.404 979.302 
  L458.645 976.432 L468.885 974.344 L479.125 973.112 L489.365 972.798 L499.605 973.448 L509.845 975.093 L520.085 977.751 L530.325 981.421 L540.565 986.087 L550.805 991.718 
  L561.046 998.269 L571.286 1005.68 L581.526 1013.87 L591.766 1022.77 L602.006 1032.27 L612.246 1042.27 L622.486 1052.66 L632.726 1063.32 L642.966 1074.12 L653.206 1084.94 
  L663.447 1095.63 L673.687 1106.07 L683.927 1116.11 L694.167 1125.63 L704.407 1134.49 L714.647 1142.55 L724.887 1149.69 L735.127 1155.78 L745.367 1160.71 L755.607 1164.35 
  L765.848 1166.61 L776.088 1167.4 L786.328 1166.61 L796.568 1164.19 L806.808 1160.07 L817.048 1154.19 L827.288 1146.52 L837.528 1137.04 L847.768 1125.73 L858.008 1112.61 
  L868.249 1097.68 L878.489 1080.99 L888.729 1062.58 L898.969 1042.52 L909.209 1020.87 L919.449 997.732 L929.689 973.201 L939.929 947.389 L950.169 920.417 L960.409 892.415 
  L970.65 863.52 L980.89 833.876 L991.13 803.631 L1001.37 772.939 L1011.61 741.952 L1021.85 710.826 L1032.09 679.716 L1042.33 648.775 L1052.57 618.153 L1062.81 587.999 
  L1073.05 558.456 L1083.29 529.662 L1093.53 501.751 L1103.77 474.85 L1114.01 449.083 L1124.25 424.564 L1134.49 401.401 L1144.73 379.697 L1154.97 359.545 L1165.21 341.031 
  L1175.45 324.236 L1185.69 309.227 L1195.93 296.068 L1206.17 284.811 L1216.41 275.502 L1226.65 268.175 L1236.89 262.857 L1247.13 259.567 L1257.37 258.312 L1267.61 259.093 
  L1277.85 261.901 L1288.09 266.719 L1298.33 273.519 L1308.57 282.267 L1318.81 292.92 L1329.05 305.427 L1339.29 319.729 L1349.53 335.759 L1359.77 353.443 L1370.01 372.7 
  L1380.25 393.442 L1390.49 415.576 L1400.73 439 L1410.97 463.607 L1421.21 489.287 L1431.45 515.921 L1441.69 543.389 L1451.93 571.564 L1462.17 600.316 L1472.41 629.512 
  L1482.65 659.016 L1492.89 688.691 L1503.13 718.398 L1513.37 747.997 L1523.61 777.348 L1533.86 806.315 L1544.1 834.76 L1554.34 862.553 L1564.58 889.563 L1574.82 915.668 
  L1585.06 940.75 L1595.3 964.699 L1605.54 987.414 L1615.78 1008.8 L1626.02 1028.78 L1636.26 1047.27 L1646.5 1064.21 L1656.74 1079.56 L1666.98 1093.27 L1677.22 1105.31 
  L1687.46 1115.68 L1697.7 1124.38 L1707.94 1131.4 L1718.18 1136.79 L1728.42 1140.56 L1738.66 1142.77 L1748.9 1143.48 L1759.14 1142.75 L1769.38 1140.65 L1779.62 1137.28 
  L1789.86 1132.73 L1800.1 1127.09 L1810.34 1120.48 L1820.58 1113 L1830.82 1104.77 L1841.06 1095.92 L1851.3 1086.56 L1861.54 1076.83 L1871.78 1066.84 L1882.02 1056.73 
  L1892.26 1046.63 L1902.5 1036.66 L1912.74 1026.95 L1922.98 1017.61 L1933.22 1008.76 L1943.46 1000.52 L1953.7 992.996 L1963.94 986.274 L1974.18 980.445 L1984.42 975.586 
  L1994.66 971.758 L2004.9 969.01 L2015.14 967.372 L2025.38 966.861 L2035.62 967.473 L2045.86 969.186 L2056.1 971.963 L2066.34 975.749 L2076.58 980.473 L2086.82 986.052 
  L2097.06 992.394 L2107.3 999.396 L2117.54 1006.96 L2127.78 1014.96 L2138.02 1023.33 L2148.26 1031.95 L2158.5 1040.75 L2168.74 1049.69 L2178.98 1058.75 L2189.22 1067.92 
  L2199.46 1077.28 L2209.7 1086.89 L2219.94 1096.85 L2230.18 1107.26 L2240.42 1118.19 L2250.66 1129.68 L2260.9 1141.7 L2271.14 1154.22 L2281.38 1167.17 L2291.62 1180.44 
  L2291.62 949.513 L2281.38 960.608 L2271.14 969.042 L2260.9 974.879 L2250.66 978.211 L2240.42 979.17 L2230.18 977.941 L2219.94 974.763 L2209.7 969.925 L2199.46 963.751 
  L2189.22 956.572 L2178.98 948.704 L2168.74 940.437 L2158.5 932.022 L2148.26 923.673 L2138.02 915.569 L2127.78 907.859 L2117.54 900.667 L2107.3 894.093 L2097.06 888.22 
  L2086.82 883.117 L2076.58 878.835 L2066.34 875.416 L2056.1 872.893 L2045.86 871.287 L2035.62 870.614 L2025.38 870.879 L2015.14 872.083 L2004.9 874.22 L1994.66 877.277 
  L1984.42 881.231 L1974.18 886.055 L1963.94 891.709 L1953.7 898.146 L1943.46 905.308 L1933.22 913.127 L1922.98 921.523 L1912.74 930.408 L1902.5 939.683 L1892.26 949.24 
  L1882.02 958.964 L1871.78 968.734 L1861.54 978.424 L1851.3 987.902 L1841.06 997.037 L1830.82 1005.7 L1820.58 1013.75 L1810.34 1021.07 L1800.1 1027.52 L1789.86 1033.01 
  L1779.62 1037.4 L1769.38 1040.59 L1759.14 1042.5 L1748.9 1043.04 L1738.66 1042.13 L1728.42 1039.72 L1718.18 1035.74 L1707.94 1030.16 L1697.7 1022.96 L1687.46 1014.12 
  L1677.22 1003.62 L1666.98 991.492 L1656.74 977.74 L1646.5 962.398 L1636.26 945.507 L1626.02 927.117 L1615.78 907.289 L1605.54 886.092 L1595.3 863.607 L1585.06 839.919 
  L1574.82 815.124 L1564.58 789.322 L1554.34 762.624 L1544.1 735.142 L1533.86 706.996 L1523.61 678.31 L1513.37 649.213 L1503.13 619.836 L1492.89 590.313 L1482.65 560.78 
  L1472.41 531.375 L1462.17 502.235 L1451.93 473.498 L1441.69 445.301 L1431.45 417.778 L1421.21 391.062 L1410.97 365.283 L1400.73 340.566 L1390.49 317.031 L1380.25 294.794 
  L1370.01 273.966 L1359.77 254.65 L1349.53 236.943 L1339.29 220.934 L1329.05 206.706 L1318.81 194.331 L1308.57 183.876 L1298.33 175.396 L1288.09 168.94 L1277.85 164.546 
  L1267.61 162.242 L1257.37 162.047 L1247.13 163.971 L1236.89 168.013 L1226.65 174.161 L1216.41 182.395 L1206.17 192.684 L1195.93 204.985 L1185.69 219.247 L1175.45 235.408 
  L1165.21 253.395 L1154.97 273.126 L1144.73 294.51 L1134.49 317.445 L1124.25 341.823 L1114.01 367.525 L1103.77 394.426 L1093.53 422.393 L1083.29 451.287 L1073.05 480.965 
  L1062.81 511.279 L1052.57 542.077 L1042.33 573.207 L1032.09 604.515 L1021.85 635.848 L1011.61 667.052 L1001.37 697.978 L991.13 728.479 L980.89 758.413 L970.65 787.64 
  L960.409 816.028 L950.169 843.452 L939.929 869.791 L929.689 894.934 L919.449 918.776 L909.209 941.223 L898.969 962.187 L888.729 981.593 L878.489 999.375 L868.249 1015.48 
  L858.008 1029.86 L847.768 1042.48 L837.528 1053.34 L827.288 1062.41 L817.048 1069.7 L806.808 1075.23 L796.568 1079.04 L786.328 1081.15 L776.088 1081.64 L765.848 1080.57 
  L755.607 1078 L745.367 1074.04 L735.127 1068.79 L724.887 1062.34 L714.647 1054.82 L704.407 1046.35 L694.167 1037.06 L683.927 1027.08 L673.687 1016.55 L663.447 1005.6 
  L653.206 994.377 L642.966 983.009 L632.726 971.629 L622.486 960.364 L612.246 949.336 L602.006 938.657 L591.766 928.435 L581.526 918.766 L571.286 909.738 L561.046 901.431 
  L550.805 893.911 L540.565 887.239 L530.325 881.462 L520.085 876.621 L509.845 872.744 L499.605 869.853 L489.365 867.959 L479.125 867.066 L468.885 867.166 L458.645 868.244 
  L448.404 870.277 L438.164 873.231 L427.924 877.061 L417.684 881.714 L407.444 887.121 L397.204 893.203 L386.964 899.862 L376.724 906.979 L366.484 914.41 L356.244 921.979 
  L346.003 929.464 L335.763 936.593 L325.523 943.035 L315.283 948.406 L305.043 952.29 L294.803 954.288 L284.563 954.07 L274.323 951.408 L264.083 946.174 L253.843 938.316 
   Z
  " fill="#3da44d" fill-rule="evenodd" fill-opacity="0.5"/>
<polyline clip-path="url(#clip952)" style="stroke:#3da44d; stroke-linecap:butt; stroke-linejoin:round; stroke-width:12; stroke-opacity:1; fill:none" points="
  253.843,1019.1 264.083,1017.68 274.323,1015.33 284.563,1012.11 294.803,1008.12 305.043,1003.44 315.283,998.179 325.523,992.427 335.763,986.294 346.003,979.888 
  356.244,973.321 366.484,966.705 376.724,960.151 386.964,953.769 397.204,947.667 407.444,941.948 417.684,936.711 427.924,932.05 438.164,928.05 448.404,924.79 
  458.645,922.338 468.885,920.755 479.125,920.089 489.365,920.379 499.605,921.65 509.845,923.919 520.085,927.186 530.325,931.442 540.565,936.663 550.805,942.815 
  561.046,949.85 571.286,957.708 581.526,966.319 591.766,975.602 602.006,985.464 612.246,995.805 622.486,1006.51 632.726,1017.48 642.966,1028.57 653.206,1039.66 
  663.447,1050.62 673.687,1061.31 683.927,1071.6 694.167,1081.35 704.407,1090.42 714.647,1098.69 724.887,1106.02 735.127,1112.28 745.367,1117.38 755.607,1121.18 
  765.848,1123.59 776.088,1124.52 786.328,1123.88 796.568,1121.61 806.808,1117.65 817.048,1111.94 827.288,1104.46 837.528,1095.19 847.768,1084.11 858.008,1071.23 
  868.249,1056.58 878.489,1040.18 888.729,1022.09 898.969,1002.35 909.209,981.046 919.449,958.254 929.689,934.068 939.929,908.59 950.169,881.935 960.409,854.222 
  970.65,825.58 980.89,796.144 991.13,766.055 1001.37,735.459 1011.61,704.502 1021.85,673.337 1032.09,642.116 1042.33,610.991 1052.57,580.115 1062.81,549.639 
  1073.05,519.71 1083.29,490.474 1093.53,462.072 1103.77,434.638 1114.01,408.304 1124.25,383.193 1134.49,359.423 1144.73,337.103 1154.97,316.335 1165.21,297.213 
  1175.45,279.822 1185.69,264.237 1195.93,250.527 1206.17,238.748 1216.41,228.949 1226.65,221.168 1236.89,215.435 1247.13,211.769 1257.37,210.18 1267.61,210.667 
  1277.85,213.224 1288.09,217.83 1298.33,224.458 1308.57,233.071 1318.81,243.626 1329.05,256.066 1339.29,270.332 1349.53,286.351 1359.77,304.046 1370.01,323.333 
  1380.25,344.118 1390.49,366.303 1400.73,389.783 1410.97,414.445 1421.21,440.175 1431.45,466.85 1441.69,494.345 1451.93,522.531 1462.17,551.275 1472.41,580.443 
  1482.65,609.898 1492.89,639.502 1503.13,669.117 1513.37,698.605 1523.61,727.829 1533.86,756.655 1544.1,784.951 1554.34,812.588 1564.58,839.443 1574.82,865.396 
  1585.06,890.334 1595.3,914.153 1605.54,936.753 1615.78,958.045 1626.02,977.946 1636.26,996.387 1646.5,1013.3 1656.74,1028.65 1666.98,1042.38 1677.22,1054.47 
  1687.46,1064.9 1697.7,1073.67 1707.94,1080.78 1718.18,1086.26 1728.42,1090.14 1738.66,1092.45 1748.9,1093.26 1759.14,1092.63 1769.38,1090.62 1779.62,1087.34 
  1789.86,1082.87 1800.1,1077.31 1810.34,1070.77 1820.58,1063.37 1830.82,1055.23 1841.06,1046.48 1851.3,1037.23 1861.54,1027.62 1871.78,1017.79 1882.02,1007.85 
  1892.26,997.936 1902.5,988.172 1912.74,978.677 1922.98,969.565 1933.22,960.945 1943.46,952.916 1953.7,945.571 1963.94,938.991 1974.18,933.25 1984.42,928.409 
  1994.66,924.517 2004.9,921.615 2015.14,919.728 2025.38,918.87 2035.62,919.043 2045.86,920.237 2056.1,922.428 2066.34,925.583 2076.58,929.654 2086.82,934.584 
  2097.06,940.307 2107.3,946.745 2117.54,953.811 2127.78,961.412 2138.02,969.447 2148.26,977.809 2158.5,986.387 2168.74,995.065 2178.98,1003.73 2189.22,1012.25 
  2199.46,1020.51 2209.7,1028.41 2219.94,1035.81 2230.18,1042.6 2240.42,1048.68 2250.66,1053.94 2260.9,1058.29 2271.14,1061.63 2281.38,1063.89 2291.62,1064.98 
  
  "/>
<path clip-path="url(#clip950)" d="
M1615.45 557.705 L2280.75 557.705 L2280.75 168.905 L1615.45 168.905  Z
  " fill="#ffffff" fill-rule="evenodd" fill-opacity="1"/>
<polyline clip-path="url(#clip950)" style="stroke:#000000; stroke-linecap:butt; stroke-linejoin:round; stroke-width:4; stroke-opacity:1; fill:none" points="
  1615.45,557.705 2280.75,557.705 2280.75,168.905 1615.45,168.905 1615.45,557.705 
  "/>
<polyline clip-path="url(#clip950)" style="stroke:#009af9; stroke-linecap:butt; stroke-linejoin:round; stroke-width:7.5; stroke-opacity:1; fill:none" points="
  1639.45,266.105 1783.45,266.105 
  "/>
<path clip-path="url(#clip950)" d="M1821.34 236.092 L1821.34 249.894 L1837.79 249.894 L1837.79 256.1 L1821.34 256.1 L1821.34 282.489 Q1821.34 288.435 1822.95 290.128 Q1824.6 291.821 1829.59 291.821 L1837.79 291.821 L1837.79 298.505 L1829.59 298.505 Q1820.34 298.505 1816.83 295.076 Q1813.31 291.604 1813.31 282.489 L1813.31 256.1 L1807.45 256.1 L1807.45 249.894 L1813.31 249.894 L1813.31 236.092 L1821.34 236.092 Z" fill="#000000" fill-rule="evenodd" fill-opacity="1" /><path clip-path="url(#clip950)" d="M1876.46 257.359 Q1875.12 256.578 1873.51 256.231 Q1871.95 255.84 1870.04 255.84 Q1863.27 255.84 1859.62 260.267 Q1856.02 264.651 1856.02 272.897 L1856.02 298.505 L1847.99 298.505 L1847.99 249.894 L1856.02 249.894 L1856.02 257.446 Q1858.54 253.019 1862.57 250.892 Q1866.61 248.722 1872.38 248.722 Q1873.21 248.722 1874.2 248.852 Q1875.2 248.939 1876.42 249.156 L1876.46 257.359 Z" fill="#000000" fill-rule="evenodd" fill-opacity="1" /><path clip-path="url(#clip950)" d="M1884.01 279.321 L1884.01 249.894 L1892 249.894 L1892 279.017 Q1892 285.918 1894.69 289.39 Q1897.38 292.819 1902.76 292.819 Q1909.23 292.819 1912.96 288.696 Q1916.74 284.572 1916.74 277.454 L1916.74 249.894 L1924.73 249.894 L1924.73 298.505 L1916.74 298.505 L1916.74 291.039 Q1913.83 295.466 1909.97 297.637 Q1906.15 299.763 1901.07 299.763 Q1892.69 299.763 1888.35 294.555 Q1884.01 289.347 1884.01 279.321 M1904.11 248.722 L1904.11 248.722 Z" fill="#000000" fill-rule="evenodd" fill-opacity="1" /><path clip-path="url(#clip950)" d="M1982.75 272.203 L1982.75 276.109 L1946.04 276.109 Q1946.56 284.355 1950.98 288.696 Q1955.45 292.993 1963.4 292.993 Q1968 292.993 1972.29 291.864 Q1976.63 290.736 1980.89 288.479 L1980.89 296.031 Q1976.59 297.854 1972.08 298.808 Q1967.56 299.763 1962.92 299.763 Q1951.29 299.763 1944.47 292.993 Q1937.7 286.222 1937.7 274.677 Q1937.7 262.741 1944.13 255.753 Q1950.59 248.722 1961.53 248.722 Q1971.34 248.722 1977.03 255.059 Q1982.75 261.352 1982.75 272.203 M1974.77 269.859 Q1974.68 263.305 1971.08 259.399 Q1967.52 255.493 1961.62 255.493 Q1954.93 255.493 1950.9 259.269 Q1946.9 263.045 1946.3 269.902 L1974.77 269.859 Z" fill="#000000" fill-rule="evenodd" fill-opacity="1" /><path clip-path="url(#clip950)" d="M2048.73 230.97 L2048.73 237.611 L2041.09 237.611 Q2036.79 237.611 2035.1 239.347 Q2033.45 241.083 2033.45 245.597 L2033.45 249.894 L2046.6 249.894 L2046.6 256.1 L2033.45 256.1 L2033.45 298.505 L2025.42 298.505 L2025.42 256.1 L2017.78 256.1 L2017.78 249.894 L2025.42 249.894 L2025.42 246.508 Q2025.42 238.392 2029.2 234.703 Q2032.97 230.97 2041.17 230.97 L2048.73 230.97 Z" fill="#000000" fill-rule="evenodd" fill-opacity="1" /><circle clip-path="url(#clip950)" cx="1711.45" cy="363.305" r="43" fill="#e26f46" fill-rule="evenodd" fill-opacity="1" stroke="#000000" stroke-opacity="1" stroke-width="9.6"/>
<path clip-path="url(#clip950)" d="M1842.91 354.472 L1842.91 328.17 L1850.9 328.17 L1850.9 395.705 L1842.91 395.705 L1842.91 388.413 Q1840.39 392.753 1836.53 394.88 Q1832.71 396.963 1827.33 396.963 Q1818.52 396.963 1812.96 389.932 Q1807.45 382.901 1807.45 371.443 Q1807.45 359.984 1812.96 352.953 Q1818.52 345.922 1827.33 345.922 Q1832.71 345.922 1836.53 348.049 Q1840.39 350.132 1842.91 354.472 M1815.7 371.443 Q1815.7 380.253 1819.3 385.288 Q1822.95 390.279 1829.28 390.279 Q1835.62 390.279 1839.27 385.288 Q1842.91 380.253 1842.91 371.443 Q1842.91 362.632 1839.27 357.641 Q1835.62 352.606 1829.28 352.606 Q1822.95 352.606 1819.3 357.641 Q1815.7 362.632 1815.7 371.443 Z" fill="#000000" fill-rule="evenodd" fill-opacity="1" /><path clip-path="url(#clip950)" d="M1889.44 371.269 Q1879.76 371.269 1876.03 373.483 Q1872.3 375.696 1872.3 381.035 Q1872.3 385.288 1875.07 387.805 Q1877.89 390.279 1882.71 390.279 Q1889.35 390.279 1893.35 385.592 Q1897.38 380.861 1897.38 373.049 L1897.38 371.269 L1889.44 371.269 M1905.37 367.97 L1905.37 395.705 L1897.38 395.705 L1897.38 388.326 Q1894.65 392.753 1890.57 394.88 Q1886.49 396.963 1880.59 396.963 Q1873.12 396.963 1868.69 392.797 Q1864.31 388.587 1864.31 381.555 Q1864.31 373.352 1869.78 369.186 Q1875.29 365.019 1886.18 365.019 L1897.38 365.019 L1897.38 364.238 Q1897.38 358.726 1893.74 355.731 Q1890.13 352.693 1883.58 352.693 Q1879.41 352.693 1875.46 353.691 Q1871.51 354.689 1867.87 356.686 L1867.87 349.307 Q1872.25 347.615 1876.38 346.79 Q1880.5 345.922 1884.4 345.922 Q1894.95 345.922 1900.16 351.391 Q1905.37 356.859 1905.37 367.97 Z" fill="#000000" fill-rule="evenodd" fill-opacity="1" /><path clip-path="url(#clip950)" d="M1929.72 333.292 L1929.72 347.094 L1946.17 347.094 L1946.17 353.3 L1929.72 353.3 L1929.72 379.689 Q1929.72 385.635 1931.32 387.328 Q1932.97 389.021 1937.96 389.021 L1946.17 389.021 L1946.17 395.705 L1937.96 395.705 Q1928.72 395.705 1925.2 392.276 Q1921.69 388.804 1921.69 379.689 L1921.69 353.3 L1915.83 353.3 L1915.83 347.094 L1921.69 347.094 L1921.69 333.292 L1929.72 333.292 Z" fill="#000000" fill-rule="evenodd" fill-opacity="1" /><path clip-path="url(#clip950)" d="M1978.76 371.269 Q1969.08 371.269 1965.35 373.483 Q1961.62 375.696 1961.62 381.035 Q1961.62 385.288 1964.4 387.805 Q1967.22 390.279 1972.03 390.279 Q1978.67 390.279 1982.67 385.592 Q1986.7 380.861 1986.7 373.049 L1986.7 371.269 L1978.76 371.269 M1994.69 367.97 L1994.69 395.705 L1986.7 395.705 L1986.7 388.326 Q1983.97 392.753 1979.89 394.88 Q1975.81 396.963 1969.91 396.963 Q1962.44 396.963 1958.02 392.797 Q1953.63 388.587 1953.63 381.555 Q1953.63 373.352 1959.1 369.186 Q1964.61 365.019 1975.51 365.019 L1986.7 365.019 L1986.7 364.238 Q1986.7 358.726 1983.06 355.731 Q1979.46 352.693 1972.9 352.693 Q1968.74 352.693 1964.79 353.691 Q1960.84 354.689 1957.19 356.686 L1957.19 349.307 Q1961.57 347.615 1965.7 346.79 Q1969.82 345.922 1973.73 345.922 Q1984.27 345.922 1989.48 351.391 Q1994.69 356.859 1994.69 367.97 Z" fill="#000000" fill-rule="evenodd" fill-opacity="1" /><polyline clip-path="url(#clip950)" style="stroke:#3da44d; stroke-linecap:butt; stroke-linejoin:round; stroke-width:7.5; stroke-opacity:1; fill:none" points="
  1639.45,460.505 1783.45,460.505 
  "/>
<path clip-path="url(#clip950)" d="M1816.22 435.309 L1816.22 459.658 L1827.24 459.658 Q1833.36 459.658 1836.71 456.49 Q1840.05 453.322 1840.05 447.462 Q1840.05 441.646 1836.71 438.478 Q1833.36 435.309 1827.24 435.309 L1816.22 435.309 M1807.45 428.105 L1827.24 428.105 Q1838.14 428.105 1843.69 433.053 Q1849.29 437.957 1849.29 447.462 Q1849.29 457.054 1843.69 461.959 Q1838.14 466.863 1827.24 466.863 L1816.22 466.863 L1816.22 492.905 L1807.45 492.905 L1807.45 428.105 Z" fill="#000000" fill-rule="evenodd" fill-opacity="1" /><path clip-path="url(#clip950)" d="M1887.31 451.759 Q1885.97 450.978 1884.36 450.631 Q1882.8 450.24 1880.89 450.24 Q1874.12 450.24 1870.47 454.667 Q1866.87 459.051 1866.87 467.297 L1866.87 492.905 L1858.84 492.905 L1858.84 444.294 L1866.87 444.294 L1866.87 451.846 Q1869.39 447.419 1873.42 445.292 Q1877.46 443.122 1883.23 443.122 Q1884.06 443.122 1885.06 443.252 Q1886.05 443.339 1887.27 443.556 L1887.31 451.759 Z" fill="#000000" fill-rule="evenodd" fill-opacity="1" /><path clip-path="url(#clip950)" d="M1935.32 466.603 L1935.32 470.509 L1898.6 470.509 Q1899.12 478.755 1903.55 483.096 Q1908.02 487.393 1915.96 487.393 Q1920.56 487.393 1924.86 486.264 Q1929.2 485.136 1933.45 482.879 L1933.45 490.431 Q1929.15 492.254 1924.64 493.208 Q1920.12 494.163 1915.48 494.163 Q1903.85 494.163 1897.03 487.393 Q1890.26 480.622 1890.26 469.077 Q1890.26 457.141 1896.69 450.153 Q1903.15 443.122 1914.09 443.122 Q1923.9 443.122 1929.59 449.459 Q1935.32 455.752 1935.32 466.603 M1927.33 464.259 Q1927.24 457.705 1923.64 453.799 Q1920.08 449.893 1914.18 449.893 Q1907.49 449.893 1903.46 453.669 Q1899.47 457.445 1898.86 464.302 L1927.33 464.259 Z" fill="#000000" fill-rule="evenodd" fill-opacity="1" /><path clip-path="url(#clip950)" d="M1980.41 451.672 L1980.41 425.37 L1988.4 425.37 L1988.4 492.905 L1980.41 492.905 L1980.41 485.613 Q1977.89 489.953 1974.03 492.08 Q1970.21 494.163 1964.83 494.163 Q1956.02 494.163 1950.46 487.132 Q1944.95 480.101 1944.95 468.643 Q1944.95 457.184 1950.46 450.153 Q1956.02 443.122 1964.83 443.122 Q1970.21 443.122 1974.03 445.249 Q1977.89 447.332 1980.41 451.672 M1953.2 468.643 Q1953.2 477.453 1956.8 482.488 Q1960.45 487.479 1966.78 487.479 Q1973.12 487.479 1976.77 482.488 Q1980.41 477.453 1980.41 468.643 Q1980.41 459.832 1976.77 454.841 Q1973.12 449.806 1966.78 449.806 Q1960.45 449.806 1956.8 454.841 Q1953.2 459.832 1953.2 468.643 Z" fill="#000000" fill-rule="evenodd" fill-opacity="1" /><path clip-path="url(#clip950)" d="M2004.85 444.294 L2012.83 444.294 L2012.83 492.905 L2004.85 492.905 L2004.85 444.294 M2004.85 425.37 L2012.83 425.37 L2012.83 435.483 L2004.85 435.483 L2004.85 425.37 Z" fill="#000000" fill-rule="evenodd" fill-opacity="1" /><path clip-path="url(#clip950)" d="M2064.53 446.16 L2064.53 453.625 Q2061.14 451.759 2057.71 450.848 Q2054.33 449.893 2050.85 449.893 Q2043.08 449.893 2038.79 454.841 Q2034.49 459.745 2034.49 468.643 Q2034.49 477.54 2038.79 482.488 Q2043.08 487.393 2050.85 487.393 Q2054.33 487.393 2057.71 486.481 Q2061.14 485.526 2064.53 483.66 L2064.53 491.038 Q2061.18 492.601 2057.58 493.382 Q2054.02 494.163 2049.99 494.163 Q2039 494.163 2032.54 487.262 Q2026.07 480.361 2026.07 468.643 Q2026.07 456.75 2032.58 449.936 Q2039.13 443.122 2050.51 443.122 Q2054.2 443.122 2057.71 443.903 Q2061.23 444.641 2064.53 446.16 Z" fill="#000000" fill-rule="evenodd" fill-opacity="1" /><path clip-path="url(#clip950)" d="M2086.31 430.492 L2086.31 444.294 L2102.76 444.294 L2102.76 450.5 L2086.31 450.5 L2086.31 476.889 Q2086.31 482.835 2087.92 484.528 Q2089.57 486.221 2094.56 486.221 L2102.76 486.221 L2102.76 492.905 L2094.56 492.905 Q2085.31 492.905 2081.8 489.476 Q2078.28 486.004 2078.28 476.889 L2078.28 450.5 L2072.42 450.5 L2072.42 444.294 L2078.28 444.294 L2078.28 430.492 L2086.31 430.492 Z" fill="#000000" fill-rule="evenodd" fill-opacity="1" /><path clip-path="url(#clip950)" d="M2113.27 444.294 L2121.25 444.294 L2121.25 492.905 L2113.27 492.905 L2113.27 444.294 M2113.27 425.37 L2121.25 425.37 L2121.25 435.483 L2113.27 435.483 L2113.27 425.37 Z" fill="#000000" fill-rule="evenodd" fill-opacity="1" /><path clip-path="url(#clip950)" d="M2156.8 449.893 Q2150.38 449.893 2146.64 454.927 Q2142.91 459.919 2142.91 468.643 Q2142.91 477.367 2146.6 482.401 Q2150.33 487.393 2156.8 487.393 Q2163.18 487.393 2166.91 482.358 Q2170.64 477.323 2170.64 468.643 Q2170.64 460.006 2166.91 454.971 Q2163.18 449.893 2156.8 449.893 M2156.8 443.122 Q2167.22 443.122 2173.16 449.893 Q2179.11 456.664 2179.11 468.643 Q2179.11 480.578 2173.16 487.393 Q2167.22 494.163 2156.8 494.163 Q2146.34 494.163 2140.39 487.393 Q2134.49 480.578 2134.49 468.643 Q2134.49 456.664 2140.39 449.893 Q2146.34 443.122 2156.8 443.122 Z" fill="#000000" fill-rule="evenodd" fill-opacity="1" /><path clip-path="url(#clip950)" d="M2232.75 463.565 L2232.75 492.905 L2224.77 492.905 L2224.77 463.825 Q2224.77 456.924 2222.08 453.495 Q2219.39 450.066 2214 450.066 Q2207.54 450.066 2203.8 454.19 Q2200.07 458.313 2200.07 465.431 L2200.07 492.905 L2192.04 492.905 L2192.04 444.294 L2200.07 444.294 L2200.07 451.846 Q2202.94 447.462 2206.8 445.292 Q2210.7 443.122 2215.78 443.122 Q2224.16 443.122 2228.46 448.33 Q2232.75 453.495 2232.75 463.565 Z" fill="#000000" fill-rule="evenodd" fill-opacity="1" /></svg>
