<?xml version="1.0" encoding="utf-8"?>
<svg xmlns="http://www.w3.org/2000/svg" xmlns:xlink="http://www.w3.org/1999/xlink" width="600" height="400" viewBox="0 0 2400 1600">
<defs>
  <clipPath id="clip960">
    <rect x="0" y="0" width="2400" height="1600"/>
  </clipPath>
</defs>
<path clip-path="url(#clip960)" d="
M0 1600 L2400 1600 L2400 0 L0 0  Z
  " fill="#ffffff" fill-rule="evenodd" fill-opacity="1"/>
<defs>
  <clipPath id="clip961">
    <rect x="480" y="0" width="1681" height="1600"/>
  </clipPath>
</defs>
<path clip-path="url(#clip960)" d="
M192.709 1486.45 L2352.76 1486.45 L2352.76 47.2441 L192.709 47.2441  Z
  " fill="#ffffff" fill-rule="evenodd" fill-opacity="1"/>
<defs>
  <clipPath id="clip962">
    <rect x="192" y="47" width="2161" height="1440"/>
  </clipPath>
</defs>
<polyline clip-path="url(#clip962)" style="stroke:#000000; stroke-linecap:butt; stroke-linejoin:round; stroke-width:2; stroke-opacity:0.1; fill:none" points="
  253.843,1486.45 253.843,47.2441 
  "/>
<polyline clip-path="url(#clip962)" style="stroke:#000000; stroke-linecap:butt; stroke-linejoin:round; stroke-width:2; stroke-opacity:0.1; fill:none" points="
  593.473,1486.45 593.473,47.2441 
  "/>
<polyline clip-path="url(#clip962)" style="stroke:#000000; stroke-linecap:butt; stroke-linejoin:round; stroke-width:2; stroke-opacity:0.1; fill:none" points="
  933.103,1486.45 933.103,47.2441 
  "/>
<polyline clip-path="url(#clip962)" style="stroke:#000000; stroke-linecap:butt; stroke-linejoin:round; stroke-width:2; stroke-opacity:0.1; fill:none" points="
  1272.73,1486.45 1272.73,47.2441 
  "/>
<polyline clip-path="url(#clip962)" style="stroke:#000000; stroke-linecap:butt; stroke-linejoin:round; stroke-width:2; stroke-opacity:0.1; fill:none" points="
  1612.36,1486.45 1612.36,47.2441 
  "/>
<polyline clip-path="url(#clip962)" style="stroke:#000000; stroke-linecap:butt; stroke-linejoin:round; stroke-width:2; stroke-opacity:0.1; fill:none" points="
  1951.99,1486.45 1951.99,47.2441 
  "/>
<polyline clip-path="url(#clip962)" style="stroke:#000000; stroke-linecap:butt; stroke-linejoin:round; stroke-width:2; stroke-opacity:0.1; fill:none" points="
  2291.62,1486.45 2291.62,47.2441 
  "/>
<polyline clip-path="url(#clip960)" style="stroke:#000000; stroke-linecap:butt; stroke-linejoin:round; stroke-width:4; stroke-opacity:1; fill:none" points="
  192.709,1486.45 2352.76,1486.45 
  "/>
<polyline clip-path="url(#clip960)" style="stroke:#000000; stroke-linecap:butt; stroke-linejoin:round; stroke-width:4; stroke-opacity:1; fill:none" points="
  253.843,1486.45 253.843,1467.55 
  "/>
<polyline clip-path="url(#clip960)" style="stroke:#000000; stroke-linecap:butt; stroke-linejoin:round; stroke-width:4; stroke-opacity:1; fill:none" points="
  593.473,1486.45 593.473,1467.55 
  "/>
<polyline clip-path="url(#clip960)" style="stroke:#000000; stroke-linecap:butt; stroke-linejoin:round; stroke-width:4; stroke-opacity:1; fill:none" points="
  933.103,1486.45 933.103,1467.55 
  "/>
<polyline clip-path="url(#clip960)" style="stroke:#000000; stroke-linecap:butt; stroke-linejoin:round; stroke-width:4; stroke-opacity:1; fill:none" points="
  1272.73,1486.45 1272.73,1467.55 
  "/>
<polyline clip-path="url(#clip960)" style="stroke:#000000; stroke-linecap:butt; stroke-linejoin:round; stroke-width:4; stroke-opacity:1; fill:none" points="
  1612.36,1486.45 1612.36,1467.55 
  "/>
<polyline clip-path="url(#clip960)" style="stroke:#000000; stroke-linecap:butt; stroke-linejoin:round; stroke-width:4; stroke-opacity:1; fill:none" points="
  1951.99,1486.45 1951.99,1467.55 
  "/>
<polyline clip-path="url(#clip960)" style="stroke:#000000; stroke-linecap:butt; stroke-linejoin:round; stroke-width:4; stroke-opacity:1; fill:none" points="
  2291.62,1486.45 2291.62,1467.55 
  "/>
<path clip-path="url(#clip960)" d="M223.31 1532.02 L252.986 1532.02 L252.986 1535.95 L223.31 1535.95 L223.31 1532.02 Z" fill="#000000" fill-rule="evenodd" fill-opacity="1" /><path clip-path="url(#clip960)" d="M277.245 1530.21 Q280.602 1530.93 282.477 1533.2 Q284.375 1535.47 284.375 1538.8 Q284.375 1543.92 280.856 1546.72 Q277.338 1549.52 270.856 1549.52 Q268.68 1549.52 266.366 1549.08 Q264.074 1548.66 261.62 1547.81 L261.62 1543.29 Q263.565 1544.43 265.88 1545.01 Q268.194 1545.58 270.717 1545.58 Q275.116 1545.58 277.407 1543.85 Q279.722 1542.11 279.722 1538.8 Q279.722 1535.75 277.569 1534.03 Q275.44 1532.3 271.62 1532.3 L267.592 1532.3 L267.592 1528.45 L271.805 1528.45 Q275.254 1528.45 277.083 1527.09 Q278.912 1525.7 278.912 1523.11 Q278.912 1520.45 277.014 1519.03 Q275.139 1517.6 271.62 1517.6 Q269.699 1517.6 267.5 1518.01 Q265.301 1518.43 262.662 1519.31 L262.662 1515.14 Q265.324 1514.4 267.639 1514.03 Q269.977 1513.66 272.037 1513.66 Q277.361 1513.66 280.463 1516.09 Q283.565 1518.5 283.565 1522.62 Q283.565 1525.49 281.921 1527.48 Q280.278 1529.45 277.245 1530.21 Z" fill="#000000" fill-rule="evenodd" fill-opacity="1" /><path clip-path="url(#clip960)" d="M563.415 1532.02 L593.091 1532.02 L593.091 1535.95 L563.415 1535.95 L563.415 1532.02 Z" fill="#000000" fill-rule="evenodd" fill-opacity="1" /><path clip-path="url(#clip960)" d="M607.211 1544.91 L623.53 1544.91 L623.53 1548.85 L601.586 1548.85 L601.586 1544.91 Q604.248 1542.16 608.831 1537.53 Q613.438 1532.88 614.618 1531.53 Q616.864 1529.01 617.743 1527.27 Q618.646 1525.51 618.646 1523.82 Q618.646 1521.07 616.702 1519.33 Q614.78 1517.6 611.678 1517.6 Q609.479 1517.6 607.026 1518.36 Q604.595 1519.13 601.817 1520.68 L601.817 1515.95 Q604.641 1514.82 607.095 1514.24 Q609.549 1513.66 611.586 1513.66 Q616.956 1513.66 620.151 1516.35 Q623.345 1519.03 623.345 1523.52 Q623.345 1525.65 622.535 1527.57 Q621.748 1529.47 619.641 1532.07 Q619.063 1532.74 615.961 1535.95 Q612.859 1539.15 607.211 1544.91 Z" fill="#000000" fill-rule="evenodd" fill-opacity="1" /><path clip-path="url(#clip960)" d="M902.86 1532.02 L932.535 1532.02 L932.535 1535.95 L902.86 1535.95 L902.86 1532.02 Z" fill="#000000" fill-rule="evenodd" fill-opacity="1" /><path clip-path="url(#clip960)" d="M943.438 1544.91 L951.077 1544.91 L951.077 1518.55 L942.767 1520.21 L942.767 1515.95 L951.031 1514.29 L955.707 1514.29 L955.707 1544.91 L963.345 1544.91 L963.345 1548.85 L943.438 1548.85 L943.438 1544.91 Z" fill="#000000" fill-rule="evenodd" fill-opacity="1" /><path clip-path="url(#clip960)" d="M1272.73 1517.37 Q1269.12 1517.37 1267.29 1520.93 Q1265.49 1524.47 1265.49 1531.6 Q1265.49 1538.71 1267.29 1542.27 Q1269.12 1545.82 1272.73 1545.82 Q1276.37 1545.82 1278.17 1542.27 Q1280 1538.71 1280 1531.6 Q1280 1524.47 1278.17 1520.93 Q1276.37 1517.37 1272.73 1517.37 M1272.73 1513.66 Q1278.54 1513.66 1281.6 1518.27 Q1284.68 1522.85 1284.68 1531.6 Q1284.68 1540.33 1281.6 1544.94 Q1278.54 1549.52 1272.73 1549.52 Q1266.92 1549.52 1263.84 1544.94 Q1260.79 1540.33 1260.79 1531.6 Q1260.79 1522.85 1263.84 1518.27 Q1266.92 1513.66 1272.73 1513.66 Z" fill="#000000" fill-rule="evenodd" fill-opacity="1" /><path clip-path="url(#clip960)" d="M1602.74 1544.91 L1610.38 1544.91 L1610.38 1518.55 L1602.07 1520.21 L1602.07 1515.95 L1610.34 1514.29 L1615.01 1514.29 L1615.01 1544.91 L1622.65 1544.91 L1622.65 1548.85 L1602.74 1548.85 L1602.74 1544.91 Z" fill="#000000" fill-rule="evenodd" fill-opacity="1" /><path clip-path="url(#clip960)" d="M1946.65 1544.91 L1962.96 1544.91 L1962.96 1548.85 L1941.02 1548.85 L1941.02 1544.91 Q1943.68 1542.16 1948.27 1537.53 Q1952.87 1532.88 1954.05 1531.53 Q1956.3 1529.01 1957.18 1527.27 Q1958.08 1525.51 1958.08 1523.82 Q1958.08 1521.07 1956.14 1519.33 Q1954.21 1517.6 1951.11 1517.6 Q1948.91 1517.6 1946.46 1518.36 Q1944.03 1519.13 1941.25 1520.68 L1941.25 1515.95 Q1944.08 1514.82 1946.53 1514.24 Q1948.98 1513.66 1951.02 1513.66 Q1956.39 1513.66 1959.59 1516.35 Q1962.78 1519.03 1962.78 1523.52 Q1962.78 1525.65 1961.97 1527.57 Q1961.18 1529.47 1959.08 1532.07 Q1958.5 1532.74 1955.4 1535.95 Q1952.29 1539.15 1946.65 1544.91 Z" fill="#000000" fill-rule="evenodd" fill-opacity="1" /><path clip-path="url(#clip960)" d="M2295.87 1530.21 Q2299.23 1530.93 2301.1 1533.2 Q2303 1535.47 2303 1538.8 Q2303 1543.92 2299.48 1546.72 Q2295.96 1549.52 2289.48 1549.52 Q2287.31 1549.52 2284.99 1549.08 Q2282.7 1548.66 2280.25 1547.81 L2280.25 1543.29 Q2282.19 1544.43 2284.5 1545.01 Q2286.82 1545.58 2289.34 1545.58 Q2293.74 1545.58 2296.03 1543.85 Q2298.35 1542.11 2298.35 1538.8 Q2298.35 1535.75 2296.19 1534.03 Q2294.06 1532.3 2290.25 1532.3 L2286.22 1532.3 L2286.22 1528.45 L2290.43 1528.45 Q2293.88 1528.45 2295.71 1527.09 Q2297.54 1525.7 2297.54 1523.11 Q2297.54 1520.45 2295.64 1519.03 Q2293.76 1517.6 2290.25 1517.6 Q2288.32 1517.6 2286.12 1518.01 Q2283.93 1518.43 2281.29 1519.31 L2281.29 1515.14 Q2283.95 1514.4 2286.26 1514.03 Q2288.6 1513.66 2290.66 1513.66 Q2295.99 1513.66 2299.09 1516.09 Q2302.19 1518.5 2302.19 1522.62 Q2302.19 1525.49 2300.55 1527.48 Q2298.9 1529.45 2295.87 1530.21 Z" fill="#000000" fill-rule="evenodd" fill-opacity="1" /><polyline clip-path="url(#clip962)" style="stroke:#000000; stroke-linecap:butt; stroke-linejoin:round; stroke-width:2; stroke-opacity:0.1; fill:none" points="
  192.709,1407.05 2352.76,1407.05 
  "/>
<polyline clip-path="url(#clip962)" style="stroke:#000000; stroke-linecap:butt; stroke-linejoin:round; stroke-width:2; stroke-opacity:0.1; fill:none" points="
  192.709,1182.2 2352.76,1182.2 
  "/>
<polyline clip-path="url(#clip962)" style="stroke:#000000; stroke-linecap:butt; stroke-linejoin:round; stroke-width:2; stroke-opacity:0.1; fill:none" points="
  192.709,957.358 2352.76,957.358 
  "/>
<polyline clip-path="url(#clip962)" style="stroke:#000000; stroke-linecap:butt; stroke-linejoin:round; stroke-width:2; stroke-opacity:0.1; fill:none" points="
  192.709,732.512 2352.76,732.512 
  "/>
<polyline clip-path="url(#clip962)" style="stroke:#000000; stroke-linecap:butt; stroke-linejoin:round; stroke-width:2; stroke-opacity:0.1; fill:none" points="
  192.709,507.665 2352.76,507.665 
  "/>
<polyline clip-path="url(#clip962)" style="stroke:#000000; stroke-linecap:butt; stroke-linejoin:round; stroke-width:2; stroke-opacity:0.1; fill:none" points="
  192.709,282.819 2352.76,282.819 
  "/>
<polyline clip-path="url(#clip962)" style="stroke:#000000; stroke-linecap:butt; stroke-linejoin:round; stroke-width:2; stroke-opacity:0.1; fill:none" points="
  192.709,57.972 2352.76,57.972 
  "/>
<polyline clip-path="url(#clip960)" style="stroke:#000000; stroke-linecap:butt; stroke-linejoin:round; stroke-width:4; stroke-opacity:1; fill:none" points="
  192.709,1486.45 192.709,47.2441 
  "/>
<polyline clip-path="url(#clip960)" style="stroke:#000000; stroke-linecap:butt; stroke-linejoin:round; stroke-width:4; stroke-opacity:1; fill:none" points="
  192.709,1407.05 211.607,1407.05 
  "/>
<polyline clip-path="url(#clip960)" style="stroke:#000000; stroke-linecap:butt; stroke-linejoin:round; stroke-width:4; stroke-opacity:1; fill:none" points="
  192.709,1182.2 211.607,1182.2 
  "/>
<polyline clip-path="url(#clip960)" style="stroke:#000000; stroke-linecap:butt; stroke-linejoin:round; stroke-width:4; stroke-opacity:1; fill:none" points="
  192.709,957.358 211.607,957.358 
  "/>
<polyline clip-path="url(#clip960)" style="stroke:#000000; stroke-linecap:butt; stroke-linejoin:round; stroke-width:4; stroke-opacity:1; fill:none" points="
  192.709,732.512 211.607,732.512 
  "/>
<polyline clip-path="url(#clip960)" style="stroke:#000000; stroke-linecap:butt; stroke-linejoin:round; stroke-width:4; stroke-opacity:1; fill:none" points="
  192.709,507.665 211.607,507.665 
  "/>
<polyline clip-path="url(#clip960)" style="stroke:#000000; stroke-linecap:butt; stroke-linejoin:round; stroke-width:4; stroke-opacity:1; fill:none" points="
  192.709,282.819 211.607,282.819 
  "/>
<polyline clip-path="url(#clip960)" style="stroke:#000000; stroke-linecap:butt; stroke-linejoin:round; stroke-width:4; stroke-opacity:1; fill:none" points="
  192.709,57.972 211.607,57.972 
  "/>
<path clip-path="url(#clip960)" d="M51.3625 1407.5 L81.0383 1407.5 L81.0383 1411.44 L51.3625 1411.44 L51.3625 1407.5 Z" fill="#000000" fill-rule="evenodd" fill-opacity="1" /><path clip-path="url(#clip960)" d="M101.131 1392.85 Q97.5197 1392.85 95.691 1396.41 Q93.8854 1399.96 93.8854 1407.09 Q93.8854 1414.19 95.691 1417.76 Q97.5197 1421.3 101.131 1421.3 Q104.765 1421.3 106.571 1417.76 Q108.399 1414.19 108.399 1407.09 Q108.399 1399.96 106.571 1396.41 Q104.765 1392.85 101.131 1392.85 M101.131 1389.15 Q106.941 1389.15 109.996 1393.75 Q113.075 1398.34 113.075 1407.09 Q113.075 1415.81 109.996 1420.42 Q106.941 1425 101.131 1425 Q95.3206 1425 92.2419 1420.42 Q89.1864 1415.81 89.1864 1407.09 Q89.1864 1398.34 92.2419 1393.75 Q95.3206 1389.15 101.131 1389.15 Z" fill="#000000" fill-rule="evenodd" fill-opacity="1" /><path clip-path="url(#clip960)" d="M121.293 1418.45 L126.177 1418.45 L126.177 1424.33 L121.293 1424.33 L121.293 1418.45 Z" fill="#000000" fill-rule="evenodd" fill-opacity="1" /><path clip-path="url(#clip960)" d="M140.39 1420.4 L156.709 1420.4 L156.709 1424.33 L134.765 1424.33 L134.765 1420.4 Q137.427 1417.64 142.01 1413.01 Q146.617 1408.36 147.797 1407.02 Q150.043 1404.49 150.922 1402.76 Q151.825 1401 151.825 1399.31 Q151.825 1396.55 149.88 1394.82 Q147.959 1393.08 144.857 1393.08 Q142.658 1393.08 140.205 1393.85 Q137.774 1394.61 134.996 1396.16 L134.996 1391.44 Q137.82 1390.3 140.274 1389.72 Q142.728 1389.15 144.765 1389.15 Q150.135 1389.15 153.33 1391.83 Q156.524 1394.52 156.524 1399.01 Q156.524 1401.14 155.714 1403.06 Q154.927 1404.96 152.82 1407.55 Q152.242 1408.22 149.14 1411.44 Q146.038 1414.63 140.39 1420.4 Z" fill="#000000" fill-rule="evenodd" fill-opacity="1" /><path clip-path="url(#clip960)" d="M50.9921 1182.66 L80.6679 1182.66 L80.6679 1186.59 L50.9921 1186.59 L50.9921 1182.66 Z" fill="#000000" fill-rule="evenodd" fill-opacity="1" /><path clip-path="url(#clip960)" d="M100.76 1168 Q97.1493 1168 95.3206 1171.57 Q93.515 1175.11 93.515 1182.24 Q93.515 1189.35 95.3206 1192.91 Q97.1493 1196.45 100.76 1196.45 Q104.395 1196.45 106.2 1192.91 Q108.029 1189.35 108.029 1182.24 Q108.029 1175.11 106.2 1171.57 Q104.395 1168 100.76 1168 M100.76 1164.3 Q106.571 1164.3 109.626 1168.91 Q112.705 1173.49 112.705 1182.24 Q112.705 1190.97 109.626 1195.57 Q106.571 1200.16 100.76 1200.16 Q94.9502 1200.16 91.8715 1195.57 Q88.816 1190.97 88.816 1182.24 Q88.816 1173.49 91.8715 1168.91 Q94.9502 1164.3 100.76 1164.3 Z" fill="#000000" fill-rule="evenodd" fill-opacity="1" /><path clip-path="url(#clip960)" d="M120.922 1193.61 L125.807 1193.61 L125.807 1199.48 L120.922 1199.48 L120.922 1193.61 Z" fill="#000000" fill-rule="evenodd" fill-opacity="1" /><path clip-path="url(#clip960)" d="M136.802 1195.55 L144.441 1195.55 L144.441 1169.18 L136.131 1170.85 L136.131 1166.59 L144.394 1164.92 L149.07 1164.92 L149.07 1195.55 L156.709 1195.55 L156.709 1199.48 L136.802 1199.48 L136.802 1195.55 Z" fill="#000000" fill-rule="evenodd" fill-opacity="1" /><path clip-path="url(#clip960)" d="M99.5335 943.157 Q95.9224 943.157 94.0937 946.722 Q92.2882 950.263 92.2882 957.393 Q92.2882 964.499 94.0937 968.064 Q95.9224 971.606 99.5335 971.606 Q103.168 971.606 104.973 968.064 Q106.802 964.499 106.802 957.393 Q106.802 950.263 104.973 946.722 Q103.168 943.157 99.5335 943.157 M99.5335 939.453 Q105.344 939.453 108.399 944.06 Q111.478 948.643 111.478 957.393 Q111.478 966.12 108.399 970.726 Q105.344 975.309 99.5335 975.309 Q93.7234 975.309 90.6447 970.726 Q87.5892 966.12 87.5892 957.393 Q87.5892 948.643 90.6447 944.06 Q93.7234 939.453 99.5335 939.453 Z" fill="#000000" fill-rule="evenodd" fill-opacity="1" /><path clip-path="url(#clip960)" d="M119.695 968.759 L124.58 968.759 L124.58 974.638 L119.695 974.638 L119.695 968.759 Z" fill="#000000" fill-rule="evenodd" fill-opacity="1" /><path clip-path="url(#clip960)" d="M144.765 943.157 Q141.154 943.157 139.325 946.722 Q137.519 950.263 137.519 957.393 Q137.519 964.499 139.325 968.064 Q141.154 971.606 144.765 971.606 Q148.399 971.606 150.205 968.064 Q152.033 964.499 152.033 957.393 Q152.033 950.263 150.205 946.722 Q148.399 943.157 144.765 943.157 M144.765 939.453 Q150.575 939.453 153.63 944.06 Q156.709 948.643 156.709 957.393 Q156.709 966.12 153.63 970.726 Q150.575 975.309 144.765 975.309 Q138.955 975.309 135.876 970.726 Q132.82 966.12 132.82 957.393 Q132.82 948.643 135.876 944.06 Q138.955 939.453 144.765 939.453 Z" fill="#000000" fill-rule="evenodd" fill-opacity="1" /><path clip-path="url(#clip960)" d="M100.76 718.31 Q97.1493 718.31 95.3206 721.875 Q93.515 725.417 93.515 732.546 Q93.515 739.653 95.3206 743.218 Q97.1493 746.759 100.76 746.759 Q104.395 746.759 106.2 743.218 Q108.029 739.653 108.029 732.546 Q108.029 725.417 106.2 721.875 Q104.395 718.31 100.76 718.31 M100.76 714.607 Q106.571 714.607 109.626 719.213 Q112.705 723.796 112.705 732.546 Q112.705 741.273 109.626 745.88 Q106.571 750.463 100.76 750.463 Q94.9502 750.463 91.8715 745.88 Q88.816 741.273 88.816 732.546 Q88.816 723.796 91.8715 719.213 Q94.9502 714.607 100.76 714.607 Z" fill="#000000" fill-rule="evenodd" fill-opacity="1" /><path clip-path="url(#clip960)" d="M120.922 743.912 L125.807 743.912 L125.807 749.792 L120.922 749.792 L120.922 743.912 Z" fill="#000000" fill-rule="evenodd" fill-opacity="1" /><path clip-path="url(#clip960)" d="M136.802 745.856 L144.441 745.856 L144.441 719.491 L136.131 721.157 L136.131 716.898 L144.394 715.232 L149.07 715.232 L149.07 745.856 L156.709 745.856 L156.709 749.792 L136.802 749.792 L136.802 745.856 Z" fill="#000000" fill-rule="evenodd" fill-opacity="1" /><path clip-path="url(#clip960)" d="M101.131 493.464 Q97.5197 493.464 95.691 497.029 Q93.8854 500.57 93.8854 507.7 Q93.8854 514.806 95.691 518.371 Q97.5197 521.913 101.131 521.913 Q104.765 521.913 106.571 518.371 Q108.399 514.806 108.399 507.7 Q108.399 500.57 106.571 497.029 Q104.765 493.464 101.131 493.464 M101.131 489.76 Q106.941 489.76 109.996 494.367 Q113.075 498.95 113.075 507.7 Q113.075 516.427 109.996 521.033 Q106.941 525.616 101.131 525.616 Q95.3206 525.616 92.2419 521.033 Q89.1864 516.427 89.1864 507.7 Q89.1864 498.95 92.2419 494.367 Q95.3206 489.76 101.131 489.76 Z" fill="#000000" fill-rule="evenodd" fill-opacity="1" /><path clip-path="url(#clip960)" d="M121.293 519.065 L126.177 519.065 L126.177 524.945 L121.293 524.945 L121.293 519.065 Z" fill="#000000" fill-rule="evenodd" fill-opacity="1" /><path clip-path="url(#clip960)" d="M140.39 521.01 L156.709 521.01 L156.709 524.945 L134.765 524.945 L134.765 521.01 Q137.427 518.255 142.01 513.626 Q146.617 508.973 147.797 507.63 Q150.043 505.107 150.922 503.371 Q151.825 501.612 151.825 499.922 Q151.825 497.167 149.88 495.431 Q147.959 493.695 144.857 493.695 Q142.658 493.695 140.205 494.459 Q137.774 495.223 134.996 496.774 L134.996 492.052 Q137.82 490.917 140.274 490.339 Q142.728 489.76 144.765 489.76 Q150.135 489.76 153.33 492.445 Q156.524 495.13 156.524 499.621 Q156.524 501.751 155.714 503.672 Q154.927 505.57 152.82 508.163 Q152.242 508.834 149.14 512.052 Q146.038 515.246 140.39 521.01 Z" fill="#000000" fill-rule="evenodd" fill-opacity="1" /><path clip-path="url(#clip960)" d="M100.182 268.617 Q96.5706 268.617 94.7419 272.182 Q92.9363 275.724 92.9363 282.853 Q92.9363 289.96 94.7419 293.525 Q96.5706 297.066 100.182 297.066 Q103.816 297.066 105.621 293.525 Q107.45 289.96 107.45 282.853 Q107.45 275.724 105.621 272.182 Q103.816 268.617 100.182 268.617 M100.182 264.914 Q105.992 264.914 109.047 269.52 Q112.126 274.103 112.126 282.853 Q112.126 291.58 109.047 296.187 Q105.992 300.77 100.182 300.77 Q94.3715 300.77 91.2928 296.187 Q88.2373 291.58 88.2373 282.853 Q88.2373 274.103 91.2928 269.52 Q94.3715 264.914 100.182 264.914 Z" fill="#000000" fill-rule="evenodd" fill-opacity="1" /><path clip-path="url(#clip960)" d="M120.344 294.219 L125.228 294.219 L125.228 300.099 L120.344 300.099 L120.344 294.219 Z" fill="#000000" fill-rule="evenodd" fill-opacity="1" /><path clip-path="url(#clip960)" d="M149.58 281.464 Q152.936 282.182 154.811 284.45 Q156.709 286.719 156.709 290.052 Q156.709 295.168 153.191 297.969 Q149.672 300.77 143.191 300.77 Q141.015 300.77 138.7 300.33 Q136.408 299.913 133.955 299.057 L133.955 294.543 Q135.899 295.677 138.214 296.256 Q140.529 296.835 143.052 296.835 Q147.45 296.835 149.742 295.099 Q152.056 293.362 152.056 290.052 Q152.056 286.997 149.904 285.284 Q147.774 283.548 143.955 283.548 L139.927 283.548 L139.927 279.705 L144.14 279.705 Q147.589 279.705 149.418 278.339 Q151.246 276.951 151.246 274.358 Q151.246 271.696 149.348 270.284 Q147.473 268.849 143.955 268.849 Q142.033 268.849 139.834 269.265 Q137.635 269.682 134.996 270.562 L134.996 266.395 Q137.658 265.654 139.973 265.284 Q142.311 264.914 144.371 264.914 Q149.695 264.914 152.797 267.344 Q155.899 269.751 155.899 273.872 Q155.899 276.742 154.255 278.733 Q152.612 280.701 149.58 281.464 Z" fill="#000000" fill-rule="evenodd" fill-opacity="1" /><path clip-path="url(#clip960)" d="M99.0474 43.7707 Q95.4363 43.7707 93.6076 47.3355 Q91.8021 50.8772 91.8021 58.0068 Q91.8021 65.1132 93.6076 68.678 Q95.4363 72.2196 99.0474 72.2196 Q102.682 72.2196 104.487 68.678 Q106.316 65.1132 106.316 58.0068 Q106.316 50.8772 104.487 47.3355 Q102.682 43.7707 99.0474 43.7707 M99.0474 40.067 Q104.858 40.067 107.913 44.6735 Q110.992 49.2568 110.992 58.0068 Q110.992 66.7336 107.913 71.34 Q104.858 75.9233 99.0474 75.9233 Q93.2373 75.9233 90.1586 71.34 Q87.103 66.7336 87.103 58.0068 Q87.103 49.2568 90.1586 44.6735 Q93.2373 40.067 99.0474 40.067 Z" fill="#000000" fill-rule="evenodd" fill-opacity="1" /><path clip-path="url(#clip960)" d="M119.209 69.3724 L124.094 69.3724 L124.094 75.252 L119.209 75.252 L119.209 69.3724 Z" fill="#000000" fill-rule="evenodd" fill-opacity="1" /><path clip-path="url(#clip960)" d="M147.126 44.7661 L135.32 63.2151 L147.126 63.2151 L147.126 44.7661 M145.899 40.692 L151.779 40.692 L151.779 63.2151 L156.709 63.2151 L156.709 67.1039 L151.779 67.1039 L151.779 75.252 L147.126 75.252 L147.126 67.1039 L131.524 67.1039 L131.524 62.5901 L145.899 40.692 Z" fill="#000000" fill-rule="evenodd" fill-opacity="1" /><polyline clip-path="url(#clip962)" style="stroke:#009af9; stroke-linecap:butt; stroke-linejoin:round; stroke-width:12; stroke-opacity:1; fill:none" points="
  253.843,957.358 257.239,930.773 260.635,966.563 264.031,982.758 267.428,942.896 270.824,932.48 274.22,973.461 277.617,983.783 281.013,943.286 284.409,927.5 
  287.806,964.905 291.202,990.602 294.598,961.645 297.994,924.764 301.391,937.135 304.787,980.091 308.183,991.822 311.58,956.333 314.976,921.093 318.372,931.098 
  321.769,973.656 325.165,998.224 328.561,977.124 331.957,933.868 335.354,914.026 338.75,937.274 342.146,980.573 345.543,1003.45 348.939,985.787 352.335,943.313 
  355.732,911.326 359.128,914.918 362.524,950.794 365.92,992.317 369.317,1010.39 372.713,993.292 376.109,952.653 379.506,913.992 382.902,900.19 386.298,918.638 
  389.695,958.655 393.091,998.868 396.487,1019.06 399.883,1009.88 403.28,976.164 406.676,933.379 410.072,899.938 413.469,889.321 416.865,905.219 420.261,941.095 
  423.658,983.571 427.054,1017.79 430.45,1032.56 433.846,1023.58 437.243,994.128 440.639,953.289 444.035,912.821 447.432,883.653 450.828,873.098 454.224,883.364 
  457.621,911.531 461.017,950.742 464.413,992.125 467.809,1026.9 471.206,1048.19 474.602,1052.15 477.998,1038.47 481.395,1009.98 484.791,971.933 488.187,930.814 
  491.584,893.197 494.98,864.707 498.376,849.279 501.772,848.76 505.169,862.865 508.565,889.43 511.961,924.873 515.358,964.776 518.754,1004.49 522.15,1039.67 
  525.547,1066.73 528.943,1083.15 532.339,1087.59 535.735,1079.93 539.132,1061.14 542.528,1033.12 545.924,998.378 549.321,959.834 552.717,920.503 556.113,883.269 
  559.51,850.685 562.906,824.826 566.302,807.195 569.698,798.682 573.095,799.567 576.491,809.568 579.887,827.908 583.284,853.414 586.68,884.613 590.076,919.844 
  593.473,957.358 596.869,995.412 600.265,1032.35 603.661,1066.66 607.058,1097.05 610.454,1122.45 613.85,1142.04 617.247,1155.29 620.643,1161.91 624.039,1161.83 
  627.436,1155.24 630.832,1142.51 634.228,1124.15 637.624,1100.82 641.021,1073.27 644.417,1042.33 647.813,1008.84 651.21,973.668 654.606,937.665 658.002,901.645 
  661.399,866.368 664.795,832.535 668.191,800.77 671.587,771.618 674.984,745.538 678.38,722.905 681.776,704.006 685.173,689.05 688.569,678.164 691.965,671.404 
  695.362,668.758 698.758,670.155 702.154,675.468 705.55,684.528 708.947,697.124 712.343,713.012 715.739,731.926 719.136,753.578 722.532,777.668 725.928,803.886 
  729.325,831.922 732.721,861.462 736.117,892.202 739.513,923.842 742.91,956.093 746.306,988.682 749.702,1021.35 753.099,1053.84 756.495,1085.94 759.891,1117.43 
  763.288,1148.12 766.684,1177.85 770.08,1206.44 773.476,1233.77 776.873,1259.71 780.269,1284.17 783.665,1307.05 787.062,1328.28 790.458,1347.81 793.854,1365.59 
  797.251,1381.59 800.647,1395.8 804.043,1408.2 807.439,1418.8 810.836,1427.61 814.232,1434.65 817.628,1439.94 821.025,1443.53 824.421,1445.44 827.817,1445.72 
  831.214,1444.42 834.61,1441.59 838.006,1437.28 841.402,1431.57 844.799,1424.49 848.195,1416.12 851.591,1406.51 854.988,1395.73 858.384,1383.84 861.78,1370.91 
  865.177,1356.99 868.573,1342.15 871.969,1326.44 875.365,1309.94 878.762,1292.69 882.158,1274.75 885.554,1256.19 888.951,1237.04 892.347,1217.38 895.743,1197.24 
  899.14,1176.68 902.536,1155.75 905.932,1134.48 909.328,1112.93 912.725,1091.14 916.121,1069.14 919.517,1046.97 922.914,1024.68 926.31,1002.29 929.706,979.838 
  933.103,957.358 936.499,934.878 939.895,912.426 943.291,890.029 946.688,867.712 950.084,845.497 953.48,823.409 956.877,801.467 960.273,779.691 963.669,758.1 
  967.066,736.711 970.462,715.54 973.858,694.602 977.254,673.911 980.651,653.481 984.047,633.322 987.443,613.448 990.84,593.867 994.236,574.59 997.632,555.627 
  1001.03,536.984 1004.42,518.671 1007.82,500.693 1011.22,483.058 1014.61,465.772 1018.01,448.84 1021.41,432.268 1024.8,416.061 1028.2,400.222 1031.6,384.756 
  1034.99,369.668 1038.39,354.96 1041.78,340.636 1045.18,326.7 1048.58,313.154 1051.97,300.002 1055.37,287.246 1058.77,274.89 1062.16,262.935 1065.56,251.386 
  1068.95,240.245 1072.35,229.514 1075.75,219.198 1079.14,209.298 1082.54,199.819 1085.94,190.764 1089.33,182.136 1092.73,173.94 1096.12,166.18 1099.52,158.86 
  1102.92,151.985 1106.31,145.561 1109.71,139.593 1113.11,134.088 1116.5,129.051 1119.9,124.491 1123.3,120.414 1126.69,116.83 1130.09,113.748 1133.48,111.178 
  1136.88,109.129 1140.28,107.615 1143.67,106.647 1147.07,106.24 1150.47,106.408 1153.86,107.167 1157.26,108.535 1160.65,110.531 1164.05,113.175 1167.45,116.489 
  1170.84,120.499 1174.24,125.23 1177.64,130.712 1181.03,136.974 1184.43,144.053 1187.83,151.985 1191.22,160.812 1194.62,170.577 1198.01,181.331 1201.41,193.127 
  1204.81,206.025 1208.2,220.092 1211.6,235.401 1215,252.032 1218.39,270.078 1221.79,289.641 1225.18,310.835 1228.58,333.792 1231.98,358.66 1235.37,385.611 
  1238.77,414.846 1242.17,446.598 1245.56,481.15 1248.96,518.843 1252.35,560.105 1255.75,605.492 1259.15,655.758 1262.54,712.008 1265.94,776.072 1269.34,851.744 
  1272.73,957.358 1276.13,851.744 1279.53,776.072 1282.92,712.008 1286.32,655.758 1289.71,605.492 1293.11,560.105 1296.51,518.843 1299.9,481.15 1303.3,446.598 
  1306.7,414.846 1310.09,385.611 1313.49,358.66 1316.88,333.792 1320.28,310.835 1323.68,289.641 1327.07,270.078 1330.47,252.032 1333.87,235.401 1337.26,220.092 
  1340.66,206.025 1344.05,193.127 1347.45,181.331 1350.85,170.577 1354.24,160.812 1357.64,151.985 1361.04,144.053 1364.43,136.974 1367.83,130.712 1371.23,125.23 
  1374.62,120.499 1378.02,116.489 1381.41,113.175 1384.81,110.531 1388.21,108.535 1391.6,107.167 1395,106.408 1398.4,106.24 1401.79,106.647 1405.19,107.615 
  1408.58,109.129 1411.98,111.178 1415.38,113.748 1418.77,116.83 1422.17,120.414 1425.57,124.491 1428.96,129.051 1432.36,134.088 1435.75,139.593 1439.15,145.561 
  1442.55,151.985 1445.94,158.86 1449.34,166.18 1452.74,173.94 1456.13,182.136 1459.53,190.764 1462.93,199.819 1466.32,209.298 1469.72,219.198 1473.11,229.514 
  1476.51,240.245 1479.91,251.386 1483.3,262.935 1486.7,274.89 1490.1,287.246 1493.49,300.002 1496.89,313.154 1500.28,326.7 1503.68,340.636 1507.08,354.96 
  1510.47,369.668 1513.87,384.756 1517.27,400.222 1520.66,416.061 1524.06,432.268 1527.46,448.84 1530.85,465.772 1534.25,483.058 1537.64,500.693 1541.04,518.671 
  1544.44,536.984 1547.83,555.627 1551.23,574.59 1554.63,593.867 1558.02,613.448 1561.42,633.322 1564.81,653.481 1568.21,673.911 1571.61,694.602 1575,715.54 
  1578.4,736.711 1581.8,758.1 1585.19,779.691 1588.59,801.467 1591.98,823.409 1595.38,845.497 1598.78,867.712 1602.17,890.029 1605.57,912.426 1608.97,934.878 
  1612.36,957.358 1615.76,979.838 1619.16,1002.29 1622.55,1024.68 1625.95,1046.97 1629.34,1069.14 1632.74,1091.14 1636.14,1112.93 1639.53,1134.48 1642.93,1155.75 
  1646.33,1176.68 1649.72,1197.24 1653.12,1217.38 1656.51,1237.04 1659.91,1256.19 1663.31,1274.75 1666.7,1292.69 1670.1,1309.94 1673.5,1326.44 1676.89,1342.15 
  1680.29,1356.99 1683.68,1370.91 1687.08,1383.84 1690.48,1395.73 1693.87,1406.51 1697.27,1416.12 1700.67,1424.49 1704.06,1431.57 1707.46,1437.28 1710.86,1441.59 
  1714.25,1444.42 1717.65,1445.72 1721.04,1445.44 1724.44,1443.53 1727.84,1439.94 1731.23,1434.65 1734.63,1427.61 1738.03,1418.8 1741.42,1408.2 1744.82,1395.8 
  1748.21,1381.59 1751.61,1365.59 1755.01,1347.81 1758.4,1328.28 1761.8,1307.05 1765.2,1284.17 1768.59,1259.71 1771.99,1233.77 1775.38,1206.44 1778.78,1177.85 
  1782.18,1148.12 1785.57,1117.43 1788.97,1085.94 1792.37,1053.84 1795.76,1021.35 1799.16,988.682 1802.56,956.093 1805.95,923.842 1809.35,892.202 1812.74,861.462 
  1816.14,831.922 1819.54,803.886 1822.93,777.668 1826.33,753.578 1829.73,731.926 1833.12,713.012 1836.52,697.124 1839.91,684.528 1843.31,675.468 1846.71,670.155 
  1850.1,668.758 1853.5,671.404 1856.9,678.164 1860.29,689.05 1863.69,704.006 1867.09,722.905 1870.48,745.538 1873.88,771.618 1877.27,800.77 1880.67,832.535 
  1884.07,866.368 1887.46,901.645 1890.86,937.665 1894.26,973.668 1897.65,1008.84 1901.05,1042.33 1904.44,1073.27 1907.84,1100.82 1911.24,1124.15 1914.63,1142.51 
  1918.03,1155.24 1921.43,1161.83 1924.82,1161.91 1928.22,1155.29 1931.61,1142.04 1935.01,1122.45 1938.41,1097.05 1941.8,1066.66 1945.2,1032.35 1948.6,995.412 
  1951.99,957.358 1955.39,919.844 1958.79,884.613 1962.18,853.414 1965.58,827.908 1968.97,809.568 1972.37,799.567 1975.77,798.682 1979.16,807.195 1982.56,824.826 
  1985.96,850.685 1989.35,883.269 1992.75,920.503 1996.14,959.834 1999.54,998.378 2002.94,1033.12 2006.33,1061.14 2009.73,1079.93 2013.13,1087.59 2016.52,1083.15 
  2019.92,1066.73 2023.31,1039.67 2026.71,1004.49 2030.11,964.776 2033.5,924.873 2036.9,889.43 2040.3,862.865 2043.69,848.76 2047.09,849.279 2050.49,864.707 
  2053.88,893.197 2057.28,930.814 2060.67,971.933 2064.07,1009.98 2067.47,1038.47 2070.86,1052.15 2074.26,1048.19 2077.66,1026.9 2081.05,992.125 2084.45,950.742 
  2087.84,911.531 2091.24,883.364 2094.64,873.098 2098.03,883.653 2101.43,912.821 2104.83,953.289 2108.22,994.128 2111.62,1023.58 2115.01,1032.56 2118.41,1017.79 
  2121.81,983.571 2125.2,941.095 2128.6,905.219 2132,889.321 2135.39,899.938 2138.79,933.379 2142.19,976.164 2145.58,1009.88 2148.98,1019.06 2152.37,998.868 
  2155.77,958.655 2159.17,918.638 2162.56,900.19 2165.96,913.992 2169.36,952.653 2172.75,993.292 2176.15,1010.39 2179.54,992.317 2182.94,950.794 2186.34,914.918 
  2189.73,911.326 2193.13,943.313 2196.53,985.787 2199.92,1003.45 2203.32,980.573 2206.72,937.274 2210.11,914.026 2213.51,933.868 2216.9,977.124 2220.3,998.224 
  2223.7,973.656 2227.09,931.098 2230.49,921.093 2233.89,956.333 2237.28,991.822 2240.68,980.091 2244.07,937.135 2247.47,924.764 2250.87,961.645 2254.26,990.602 
  2257.66,964.905 2261.06,927.5 2264.45,943.286 2267.85,983.783 2271.24,973.461 2274.64,932.48 2278.04,942.896 2281.43,982.758 2284.83,966.563 2288.23,930.773 
  2291.62,957.358 
  "/>
<circle clip-path="url(#clip962)" cx="1720.04" cy="1435.78" r="14" fill="#e26f46" fill-rule="evenodd" fill-opacity="1" stroke="#000000" stroke-opacity="1" stroke-width="3.2"/>
<circle clip-path="url(#clip962)" cx="1648.4" cy="1178.32" r="14" fill="#e26f46" fill-rule="evenodd" fill-opacity="1" stroke="#000000" stroke-opacity="1" stroke-width="3.2"/>
<circle clip-path="url(#clip962)" cx="1228.47" cy="378.577" r="14" fill="#e26f46" fill-rule="evenodd" fill-opacity="1" stroke="#000000" stroke-opacity="1" stroke-width="3.2"/>
<circle clip-path="url(#clip962)" cx="798.619" cy="1359.27" r="14" fill="#e26f46" fill-rule="evenodd" fill-opacity="1" stroke="#000000" stroke-opacity="1" stroke-width="3.2"/>
<circle clip-path="url(#clip962)" cx="1719.58" cy="1424.25" r="14" fill="#e26f46" fill-rule="evenodd" fill-opacity="1" stroke="#000000" stroke-opacity="1" stroke-width="3.2"/>
<circle clip-path="url(#clip962)" cx="1866.57" cy="729.124" r="14" fill="#e26f46" fill-rule="evenodd" fill-opacity="1" stroke="#000000" stroke-opacity="1" stroke-width="3.2"/>
<circle clip-path="url(#clip962)" cx="1553.17" cy="587.377" r="14" fill="#e26f46" fill-rule="evenodd" fill-opacity="1" stroke="#000000" stroke-opacity="1" stroke-width="3.2"/>
<circle clip-path="url(#clip962)" cx="1295.19" cy="526.653" r="14" fill="#e26f46" fill-rule="evenodd" fill-opacity="1" stroke="#000000" stroke-opacity="1" stroke-width="3.2"/>
<circle clip-path="url(#clip962)" cx="1318.09" cy="302.33" r="14" fill="#e26f46" fill-rule="evenodd" fill-opacity="1" stroke="#000000" stroke-opacity="1" stroke-width="3.2"/>
<circle clip-path="url(#clip962)" cx="1116.89" cy="120.891" r="14" fill="#e26f46" fill-rule="evenodd" fill-opacity="1" stroke="#000000" stroke-opacity="1" stroke-width="3.2"/>
<circle clip-path="url(#clip962)" cx="1859.92" cy="673.168" r="14" fill="#e26f46" fill-rule="evenodd" fill-opacity="1" stroke="#000000" stroke-opacity="1" stroke-width="3.2"/>
<circle clip-path="url(#clip962)" cx="721.184" cy="765.821" r="14" fill="#e26f46" fill-rule="evenodd" fill-opacity="1" stroke="#000000" stroke-opacity="1" stroke-width="3.2"/>
<circle clip-path="url(#clip962)" cx="549.719" cy="951.727" r="14" fill="#e26f46" fill-rule="evenodd" fill-opacity="1" stroke="#000000" stroke-opacity="1" stroke-width="3.2"/>
<circle clip-path="url(#clip962)" cx="1478.47" cy="217.462" r="14" fill="#e26f46" fill-rule="evenodd" fill-opacity="1" stroke="#000000" stroke-opacity="1" stroke-width="3.2"/>
<circle clip-path="url(#clip962)" cx="463.418" cy="1024.86" r="14" fill="#e26f46" fill-rule="evenodd" fill-opacity="1" stroke="#000000" stroke-opacity="1" stroke-width="3.2"/>
<circle clip-path="url(#clip962)" cx="1089.68" cy="157.255" r="14" fill="#e26f46" fill-rule="evenodd" fill-opacity="1" stroke="#000000" stroke-opacity="1" stroke-width="3.2"/>
<circle clip-path="url(#clip962)" cx="1154.5" cy="115.234" r="14" fill="#e26f46" fill-rule="evenodd" fill-opacity="1" stroke="#000000" stroke-opacity="1" stroke-width="3.2"/>
<circle clip-path="url(#clip962)" cx="1555.64" cy="608.357" r="14" fill="#e26f46" fill-rule="evenodd" fill-opacity="1" stroke="#000000" stroke-opacity="1" stroke-width="3.2"/>
<circle clip-path="url(#clip962)" cx="1276.89" cy="830.041" r="14" fill="#e26f46" fill-rule="evenodd" fill-opacity="1" stroke="#000000" stroke-opacity="1" stroke-width="3.2"/>
<circle clip-path="url(#clip962)" cx="1978.19" cy="806.229" r="14" fill="#e26f46" fill-rule="evenodd" fill-opacity="1" stroke="#000000" stroke-opacity="1" stroke-width="3.2"/>
<circle clip-path="url(#clip962)" cx="2183.7" cy="972.491" r="14" fill="#e26f46" fill-rule="evenodd" fill-opacity="1" stroke="#000000" stroke-opacity="1" stroke-width="3.2"/>
<circle clip-path="url(#clip962)" cx="1609.34" cy="974.889" r="14" fill="#e26f46" fill-rule="evenodd" fill-opacity="1" stroke="#000000" stroke-opacity="1" stroke-width="3.2"/>
<circle clip-path="url(#clip962)" cx="1562.5" cy="608.79" r="14" fill="#e26f46" fill-rule="evenodd" fill-opacity="1" stroke="#000000" stroke-opacity="1" stroke-width="3.2"/>
<circle clip-path="url(#clip962)" cx="321.598" cy="989.173" r="14" fill="#e26f46" fill-rule="evenodd" fill-opacity="1" stroke="#000000" stroke-opacity="1" stroke-width="3.2"/>
<circle clip-path="url(#clip962)" cx="1673.45" cy="1323.05" r="14" fill="#e26f46" fill-rule="evenodd" fill-opacity="1" stroke="#000000" stroke-opacity="1" stroke-width="3.2"/>
<circle clip-path="url(#clip962)" cx="2054.56" cy="894.524" r="14" fill="#e26f46" fill-rule="evenodd" fill-opacity="1" stroke="#000000" stroke-opacity="1" stroke-width="3.2"/>
<circle clip-path="url(#clip962)" cx="430.993" cy="1045.99" r="14" fill="#e26f46" fill-rule="evenodd" fill-opacity="1" stroke="#000000" stroke-opacity="1" stroke-width="3.2"/>
<circle clip-path="url(#clip962)" cx="1617.79" cy="996.943" r="14" fill="#e26f46" fill-rule="evenodd" fill-opacity="1" stroke="#000000" stroke-opacity="1" stroke-width="3.2"/>
<circle clip-path="url(#clip962)" cx="359.059" cy="867.001" r="14" fill="#e26f46" fill-rule="evenodd" fill-opacity="1" stroke="#000000" stroke-opacity="1" stroke-width="3.2"/>
<circle clip-path="url(#clip962)" cx="308.595" cy="995.855" r="14" fill="#e26f46" fill-rule="evenodd" fill-opacity="1" stroke="#000000" stroke-opacity="1" stroke-width="3.2"/>
<circle clip-path="url(#clip962)" cx="1862.86" cy="718.397" r="14" fill="#e26f46" fill-rule="evenodd" fill-opacity="1" stroke="#000000" stroke-opacity="1" stroke-width="3.2"/>
<circle clip-path="url(#clip962)" cx="289.435" cy="940.761" r="14" fill="#e26f46" fill-rule="evenodd" fill-opacity="1" stroke="#000000" stroke-opacity="1" stroke-width="3.2"/>
<circle clip-path="url(#clip962)" cx="1447.81" cy="148.035" r="14" fill="#e26f46" fill-rule="evenodd" fill-opacity="1" stroke="#000000" stroke-opacity="1" stroke-width="3.2"/>
<circle clip-path="url(#clip962)" cx="1904.55" cy="1064.82" r="14" fill="#e26f46" fill-rule="evenodd" fill-opacity="1" stroke="#000000" stroke-opacity="1" stroke-width="3.2"/>
<circle clip-path="url(#clip962)" cx="1199.56" cy="169.608" r="14" fill="#e26f46" fill-rule="evenodd" fill-opacity="1" stroke="#000000" stroke-opacity="1" stroke-width="3.2"/>
<circle clip-path="url(#clip962)" cx="750.532" cy="1036.14" r="14" fill="#e26f46" fill-rule="evenodd" fill-opacity="1" stroke="#000000" stroke-opacity="1" stroke-width="3.2"/>
<circle clip-path="url(#clip962)" cx="1787.43" cy="1112.96" r="14" fill="#e26f46" fill-rule="evenodd" fill-opacity="1" stroke="#000000" stroke-opacity="1" stroke-width="3.2"/>
<circle clip-path="url(#clip962)" cx="1889.03" cy="919.997" r="14" fill="#e26f46" fill-rule="evenodd" fill-opacity="1" stroke="#000000" stroke-opacity="1" stroke-width="3.2"/>
<circle clip-path="url(#clip962)" cx="1289.9" cy="616.1" r="14" fill="#e26f46" fill-rule="evenodd" fill-opacity="1" stroke="#000000" stroke-opacity="1" stroke-width="3.2"/>
<circle clip-path="url(#clip962)" cx="1540.17" cy="485.807" r="14" fill="#e26f46" fill-rule="evenodd" fill-opacity="1" stroke="#000000" stroke-opacity="1" stroke-width="3.2"/>
<circle clip-path="url(#clip962)" cx="1540.29" cy="524.473" r="14" fill="#e26f46" fill-rule="evenodd" fill-opacity="1" stroke="#000000" stroke-opacity="1" stroke-width="3.2"/>
<circle clip-path="url(#clip962)" cx="943.832" cy="909.96" r="14" fill="#e26f46" fill-rule="evenodd" fill-opacity="1" stroke="#000000" stroke-opacity="1" stroke-width="3.2"/>
<circle clip-path="url(#clip962)" cx="1981.22" cy="835.076" r="14" fill="#e26f46" fill-rule="evenodd" fill-opacity="1" stroke="#000000" stroke-opacity="1" stroke-width="3.2"/>
<circle clip-path="url(#clip962)" cx="637.789" cy="1104.96" r="14" fill="#e26f46" fill-rule="evenodd" fill-opacity="1" stroke="#000000" stroke-opacity="1" stroke-width="3.2"/>
<circle clip-path="url(#clip962)" cx="717.295" cy="787.495" r="14" fill="#e26f46" fill-rule="evenodd" fill-opacity="1" stroke="#000000" stroke-opacity="1" stroke-width="3.2"/>
<circle clip-path="url(#clip962)" cx="2165.95" cy="901.967" r="14" fill="#e26f46" fill-rule="evenodd" fill-opacity="1" stroke="#000000" stroke-opacity="1" stroke-width="3.2"/>
<circle clip-path="url(#clip962)" cx="1216.18" cy="254.445" r="14" fill="#e26f46" fill-rule="evenodd" fill-opacity="1" stroke="#000000" stroke-opacity="1" stroke-width="3.2"/>
<circle clip-path="url(#clip962)" cx="515.061" cy="958.863" r="14" fill="#e26f46" fill-rule="evenodd" fill-opacity="1" stroke="#000000" stroke-opacity="1" stroke-width="3.2"/>
<circle clip-path="url(#clip962)" cx="799.032" cy="1422.62" r="14" fill="#e26f46" fill-rule="evenodd" fill-opacity="1" stroke="#000000" stroke-opacity="1" stroke-width="3.2"/>
<circle clip-path="url(#clip962)" cx="546.296" cy="1021.76" r="14" fill="#e26f46" fill-rule="evenodd" fill-opacity="1" stroke="#000000" stroke-opacity="1" stroke-width="3.2"/>
<circle clip-path="url(#clip962)" cx="1733.36" cy="1428.71" r="14" fill="#e26f46" fill-rule="evenodd" fill-opacity="1" stroke="#000000" stroke-opacity="1" stroke-width="3.2"/>
<circle clip-path="url(#clip962)" cx="667.314" cy="806.008" r="14" fill="#e26f46" fill-rule="evenodd" fill-opacity="1" stroke="#000000" stroke-opacity="1" stroke-width="3.2"/>
<circle clip-path="url(#clip962)" cx="1612.04" cy="948.201" r="14" fill="#e26f46" fill-rule="evenodd" fill-opacity="1" stroke="#000000" stroke-opacity="1" stroke-width="3.2"/>
<circle clip-path="url(#clip962)" cx="2047.67" cy="873.345" r="14" fill="#e26f46" fill-rule="evenodd" fill-opacity="1" stroke="#000000" stroke-opacity="1" stroke-width="3.2"/>
<circle clip-path="url(#clip962)" cx="445.313" cy="886.023" r="14" fill="#e26f46" fill-rule="evenodd" fill-opacity="1" stroke="#000000" stroke-opacity="1" stroke-width="3.2"/>
<circle clip-path="url(#clip962)" cx="567.889" cy="794.511" r="14" fill="#e26f46" fill-rule="evenodd" fill-opacity="1" stroke="#000000" stroke-opacity="1" stroke-width="3.2"/>
<circle clip-path="url(#clip962)" cx="2015.37" cy="1139.46" r="14" fill="#e26f46" fill-rule="evenodd" fill-opacity="1" stroke="#000000" stroke-opacity="1" stroke-width="3.2"/>
<circle clip-path="url(#clip962)" cx="1694.03" cy="1427.31" r="14" fill="#e26f46" fill-rule="evenodd" fill-opacity="1" stroke="#000000" stroke-opacity="1" stroke-width="3.2"/>
<circle clip-path="url(#clip962)" cx="952.324" cy="804.221" r="14" fill="#e26f46" fill-rule="evenodd" fill-opacity="1" stroke="#000000" stroke-opacity="1" stroke-width="3.2"/>
<circle clip-path="url(#clip962)" cx="1172.17" cy="130.342" r="14" fill="#e26f46" fill-rule="evenodd" fill-opacity="1" stroke="#000000" stroke-opacity="1" stroke-width="3.2"/>
<circle clip-path="url(#clip962)" cx="2092.92" cy="919.015" r="14" fill="#e26f46" fill-rule="evenodd" fill-opacity="1" stroke="#000000" stroke-opacity="1" stroke-width="3.2"/>
<circle clip-path="url(#clip962)" cx="1375.61" cy="134.676" r="14" fill="#e26f46" fill-rule="evenodd" fill-opacity="1" stroke="#000000" stroke-opacity="1" stroke-width="3.2"/>
<circle clip-path="url(#clip962)" cx="984.018" cy="624.988" r="14" fill="#e26f46" fill-rule="evenodd" fill-opacity="1" stroke="#000000" stroke-opacity="1" stroke-width="3.2"/>
<circle clip-path="url(#clip962)" cx="2074.22" cy="1061.71" r="14" fill="#e26f46" fill-rule="evenodd" fill-opacity="1" stroke="#000000" stroke-opacity="1" stroke-width="3.2"/>
<circle clip-path="url(#clip962)" cx="1181.26" cy="136.696" r="14" fill="#e26f46" fill-rule="evenodd" fill-opacity="1" stroke="#000000" stroke-opacity="1" stroke-width="3.2"/>
<circle clip-path="url(#clip962)" cx="1779.02" cy="1152.2" r="14" fill="#e26f46" fill-rule="evenodd" fill-opacity="1" stroke="#000000" stroke-opacity="1" stroke-width="3.2"/>
<circle clip-path="url(#clip962)" cx="1066.99" cy="245.858" r="14" fill="#e26f46" fill-rule="evenodd" fill-opacity="1" stroke="#000000" stroke-opacity="1" stroke-width="3.2"/>
<circle clip-path="url(#clip962)" cx="1554" cy="566.5" r="14" fill="#e26f46" fill-rule="evenodd" fill-opacity="1" stroke="#000000" stroke-opacity="1" stroke-width="3.2"/>
<circle clip-path="url(#clip962)" cx="523.054" cy="1069.21" r="14" fill="#e26f46" fill-rule="evenodd" fill-opacity="1" stroke="#000000" stroke-opacity="1" stroke-width="3.2"/>
<circle clip-path="url(#clip962)" cx="1407.58" cy="146.973" r="14" fill="#e26f46" fill-rule="evenodd" fill-opacity="1" stroke="#000000" stroke-opacity="1" stroke-width="3.2"/>
<circle clip-path="url(#clip962)" cx="1817.85" cy="809.672" r="14" fill="#e26f46" fill-rule="evenodd" fill-opacity="1" stroke="#000000" stroke-opacity="1" stroke-width="3.2"/>
<circle clip-path="url(#clip962)" cx="258.957" cy="948.373" r="14" fill="#e26f46" fill-rule="evenodd" fill-opacity="1" stroke="#000000" stroke-opacity="1" stroke-width="3.2"/>
<circle clip-path="url(#clip962)" cx="2028.95" cy="960.591" r="14" fill="#e26f46" fill-rule="evenodd" fill-opacity="1" stroke="#000000" stroke-opacity="1" stroke-width="3.2"/>
<circle clip-path="url(#clip962)" cx="2185.56" cy="944.3" r="14" fill="#e26f46" fill-rule="evenodd" fill-opacity="1" stroke="#000000" stroke-opacity="1" stroke-width="3.2"/>
<circle clip-path="url(#clip962)" cx="1943.6" cy="1065.63" r="14" fill="#e26f46" fill-rule="evenodd" fill-opacity="1" stroke="#000000" stroke-opacity="1" stroke-width="3.2"/>
<circle clip-path="url(#clip962)" cx="515.16" cy="934.422" r="14" fill="#e26f46" fill-rule="evenodd" fill-opacity="1" stroke="#000000" stroke-opacity="1" stroke-width="3.2"/>
<circle clip-path="url(#clip962)" cx="970.938" cy="687.827" r="14" fill="#e26f46" fill-rule="evenodd" fill-opacity="1" stroke="#000000" stroke-opacity="1" stroke-width="3.2"/>
<circle clip-path="url(#clip962)" cx="1402.09" cy="87.9763" r="14" fill="#e26f46" fill-rule="evenodd" fill-opacity="1" stroke="#000000" stroke-opacity="1" stroke-width="3.2"/>
<circle clip-path="url(#clip962)" cx="1269.01" cy="819.142" r="14" fill="#e26f46" fill-rule="evenodd" fill-opacity="1" stroke="#000000" stroke-opacity="1" stroke-width="3.2"/>
<circle clip-path="url(#clip962)" cx="891.346" cy="1257.48" r="14" fill="#e26f46" fill-rule="evenodd" fill-opacity="1" stroke="#000000" stroke-opacity="1" stroke-width="3.2"/>
<circle clip-path="url(#clip962)" cx="1220.22" cy="277.258" r="14" fill="#e26f46" fill-rule="evenodd" fill-opacity="1" stroke="#000000" stroke-opacity="1" stroke-width="3.2"/>
<circle clip-path="url(#clip962)" cx="1018.33" cy="427.252" r="14" fill="#e26f46" fill-rule="evenodd" fill-opacity="1" stroke="#000000" stroke-opacity="1" stroke-width="3.2"/>
<circle clip-path="url(#clip962)" cx="455.617" cy="920.214" r="14" fill="#e26f46" fill-rule="evenodd" fill-opacity="1" stroke="#000000" stroke-opacity="1" stroke-width="3.2"/>
<circle clip-path="url(#clip962)" cx="1282.1" cy="717.966" r="14" fill="#e26f46" fill-rule="evenodd" fill-opacity="1" stroke="#000000" stroke-opacity="1" stroke-width="3.2"/>
<circle clip-path="url(#clip962)" cx="758.119" cy="1095.42" r="14" fill="#e26f46" fill-rule="evenodd" fill-opacity="1" stroke="#000000" stroke-opacity="1" stroke-width="3.2"/>
<circle clip-path="url(#clip962)" cx="1098.41" cy="151.601" r="14" fill="#e26f46" fill-rule="evenodd" fill-opacity="1" stroke="#000000" stroke-opacity="1" stroke-width="3.2"/>
<circle clip-path="url(#clip962)" cx="1536.55" cy="473.386" r="14" fill="#e26f46" fill-rule="evenodd" fill-opacity="1" stroke="#000000" stroke-opacity="1" stroke-width="3.2"/>
<circle clip-path="url(#clip962)" cx="1445.73" cy="153.208" r="14" fill="#e26f46" fill-rule="evenodd" fill-opacity="1" stroke="#000000" stroke-opacity="1" stroke-width="3.2"/>
<circle clip-path="url(#clip962)" cx="699.503" cy="709.216" r="14" fill="#e26f46" fill-rule="evenodd" fill-opacity="1" stroke="#000000" stroke-opacity="1" stroke-width="3.2"/>
<circle clip-path="url(#clip962)" cx="574.336" cy="795.057" r="14" fill="#e26f46" fill-rule="evenodd" fill-opacity="1" stroke="#000000" stroke-opacity="1" stroke-width="3.2"/>
<circle clip-path="url(#clip962)" cx="760.658" cy="1115.48" r="14" fill="#e26f46" fill-rule="evenodd" fill-opacity="1" stroke="#000000" stroke-opacity="1" stroke-width="3.2"/>
<circle clip-path="url(#clip962)" cx="1335.06" cy="216.479" r="14" fill="#e26f46" fill-rule="evenodd" fill-opacity="1" stroke="#000000" stroke-opacity="1" stroke-width="3.2"/>
<circle clip-path="url(#clip962)" cx="1763.54" cy="1269.67" r="14" fill="#e26f46" fill-rule="evenodd" fill-opacity="1" stroke="#000000" stroke-opacity="1" stroke-width="3.2"/>
<circle clip-path="url(#clip962)" cx="1275.52" cy="882.327" r="14" fill="#e26f46" fill-rule="evenodd" fill-opacity="1" stroke="#000000" stroke-opacity="1" stroke-width="3.2"/>
<circle clip-path="url(#clip962)" cx="1626.59" cy="1052.85" r="14" fill="#e26f46" fill-rule="evenodd" fill-opacity="1" stroke="#000000" stroke-opacity="1" stroke-width="3.2"/>
<circle clip-path="url(#clip962)" cx="1569.25" cy="657.724" r="14" fill="#e26f46" fill-rule="evenodd" fill-opacity="1" stroke="#000000" stroke-opacity="1" stroke-width="3.2"/>
<circle clip-path="url(#clip962)" cx="989.903" cy="613.486" r="14" fill="#e26f46" fill-rule="evenodd" fill-opacity="1" stroke="#000000" stroke-opacity="1" stroke-width="3.2"/>
<circle clip-path="url(#clip962)" cx="1143.02" cy="98.0582" r="14" fill="#e26f46" fill-rule="evenodd" fill-opacity="1" stroke="#000000" stroke-opacity="1" stroke-width="3.2"/>
<circle clip-path="url(#clip962)" cx="1337.1" cy="223.085" r="14" fill="#e26f46" fill-rule="evenodd" fill-opacity="1" stroke="#000000" stroke-opacity="1" stroke-width="3.2"/>
<circle clip-path="url(#clip962)" cx="935.82" cy="949.234" r="14" fill="#e26f46" fill-rule="evenodd" fill-opacity="1" stroke="#000000" stroke-opacity="1" stroke-width="3.2"/>
<circle clip-path="url(#clip962)" cx="744.062" cy="919.688" r="14" fill="#e26f46" fill-rule="evenodd" fill-opacity="1" stroke="#000000" stroke-opacity="1" stroke-width="3.2"/>
<circle clip-path="url(#clip962)" cx="276.96" cy="966.994" r="14" fill="#e26f46" fill-rule="evenodd" fill-opacity="1" stroke="#000000" stroke-opacity="1" stroke-width="3.2"/>
<circle clip-path="url(#clip962)" cx="1063.26" cy="236.782" r="14" fill="#e26f46" fill-rule="evenodd" fill-opacity="1" stroke="#000000" stroke-opacity="1" stroke-width="3.2"/>
<circle clip-path="url(#clip962)" cx="830.428" cy="1412.91" r="14" fill="#e26f46" fill-rule="evenodd" fill-opacity="1" stroke="#000000" stroke-opacity="1" stroke-width="3.2"/>
<circle clip-path="url(#clip962)" cx="1753.71" cy="1334.38" r="14" fill="#e26f46" fill-rule="evenodd" fill-opacity="1" stroke="#000000" stroke-opacity="1" stroke-width="3.2"/>
<circle clip-path="url(#clip962)" cx="1196.76" cy="178.396" r="14" fill="#e26f46" fill-rule="evenodd" fill-opacity="1" stroke="#000000" stroke-opacity="1" stroke-width="3.2"/>
<circle clip-path="url(#clip962)" cx="1913.56" cy="1129.24" r="14" fill="#e26f46" fill-rule="evenodd" fill-opacity="1" stroke="#000000" stroke-opacity="1" stroke-width="3.2"/>
<circle clip-path="url(#clip962)" cx="721.023" cy="783.225" r="14" fill="#e26f46" fill-rule="evenodd" fill-opacity="1" stroke="#000000" stroke-opacity="1" stroke-width="3.2"/>
<circle clip-path="url(#clip962)" cx="1372.26" cy="100.999" r="14" fill="#e26f46" fill-rule="evenodd" fill-opacity="1" stroke="#000000" stroke-opacity="1" stroke-width="3.2"/>
<circle clip-path="url(#clip962)" cx="1494.33" cy="289.489" r="14" fill="#e26f46" fill-rule="evenodd" fill-opacity="1" stroke="#000000" stroke-opacity="1" stroke-width="3.2"/>
<circle clip-path="url(#clip962)" cx="1348.94" cy="185.757" r="14" fill="#e26f46" fill-rule="evenodd" fill-opacity="1" stroke="#000000" stroke-opacity="1" stroke-width="3.2"/>
<circle clip-path="url(#clip962)" cx="1120.52" cy="134.827" r="14" fill="#e26f46" fill-rule="evenodd" fill-opacity="1" stroke="#000000" stroke-opacity="1" stroke-width="3.2"/>
<circle clip-path="url(#clip962)" cx="2006.22" cy="1049.2" r="14" fill="#e26f46" fill-rule="evenodd" fill-opacity="1" stroke="#000000" stroke-opacity="1" stroke-width="3.2"/>
<circle clip-path="url(#clip962)" cx="1482.14" cy="290.103" r="14" fill="#e26f46" fill-rule="evenodd" fill-opacity="1" stroke="#000000" stroke-opacity="1" stroke-width="3.2"/>
<circle clip-path="url(#clip962)" cx="850.514" cy="1430.31" r="14" fill="#e26f46" fill-rule="evenodd" fill-opacity="1" stroke="#000000" stroke-opacity="1" stroke-width="3.2"/>
<circle clip-path="url(#clip962)" cx="1761.28" cy="1323.87" r="14" fill="#e26f46" fill-rule="evenodd" fill-opacity="1" stroke="#000000" stroke-opacity="1" stroke-width="3.2"/>
<circle clip-path="url(#clip962)" cx="448.544" cy="857.816" r="14" fill="#e26f46" fill-rule="evenodd" fill-opacity="1" stroke="#000000" stroke-opacity="1" stroke-width="3.2"/>
<circle clip-path="url(#clip962)" cx="1188.87" cy="139.799" r="14" fill="#e26f46" fill-rule="evenodd" fill-opacity="1" stroke="#000000" stroke-opacity="1" stroke-width="3.2"/>
<circle clip-path="url(#clip962)" cx="1853.53" cy="674.256" r="14" fill="#e26f46" fill-rule="evenodd" fill-opacity="1" stroke="#000000" stroke-opacity="1" stroke-width="3.2"/>
<circle clip-path="url(#clip962)" cx="1676.06" cy="1291.46" r="14" fill="#e26f46" fill-rule="evenodd" fill-opacity="1" stroke="#000000" stroke-opacity="1" stroke-width="3.2"/>
<circle clip-path="url(#clip962)" cx="1497.24" cy="352.448" r="14" fill="#e26f46" fill-rule="evenodd" fill-opacity="1" stroke="#000000" stroke-opacity="1" stroke-width="3.2"/>
<circle clip-path="url(#clip962)" cx="465.12" cy="1013.23" r="14" fill="#e26f46" fill-rule="evenodd" fill-opacity="1" stroke="#000000" stroke-opacity="1" stroke-width="3.2"/>
<circle clip-path="url(#clip962)" cx="1959.45" cy="877.047" r="14" fill="#e26f46" fill-rule="evenodd" fill-opacity="1" stroke="#000000" stroke-opacity="1" stroke-width="3.2"/>
<circle clip-path="url(#clip962)" cx="1010.45" cy="474.749" r="14" fill="#e26f46" fill-rule="evenodd" fill-opacity="1" stroke="#000000" stroke-opacity="1" stroke-width="3.2"/>
<circle clip-path="url(#clip962)" cx="659.965" cy="860.44" r="14" fill="#e26f46" fill-rule="evenodd" fill-opacity="1" stroke="#000000" stroke-opacity="1" stroke-width="3.2"/>
<circle clip-path="url(#clip962)" cx="360.966" cy="926.009" r="14" fill="#e26f46" fill-rule="evenodd" fill-opacity="1" stroke="#000000" stroke-opacity="1" stroke-width="3.2"/>
<circle clip-path="url(#clip962)" cx="1261.31" cy="709.05" r="14" fill="#e26f46" fill-rule="evenodd" fill-opacity="1" stroke="#000000" stroke-opacity="1" stroke-width="3.2"/>
<circle clip-path="url(#clip962)" cx="2001.19" cy="992.668" r="14" fill="#e26f46" fill-rule="evenodd" fill-opacity="1" stroke="#000000" stroke-opacity="1" stroke-width="3.2"/>
<circle clip-path="url(#clip962)" cx="2220.59" cy="995.143" r="14" fill="#e26f46" fill-rule="evenodd" fill-opacity="1" stroke="#000000" stroke-opacity="1" stroke-width="3.2"/>
<circle clip-path="url(#clip962)" cx="901.091" cy="1175.81" r="14" fill="#e26f46" fill-rule="evenodd" fill-opacity="1" stroke="#000000" stroke-opacity="1" stroke-width="3.2"/>
<circle clip-path="url(#clip962)" cx="595.405" cy="985.884" r="14" fill="#e26f46" fill-rule="evenodd" fill-opacity="1" stroke="#000000" stroke-opacity="1" stroke-width="3.2"/>
<circle clip-path="url(#clip962)" cx="2041.62" cy="826.277" r="14" fill="#e26f46" fill-rule="evenodd" fill-opacity="1" stroke="#000000" stroke-opacity="1" stroke-width="3.2"/>
<circle clip-path="url(#clip962)" cx="678.432" cy="721.332" r="14" fill="#e26f46" fill-rule="evenodd" fill-opacity="1" stroke="#000000" stroke-opacity="1" stroke-width="3.2"/>
<circle clip-path="url(#clip962)" cx="1966.67" cy="808.198" r="14" fill="#e26f46" fill-rule="evenodd" fill-opacity="1" stroke="#000000" stroke-opacity="1" stroke-width="3.2"/>
<circle clip-path="url(#clip962)" cx="733.94" cy="852.601" r="14" fill="#e26f46" fill-rule="evenodd" fill-opacity="1" stroke="#000000" stroke-opacity="1" stroke-width="3.2"/>
<circle clip-path="url(#clip962)" cx="751.403" cy="1055.77" r="14" fill="#e26f46" fill-rule="evenodd" fill-opacity="1" stroke="#000000" stroke-opacity="1" stroke-width="3.2"/>
<circle clip-path="url(#clip962)" cx="506.585" cy="860.612" r="14" fill="#e26f46" fill-rule="evenodd" fill-opacity="1" stroke="#000000" stroke-opacity="1" stroke-width="3.2"/>
<circle clip-path="url(#clip962)" cx="1599.91" cy="900.332" r="14" fill="#e26f46" fill-rule="evenodd" fill-opacity="1" stroke="#000000" stroke-opacity="1" stroke-width="3.2"/>
<circle clip-path="url(#clip962)" cx="2071.73" cy="1065.47" r="14" fill="#e26f46" fill-rule="evenodd" fill-opacity="1" stroke="#000000" stroke-opacity="1" stroke-width="3.2"/>
<circle clip-path="url(#clip962)" cx="1913.22" cy="1136.18" r="14" fill="#e26f46" fill-rule="evenodd" fill-opacity="1" stroke="#000000" stroke-opacity="1" stroke-width="3.2"/>
<circle clip-path="url(#clip962)" cx="1795.96" cy="1030.32" r="14" fill="#e26f46" fill-rule="evenodd" fill-opacity="1" stroke="#000000" stroke-opacity="1" stroke-width="3.2"/>
<circle clip-path="url(#clip962)" cx="581.113" cy="792.888" r="14" fill="#e26f46" fill-rule="evenodd" fill-opacity="1" stroke="#000000" stroke-opacity="1" stroke-width="3.2"/>
<circle clip-path="url(#clip962)" cx="1767.99" cy="1255.59" r="14" fill="#e26f46" fill-rule="evenodd" fill-opacity="1" stroke="#000000" stroke-opacity="1" stroke-width="3.2"/>
<circle clip-path="url(#clip962)" cx="1082.32" cy="218.883" r="14" fill="#e26f46" fill-rule="evenodd" fill-opacity="1" stroke="#000000" stroke-opacity="1" stroke-width="3.2"/>
<circle clip-path="url(#clip962)" cx="2005.69" cy="1063.81" r="14" fill="#e26f46" fill-rule="evenodd" fill-opacity="1" stroke="#000000" stroke-opacity="1" stroke-width="3.2"/>
<circle clip-path="url(#clip962)" cx="712.399" cy="706.004" r="14" fill="#e26f46" fill-rule="evenodd" fill-opacity="1" stroke="#000000" stroke-opacity="1" stroke-width="3.2"/>
<circle clip-path="url(#clip962)" cx="1322.12" cy="287.011" r="14" fill="#e26f46" fill-rule="evenodd" fill-opacity="1" stroke="#000000" stroke-opacity="1" stroke-width="3.2"/>
<circle clip-path="url(#clip962)" cx="1915.18" cy="1146.19" r="14" fill="#e26f46" fill-rule="evenodd" fill-opacity="1" stroke="#000000" stroke-opacity="1" stroke-width="3.2"/>
<circle clip-path="url(#clip962)" cx="1029.32" cy="406.147" r="14" fill="#e26f46" fill-rule="evenodd" fill-opacity="1" stroke="#000000" stroke-opacity="1" stroke-width="3.2"/>
<circle clip-path="url(#clip962)" cx="407.579" cy="930.504" r="14" fill="#e26f46" fill-rule="evenodd" fill-opacity="1" stroke="#000000" stroke-opacity="1" stroke-width="3.2"/>
<path clip-path="url(#clip960)" d="
M1478.38 386.818 L2280.75 386.818 L2280.75 95.2176 L1478.38 95.2176  Z
  " fill="#ffffff" fill-rule="evenodd" fill-opacity="1"/>
<polyline clip-path="url(#clip960)" style="stroke:#000000; stroke-linecap:butt; stroke-linejoin:round; stroke-width:4; stroke-opacity:1; fill:none" points="
  1478.38,386.818 2280.75,386.818 2280.75,95.2176 1478.38,95.2176 1478.38,386.818 
  "/>
<polyline clip-path="url(#clip960)" style="stroke:#009af9; stroke-linecap:butt; stroke-linejoin:round; stroke-width:7.5; stroke-opacity:1; fill:none" points="
  1502.38,192.418 1646.39,192.418 
  "/>
<path clip-path="url(#clip960)" d="M1705.85 199.948 Q1705.85 191.267 1702.24 186.493 Q1698.68 181.719 1692.22 181.719 Q1685.79 181.719 1682.19 186.493 Q1678.63 191.267 1678.63 199.948 Q1678.63 208.585 1682.19 213.359 Q1685.79 218.134 1692.22 218.134 Q1698.68 218.134 1702.24 213.359 Q1705.85 208.585 1705.85 199.948 M1713.83 218.785 Q1713.83 231.198 1708.32 237.231 Q1702.81 243.307 1691.44 243.307 Q1687.23 243.307 1683.49 242.656 Q1679.76 242.048 1676.25 240.746 L1676.25 232.977 Q1679.76 234.887 1683.19 235.798 Q1686.62 236.71 1690.18 236.71 Q1698.03 236.71 1701.94 232.587 Q1705.85 228.507 1705.85 220.217 L1705.85 216.267 Q1703.37 220.564 1699.51 222.691 Q1695.65 224.818 1690.26 224.818 Q1681.32 224.818 1675.86 218.003 Q1670.39 211.189 1670.39 199.948 Q1670.39 188.663 1675.86 181.849 Q1681.32 175.035 1690.26 175.035 Q1695.65 175.035 1699.51 177.162 Q1703.37 179.288 1705.85 183.585 L1705.85 176.207 L1713.83 176.207 L1713.83 218.785 Z" fill="#000000" fill-rule="evenodd" fill-opacity="1" /><path clip-path="url(#clip960)" d="M1758.45 183.672 Q1757.1 182.891 1755.5 182.543 Q1753.94 182.153 1752.03 182.153 Q1745.26 182.153 1741.61 186.58 Q1738.01 190.964 1738.01 199.21 L1738.01 224.818 L1729.98 224.818 L1729.98 176.207 L1738.01 176.207 L1738.01 183.759 Q1740.53 179.332 1744.56 177.205 Q1748.6 175.035 1754.37 175.035 Q1755.2 175.035 1756.19 175.165 Q1757.19 175.252 1758.41 175.469 L1758.45 183.672 Z" fill="#000000" fill-rule="evenodd" fill-opacity="1" /><path clip-path="url(#clip960)" d="M1783.71 181.806 Q1777.29 181.806 1773.55 186.84 Q1769.82 191.832 1769.82 200.556 Q1769.82 209.279 1773.51 214.314 Q1777.24 219.305 1783.71 219.305 Q1790.09 219.305 1793.82 214.271 Q1797.56 209.236 1797.56 200.556 Q1797.56 191.918 1793.82 186.884 Q1790.09 181.806 1783.71 181.806 M1783.71 175.035 Q1794.13 175.035 1800.07 181.806 Q1806.02 188.576 1806.02 200.556 Q1806.02 212.491 1800.07 219.305 Q1794.13 226.076 1783.71 226.076 Q1773.25 226.076 1767.3 219.305 Q1761.4 212.491 1761.4 200.556 Q1761.4 188.576 1767.3 181.806 Q1773.25 175.035 1783.71 175.035 Z" fill="#000000" fill-rule="evenodd" fill-opacity="1" /><path clip-path="url(#clip960)" d="M1818.43 205.634 L1818.43 176.207 L1826.42 176.207 L1826.42 205.33 Q1826.42 212.231 1829.11 215.703 Q1831.8 219.132 1837.18 219.132 Q1843.65 219.132 1847.38 215.009 Q1851.16 210.885 1851.16 203.767 L1851.16 176.207 L1859.14 176.207 L1859.14 224.818 L1851.16 224.818 L1851.16 217.352 Q1848.25 221.779 1844.39 223.95 Q1840.57 226.076 1835.49 226.076 Q1827.11 226.076 1822.77 220.868 Q1818.43 215.66 1818.43 205.634 M1838.53 175.035 L1838.53 175.035 Z" fill="#000000" fill-rule="evenodd" fill-opacity="1" /><path clip-path="url(#clip960)" d="M1916 195.477 L1916 224.818 L1908.02 224.818 L1908.02 195.738 Q1908.02 188.837 1905.32 185.408 Q1902.63 181.979 1897.25 181.979 Q1890.78 181.979 1887.05 186.102 Q1883.32 190.226 1883.32 197.344 L1883.32 224.818 L1875.29 224.818 L1875.29 176.207 L1883.32 176.207 L1883.32 183.759 Q1886.18 179.375 1890.05 177.205 Q1893.95 175.035 1899.03 175.035 Q1907.41 175.035 1911.7 180.243 Q1916 185.408 1916 195.477 Z" fill="#000000" fill-rule="evenodd" fill-opacity="1" /><path clip-path="url(#clip960)" d="M1963.92 183.585 L1963.92 157.283 L1971.9 157.283 L1971.9 224.818 L1963.92 224.818 L1963.92 217.526 Q1961.4 221.866 1957.54 223.993 Q1953.72 226.076 1948.34 226.076 Q1939.53 226.076 1933.97 219.045 Q1928.46 212.014 1928.46 200.556 Q1928.46 189.097 1933.97 182.066 Q1939.53 175.035 1948.34 175.035 Q1953.72 175.035 1957.54 177.162 Q1961.4 179.245 1963.92 183.585 M1936.7 200.556 Q1936.7 209.366 1940.31 214.401 Q1943.95 219.392 1950.29 219.392 Q1956.63 219.392 1960.27 214.401 Q1963.92 209.366 1963.92 200.556 Q1963.92 191.745 1960.27 186.754 Q1956.63 181.719 1950.29 181.719 Q1943.95 181.719 1940.31 186.754 Q1936.7 191.745 1936.7 200.556 Z" fill="#000000" fill-rule="evenodd" fill-opacity="1" /><path clip-path="url(#clip960)" d="M2024.51 162.405 L2024.51 176.207 L2040.96 176.207 L2040.96 182.413 L2024.51 182.413 L2024.51 208.802 Q2024.51 214.748 2026.11 216.441 Q2027.76 218.134 2032.75 218.134 L2040.96 218.134 L2040.96 224.818 L2032.75 224.818 Q2023.51 224.818 2019.99 221.389 Q2016.48 217.917 2016.48 208.802 L2016.48 182.413 L2010.62 182.413 L2010.62 176.207 L2016.48 176.207 L2016.48 162.405 L2024.51 162.405 Z" fill="#000000" fill-rule="evenodd" fill-opacity="1" /><path clip-path="url(#clip960)" d="M2079.63 183.672 Q2078.28 182.891 2076.68 182.543 Q2075.12 182.153 2073.21 182.153 Q2066.43 182.153 2062.79 186.58 Q2059.19 190.964 2059.19 199.21 L2059.19 224.818 L2051.16 224.818 L2051.16 176.207 L2059.19 176.207 L2059.19 183.759 Q2061.7 179.332 2065.74 177.205 Q2069.78 175.035 2075.55 175.035 Q2076.37 175.035 2077.37 175.165 Q2078.37 175.252 2079.59 175.469 L2079.63 183.672 Z" fill="#000000" fill-rule="evenodd" fill-opacity="1" /><path clip-path="url(#clip960)" d="M2087.18 205.634 L2087.18 176.207 L2095.17 176.207 L2095.17 205.33 Q2095.17 212.231 2097.86 215.703 Q2100.55 219.132 2105.93 219.132 Q2112.4 219.132 2116.13 215.009 Q2119.91 210.885 2119.91 203.767 L2119.91 176.207 L2127.89 176.207 L2127.89 224.818 L2119.91 224.818 L2119.91 217.352 Q2117 221.779 2113.14 223.95 Q2109.32 226.076 2104.24 226.076 Q2095.86 226.076 2091.52 220.868 Q2087.18 215.66 2087.18 205.634 M2107.28 175.035 L2107.28 175.035 Z" fill="#000000" fill-rule="evenodd" fill-opacity="1" /><path clip-path="url(#clip960)" d="M2152.24 162.405 L2152.24 176.207 L2168.69 176.207 L2168.69 182.413 L2152.24 182.413 L2152.24 208.802 Q2152.24 214.748 2153.85 216.441 Q2155.5 218.134 2160.49 218.134 L2168.69 218.134 L2168.69 224.818 L2160.49 224.818 Q2151.24 224.818 2147.73 221.389 Q2144.21 217.917 2144.21 208.802 L2144.21 182.413 L2138.35 182.413 L2138.35 176.207 L2144.21 176.207 L2144.21 162.405 L2152.24 162.405 Z" fill="#000000" fill-rule="evenodd" fill-opacity="1" /><path clip-path="url(#clip960)" d="M2219.6 195.477 L2219.6 224.818 L2211.62 224.818 L2211.62 195.738 Q2211.62 188.837 2208.93 185.408 Q2206.23 181.979 2200.85 181.979 Q2194.39 181.979 2190.65 186.102 Q2186.92 190.226 2186.92 197.344 L2186.92 224.818 L2178.89 224.818 L2178.89 157.283 L2186.92 157.283 L2186.92 183.759 Q2189.78 179.375 2193.65 177.205 Q2197.55 175.035 2202.63 175.035 Q2211.01 175.035 2215.31 180.243 Q2219.6 185.408 2219.6 195.477 Z" fill="#000000" fill-rule="evenodd" fill-opacity="1" /><circle clip-path="url(#clip960)" cx="1574.38" cy="289.618" r="43" fill="#e26f46" fill-rule="evenodd" fill-opacity="1" stroke="#000000" stroke-opacity="1" stroke-width="9.6"/>
<path clip-path="url(#clip960)" d="M1684.28 259.605 L1684.28 273.407 L1700.72 273.407 L1700.72 279.613 L1684.28 279.613 L1684.28 306.002 Q1684.28 311.948 1685.88 313.641 Q1687.53 315.334 1692.52 315.334 L1700.72 315.334 L1700.72 322.018 L1692.52 322.018 Q1683.28 322.018 1679.76 318.589 Q1676.25 315.117 1676.25 306.002 L1676.25 279.613 L1670.39 279.613 L1670.39 273.407 L1676.25 273.407 L1676.25 259.605 L1684.28 259.605 Z" fill="#000000" fill-rule="evenodd" fill-opacity="1" /><path clip-path="url(#clip960)" d="M1739.4 280.872 Q1738.05 280.091 1736.45 279.743 Q1734.88 279.353 1732.97 279.353 Q1726.2 279.353 1722.56 283.78 Q1718.95 288.164 1718.95 296.41 L1718.95 322.018 L1710.92 322.018 L1710.92 273.407 L1718.95 273.407 L1718.95 280.959 Q1721.47 276.532 1725.51 274.405 Q1729.54 272.235 1735.32 272.235 Q1736.14 272.235 1737.14 272.365 Q1738.14 272.452 1739.35 272.669 L1739.4 280.872 Z" fill="#000000" fill-rule="evenodd" fill-opacity="1" /><path clip-path="url(#clip960)" d="M1769.87 297.582 Q1760.19 297.582 1756.45 299.795 Q1752.72 302.009 1752.72 307.347 Q1752.72 311.601 1755.5 314.118 Q1758.32 316.592 1763.14 316.592 Q1769.78 316.592 1773.77 311.905 Q1777.81 307.174 1777.81 299.361 L1777.81 297.582 L1769.87 297.582 M1785.79 294.283 L1785.79 322.018 L1777.81 322.018 L1777.81 314.639 Q1775.07 319.066 1770.99 321.193 Q1766.91 323.276 1761.01 323.276 Q1753.55 323.276 1749.12 319.11 Q1744.74 314.9 1744.74 307.868 Q1744.74 299.665 1750.2 295.499 Q1755.72 291.332 1766.61 291.332 L1777.81 291.332 L1777.81 290.551 Q1777.81 285.039 1774.16 282.044 Q1770.56 279.006 1764.01 279.006 Q1759.84 279.006 1755.89 280.004 Q1751.94 281.002 1748.29 282.999 L1748.29 275.62 Q1752.68 273.928 1756.8 273.103 Q1760.92 272.235 1764.83 272.235 Q1775.38 272.235 1780.59 277.704 Q1785.79 283.172 1785.79 294.283 Z" fill="#000000" fill-rule="evenodd" fill-opacity="1" /><path clip-path="url(#clip960)" d="M1802.24 273.407 L1810.23 273.407 L1810.23 322.018 L1802.24 322.018 L1802.24 273.407 M1802.24 254.483 L1810.23 254.483 L1810.23 264.596 L1802.24 264.596 L1802.24 254.483 Z" fill="#000000" fill-rule="evenodd" fill-opacity="1" /><path clip-path="url(#clip960)" d="M1867.35 292.677 L1867.35 322.018 L1859.36 322.018 L1859.36 292.938 Q1859.36 286.037 1856.67 282.608 Q1853.98 279.179 1848.6 279.179 Q1842.13 279.179 1838.4 283.302 Q1834.67 287.426 1834.67 294.544 L1834.67 322.018 L1826.64 322.018 L1826.64 273.407 L1834.67 273.407 L1834.67 280.959 Q1837.53 276.575 1841.39 274.405 Q1845.3 272.235 1850.38 272.235 Q1858.75 272.235 1863.05 277.443 Q1867.35 282.608 1867.35 292.677 Z" fill="#000000" fill-rule="evenodd" fill-opacity="1" /><path clip-path="url(#clip960)" d="M1883.28 273.407 L1891.26 273.407 L1891.26 322.018 L1883.28 322.018 L1883.28 273.407 M1883.28 254.483 L1891.26 254.483 L1891.26 264.596 L1883.28 264.596 L1883.28 254.483 Z" fill="#000000" fill-rule="evenodd" fill-opacity="1" /><path clip-path="url(#clip960)" d="M1948.38 292.677 L1948.38 322.018 L1940.39 322.018 L1940.39 292.938 Q1940.39 286.037 1937.7 282.608 Q1935.01 279.179 1929.63 279.179 Q1923.16 279.179 1919.43 283.302 Q1915.7 287.426 1915.7 294.544 L1915.7 322.018 L1907.67 322.018 L1907.67 273.407 L1915.7 273.407 L1915.7 280.959 Q1918.56 276.575 1922.43 274.405 Q1926.33 272.235 1931.41 272.235 Q1939.79 272.235 1944.08 277.443 Q1948.38 282.608 1948.38 292.677 Z" fill="#000000" fill-rule="evenodd" fill-opacity="1" /><path clip-path="url(#clip960)" d="M1996.3 297.148 Q1996.3 288.467 1992.69 283.693 Q1989.13 278.919 1982.67 278.919 Q1976.24 278.919 1972.64 283.693 Q1969.08 288.467 1969.08 297.148 Q1969.08 305.785 1972.64 310.559 Q1976.24 315.334 1982.67 315.334 Q1989.13 315.334 1992.69 310.559 Q1996.3 305.785 1996.3 297.148 M2004.28 315.985 Q2004.28 328.398 1998.77 334.431 Q1993.26 340.507 1981.89 340.507 Q1977.68 340.507 1973.94 339.856 Q1970.21 339.248 1966.7 337.946 L1966.7 330.177 Q1970.21 332.087 1973.64 332.998 Q1977.07 333.91 1980.63 333.91 Q1988.48 333.91 1992.39 329.787 Q1996.3 325.707 1996.3 317.417 L1996.3 313.467 Q1993.82 317.764 1989.96 319.891 Q1986.1 322.018 1980.71 322.018 Q1971.77 322.018 1966.31 315.203 Q1960.84 308.389 1960.84 297.148 Q1960.84 285.863 1966.31 279.049 Q1971.77 272.235 1980.71 272.235 Q1986.1 272.235 1989.96 274.362 Q1993.82 276.488 1996.3 280.785 L1996.3 273.407 L2004.28 273.407 L2004.28 315.985 Z" fill="#000000" fill-rule="evenodd" fill-opacity="1" /><path clip-path="url(#clip960)" d="M2080.97 280.785 L2080.97 254.483 L2088.96 254.483 L2088.96 322.018 L2080.97 322.018 L2080.97 314.726 Q2078.46 319.066 2074.59 321.193 Q2070.78 323.276 2065.39 323.276 Q2056.58 323.276 2051.03 316.245 Q2045.51 309.214 2045.51 297.756 Q2045.51 286.297 2051.03 279.266 Q2056.58 272.235 2065.39 272.235 Q2070.78 272.235 2074.59 274.362 Q2078.46 276.445 2080.97 280.785 M2053.76 297.756 Q2053.76 306.566 2057.36 311.601 Q2061.01 316.592 2067.35 316.592 Q2073.68 316.592 2077.33 311.601 Q2080.97 306.566 2080.97 297.756 Q2080.97 288.945 2077.33 283.954 Q2073.68 278.919 2067.35 278.919 Q2061.01 278.919 2057.36 283.954 Q2053.76 288.945 2053.76 297.756 Z" fill="#000000" fill-rule="evenodd" fill-opacity="1" /><path clip-path="url(#clip960)" d="M2127.5 297.582 Q2117.82 297.582 2114.09 299.795 Q2110.36 302.009 2110.36 307.347 Q2110.36 311.601 2113.14 314.118 Q2115.96 316.592 2120.77 316.592 Q2127.42 316.592 2131.41 311.905 Q2135.44 307.174 2135.44 299.361 L2135.44 297.582 L2127.5 297.582 M2143.43 294.283 L2143.43 322.018 L2135.44 322.018 L2135.44 314.639 Q2132.71 319.066 2128.63 321.193 Q2124.55 323.276 2118.65 323.276 Q2111.18 323.276 2106.76 319.11 Q2102.37 314.9 2102.37 307.868 Q2102.37 299.665 2107.84 295.499 Q2113.35 291.332 2124.25 291.332 L2135.44 291.332 L2135.44 290.551 Q2135.44 285.039 2131.8 282.044 Q2128.2 279.006 2121.64 279.006 Q2117.48 279.006 2113.53 280.004 Q2109.58 281.002 2105.93 282.999 L2105.93 275.62 Q2110.31 273.928 2114.44 273.103 Q2118.56 272.235 2122.47 272.235 Q2133.01 272.235 2138.22 277.704 Q2143.43 283.172 2143.43 294.283 Z" fill="#000000" fill-rule="evenodd" fill-opacity="1" /><path clip-path="url(#clip960)" d="M2167.78 259.605 L2167.78 273.407 L2184.23 273.407 L2184.23 279.613 L2167.78 279.613 L2167.78 306.002 Q2167.78 311.948 2169.39 313.641 Q2171.03 315.334 2176.03 315.334 L2184.23 315.334 L2184.23 322.018 L2176.03 322.018 Q2166.78 322.018 2163.27 318.589 Q2159.75 315.117 2159.75 306.002 L2159.75 279.613 L2153.89 279.613 L2153.89 273.407 L2159.75 273.407 L2159.75 259.605 L2167.78 259.605 Z" fill="#000000" fill-rule="evenodd" fill-opacity="1" /><path clip-path="url(#clip960)" d="M2216.82 297.582 Q2207.15 297.582 2203.41 299.795 Q2199.68 302.009 2199.68 307.347 Q2199.68 311.601 2202.46 314.118 Q2205.28 316.592 2210.1 316.592 Q2216.74 316.592 2220.73 311.905 Q2224.77 307.174 2224.77 299.361 L2224.77 297.582 L2216.82 297.582 M2232.75 294.283 L2232.75 322.018 L2224.77 322.018 L2224.77 314.639 Q2222.03 319.066 2217.95 321.193 Q2213.87 323.276 2207.97 323.276 Q2200.51 323.276 2196.08 319.11 Q2191.69 314.9 2191.69 307.868 Q2191.69 299.665 2197.16 295.499 Q2202.68 291.332 2213.57 291.332 L2224.77 291.332 L2224.77 290.551 Q2224.77 285.039 2221.12 282.044 Q2217.52 279.006 2210.97 279.006 Q2206.8 279.006 2202.85 280.004 Q2198.9 281.002 2195.25 282.999 L2195.25 275.62 Q2199.64 273.928 2203.76 273.103 Q2207.88 272.235 2211.79 272.235 Q2222.34 272.235 2227.55 277.704 Q2232.75 283.172 2232.75 294.283 Z" fill="#000000" fill-rule="evenodd" fill-opacity="1" /></svg>
