<?xml version="1.0" encoding="utf-8"?>
<svg xmlns="http://www.w3.org/2000/svg" xmlns:xlink="http://www.w3.org/1999/xlink" width="600" height="400" viewBox="0 0 2400 1600">
<defs>
  <clipPath id="clip470">
    <rect x="0" y="0" width="2400" height="1600"/>
  </clipPath>
</defs>
<path clip-path="url(#clip470)" d="
M0 1600 L2400 1600 L2400 0 L0 0  Z
  " fill="#ffffff" fill-rule="evenodd" fill-opacity="1"/>
<defs>
  <clipPath id="clip471">
    <rect x="480" y="0" width="1681" height="1600"/>
  </clipPath>
</defs>
<path clip-path="url(#clip470)" d="
M192.709 1486.45 L2352.76 1486.45 L2352.76 47.2441 L192.709 47.2441  Z
  " fill="#ffffff" fill-rule="evenodd" fill-opacity="1"/>
<defs>
  <clipPath id="clip472">
    <rect x="192" y="47" width="2161" height="1440"/>
  </clipPath>
</defs>
<polyline clip-path="url(#clip472)" style="stroke:#000000; stroke-linecap:butt; stroke-linejoin:round; stroke-width:2; stroke-opacity:0.1; fill:none" points="
  253.843,1486.45 253.843,47.2441 
  "/>
<polyline clip-path="url(#clip472)" style="stroke:#000000; stroke-linecap:butt; stroke-linejoin:round; stroke-width:2; stroke-opacity:0.1; fill:none" points="
  593.473,1486.45 593.473,47.2441 
  "/>
<polyline clip-path="url(#clip472)" style="stroke:#000000; stroke-linecap:butt; stroke-linejoin:round; stroke-width:2; stroke-opacity:0.1; fill:none" points="
  933.103,1486.45 933.103,47.2441 
  "/>
<polyline clip-path="url(#clip472)" style="stroke:#000000; stroke-linecap:butt; stroke-linejoin:round; stroke-width:2; stroke-opacity:0.1; fill:none" points="
  1272.73,1486.45 1272.73,47.2441 
  "/>
<polyline clip-path="url(#clip472)" style="stroke:#000000; stroke-linecap:butt; stroke-linejoin:round; stroke-width:2; stroke-opacity:0.1; fill:none" points="
  1612.36,1486.45 1612.36,47.2441 
  "/>
<polyline clip-path="url(#clip472)" style="stroke:#000000; stroke-linecap:butt; stroke-linejoin:round; stroke-width:2; stroke-opacity:0.1; fill:none" points="
  1951.99,1486.45 1951.99,47.2441 
  "/>
<polyline clip-path="url(#clip472)" style="stroke:#000000; stroke-linecap:butt; stroke-linejoin:round; stroke-width:2; stroke-opacity:0.1; fill:none" points="
  2291.62,1486.45 2291.62,47.2441 
  "/>
<polyline clip-path="url(#clip470)" style="stroke:#000000; stroke-linecap:butt; stroke-linejoin:round; stroke-width:4; stroke-opacity:1; fill:none" points="
  192.709,1486.45 2352.76,1486.45 
  "/>
<polyline clip-path="url(#clip470)" style="stroke:#000000; stroke-linecap:butt; stroke-linejoin:round; stroke-width:4; stroke-opacity:1; fill:none" points="
  253.843,1486.45 253.843,1467.55 
  "/>
<polyline clip-path="url(#clip470)" style="stroke:#000000; stroke-linecap:butt; stroke-linejoin:round; stroke-width:4; stroke-opacity:1; fill:none" points="
  593.473,1486.45 593.473,1467.55 
  "/>
<polyline clip-path="url(#clip470)" style="stroke:#000000; stroke-linecap:butt; stroke-linejoin:round; stroke-width:4; stroke-opacity:1; fill:none" points="
  933.103,1486.45 933.103,1467.55 
  "/>
<polyline clip-path="url(#clip470)" style="stroke:#000000; stroke-linecap:butt; stroke-linejoin:round; stroke-width:4; stroke-opacity:1; fill:none" points="
  1272.73,1486.45 1272.73,1467.55 
  "/>
<polyline clip-path="url(#clip470)" style="stroke:#000000; stroke-linecap:butt; stroke-linejoin:round; stroke-width:4; stroke-opacity:1; fill:none" points="
  1612.36,1486.45 1612.36,1467.55 
  "/>
<polyline clip-path="url(#clip470)" style="stroke:#000000; stroke-linecap:butt; stroke-linejoin:round; stroke-width:4; stroke-opacity:1; fill:none" points="
  1951.99,1486.45 1951.99,1467.55 
  "/>
<polyline clip-path="url(#clip470)" style="stroke:#000000; stroke-linecap:butt; stroke-linejoin:round; stroke-width:4; stroke-opacity:1; fill:none" points="
  2291.62,1486.45 2291.62,1467.55 
  "/>
<path clip-path="url(#clip470)" d="M223.31 1532.02 L252.986 1532.02 L252.986 1535.95 L223.31 1535.95 L223.31 1532.02 Z" fill="#000000" fill-rule="evenodd" fill-opacity="1" /><path clip-path="url(#clip470)" d="M277.245 1530.21 Q280.602 1530.93 282.477 1533.2 Q284.375 1535.47 284.375 1538.8 Q284.375 1543.92 280.856 1546.72 Q277.338 1549.52 270.856 1549.52 Q268.68 1549.52 266.366 1549.08 Q264.074 1548.66 261.62 1547.81 L261.62 1543.29 Q263.565 1544.43 265.88 1545.01 Q268.194 1545.58 270.717 1545.58 Q275.116 1545.58 277.407 1543.85 Q279.722 1542.11 279.722 1538.8 Q279.722 1535.75 277.569 1534.03 Q275.44 1532.3 271.62 1532.3 L267.592 1532.3 L267.592 1528.45 L271.805 1528.45 Q275.254 1528.45 277.083 1527.09 Q278.912 1525.7 278.912 1523.11 Q278.912 1520.45 277.014 1519.03 Q275.139 1517.6 271.62 1517.6 Q269.699 1517.6 267.5 1518.01 Q265.301 1518.43 262.662 1519.31 L262.662 1515.14 Q265.324 1514.4 267.639 1514.03 Q269.977 1513.66 272.037 1513.66 Q277.361 1513.66 280.463 1516.09 Q283.565 1518.5 283.565 1522.62 Q283.565 1525.49 281.921 1527.48 Q280.278 1529.45 277.245 1530.21 Z" fill="#000000" fill-rule="evenodd" fill-opacity="1" /><path clip-path="url(#clip470)" d="M563.415 1532.02 L593.091 1532.02 L593.091 1535.95 L563.415 1535.95 L563.415 1532.02 Z" fill="#000000" fill-rule="evenodd" fill-opacity="1" /><path clip-path="url(#clip470)" d="M607.211 1544.91 L623.53 1544.91 L623.53 1548.85 L601.586 1548.85 L601.586 1544.91 Q604.248 1542.16 608.831 1537.53 Q613.438 1532.88 614.618 1531.53 Q616.864 1529.01 617.743 1527.27 Q618.646 1525.51 618.646 1523.82 Q618.646 1521.07 616.702 1519.33 Q614.78 1517.6 611.678 1517.6 Q609.479 1517.6 607.026 1518.36 Q604.595 1519.13 601.817 1520.68 L601.817 1515.95 Q604.641 1514.82 607.095 1514.24 Q609.549 1513.66 611.586 1513.66 Q616.956 1513.66 620.151 1516.35 Q623.345 1519.03 623.345 1523.52 Q623.345 1525.65 622.535 1527.57 Q621.748 1529.47 619.641 1532.07 Q619.063 1532.74 615.961 1535.95 Q612.859 1539.15 607.211 1544.91 Z" fill="#000000" fill-rule="evenodd" fill-opacity="1" /><path clip-path="url(#clip470)" d="M902.86 1532.02 L932.535 1532.02 L932.535 1535.95 L902.86 1535.95 L902.86 1532.02 Z" fill="#000000" fill-rule="evenodd" fill-opacity="1" /><path clip-path="url(#clip470)" d="M943.438 1544.91 L951.077 1544.91 L951.077 1518.55 L942.767 1520.21 L942.767 1515.95 L951.031 1514.29 L955.707 1514.29 L955.707 1544.91 L963.345 1544.91 L963.345 1548.85 L943.438 1548.85 L943.438 1544.91 Z" fill="#000000" fill-rule="evenodd" fill-opacity="1" /><path clip-path="url(#clip470)" d="M1272.73 1517.37 Q1269.12 1517.37 1267.29 1520.93 Q1265.49 1524.47 1265.49 1531.6 Q1265.49 1538.71 1267.29 1542.27 Q1269.12 1545.82 1272.73 1545.82 Q1276.37 1545.82 1278.17 1542.27 Q1280 1538.71 1280 1531.6 Q1280 1524.47 1278.17 1520.93 Q1276.37 1517.37 1272.73 1517.37 M1272.73 1513.66 Q1278.54 1513.66 1281.6 1518.27 Q1284.68 1522.85 1284.68 1531.6 Q1284.68 1540.33 1281.6 1544.94 Q1278.54 1549.52 1272.73 1549.52 Q1266.92 1549.52 1263.84 1544.94 Q1260.79 1540.33 1260.79 1531.6 Q1260.79 1522.85 1263.84 1518.27 Q1266.92 1513.66 1272.73 1513.66 Z" fill="#000000" fill-rule="evenodd" fill-opacity="1" /><path clip-path="url(#clip470)" d="M1602.74 1544.91 L1610.38 1544.91 L1610.38 1518.55 L1602.07 1520.21 L1602.07 1515.95 L1610.34 1514.29 L1615.01 1514.29 L1615.01 1544.91 L1622.65 1544.91 L1622.65 1548.85 L1602.74 1548.85 L1602.74 1544.91 Z" fill="#000000" fill-rule="evenodd" fill-opacity="1" /><path clip-path="url(#clip470)" d="M1946.65 1544.91 L1962.96 1544.91 L1962.96 1548.85 L1941.02 1548.85 L1941.02 1544.91 Q1943.68 1542.16 1948.27 1537.53 Q1952.87 1532.88 1954.05 1531.53 Q1956.3 1529.01 1957.18 1527.27 Q1958.08 1525.51 1958.08 1523.82 Q1958.08 1521.07 1956.14 1519.33 Q1954.21 1517.6 1951.11 1517.6 Q1948.91 1517.6 1946.46 1518.36 Q1944.03 1519.13 1941.25 1520.68 L1941.25 1515.95 Q1944.08 1514.82 1946.53 1514.24 Q1948.98 1513.66 1951.02 1513.66 Q1956.39 1513.66 1959.59 1516.35 Q1962.78 1519.03 1962.78 1523.52 Q1962.78 1525.65 1961.97 1527.57 Q1961.18 1529.47 1959.08 1532.07 Q1958.5 1532.74 1955.4 1535.95 Q1952.29 1539.15 1946.65 1544.91 Z" fill="#000000" fill-rule="evenodd" fill-opacity="1" /><path clip-path="url(#clip470)" d="M2295.87 1530.21 Q2299.23 1530.93 2301.1 1533.2 Q2303 1535.47 2303 1538.8 Q2303 1543.92 2299.48 1546.72 Q2295.96 1549.52 2289.48 1549.52 Q2287.31 1549.52 2284.99 1549.08 Q2282.7 1548.66 2280.25 1547.81 L2280.25 1543.29 Q2282.19 1544.43 2284.5 1545.01 Q2286.82 1545.58 2289.34 1545.58 Q2293.74 1545.58 2296.03 1543.85 Q2298.35 1542.11 2298.35 1538.8 Q2298.35 1535.75 2296.19 1534.03 Q2294.06 1532.3 2290.25 1532.3 L2286.22 1532.3 L2286.22 1528.45 L2290.43 1528.45 Q2293.88 1528.45 2295.71 1527.09 Q2297.54 1525.7 2297.54 1523.11 Q2297.54 1520.45 2295.64 1519.03 Q2293.76 1517.6 2290.25 1517.6 Q2288.32 1517.6 2286.12 1518.01 Q2283.93 1518.43 2281.29 1519.31 L2281.29 1515.14 Q2283.95 1514.4 2286.26 1514.03 Q2288.6 1513.66 2290.66 1513.66 Q2295.99 1513.66 2299.09 1516.09 Q2302.19 1518.5 2302.19 1522.62 Q2302.19 1525.49 2300.55 1527.48 Q2298.9 1529.45 2295.87 1530.21 Z" fill="#000000" fill-rule="evenodd" fill-opacity="1" /><polyline clip-path="url(#clip472)" style="stroke:#000000; stroke-linecap:butt; stroke-linejoin:round; stroke-width:2; stroke-opacity:0.1; fill:none" points="
  192.709,1373.56 2352.76,1373.56 
  "/>
<polyline clip-path="url(#clip472)" style="stroke:#000000; stroke-linecap:butt; stroke-linejoin:round; stroke-width:2; stroke-opacity:0.1; fill:none" points="
  192.709,1154 2352.76,1154 
  "/>
<polyline clip-path="url(#clip472)" style="stroke:#000000; stroke-linecap:butt; stroke-linejoin:round; stroke-width:2; stroke-opacity:0.1; fill:none" points="
  192.709,934.438 2352.76,934.438 
  "/>
<polyline clip-path="url(#clip472)" style="stroke:#000000; stroke-linecap:butt; stroke-linejoin:round; stroke-width:2; stroke-opacity:0.1; fill:none" points="
  192.709,714.877 2352.76,714.877 
  "/>
<polyline clip-path="url(#clip472)" style="stroke:#000000; stroke-linecap:butt; stroke-linejoin:round; stroke-width:2; stroke-opacity:0.1; fill:none" points="
  192.709,495.315 2352.76,495.315 
  "/>
<polyline clip-path="url(#clip472)" style="stroke:#000000; stroke-linecap:butt; stroke-linejoin:round; stroke-width:2; stroke-opacity:0.1; fill:none" points="
  192.709,275.754 2352.76,275.754 
  "/>
<polyline clip-path="url(#clip472)" style="stroke:#000000; stroke-linecap:butt; stroke-linejoin:round; stroke-width:2; stroke-opacity:0.1; fill:none" points="
  192.709,56.1933 2352.76,56.1933 
  "/>
<polyline clip-path="url(#clip470)" style="stroke:#000000; stroke-linecap:butt; stroke-linejoin:round; stroke-width:4; stroke-opacity:1; fill:none" points="
  192.709,1486.45 192.709,47.2441 
  "/>
<polyline clip-path="url(#clip470)" style="stroke:#000000; stroke-linecap:butt; stroke-linejoin:round; stroke-width:4; stroke-opacity:1; fill:none" points="
  192.709,1373.56 211.607,1373.56 
  "/>
<polyline clip-path="url(#clip470)" style="stroke:#000000; stroke-linecap:butt; stroke-linejoin:round; stroke-width:4; stroke-opacity:1; fill:none" points="
  192.709,1154 211.607,1154 
  "/>
<polyline clip-path="url(#clip470)" style="stroke:#000000; stroke-linecap:butt; stroke-linejoin:round; stroke-width:4; stroke-opacity:1; fill:none" points="
  192.709,934.438 211.607,934.438 
  "/>
<polyline clip-path="url(#clip470)" style="stroke:#000000; stroke-linecap:butt; stroke-linejoin:round; stroke-width:4; stroke-opacity:1; fill:none" points="
  192.709,714.877 211.607,714.877 
  "/>
<polyline clip-path="url(#clip470)" style="stroke:#000000; stroke-linecap:butt; stroke-linejoin:round; stroke-width:4; stroke-opacity:1; fill:none" points="
  192.709,495.315 211.607,495.315 
  "/>
<polyline clip-path="url(#clip470)" style="stroke:#000000; stroke-linecap:butt; stroke-linejoin:round; stroke-width:4; stroke-opacity:1; fill:none" points="
  192.709,275.754 211.607,275.754 
  "/>
<polyline clip-path="url(#clip470)" style="stroke:#000000; stroke-linecap:butt; stroke-linejoin:round; stroke-width:4; stroke-opacity:1; fill:none" points="
  192.709,56.1933 211.607,56.1933 
  "/>
<path clip-path="url(#clip470)" d="M51.3625 1374.01 L81.0383 1374.01 L81.0383 1377.95 L51.3625 1377.95 L51.3625 1374.01 Z" fill="#000000" fill-rule="evenodd" fill-opacity="1" /><path clip-path="url(#clip470)" d="M101.131 1359.36 Q97.5197 1359.36 95.691 1362.92 Q93.8854 1366.46 93.8854 1373.59 Q93.8854 1380.7 95.691 1384.27 Q97.5197 1387.81 101.131 1387.81 Q104.765 1387.81 106.571 1384.27 Q108.399 1380.7 108.399 1373.59 Q108.399 1366.46 106.571 1362.92 Q104.765 1359.36 101.131 1359.36 M101.131 1355.65 Q106.941 1355.65 109.996 1360.26 Q113.075 1364.84 113.075 1373.59 Q113.075 1382.32 109.996 1386.93 Q106.941 1391.51 101.131 1391.51 Q95.3206 1391.51 92.2419 1386.93 Q89.1864 1382.32 89.1864 1373.59 Q89.1864 1364.84 92.2419 1360.26 Q95.3206 1355.65 101.131 1355.65 Z" fill="#000000" fill-rule="evenodd" fill-opacity="1" /><path clip-path="url(#clip470)" d="M121.293 1384.96 L126.177 1384.96 L126.177 1390.84 L121.293 1390.84 L121.293 1384.96 Z" fill="#000000" fill-rule="evenodd" fill-opacity="1" /><path clip-path="url(#clip470)" d="M140.39 1386.9 L156.709 1386.9 L156.709 1390.84 L134.765 1390.84 L134.765 1386.9 Q137.427 1384.15 142.01 1379.52 Q146.617 1374.87 147.797 1373.52 Q150.043 1371 150.922 1369.27 Q151.825 1367.51 151.825 1365.82 Q151.825 1363.06 149.88 1361.33 Q147.959 1359.59 144.857 1359.59 Q142.658 1359.59 140.205 1360.35 Q137.774 1361.12 134.996 1362.67 L134.996 1357.95 Q137.82 1356.81 140.274 1356.23 Q142.728 1355.65 144.765 1355.65 Q150.135 1355.65 153.33 1358.34 Q156.524 1361.03 156.524 1365.52 Q156.524 1367.65 155.714 1369.57 Q154.927 1371.46 152.82 1374.06 Q152.242 1374.73 149.14 1377.95 Q146.038 1381.14 140.39 1386.9 Z" fill="#000000" fill-rule="evenodd" fill-opacity="1" /><path clip-path="url(#clip470)" d="M50.9921 1154.45 L80.6679 1154.45 L80.6679 1158.39 L50.9921 1158.39 L50.9921 1154.45 Z" fill="#000000" fill-rule="evenodd" fill-opacity="1" /><path clip-path="url(#clip470)" d="M100.76 1139.8 Q97.1493 1139.8 95.3206 1143.36 Q93.515 1146.9 93.515 1154.03 Q93.515 1161.14 95.3206 1164.7 Q97.1493 1168.25 100.76 1168.25 Q104.395 1168.25 106.2 1164.7 Q108.029 1161.14 108.029 1154.03 Q108.029 1146.9 106.2 1143.36 Q104.395 1139.8 100.76 1139.8 M100.76 1136.09 Q106.571 1136.09 109.626 1140.7 Q112.705 1145.28 112.705 1154.03 Q112.705 1162.76 109.626 1167.37 Q106.571 1171.95 100.76 1171.95 Q94.9502 1171.95 91.8715 1167.37 Q88.816 1162.76 88.816 1154.03 Q88.816 1145.28 91.8715 1140.7 Q94.9502 1136.09 100.76 1136.09 Z" fill="#000000" fill-rule="evenodd" fill-opacity="1" /><path clip-path="url(#clip470)" d="M120.922 1165.4 L125.807 1165.4 L125.807 1171.28 L120.922 1171.28 L120.922 1165.4 Z" fill="#000000" fill-rule="evenodd" fill-opacity="1" /><path clip-path="url(#clip470)" d="M136.802 1167.34 L144.441 1167.34 L144.441 1140.98 L136.131 1142.64 L136.131 1138.39 L144.394 1136.72 L149.07 1136.72 L149.07 1167.34 L156.709 1167.34 L156.709 1171.28 L136.802 1171.28 L136.802 1167.34 Z" fill="#000000" fill-rule="evenodd" fill-opacity="1" /><path clip-path="url(#clip470)" d="M99.5335 920.236 Q95.9224 920.236 94.0937 923.801 Q92.2882 927.343 92.2882 934.472 Q92.2882 941.579 94.0937 945.144 Q95.9224 948.685 99.5335 948.685 Q103.168 948.685 104.973 945.144 Q106.802 941.579 106.802 934.472 Q106.802 927.343 104.973 923.801 Q103.168 920.236 99.5335 920.236 M99.5335 916.533 Q105.344 916.533 108.399 921.139 Q111.478 925.722 111.478 934.472 Q111.478 943.199 108.399 947.806 Q105.344 952.389 99.5335 952.389 Q93.7234 952.389 90.6447 947.806 Q87.5892 943.199 87.5892 934.472 Q87.5892 925.722 90.6447 921.139 Q93.7234 916.533 99.5335 916.533 Z" fill="#000000" fill-rule="evenodd" fill-opacity="1" /><path clip-path="url(#clip470)" d="M119.695 945.838 L124.58 945.838 L124.58 951.718 L119.695 951.718 L119.695 945.838 Z" fill="#000000" fill-rule="evenodd" fill-opacity="1" /><path clip-path="url(#clip470)" d="M144.765 920.236 Q141.154 920.236 139.325 923.801 Q137.519 927.343 137.519 934.472 Q137.519 941.579 139.325 945.144 Q141.154 948.685 144.765 948.685 Q148.399 948.685 150.205 945.144 Q152.033 941.579 152.033 934.472 Q152.033 927.343 150.205 923.801 Q148.399 920.236 144.765 920.236 M144.765 916.533 Q150.575 916.533 153.63 921.139 Q156.709 925.722 156.709 934.472 Q156.709 943.199 153.63 947.806 Q150.575 952.389 144.765 952.389 Q138.955 952.389 135.876 947.806 Q132.82 943.199 132.82 934.472 Q132.82 925.722 135.876 921.139 Q138.955 916.533 144.765 916.533 Z" fill="#000000" fill-rule="evenodd" fill-opacity="1" /><path clip-path="url(#clip470)" d="M100.76 700.675 Q97.1493 700.675 95.3206 704.24 Q93.515 707.782 93.515 714.911 Q93.515 722.018 95.3206 725.582 Q97.1493 729.124 100.76 729.124 Q104.395 729.124 106.2 725.582 Q108.029 722.018 108.029 714.911 Q108.029 707.782 106.2 704.24 Q104.395 700.675 100.76 700.675 M100.76 696.972 Q106.571 696.972 109.626 701.578 Q112.705 706.161 112.705 714.911 Q112.705 723.638 109.626 728.244 Q106.571 732.828 100.76 732.828 Q94.9502 732.828 91.8715 728.244 Q88.816 723.638 88.816 714.911 Q88.816 706.161 91.8715 701.578 Q94.9502 696.972 100.76 696.972 Z" fill="#000000" fill-rule="evenodd" fill-opacity="1" /><path clip-path="url(#clip470)" d="M120.922 726.277 L125.807 726.277 L125.807 732.157 L120.922 732.157 L120.922 726.277 Z" fill="#000000" fill-rule="evenodd" fill-opacity="1" /><path clip-path="url(#clip470)" d="M136.802 728.221 L144.441 728.221 L144.441 701.856 L136.131 703.522 L136.131 699.263 L144.394 697.597 L149.07 697.597 L149.07 728.221 L156.709 728.221 L156.709 732.157 L136.802 732.157 L136.802 728.221 Z" fill="#000000" fill-rule="evenodd" fill-opacity="1" /><path clip-path="url(#clip470)" d="M101.131 481.114 Q97.5197 481.114 95.691 484.679 Q93.8854 488.221 93.8854 495.35 Q93.8854 502.457 95.691 506.021 Q97.5197 509.563 101.131 509.563 Q104.765 509.563 106.571 506.021 Q108.399 502.457 108.399 495.35 Q108.399 488.221 106.571 484.679 Q104.765 481.114 101.131 481.114 M101.131 477.41 Q106.941 477.41 109.996 482.017 Q113.075 486.6 113.075 495.35 Q113.075 504.077 109.996 508.683 Q106.941 513.267 101.131 513.267 Q95.3206 513.267 92.2419 508.683 Q89.1864 504.077 89.1864 495.35 Q89.1864 486.6 92.2419 482.017 Q95.3206 477.41 101.131 477.41 Z" fill="#000000" fill-rule="evenodd" fill-opacity="1" /><path clip-path="url(#clip470)" d="M121.293 506.716 L126.177 506.716 L126.177 512.595 L121.293 512.595 L121.293 506.716 Z" fill="#000000" fill-rule="evenodd" fill-opacity="1" /><path clip-path="url(#clip470)" d="M140.39 508.66 L156.709 508.66 L156.709 512.595 L134.765 512.595 L134.765 508.66 Q137.427 505.906 142.01 501.276 Q146.617 496.623 147.797 495.281 Q150.043 492.758 150.922 491.021 Q151.825 489.262 151.825 487.572 Q151.825 484.818 149.88 483.082 Q147.959 481.346 144.857 481.346 Q142.658 481.346 140.205 482.11 Q137.774 482.873 134.996 484.424 L134.996 479.702 Q137.82 478.568 140.274 477.989 Q142.728 477.41 144.765 477.41 Q150.135 477.41 153.33 480.096 Q156.524 482.781 156.524 487.272 Q156.524 489.401 155.714 491.322 Q154.927 493.221 152.82 495.813 Q152.242 496.484 149.14 499.702 Q146.038 502.896 140.39 508.66 Z" fill="#000000" fill-rule="evenodd" fill-opacity="1" /><path clip-path="url(#clip470)" d="M100.182 261.553 Q96.5706 261.553 94.7419 265.118 Q92.9363 268.66 92.9363 275.789 Q92.9363 282.896 94.7419 286.46 Q96.5706 290.002 100.182 290.002 Q103.816 290.002 105.621 286.46 Q107.45 282.896 107.45 275.789 Q107.45 268.66 105.621 265.118 Q103.816 261.553 100.182 261.553 M100.182 257.849 Q105.992 257.849 109.047 262.456 Q112.126 267.039 112.126 275.789 Q112.126 284.516 109.047 289.122 Q105.992 293.706 100.182 293.706 Q94.3715 293.706 91.2928 289.122 Q88.2373 284.516 88.2373 275.789 Q88.2373 267.039 91.2928 262.456 Q94.3715 257.849 100.182 257.849 Z" fill="#000000" fill-rule="evenodd" fill-opacity="1" /><path clip-path="url(#clip470)" d="M120.344 287.155 L125.228 287.155 L125.228 293.034 L120.344 293.034 L120.344 287.155 Z" fill="#000000" fill-rule="evenodd" fill-opacity="1" /><path clip-path="url(#clip470)" d="M149.58 274.4 Q152.936 275.118 154.811 277.386 Q156.709 279.655 156.709 282.988 Q156.709 288.104 153.191 290.905 Q149.672 293.706 143.191 293.706 Q141.015 293.706 138.7 293.266 Q136.408 292.849 133.955 291.993 L133.955 287.479 Q135.899 288.613 138.214 289.192 Q140.529 289.771 143.052 289.771 Q147.45 289.771 149.742 288.034 Q152.056 286.298 152.056 282.988 Q152.056 279.933 149.904 278.22 Q147.774 276.484 143.955 276.484 L139.927 276.484 L139.927 272.641 L144.14 272.641 Q147.589 272.641 149.418 271.275 Q151.246 269.886 151.246 267.294 Q151.246 264.632 149.348 263.22 Q147.473 261.785 143.955 261.785 Q142.033 261.785 139.834 262.201 Q137.635 262.618 134.996 263.498 L134.996 259.331 Q137.658 258.59 139.973 258.22 Q142.311 257.849 144.371 257.849 Q149.695 257.849 152.797 260.28 Q155.899 262.687 155.899 266.808 Q155.899 269.678 154.255 271.669 Q152.612 273.636 149.58 274.4 Z" fill="#000000" fill-rule="evenodd" fill-opacity="1" /><path clip-path="url(#clip470)" d="M99.0474 41.992 Q95.4363 41.992 93.6076 45.5568 Q91.8021 49.0985 91.8021 56.2281 Q91.8021 63.3345 93.6076 66.8993 Q95.4363 70.441 99.0474 70.441 Q102.682 70.441 104.487 66.8993 Q106.316 63.3345 106.316 56.2281 Q106.316 49.0985 104.487 45.5568 Q102.682 41.992 99.0474 41.992 M99.0474 38.2883 Q104.858 38.2883 107.913 42.8948 Q110.992 47.4781 110.992 56.2281 Q110.992 64.9549 107.913 69.5613 Q104.858 74.1446 99.0474 74.1446 Q93.2373 74.1446 90.1586 69.5613 Q87.103 64.9549 87.103 56.2281 Q87.103 47.4781 90.1586 42.8948 Q93.2373 38.2883 99.0474 38.2883 Z" fill="#000000" fill-rule="evenodd" fill-opacity="1" /><path clip-path="url(#clip470)" d="M119.209 67.5937 L124.094 67.5937 L124.094 73.4733 L119.209 73.4733 L119.209 67.5937 Z" fill="#000000" fill-rule="evenodd" fill-opacity="1" /><path clip-path="url(#clip470)" d="M147.126 42.9874 L135.32 61.4364 L147.126 61.4364 L147.126 42.9874 M145.899 38.9133 L151.779 38.9133 L151.779 61.4364 L156.709 61.4364 L156.709 65.3252 L151.779 65.3252 L151.779 73.4733 L147.126 73.4733 L147.126 65.3252 L131.524 65.3252 L131.524 60.8114 L145.899 38.9133 Z" fill="#000000" fill-rule="evenodd" fill-opacity="1" /><polyline clip-path="url(#clip472)" style="stroke:#009af9; stroke-linecap:butt; stroke-linejoin:round; stroke-width:12; stroke-opacity:1; fill:none" points="
  253.843,934.438 257.239,908.477 260.635,943.427 264.031,959.24 267.428,920.315 270.824,910.144 274.22,950.161 277.617,960.241 281.013,920.696 284.409,905.281 
  287.806,941.807 291.202,966.9 294.598,938.624 297.994,902.61 301.391,914.69 304.787,956.636 308.183,968.091 311.58,933.437 314.976,899.025 318.372,908.795 
  321.769,950.353 325.165,974.343 328.561,953.738 331.957,911.499 335.354,892.124 338.75,914.825 342.146,957.107 345.543,979.443 348.939,962.198 352.335,920.722 
  355.732,889.488 359.128,892.995 362.524,928.028 365.92,968.574 369.317,986.219 372.713,969.526 376.109,929.843 379.506,892.091 382.902,878.614 386.298,896.627 
  389.695,935.704 393.091,974.972 396.487,994.686 399.883,985.724 403.28,952.801 406.676,911.022 410.072,878.367 413.469,868 416.865,883.524 420.261,918.556 
  423.658,960.034 427.054,993.45 430.45,1007.87 433.846,999.106 437.243,970.343 440.639,930.464 444.035,890.947 447.432,862.465 450.828,852.158 454.224,862.183 
  457.621,889.688 461.017,927.977 464.413,968.387 467.809,1002.35 471.206,1023.13 474.602,1027 477.998,1013.64 481.395,985.823 484.791,948.67 488.187,908.517 
  491.584,871.784 494.98,843.965 498.376,828.899 501.772,828.392 505.169,842.165 508.565,868.106 511.961,902.716 515.358,941.681 518.754,980.459 522.15,1014.81 
  525.547,1041.24 528.943,1057.27 532.339,1061.61 535.735,1054.13 539.132,1035.78 542.528,1008.42 545.924,974.493 549.321,936.855 552.717,898.449 556.113,862.09 
  559.51,830.272 562.906,805.021 566.302,787.805 569.698,779.491 573.095,780.356 576.491,790.121 579.887,808.031 583.284,832.937 586.68,863.402 590.076,897.805 
  593.473,934.438 596.869,971.597 600.265,1007.66 603.661,1041.17 607.058,1070.85 610.454,1095.65 613.85,1114.78 617.247,1127.72 620.643,1134.18 624.039,1134.11 
  627.436,1127.67 630.832,1115.23 634.228,1097.3 637.624,1074.52 641.021,1047.62 644.417,1017.41 647.813,984.707 651.21,950.364 654.606,915.208 658.002,880.034 
  661.399,845.586 664.795,812.549 668.191,781.531 671.587,753.064 674.984,727.597 678.38,705.495 681.776,687.041 685.173,672.437 688.569,661.807 691.965,655.205 
  695.362,652.622 698.758,653.985 702.154,659.174 705.55,668.021 708.947,680.32 712.343,695.836 715.739,714.305 719.136,735.448 722.532,758.971 725.928,784.574 
  729.325,811.95 732.721,840.796 736.117,870.813 739.513,901.709 742.91,933.202 746.306,965.025 749.702,996.921 753.099,1028.65 756.495,1060 759.891,1090.75 
  763.288,1120.72 766.684,1149.74 770.08,1177.66 773.476,1204.35 776.873,1229.68 780.269,1253.56 783.665,1275.91 787.062,1296.64 790.458,1315.71 793.854,1333.07 
  797.251,1348.7 800.647,1362.57 804.043,1374.68 807.439,1385.04 810.836,1393.64 814.232,1400.51 817.628,1405.68 821.025,1409.18 824.421,1411.04 827.817,1411.32 
  831.214,1410.05 834.61,1407.28 838.006,1403.08 841.402,1397.5 844.799,1390.59 848.195,1382.41 851.591,1373.03 854.988,1362.51 858.384,1350.9 861.78,1338.27 
  865.177,1324.68 868.573,1310.18 871.969,1294.85 875.365,1278.73 878.762,1261.88 882.158,1244.37 885.554,1226.24 888.951,1207.55 892.347,1188.35 895.743,1168.68 
  899.14,1148.61 902.536,1128.16 905.932,1107.4 909.328,1086.35 912.725,1065.07 916.121,1043.59 919.517,1021.94 922.914,1000.17 926.31,978.311 929.706,956.389 
  933.103,934.438 936.499,912.486 939.895,890.562 943.291,868.691 946.688,846.898 950.084,825.206 953.48,803.637 956.877,782.211 960.273,760.947 963.669,739.864 
  967.066,718.978 970.462,698.304 973.858,677.858 977.254,657.654 980.651,637.703 984.047,618.019 987.443,598.611 990.84,579.491 994.236,560.668 997.632,542.15 
  1001.03,523.945 1004.42,506.062 1007.82,488.507 1011.22,471.287 1014.61,454.407 1018.01,437.874 1021.41,421.691 1024.8,405.864 1028.2,390.398 1031.6,375.296 
  1034.99,360.562 1038.39,346.2 1041.78,332.213 1045.18,318.604 1048.58,305.377 1051.97,292.534 1055.37,280.078 1058.77,268.012 1062.16,256.338 1065.56,245.061 
  1068.95,234.181 1072.35,223.703 1075.75,213.629 1079.14,203.962 1082.54,194.706 1085.94,185.864 1089.33,177.439 1092.73,169.435 1096.12,161.858 1099.52,154.71 
  1102.92,147.997 1106.31,141.724 1109.71,135.896 1113.11,130.52 1116.5,125.601 1119.9,121.148 1123.3,117.168 1126.69,113.668 1130.09,110.658 1133.48,108.148 
  1136.88,106.148 1140.28,104.669 1143.67,103.724 1147.07,103.327 1150.47,103.491 1153.86,104.232 1157.26,105.568 1160.65,107.517 1164.05,110.098 1167.45,113.335 
  1170.84,117.251 1174.24,121.87 1177.64,127.223 1181.03,133.339 1184.43,140.251 1187.83,147.997 1191.22,156.615 1194.62,166.151 1198.01,176.652 1201.41,188.171 
  1204.81,200.766 1208.2,214.502 1211.6,229.451 1215,245.692 1218.39,263.314 1221.79,282.416 1225.18,303.113 1228.58,325.529 1231.98,349.813 1235.37,376.131 
  1238.77,404.678 1242.17,435.684 1245.56,469.423 1248.96,506.23 1252.35,546.523 1255.75,590.843 1259.15,639.927 1262.54,694.855 1265.94,757.413 1269.34,831.306 
  1272.73,934.438 1276.13,831.306 1279.53,757.413 1282.92,694.855 1286.32,639.927 1289.71,590.843 1293.11,546.523 1296.51,506.23 1299.9,469.423 1303.3,435.684 
  1306.7,404.678 1310.09,376.131 1313.49,349.813 1316.88,325.529 1320.28,303.113 1323.68,282.416 1327.07,263.314 1330.47,245.692 1333.87,229.451 1337.26,214.502 
  1340.66,200.766 1344.05,188.171 1347.45,176.652 1350.85,166.151 1354.24,156.615 1357.64,147.997 1361.04,140.251 1364.43,133.339 1367.83,127.223 1371.23,121.87 
  1374.62,117.251 1378.02,113.335 1381.41,110.098 1384.81,107.517 1388.21,105.568 1391.6,104.232 1395,103.491 1398.4,103.327 1401.79,103.724 1405.19,104.669 
  1408.58,106.148 1411.98,108.148 1415.38,110.658 1418.77,113.668 1422.17,117.168 1425.57,121.148 1428.96,125.601 1432.36,130.52 1435.75,135.896 1439.15,141.724 
  1442.55,147.997 1445.94,154.71 1449.34,161.858 1452.74,169.435 1456.13,177.439 1459.53,185.864 1462.93,194.706 1466.32,203.962 1469.72,213.629 1473.11,223.703 
  1476.51,234.181 1479.91,245.061 1483.3,256.338 1486.7,268.012 1490.1,280.078 1493.49,292.534 1496.89,305.377 1500.28,318.604 1503.68,332.213 1507.08,346.2 
  1510.47,360.562 1513.87,375.296 1517.27,390.398 1520.66,405.864 1524.06,421.691 1527.46,437.874 1530.85,454.407 1534.25,471.287 1537.64,488.507 1541.04,506.062 
  1544.44,523.945 1547.83,542.15 1551.23,560.668 1554.63,579.491 1558.02,598.611 1561.42,618.019 1564.81,637.703 1568.21,657.654 1571.61,677.858 1575,698.304 
  1578.4,718.978 1581.8,739.864 1585.19,760.947 1588.59,782.211 1591.98,803.637 1595.38,825.206 1598.78,846.898 1602.17,868.691 1605.57,890.562 1608.97,912.486 
  1612.36,934.438 1615.76,956.389 1619.16,978.311 1622.55,1000.17 1625.95,1021.94 1629.34,1043.59 1632.74,1065.07 1636.14,1086.35 1639.53,1107.4 1642.93,1128.16 
  1646.33,1148.61 1649.72,1168.68 1653.12,1188.35 1656.51,1207.55 1659.91,1226.24 1663.31,1244.37 1666.7,1261.88 1670.1,1278.73 1673.5,1294.85 1676.89,1310.18 
  1680.29,1324.68 1683.68,1338.27 1687.08,1350.9 1690.48,1362.51 1693.87,1373.03 1697.27,1382.41 1700.67,1390.59 1704.06,1397.5 1707.46,1403.08 1710.86,1407.28 
  1714.25,1410.05 1717.65,1411.32 1721.04,1411.04 1724.44,1409.18 1727.84,1405.68 1731.23,1400.51 1734.63,1393.64 1738.03,1385.04 1741.42,1374.68 1744.82,1362.57 
  1748.21,1348.7 1751.61,1333.07 1755.01,1315.71 1758.4,1296.64 1761.8,1275.91 1765.2,1253.56 1768.59,1229.68 1771.99,1204.35 1775.38,1177.66 1778.78,1149.74 
  1782.18,1120.72 1785.57,1090.75 1788.97,1060 1792.37,1028.65 1795.76,996.921 1799.16,965.025 1802.56,933.202 1805.95,901.709 1809.35,870.813 1812.74,840.796 
  1816.14,811.95 1819.54,784.574 1822.93,758.971 1826.33,735.448 1829.73,714.305 1833.12,695.836 1836.52,680.32 1839.91,668.021 1843.31,659.174 1846.71,653.985 
  1850.1,652.622 1853.5,655.205 1856.9,661.807 1860.29,672.437 1863.69,687.041 1867.09,705.495 1870.48,727.597 1873.88,753.064 1877.27,781.531 1880.67,812.549 
  1884.07,845.586 1887.46,880.034 1890.86,915.208 1894.26,950.364 1897.65,984.707 1901.05,1017.41 1904.44,1047.62 1907.84,1074.52 1911.24,1097.3 1914.63,1115.23 
  1918.03,1127.67 1921.43,1134.11 1924.82,1134.18 1928.22,1127.72 1931.61,1114.78 1935.01,1095.65 1938.41,1070.85 1941.8,1041.17 1945.2,1007.66 1948.6,971.597 
  1951.99,934.438 1955.39,897.805 1958.79,863.402 1962.18,832.937 1965.58,808.031 1968.97,790.121 1972.37,780.356 1975.77,779.491 1979.16,787.805 1982.56,805.021 
  1985.96,830.272 1989.35,862.09 1992.75,898.449 1996.14,936.855 1999.54,974.493 2002.94,1008.42 2006.33,1035.78 2009.73,1054.13 2013.13,1061.61 2016.52,1057.27 
  2019.92,1041.24 2023.31,1014.81 2026.71,980.459 2030.11,941.681 2033.5,902.716 2036.9,868.106 2040.3,842.165 2043.69,828.392 2047.09,828.899 2050.49,843.965 
  2053.88,871.784 2057.28,908.517 2060.67,948.67 2064.07,985.823 2067.47,1013.64 2070.86,1027 2074.26,1023.13 2077.66,1002.35 2081.05,968.387 2084.45,927.977 
  2087.84,889.688 2091.24,862.183 2094.64,852.158 2098.03,862.465 2101.43,890.947 2104.83,930.464 2108.22,970.343 2111.62,999.106 2115.01,1007.87 2118.41,993.45 
  2121.81,960.034 2125.2,918.556 2128.6,883.524 2132,868 2135.39,878.367 2138.79,911.022 2142.19,952.801 2145.58,985.724 2148.98,994.686 2152.37,974.972 
  2155.77,935.704 2159.17,896.627 2162.56,878.614 2165.96,892.091 2169.36,929.843 2172.75,969.526 2176.15,986.219 2179.54,968.574 2182.94,928.028 2186.34,892.995 
  2189.73,889.488 2193.13,920.722 2196.53,962.198 2199.92,979.443 2203.32,957.107 2206.72,914.825 2210.11,892.124 2213.51,911.499 2216.9,953.738 2220.3,974.343 
  2223.7,950.353 2227.09,908.795 2230.49,899.025 2233.89,933.437 2237.28,968.091 2240.68,956.636 2244.07,914.69 2247.47,902.61 2250.87,938.624 2254.26,966.9 
  2257.66,941.807 2261.06,905.281 2264.45,920.696 2267.85,960.241 2271.24,950.161 2274.64,910.144 2278.04,920.315 2281.43,959.24 2284.83,943.427 2288.23,908.477 
  2291.62,934.438 
  "/>
<circle clip-path="url(#clip472)" cx="2100.35" cy="898.132" r="14" fill="#e26f46" fill-rule="evenodd" fill-opacity="1" stroke="#000000" stroke-opacity="1" stroke-width="3.2"/>
<circle clip-path="url(#clip472)" cx="1162.95" cy="87.9763" r="14" fill="#e26f46" fill-rule="evenodd" fill-opacity="1" stroke="#000000" stroke-opacity="1" stroke-width="3.2"/>
<circle clip-path="url(#clip472)" cx="885.265" cy="1236.66" r="14" fill="#e26f46" fill-rule="evenodd" fill-opacity="1" stroke="#000000" stroke-opacity="1" stroke-width="3.2"/>
<circle clip-path="url(#clip472)" cx="1796.56" cy="970.786" r="14" fill="#e26f46" fill-rule="evenodd" fill-opacity="1" stroke="#000000" stroke-opacity="1" stroke-width="3.2"/>
<circle clip-path="url(#clip472)" cx="1926.75" cy="1138.63" r="14" fill="#e26f46" fill-rule="evenodd" fill-opacity="1" stroke="#000000" stroke-opacity="1" stroke-width="3.2"/>
<circle clip-path="url(#clip472)" cx="1097.26" cy="128.738" r="14" fill="#e26f46" fill-rule="evenodd" fill-opacity="1" stroke="#000000" stroke-opacity="1" stroke-width="3.2"/>
<circle clip-path="url(#clip472)" cx="1725.51" cy="1445.72" r="14" fill="#e26f46" fill-rule="evenodd" fill-opacity="1" stroke="#000000" stroke-opacity="1" stroke-width="3.2"/>
<circle clip-path="url(#clip472)" cx="1530.1" cy="429.562" r="14" fill="#e26f46" fill-rule="evenodd" fill-opacity="1" stroke="#000000" stroke-opacity="1" stroke-width="3.2"/>
<circle clip-path="url(#clip472)" cx="1828.46" cy="715.006" r="14" fill="#e26f46" fill-rule="evenodd" fill-opacity="1" stroke="#000000" stroke-opacity="1" stroke-width="3.2"/>
<circle clip-path="url(#clip472)" cx="1975.8" cy="788.741" r="14" fill="#e26f46" fill-rule="evenodd" fill-opacity="1" stroke="#000000" stroke-opacity="1" stroke-width="3.2"/>
<circle clip-path="url(#clip472)" cx="641.532" cy="1061.15" r="14" fill="#e26f46" fill-rule="evenodd" fill-opacity="1" stroke="#000000" stroke-opacity="1" stroke-width="3.2"/>
<circle clip-path="url(#clip472)" cx="1858.99" cy="665.039" r="14" fill="#e26f46" fill-rule="evenodd" fill-opacity="1" stroke="#000000" stroke-opacity="1" stroke-width="3.2"/>
<circle clip-path="url(#clip472)" cx="528.138" cy="1048.88" r="14" fill="#e26f46" fill-rule="evenodd" fill-opacity="1" stroke="#000000" stroke-opacity="1" stroke-width="3.2"/>
<circle clip-path="url(#clip472)" cx="1267.3" cy="784.123" r="14" fill="#e26f46" fill-rule="evenodd" fill-opacity="1" stroke="#000000" stroke-opacity="1" stroke-width="3.2"/>
<circle clip-path="url(#clip472)" cx="1966.48" cy="792.339" r="14" fill="#e26f46" fill-rule="evenodd" fill-opacity="1" stroke="#000000" stroke-opacity="1" stroke-width="3.2"/>
<circle clip-path="url(#clip472)" cx="1959.7" cy="859.412" r="14" fill="#e26f46" fill-rule="evenodd" fill-opacity="1" stroke="#000000" stroke-opacity="1" stroke-width="3.2"/>
<circle clip-path="url(#clip472)" cx="722.058" cy="768.228" r="14" fill="#e26f46" fill-rule="evenodd" fill-opacity="1" stroke="#000000" stroke-opacity="1" stroke-width="3.2"/>
<circle clip-path="url(#clip472)" cx="294.514" cy="952.292" r="14" fill="#e26f46" fill-rule="evenodd" fill-opacity="1" stroke="#000000" stroke-opacity="1" stroke-width="3.2"/>
<circle clip-path="url(#clip472)" cx="1795.42" cy="965.833" r="14" fill="#e26f46" fill-rule="evenodd" fill-opacity="1" stroke="#000000" stroke-opacity="1" stroke-width="3.2"/>
<circle clip-path="url(#clip472)" cx="775.851" cy="1224.2" r="14" fill="#e26f46" fill-rule="evenodd" fill-opacity="1" stroke="#000000" stroke-opacity="1" stroke-width="3.2"/>
<circle clip-path="url(#clip472)" cx="2154.66" cy="933.822" r="14" fill="#e26f46" fill-rule="evenodd" fill-opacity="1" stroke="#000000" stroke-opacity="1" stroke-width="3.2"/>
<circle clip-path="url(#clip472)" cx="1441.83" cy="151.908" r="14" fill="#e26f46" fill-rule="evenodd" fill-opacity="1" stroke="#000000" stroke-opacity="1" stroke-width="3.2"/>
<circle clip-path="url(#clip472)" cx="2164.79" cy="898.22" r="14" fill="#e26f46" fill-rule="evenodd" fill-opacity="1" stroke="#000000" stroke-opacity="1" stroke-width="3.2"/>
<circle clip-path="url(#clip472)" cx="393.914" cy="966.76" r="14" fill="#e26f46" fill-rule="evenodd" fill-opacity="1" stroke="#000000" stroke-opacity="1" stroke-width="3.2"/>
<circle clip-path="url(#clip472)" cx="1184.35" cy="142.455" r="14" fill="#e26f46" fill-rule="evenodd" fill-opacity="1" stroke="#000000" stroke-opacity="1" stroke-width="3.2"/>
<circle clip-path="url(#clip472)" cx="710.599" cy="708.573" r="14" fill="#e26f46" fill-rule="evenodd" fill-opacity="1" stroke="#000000" stroke-opacity="1" stroke-width="3.2"/>
<circle clip-path="url(#clip472)" cx="369.604" cy="936.746" r="14" fill="#e26f46" fill-rule="evenodd" fill-opacity="1" stroke="#000000" stroke-opacity="1" stroke-width="3.2"/>
<circle clip-path="url(#clip472)" cx="1543.91" cy="519.725" r="14" fill="#e26f46" fill-rule="evenodd" fill-opacity="1" stroke="#000000" stroke-opacity="1" stroke-width="3.2"/>
<circle clip-path="url(#clip472)" cx="1169.23" cy="102.803" r="14" fill="#e26f46" fill-rule="evenodd" fill-opacity="1" stroke="#000000" stroke-opacity="1" stroke-width="3.2"/>
<circle clip-path="url(#clip472)" cx="1669.44" cy="1269.59" r="14" fill="#e26f46" fill-rule="evenodd" fill-opacity="1" stroke="#000000" stroke-opacity="1" stroke-width="3.2"/>
<circle clip-path="url(#clip472)" cx="315.076" cy="886.086" r="14" fill="#e26f46" fill-rule="evenodd" fill-opacity="1" stroke="#000000" stroke-opacity="1" stroke-width="3.2"/>
<circle clip-path="url(#clip472)" cx="266.3" cy="916.31" r="14" fill="#e26f46" fill-rule="evenodd" fill-opacity="1" stroke="#000000" stroke-opacity="1" stroke-width="3.2"/>
<circle clip-path="url(#clip472)" cx="362.019" cy="985.215" r="14" fill="#e26f46" fill-rule="evenodd" fill-opacity="1" stroke="#000000" stroke-opacity="1" stroke-width="3.2"/>
<circle clip-path="url(#clip472)" cx="1930.05" cy="1143.64" r="14" fill="#e26f46" fill-rule="evenodd" fill-opacity="1" stroke="#000000" stroke-opacity="1" stroke-width="3.2"/>
<circle clip-path="url(#clip472)" cx="1656.01" cy="1181.28" r="14" fill="#e26f46" fill-rule="evenodd" fill-opacity="1" stroke="#000000" stroke-opacity="1" stroke-width="3.2"/>
<circle clip-path="url(#clip472)" cx="1852.91" cy="650.936" r="14" fill="#e26f46" fill-rule="evenodd" fill-opacity="1" stroke="#000000" stroke-opacity="1" stroke-width="3.2"/>
<circle clip-path="url(#clip472)" cx="296.114" cy="912.024" r="14" fill="#e26f46" fill-rule="evenodd" fill-opacity="1" stroke="#000000" stroke-opacity="1" stroke-width="3.2"/>
<circle clip-path="url(#clip472)" cx="1450.07" cy="171.265" r="14" fill="#e26f46" fill-rule="evenodd" fill-opacity="1" stroke="#000000" stroke-opacity="1" stroke-width="3.2"/>
<circle clip-path="url(#clip472)" cx="669.314" cy="796.736" r="14" fill="#e26f46" fill-rule="evenodd" fill-opacity="1" stroke="#000000" stroke-opacity="1" stroke-width="3.2"/>
<circle clip-path="url(#clip472)" cx="1084.19" cy="183.47" r="14" fill="#e26f46" fill-rule="evenodd" fill-opacity="1" stroke="#000000" stroke-opacity="1" stroke-width="3.2"/>
<circle clip-path="url(#clip472)" cx="1762.13" cy="1293.63" r="14" fill="#e26f46" fill-rule="evenodd" fill-opacity="1" stroke="#000000" stroke-opacity="1" stroke-width="3.2"/>
<circle clip-path="url(#clip472)" cx="2255.36" cy="985.816" r="14" fill="#e26f46" fill-rule="evenodd" fill-opacity="1" stroke="#000000" stroke-opacity="1" stroke-width="3.2"/>
<circle clip-path="url(#clip472)" cx="1569.67" cy="658.913" r="14" fill="#e26f46" fill-rule="evenodd" fill-opacity="1" stroke="#000000" stroke-opacity="1" stroke-width="3.2"/>
<circle clip-path="url(#clip472)" cx="774.437" cy="1211.36" r="14" fill="#e26f46" fill-rule="evenodd" fill-opacity="1" stroke="#000000" stroke-opacity="1" stroke-width="3.2"/>
<circle clip-path="url(#clip472)" cx="955.466" cy="808.307" r="14" fill="#e26f46" fill-rule="evenodd" fill-opacity="1" stroke="#000000" stroke-opacity="1" stroke-width="3.2"/>
<circle clip-path="url(#clip472)" cx="1697.27" cy="1386.08" r="14" fill="#e26f46" fill-rule="evenodd" fill-opacity="1" stroke="#000000" stroke-opacity="1" stroke-width="3.2"/>
<circle clip-path="url(#clip472)" cx="1335.24" cy="246.561" r="14" fill="#e26f46" fill-rule="evenodd" fill-opacity="1" stroke="#000000" stroke-opacity="1" stroke-width="3.2"/>
<circle clip-path="url(#clip472)" cx="880.315" cy="1256.89" r="14" fill="#e26f46" fill-rule="evenodd" fill-opacity="1" stroke="#000000" stroke-opacity="1" stroke-width="3.2"/>
<circle clip-path="url(#clip472)" cx="2149.57" cy="1008.23" r="14" fill="#e26f46" fill-rule="evenodd" fill-opacity="1" stroke="#000000" stroke-opacity="1" stroke-width="3.2"/>
<circle clip-path="url(#clip472)" cx="1567.61" cy="627.633" r="14" fill="#e26f46" fill-rule="evenodd" fill-opacity="1" stroke="#000000" stroke-opacity="1" stroke-width="3.2"/>
<circle clip-path="url(#clip472)" cx="523.626" cy="1042.62" r="14" fill="#e26f46" fill-rule="evenodd" fill-opacity="1" stroke="#000000" stroke-opacity="1" stroke-width="3.2"/>
<circle clip-path="url(#clip472)" cx="608.049" cy="1061.8" r="14" fill="#e26f46" fill-rule="evenodd" fill-opacity="1" stroke="#000000" stroke-opacity="1" stroke-width="3.2"/>
<circle clip-path="url(#clip472)" cx="1270.14" cy="857.004" r="14" fill="#e26f46" fill-rule="evenodd" fill-opacity="1" stroke="#000000" stroke-opacity="1" stroke-width="3.2"/>
<circle clip-path="url(#clip472)" cx="1438.17" cy="138.795" r="14" fill="#e26f46" fill-rule="evenodd" fill-opacity="1" stroke="#000000" stroke-opacity="1" stroke-width="3.2"/>
<circle clip-path="url(#clip472)" cx="985.213" cy="622.253" r="14" fill="#e26f46" fill-rule="evenodd" fill-opacity="1" stroke="#000000" stroke-opacity="1" stroke-width="3.2"/>
<circle clip-path="url(#clip472)" cx="932.379" cy="944.943" r="14" fill="#e26f46" fill-rule="evenodd" fill-opacity="1" stroke="#000000" stroke-opacity="1" stroke-width="3.2"/>
<circle clip-path="url(#clip472)" cx="2274.58" cy="950.259" r="14" fill="#e26f46" fill-rule="evenodd" fill-opacity="1" stroke="#000000" stroke-opacity="1" stroke-width="3.2"/>
<circle clip-path="url(#clip472)" cx="2227.84" cy="884.739" r="14" fill="#e26f46" fill-rule="evenodd" fill-opacity="1" stroke="#000000" stroke-opacity="1" stroke-width="3.2"/>
<circle clip-path="url(#clip472)" cx="1727.66" cy="1419.22" r="14" fill="#e26f46" fill-rule="evenodd" fill-opacity="1" stroke="#000000" stroke-opacity="1" stroke-width="3.2"/>
<circle clip-path="url(#clip472)" cx="1103.91" cy="111.983" r="14" fill="#e26f46" fill-rule="evenodd" fill-opacity="1" stroke="#000000" stroke-opacity="1" stroke-width="3.2"/>
<circle clip-path="url(#clip472)" cx="1674.2" cy="1280.23" r="14" fill="#e26f46" fill-rule="evenodd" fill-opacity="1" stroke="#000000" stroke-opacity="1" stroke-width="3.2"/>
<circle clip-path="url(#clip472)" cx="1164.78" cy="140.995" r="14" fill="#e26f46" fill-rule="evenodd" fill-opacity="1" stroke="#000000" stroke-opacity="1" stroke-width="3.2"/>
<circle clip-path="url(#clip472)" cx="1691.92" cy="1365.09" r="14" fill="#e26f46" fill-rule="evenodd" fill-opacity="1" stroke="#000000" stroke-opacity="1" stroke-width="3.2"/>
<circle clip-path="url(#clip472)" cx="1580.82" cy="675.871" r="14" fill="#e26f46" fill-rule="evenodd" fill-opacity="1" stroke="#000000" stroke-opacity="1" stroke-width="3.2"/>
<circle clip-path="url(#clip472)" cx="389.792" cy="896.91" r="14" fill="#e26f46" fill-rule="evenodd" fill-opacity="1" stroke="#000000" stroke-opacity="1" stroke-width="3.2"/>
<circle clip-path="url(#clip472)" cx="1938.15" cy="1089.05" r="14" fill="#e26f46" fill-rule="evenodd" fill-opacity="1" stroke="#000000" stroke-opacity="1" stroke-width="3.2"/>
<circle clip-path="url(#clip472)" cx="1510.98" cy="393.773" r="14" fill="#e26f46" fill-rule="evenodd" fill-opacity="1" stroke="#000000" stroke-opacity="1" stroke-width="3.2"/>
<circle clip-path="url(#clip472)" cx="2198.44" cy="992.095" r="14" fill="#e26f46" fill-rule="evenodd" fill-opacity="1" stroke="#000000" stroke-opacity="1" stroke-width="3.2"/>
<circle clip-path="url(#clip472)" cx="395.106" cy="974.723" r="14" fill="#e26f46" fill-rule="evenodd" fill-opacity="1" stroke="#000000" stroke-opacity="1" stroke-width="3.2"/>
<circle clip-path="url(#clip472)" cx="841.028" cy="1399.26" r="14" fill="#e26f46" fill-rule="evenodd" fill-opacity="1" stroke="#000000" stroke-opacity="1" stroke-width="3.2"/>
<circle clip-path="url(#clip472)" cx="1888.98" cy="922.844" r="14" fill="#e26f46" fill-rule="evenodd" fill-opacity="1" stroke="#000000" stroke-opacity="1" stroke-width="3.2"/>
<circle clip-path="url(#clip472)" cx="2084.02" cy="925.675" r="14" fill="#e26f46" fill-rule="evenodd" fill-opacity="1" stroke="#000000" stroke-opacity="1" stroke-width="3.2"/>
<circle clip-path="url(#clip472)" cx="1050.19" cy="337.837" r="14" fill="#e26f46" fill-rule="evenodd" fill-opacity="1" stroke="#000000" stroke-opacity="1" stroke-width="3.2"/>
<circle clip-path="url(#clip472)" cx="2197.38" cy="980.442" r="14" fill="#e26f46" fill-rule="evenodd" fill-opacity="1" stroke="#000000" stroke-opacity="1" stroke-width="3.2"/>
<circle clip-path="url(#clip472)" cx="1381.44" cy="131.943" r="14" fill="#e26f46" fill-rule="evenodd" fill-opacity="1" stroke="#000000" stroke-opacity="1" stroke-width="3.2"/>
<circle clip-path="url(#clip472)" cx="1891.58" cy="949.263" r="14" fill="#e26f46" fill-rule="evenodd" fill-opacity="1" stroke="#000000" stroke-opacity="1" stroke-width="3.2"/>
<circle clip-path="url(#clip472)" cx="1088.96" cy="191.677" r="14" fill="#e26f46" fill-rule="evenodd" fill-opacity="1" stroke="#000000" stroke-opacity="1" stroke-width="3.2"/>
<circle clip-path="url(#clip472)" cx="1011" cy="468.959" r="14" fill="#e26f46" fill-rule="evenodd" fill-opacity="1" stroke="#000000" stroke-opacity="1" stroke-width="3.2"/>
<circle clip-path="url(#clip472)" cx="950.681" cy="817.491" r="14" fill="#e26f46" fill-rule="evenodd" fill-opacity="1" stroke="#000000" stroke-opacity="1" stroke-width="3.2"/>
<circle clip-path="url(#clip472)" cx="435.052" cy="978.078" r="14" fill="#e26f46" fill-rule="evenodd" fill-opacity="1" stroke="#000000" stroke-opacity="1" stroke-width="3.2"/>
<circle clip-path="url(#clip472)" cx="810.314" cy="1388.68" r="14" fill="#e26f46" fill-rule="evenodd" fill-opacity="1" stroke="#000000" stroke-opacity="1" stroke-width="3.2"/>
<circle clip-path="url(#clip472)" cx="2000.69" cy="967.889" r="14" fill="#e26f46" fill-rule="evenodd" fill-opacity="1" stroke="#000000" stroke-opacity="1" stroke-width="3.2"/>
<circle clip-path="url(#clip472)" cx="736.61" cy="842.074" r="14" fill="#e26f46" fill-rule="evenodd" fill-opacity="1" stroke="#000000" stroke-opacity="1" stroke-width="3.2"/>
<circle clip-path="url(#clip472)" cx="1513.36" cy="356.172" r="14" fill="#e26f46" fill-rule="evenodd" fill-opacity="1" stroke="#000000" stroke-opacity="1" stroke-width="3.2"/>
<circle clip-path="url(#clip472)" cx="512.473" cy="907.99" r="14" fill="#e26f46" fill-rule="evenodd" fill-opacity="1" stroke="#000000" stroke-opacity="1" stroke-width="3.2"/>
<circle clip-path="url(#clip472)" cx="2272.68" cy="909.123" r="14" fill="#e26f46" fill-rule="evenodd" fill-opacity="1" stroke="#000000" stroke-opacity="1" stroke-width="3.2"/>
<circle clip-path="url(#clip472)" cx="2118.75" cy="1003.8" r="14" fill="#e26f46" fill-rule="evenodd" fill-opacity="1" stroke="#000000" stroke-opacity="1" stroke-width="3.2"/>
<circle clip-path="url(#clip472)" cx="2285.5" cy="919.252" r="14" fill="#e26f46" fill-rule="evenodd" fill-opacity="1" stroke="#000000" stroke-opacity="1" stroke-width="3.2"/>
<circle clip-path="url(#clip472)" cx="1353.41" cy="208.195" r="14" fill="#e26f46" fill-rule="evenodd" fill-opacity="1" stroke="#000000" stroke-opacity="1" stroke-width="3.2"/>
<circle clip-path="url(#clip472)" cx="1352.11" cy="128.574" r="14" fill="#e26f46" fill-rule="evenodd" fill-opacity="1" stroke="#000000" stroke-opacity="1" stroke-width="3.2"/>
<circle clip-path="url(#clip472)" cx="1981.1" cy="770.286" r="14" fill="#e26f46" fill-rule="evenodd" fill-opacity="1" stroke="#000000" stroke-opacity="1" stroke-width="3.2"/>
<circle clip-path="url(#clip472)" cx="438.511" cy="971.506" r="14" fill="#e26f46" fill-rule="evenodd" fill-opacity="1" stroke="#000000" stroke-opacity="1" stroke-width="3.2"/>
<circle clip-path="url(#clip472)" cx="1461.21" cy="171.865" r="14" fill="#e26f46" fill-rule="evenodd" fill-opacity="1" stroke="#000000" stroke-opacity="1" stroke-width="3.2"/>
<circle clip-path="url(#clip472)" cx="1993.75" cy="915.91" r="14" fill="#e26f46" fill-rule="evenodd" fill-opacity="1" stroke="#000000" stroke-opacity="1" stroke-width="3.2"/>
<circle clip-path="url(#clip472)" cx="963.912" cy="739.006" r="14" fill="#e26f46" fill-rule="evenodd" fill-opacity="1" stroke="#000000" stroke-opacity="1" stroke-width="3.2"/>
<circle clip-path="url(#clip472)" cx="1855.71" cy="631.864" r="14" fill="#e26f46" fill-rule="evenodd" fill-opacity="1" stroke="#000000" stroke-opacity="1" stroke-width="3.2"/>
<circle clip-path="url(#clip472)" cx="2128.23" cy="938.939" r="14" fill="#e26f46" fill-rule="evenodd" fill-opacity="1" stroke="#000000" stroke-opacity="1" stroke-width="3.2"/>
<circle clip-path="url(#clip472)" cx="1272.55" cy="921.113" r="14" fill="#e26f46" fill-rule="evenodd" fill-opacity="1" stroke="#000000" stroke-opacity="1" stroke-width="3.2"/>
<circle clip-path="url(#clip472)" cx="1913.85" cy="1059.9" r="14" fill="#e26f46" fill-rule="evenodd" fill-opacity="1" stroke="#000000" stroke-opacity="1" stroke-width="3.2"/>
<circle clip-path="url(#clip472)" cx="1199.15" cy="158.576" r="14" fill="#e26f46" fill-rule="evenodd" fill-opacity="1" stroke="#000000" stroke-opacity="1" stroke-width="3.2"/>
<circle clip-path="url(#clip472)" cx="2074.92" cy="1031.36" r="14" fill="#e26f46" fill-rule="evenodd" fill-opacity="1" stroke="#000000" stroke-opacity="1" stroke-width="3.2"/>
<circle clip-path="url(#clip472)" cx="2006.89" cy="1036.16" r="14" fill="#e26f46" fill-rule="evenodd" fill-opacity="1" stroke="#000000" stroke-opacity="1" stroke-width="3.2"/>
<circle clip-path="url(#clip472)" cx="1264.68" cy="714.914" r="14" fill="#e26f46" fill-rule="evenodd" fill-opacity="1" stroke="#000000" stroke-opacity="1" stroke-width="3.2"/>
<circle clip-path="url(#clip472)" cx="1413.94" cy="125.487" r="14" fill="#e26f46" fill-rule="evenodd" fill-opacity="1" stroke="#000000" stroke-opacity="1" stroke-width="3.2"/>
<circle clip-path="url(#clip472)" cx="1692.64" cy="1359.64" r="14" fill="#e26f46" fill-rule="evenodd" fill-opacity="1" stroke="#000000" stroke-opacity="1" stroke-width="3.2"/>
<circle clip-path="url(#clip472)" cx="433.56" cy="1014.84" r="14" fill="#e26f46" fill-rule="evenodd" fill-opacity="1" stroke="#000000" stroke-opacity="1" stroke-width="3.2"/>
<circle clip-path="url(#clip472)" cx="1924.9" cy="1097.46" r="14" fill="#e26f46" fill-rule="evenodd" fill-opacity="1" stroke="#000000" stroke-opacity="1" stroke-width="3.2"/>
<circle clip-path="url(#clip472)" cx="401.176" cy="1020.21" r="14" fill="#e26f46" fill-rule="evenodd" fill-opacity="1" stroke="#000000" stroke-opacity="1" stroke-width="3.2"/>
<circle clip-path="url(#clip472)" cx="526.088" cy="1028.5" r="14" fill="#e26f46" fill-rule="evenodd" fill-opacity="1" stroke="#000000" stroke-opacity="1" stroke-width="3.2"/>
<circle clip-path="url(#clip472)" cx="1424.15" cy="105.174" r="14" fill="#e26f46" fill-rule="evenodd" fill-opacity="1" stroke="#000000" stroke-opacity="1" stroke-width="3.2"/>
<circle clip-path="url(#clip472)" cx="382.107" cy="908.819" r="14" fill="#e26f46" fill-rule="evenodd" fill-opacity="1" stroke="#000000" stroke-opacity="1" stroke-width="3.2"/>
<circle clip-path="url(#clip472)" cx="1241.95" cy="461.089" r="14" fill="#e26f46" fill-rule="evenodd" fill-opacity="1" stroke="#000000" stroke-opacity="1" stroke-width="3.2"/>
<circle clip-path="url(#clip472)" cx="451.902" cy="903.577" r="14" fill="#e26f46" fill-rule="evenodd" fill-opacity="1" stroke="#000000" stroke-opacity="1" stroke-width="3.2"/>
<circle clip-path="url(#clip472)" cx="728.274" cy="783.235" r="14" fill="#e26f46" fill-rule="evenodd" fill-opacity="1" stroke="#000000" stroke-opacity="1" stroke-width="3.2"/>
<circle clip-path="url(#clip472)" cx="1519.49" cy="377.498" r="14" fill="#e26f46" fill-rule="evenodd" fill-opacity="1" stroke="#000000" stroke-opacity="1" stroke-width="3.2"/>
<circle clip-path="url(#clip472)" cx="851.047" cy="1399.56" r="14" fill="#e26f46" fill-rule="evenodd" fill-opacity="1" stroke="#000000" stroke-opacity="1" stroke-width="3.2"/>
<circle clip-path="url(#clip472)" cx="1747.48" cy="1365" r="14" fill="#e26f46" fill-rule="evenodd" fill-opacity="1" stroke="#000000" stroke-opacity="1" stroke-width="3.2"/>
<circle clip-path="url(#clip472)" cx="713.542" cy="753.592" r="14" fill="#e26f46" fill-rule="evenodd" fill-opacity="1" stroke="#000000" stroke-opacity="1" stroke-width="3.2"/>
<circle clip-path="url(#clip472)" cx="1061.73" cy="240.293" r="14" fill="#e26f46" fill-rule="evenodd" fill-opacity="1" stroke="#000000" stroke-opacity="1" stroke-width="3.2"/>
<circle clip-path="url(#clip472)" cx="751.997" cy="1047.28" r="14" fill="#e26f46" fill-rule="evenodd" fill-opacity="1" stroke="#000000" stroke-opacity="1" stroke-width="3.2"/>
<circle clip-path="url(#clip472)" cx="933.793" cy="951.84" r="14" fill="#e26f46" fill-rule="evenodd" fill-opacity="1" stroke="#000000" stroke-opacity="1" stroke-width="3.2"/>
<circle clip-path="url(#clip472)" cx="1913" cy="1064.85" r="14" fill="#e26f46" fill-rule="evenodd" fill-opacity="1" stroke="#000000" stroke-opacity="1" stroke-width="3.2"/>
<circle clip-path="url(#clip472)" cx="443.444" cy="878.4" r="14" fill="#e26f46" fill-rule="evenodd" fill-opacity="1" stroke="#000000" stroke-opacity="1" stroke-width="3.2"/>
<circle clip-path="url(#clip472)" cx="1979.97" cy="785.175" r="14" fill="#e26f46" fill-rule="evenodd" fill-opacity="1" stroke="#000000" stroke-opacity="1" stroke-width="3.2"/>
<circle clip-path="url(#clip472)" cx="1788.01" cy="1060.83" r="14" fill="#e26f46" fill-rule="evenodd" fill-opacity="1" stroke="#000000" stroke-opacity="1" stroke-width="3.2"/>
<circle clip-path="url(#clip472)" cx="1439.9" cy="140.498" r="14" fill="#e26f46" fill-rule="evenodd" fill-opacity="1" stroke="#000000" stroke-opacity="1" stroke-width="3.2"/>
<circle clip-path="url(#clip472)" cx="1537.93" cy="517.724" r="14" fill="#e26f46" fill-rule="evenodd" fill-opacity="1" stroke="#000000" stroke-opacity="1" stroke-width="3.2"/>
<circle clip-path="url(#clip472)" cx="2202.5" cy="960.314" r="14" fill="#e26f46" fill-rule="evenodd" fill-opacity="1" stroke="#000000" stroke-opacity="1" stroke-width="3.2"/>
<circle clip-path="url(#clip472)" cx="716" cy="701.993" r="14" fill="#e26f46" fill-rule="evenodd" fill-opacity="1" stroke="#000000" stroke-opacity="1" stroke-width="3.2"/>
<circle clip-path="url(#clip472)" cx="2241.67" cy="938.609" r="14" fill="#e26f46" fill-rule="evenodd" fill-opacity="1" stroke="#000000" stroke-opacity="1" stroke-width="3.2"/>
<circle clip-path="url(#clip472)" cx="614.853" cy="1101.86" r="14" fill="#e26f46" fill-rule="evenodd" fill-opacity="1" stroke="#000000" stroke-opacity="1" stroke-width="3.2"/>
<circle clip-path="url(#clip472)" cx="802.25" cy="1397.55" r="14" fill="#e26f46" fill-rule="evenodd" fill-opacity="1" stroke="#000000" stroke-opacity="1" stroke-width="3.2"/>
<circle clip-path="url(#clip472)" cx="2114.42" cy="994.257" r="14" fill="#e26f46" fill-rule="evenodd" fill-opacity="1" stroke="#000000" stroke-opacity="1" stroke-width="3.2"/>
<circle clip-path="url(#clip472)" cx="914.992" cy="1062.16" r="14" fill="#e26f46" fill-rule="evenodd" fill-opacity="1" stroke="#000000" stroke-opacity="1" stroke-width="3.2"/>
<circle clip-path="url(#clip472)" cx="482.477" cy="949.796" r="14" fill="#e26f46" fill-rule="evenodd" fill-opacity="1" stroke="#000000" stroke-opacity="1" stroke-width="3.2"/>
<circle clip-path="url(#clip472)" cx="626.729" cy="1128.8" r="14" fill="#e26f46" fill-rule="evenodd" fill-opacity="1" stroke="#000000" stroke-opacity="1" stroke-width="3.2"/>
<circle clip-path="url(#clip472)" cx="1133.84" cy="111.773" r="14" fill="#e26f46" fill-rule="evenodd" fill-opacity="1" stroke="#000000" stroke-opacity="1" stroke-width="3.2"/>
<circle clip-path="url(#clip472)" cx="312.01" cy="928.62" r="14" fill="#e26f46" fill-rule="evenodd" fill-opacity="1" stroke="#000000" stroke-opacity="1" stroke-width="3.2"/>
<circle clip-path="url(#clip472)" cx="847.81" cy="1383.52" r="14" fill="#e26f46" fill-rule="evenodd" fill-opacity="1" stroke="#000000" stroke-opacity="1" stroke-width="3.2"/>
<circle clip-path="url(#clip472)" cx="995.51" cy="564.502" r="14" fill="#e26f46" fill-rule="evenodd" fill-opacity="1" stroke="#000000" stroke-opacity="1" stroke-width="3.2"/>
<circle clip-path="url(#clip472)" cx="1649.33" cy="1211.15" r="14" fill="#e26f46" fill-rule="evenodd" fill-opacity="1" stroke="#000000" stroke-opacity="1" stroke-width="3.2"/>
<circle clip-path="url(#clip472)" cx="1204.89" cy="173.744" r="14" fill="#e26f46" fill-rule="evenodd" fill-opacity="1" stroke="#000000" stroke-opacity="1" stroke-width="3.2"/>
<circle clip-path="url(#clip472)" cx="2112.85" cy="980.478" r="14" fill="#e26f46" fill-rule="evenodd" fill-opacity="1" stroke="#000000" stroke-opacity="1" stroke-width="3.2"/>
<circle clip-path="url(#clip472)" cx="920.734" cy="997.242" r="14" fill="#e26f46" fill-rule="evenodd" fill-opacity="1" stroke="#000000" stroke-opacity="1" stroke-width="3.2"/>
<circle clip-path="url(#clip472)" cx="298.355" cy="897.923" r="14" fill="#e26f46" fill-rule="evenodd" fill-opacity="1" stroke="#000000" stroke-opacity="1" stroke-width="3.2"/>
<circle clip-path="url(#clip472)" cx="1527.72" cy="439.439" r="14" fill="#e26f46" fill-rule="evenodd" fill-opacity="1" stroke="#000000" stroke-opacity="1" stroke-width="3.2"/>
<circle clip-path="url(#clip472)" cx="543.566" cy="981.726" r="14" fill="#e26f46" fill-rule="evenodd" fill-opacity="1" stroke="#000000" stroke-opacity="1" stroke-width="3.2"/>
<circle clip-path="url(#clip472)" cx="2132.94" cy="864.121" r="14" fill="#e26f46" fill-rule="evenodd" fill-opacity="1" stroke="#000000" stroke-opacity="1" stroke-width="3.2"/>
<circle clip-path="url(#clip472)" cx="1124.87" cy="109.914" r="14" fill="#e26f46" fill-rule="evenodd" fill-opacity="1" stroke="#000000" stroke-opacity="1" stroke-width="3.2"/>
<circle clip-path="url(#clip472)" cx="2176.02" cy="962.856" r="14" fill="#e26f46" fill-rule="evenodd" fill-opacity="1" stroke="#000000" stroke-opacity="1" stroke-width="3.2"/>
<path clip-path="url(#clip470)" d="
M1478.38 386.818 L2280.75 386.818 L2280.75 95.2176 L1478.38 95.2176  Z
  " fill="#ffffff" fill-rule="evenodd" fill-opacity="1"/>
<polyline clip-path="url(#clip470)" style="stroke:#000000; stroke-linecap:butt; stroke-linejoin:round; stroke-width:4; stroke-opacity:1; fill:none" points="
  1478.38,386.818 2280.75,386.818 2280.75,95.2176 1478.38,95.2176 1478.38,386.818 
  "/>
<polyline clip-path="url(#clip470)" style="stroke:#009af9; stroke-linecap:butt; stroke-linejoin:round; stroke-width:7.5; stroke-opacity:1; fill:none" points="
  1502.38,192.418 1646.39,192.418 
  "/>
<path clip-path="url(#clip470)" d="M1705.85 199.948 Q1705.85 191.267 1702.24 186.493 Q1698.68 181.719 1692.22 181.719 Q1685.79 181.719 1682.19 186.493 Q1678.63 191.267 1678.63 199.948 Q1678.63 208.585 1682.19 213.359 Q1685.79 218.134 1692.22 218.134 Q1698.68 218.134 1702.24 213.359 Q1705.85 208.585 1705.85 199.948 M1713.83 218.785 Q1713.83 231.198 1708.32 237.231 Q1702.81 243.307 1691.44 243.307 Q1687.23 243.307 1683.49 242.656 Q1679.76 242.048 1676.25 240.746 L1676.25 232.977 Q1679.76 234.887 1683.19 235.798 Q1686.62 236.71 1690.18 236.71 Q1698.03 236.71 1701.94 232.587 Q1705.85 228.507 1705.85 220.217 L1705.85 216.267 Q1703.37 220.564 1699.51 222.691 Q1695.65 224.818 1690.26 224.818 Q1681.32 224.818 1675.86 218.003 Q1670.39 211.189 1670.39 199.948 Q1670.39 188.663 1675.86 181.849 Q1681.32 175.035 1690.26 175.035 Q1695.65 175.035 1699.51 177.162 Q1703.37 179.288 1705.85 183.585 L1705.85 176.207 L1713.83 176.207 L1713.83 218.785 Z" fill="#000000" fill-rule="evenodd" fill-opacity="1" /><path clip-path="url(#clip470)" d="M1758.45 183.672 Q1757.1 182.891 1755.5 182.543 Q1753.94 182.153 1752.03 182.153 Q1745.26 182.153 1741.61 186.58 Q1738.01 190.964 1738.01 199.21 L1738.01 224.818 L1729.98 224.818 L1729.98 176.207 L1738.01 176.207 L1738.01 183.759 Q1740.53 179.332 1744.56 177.205 Q1748.6 175.035 1754.37 175.035 Q1755.2 175.035 1756.19 175.165 Q1757.19 175.252 1758.41 175.469 L1758.45 183.672 Z" fill="#000000" fill-rule="evenodd" fill-opacity="1" /><path clip-path="url(#clip470)" d="M1783.71 181.806 Q1777.29 181.806 1773.55 186.84 Q1769.82 191.832 1769.82 200.556 Q1769.82 209.279 1773.51 214.314 Q1777.24 219.305 1783.71 219.305 Q1790.09 219.305 1793.82 214.271 Q1797.56 209.236 1797.56 200.556 Q1797.56 191.918 1793.82 186.884 Q1790.09 181.806 1783.71 181.806 M1783.71 175.035 Q1794.13 175.035 1800.07 181.806 Q1806.02 188.576 1806.02 200.556 Q1806.02 212.491 1800.07 219.305 Q1794.13 226.076 1783.71 226.076 Q1773.25 226.076 1767.3 219.305 Q1761.4 212.491 1761.4 200.556 Q1761.4 188.576 1767.3 181.806 Q1773.25 175.035 1783.71 175.035 Z" fill="#000000" fill-rule="evenodd" fill-opacity="1" /><path clip-path="url(#clip470)" d="M1818.43 205.634 L1818.43 176.207 L1826.42 176.207 L1826.42 205.33 Q1826.42 212.231 1829.11 215.703 Q1831.8 219.132 1837.18 219.132 Q1843.65 219.132 1847.38 215.009 Q1851.16 210.885 1851.16 203.767 L1851.16 176.207 L1859.14 176.207 L1859.14 224.818 L1851.16 224.818 L1851.16 217.352 Q1848.25 221.779 1844.39 223.95 Q1840.57 226.076 1835.49 226.076 Q1827.11 226.076 1822.77 220.868 Q1818.43 215.66 1818.43 205.634 M1838.53 175.035 L1838.53 175.035 Z" fill="#000000" fill-rule="evenodd" fill-opacity="1" /><path clip-path="url(#clip470)" d="M1916 195.477 L1916 224.818 L1908.02 224.818 L1908.02 195.738 Q1908.02 188.837 1905.32 185.408 Q1902.63 181.979 1897.25 181.979 Q1890.78 181.979 1887.05 186.102 Q1883.32 190.226 1883.32 197.344 L1883.32 224.818 L1875.29 224.818 L1875.29 176.207 L1883.32 176.207 L1883.32 183.759 Q1886.18 179.375 1890.05 177.205 Q1893.95 175.035 1899.03 175.035 Q1907.41 175.035 1911.7 180.243 Q1916 185.408 1916 195.477 Z" fill="#000000" fill-rule="evenodd" fill-opacity="1" /><path clip-path="url(#clip470)" d="M1963.92 183.585 L1963.92 157.283 L1971.9 157.283 L1971.9 224.818 L1963.92 224.818 L1963.92 217.526 Q1961.4 221.866 1957.54 223.993 Q1953.72 226.076 1948.34 226.076 Q1939.53 226.076 1933.97 219.045 Q1928.46 212.014 1928.46 200.556 Q1928.46 189.097 1933.97 182.066 Q1939.53 175.035 1948.34 175.035 Q1953.72 175.035 1957.54 177.162 Q1961.4 179.245 1963.92 183.585 M1936.7 200.556 Q1936.7 209.366 1940.31 214.401 Q1943.95 219.392 1950.29 219.392 Q1956.63 219.392 1960.27 214.401 Q1963.92 209.366 1963.92 200.556 Q1963.92 191.745 1960.27 186.754 Q1956.63 181.719 1950.29 181.719 Q1943.95 181.719 1940.31 186.754 Q1936.7 191.745 1936.7 200.556 Z" fill="#000000" fill-rule="evenodd" fill-opacity="1" /><path clip-path="url(#clip470)" d="M2024.51 162.405 L2024.51 176.207 L2040.96 176.207 L2040.96 182.413 L2024.51 182.413 L2024.51 208.802 Q2024.51 214.748 2026.11 216.441 Q2027.76 218.134 2032.75 218.134 L2040.96 218.134 L2040.96 224.818 L2032.75 224.818 Q2023.51 224.818 2019.99 221.389 Q2016.48 217.917 2016.48 208.802 L2016.48 182.413 L2010.62 182.413 L2010.62 176.207 L2016.48 176.207 L2016.48 162.405 L2024.51 162.405 Z" fill="#000000" fill-rule="evenodd" fill-opacity="1" /><path clip-path="url(#clip470)" d="M2079.63 183.672 Q2078.28 182.891 2076.68 182.543 Q2075.12 182.153 2073.21 182.153 Q2066.43 182.153 2062.79 186.58 Q2059.19 190.964 2059.19 199.21 L2059.19 224.818 L2051.16 224.818 L2051.16 176.207 L2059.19 176.207 L2059.19 183.759 Q2061.7 179.332 2065.74 177.205 Q2069.78 175.035 2075.55 175.035 Q2076.37 175.035 2077.37 175.165 Q2078.37 175.252 2079.59 175.469 L2079.63 183.672 Z" fill="#000000" fill-rule="evenodd" fill-opacity="1" /><path clip-path="url(#clip470)" d="M2087.18 205.634 L2087.18 176.207 L2095.17 176.207 L2095.17 205.33 Q2095.17 212.231 2097.86 215.703 Q2100.55 219.132 2105.93 219.132 Q2112.4 219.132 2116.13 215.009 Q2119.91 210.885 2119.91 203.767 L2119.91 176.207 L2127.89 176.207 L2127.89 224.818 L2119.91 224.818 L2119.91 217.352 Q2117 221.779 2113.14 223.95 Q2109.32 226.076 2104.24 226.076 Q2095.86 226.076 2091.52 220.868 Q2087.18 215.66 2087.18 205.634 M2107.28 175.035 L2107.28 175.035 Z" fill="#000000" fill-rule="evenodd" fill-opacity="1" /><path clip-path="url(#clip470)" d="M2152.24 162.405 L2152.24 176.207 L2168.69 176.207 L2168.69 182.413 L2152.24 182.413 L2152.24 208.802 Q2152.24 214.748 2153.85 216.441 Q2155.5 218.134 2160.49 218.134 L2168.69 218.134 L2168.69 224.818 L2160.49 224.818 Q2151.24 224.818 2147.73 221.389 Q2144.21 217.917 2144.21 208.802 L2144.21 182.413 L2138.35 182.413 L2138.35 176.207 L2144.21 176.207 L2144.21 162.405 L2152.24 162.405 Z" fill="#000000" fill-rule="evenodd" fill-opacity="1" /><path clip-path="url(#clip470)" d="M2219.6 195.477 L2219.6 224.818 L2211.62 224.818 L2211.62 195.738 Q2211.62 188.837 2208.93 185.408 Q2206.23 181.979 2200.85 181.979 Q2194.39 181.979 2190.65 186.102 Q2186.92 190.226 2186.92 197.344 L2186.92 224.818 L2178.89 224.818 L2178.89 157.283 L2186.92 157.283 L2186.92 183.759 Q2189.78 179.375 2193.65 177.205 Q2197.55 175.035 2202.63 175.035 Q2211.01 175.035 2215.31 180.243 Q2219.6 185.408 2219.6 195.477 Z" fill="#000000" fill-rule="evenodd" fill-opacity="1" /><circle clip-path="url(#clip470)" cx="1574.38" cy="289.618" r="43" fill="#e26f46" fill-rule="evenodd" fill-opacity="1" stroke="#000000" stroke-opacity="1" stroke-width="9.6"/>
<path clip-path="url(#clip470)" d="M1684.28 259.605 L1684.28 273.407 L1700.72 273.407 L1700.72 279.613 L1684.28 279.613 L1684.28 306.002 Q1684.28 311.948 1685.88 313.641 Q1687.53 315.334 1692.52 315.334 L1700.72 315.334 L1700.72 322.018 L1692.52 322.018 Q1683.28 322.018 1679.76 318.589 Q1676.25 315.117 1676.25 306.002 L1676.25 279.613 L1670.39 279.613 L1670.39 273.407 L1676.25 273.407 L1676.25 259.605 L1684.28 259.605 Z" fill="#000000" fill-rule="evenodd" fill-opacity="1" /><path clip-path="url(#clip470)" d="M1739.4 280.872 Q1738.05 280.091 1736.45 279.743 Q1734.88 279.353 1732.97 279.353 Q1726.2 279.353 1722.56 283.78 Q1718.95 288.164 1718.95 296.41 L1718.95 322.018 L1710.92 322.018 L1710.92 273.407 L1718.95 273.407 L1718.95 280.959 Q1721.47 276.532 1725.51 274.405 Q1729.54 272.235 1735.32 272.235 Q1736.14 272.235 1737.14 272.365 Q1738.14 272.452 1739.35 272.669 L1739.4 280.872 Z" fill="#000000" fill-rule="evenodd" fill-opacity="1" /><path clip-path="url(#clip470)" d="M1769.87 297.582 Q1760.19 297.582 1756.45 299.795 Q1752.72 302.009 1752.72 307.347 Q1752.72 311.601 1755.5 314.118 Q1758.32 316.592 1763.14 316.592 Q1769.78 316.592 1773.77 311.905 Q1777.81 307.174 1777.81 299.361 L1777.81 297.582 L1769.87 297.582 M1785.79 294.283 L1785.79 322.018 L1777.81 322.018 L1777.81 314.639 Q1775.07 319.066 1770.99 321.193 Q1766.91 323.276 1761.01 323.276 Q1753.55 323.276 1749.12 319.11 Q1744.74 314.9 1744.74 307.868 Q1744.74 299.665 1750.2 295.499 Q1755.72 291.332 1766.61 291.332 L1777.81 291.332 L1777.81 290.551 Q1777.81 285.039 1774.16 282.044 Q1770.56 279.006 1764.01 279.006 Q1759.84 279.006 1755.89 280.004 Q1751.94 281.002 1748.29 282.999 L1748.29 275.62 Q1752.68 273.928 1756.8 273.103 Q1760.92 272.235 1764.83 272.235 Q1775.38 272.235 1780.59 277.704 Q1785.79 283.172 1785.79 294.283 Z" fill="#000000" fill-rule="evenodd" fill-opacity="1" /><path clip-path="url(#clip470)" d="M1802.24 273.407 L1810.23 273.407 L1810.23 322.018 L1802.24 322.018 L1802.24 273.407 M1802.24 254.483 L1810.23 254.483 L1810.23 264.596 L1802.24 264.596 L1802.24 254.483 Z" fill="#000000" fill-rule="evenodd" fill-opacity="1" /><path clip-path="url(#clip470)" d="M1867.35 292.677 L1867.35 322.018 L1859.36 322.018 L1859.36 292.938 Q1859.36 286.037 1856.67 282.608 Q1853.98 279.179 1848.6 279.179 Q1842.13 279.179 1838.4 283.302 Q1834.67 287.426 1834.67 294.544 L1834.67 322.018 L1826.64 322.018 L1826.64 273.407 L1834.67 273.407 L1834.67 280.959 Q1837.53 276.575 1841.39 274.405 Q1845.3 272.235 1850.38 272.235 Q1858.75 272.235 1863.05 277.443 Q1867.35 282.608 1867.35 292.677 Z" fill="#000000" fill-rule="evenodd" fill-opacity="1" /><path clip-path="url(#clip470)" d="M1883.28 273.407 L1891.26 273.407 L1891.26 322.018 L1883.28 322.018 L1883.28 273.407 M1883.28 254.483 L1891.26 254.483 L1891.26 264.596 L1883.28 264.596 L1883.28 254.483 Z" fill="#000000" fill-rule="evenodd" fill-opacity="1" /><path clip-path="url(#clip470)" d="M1948.38 292.677 L1948.38 322.018 L1940.39 322.018 L1940.39 292.938 Q1940.39 286.037 1937.7 282.608 Q1935.01 279.179 1929.63 279.179 Q1923.16 279.179 1919.43 283.302 Q1915.7 287.426 1915.7 294.544 L1915.7 322.018 L1907.67 322.018 L1907.67 273.407 L1915.7 273.407 L1915.7 280.959 Q1918.56 276.575 1922.43 274.405 Q1926.33 272.235 1931.41 272.235 Q1939.79 272.235 1944.08 277.443 Q1948.38 282.608 1948.38 292.677 Z" fill="#000000" fill-rule="evenodd" fill-opacity="1" /><path clip-path="url(#clip470)" d="M1996.3 297.148 Q1996.3 288.467 1992.69 283.693 Q1989.13 278.919 1982.67 278.919 Q1976.24 278.919 1972.64 283.693 Q1969.08 288.467 1969.08 297.148 Q1969.08 305.785 1972.64 310.559 Q1976.24 315.334 1982.67 315.334 Q1989.13 315.334 1992.69 310.559 Q1996.3 305.785 1996.3 297.148 M2004.28 315.985 Q2004.28 328.398 1998.77 334.431 Q1993.26 340.507 1981.89 340.507 Q1977.68 340.507 1973.94 339.856 Q1970.21 339.248 1966.7 337.946 L1966.7 330.177 Q1970.21 332.087 1973.64 332.998 Q1977.07 333.91 1980.63 333.91 Q1988.48 333.91 1992.39 329.787 Q1996.3 325.707 1996.3 317.417 L1996.3 313.467 Q1993.82 317.764 1989.96 319.891 Q1986.1 322.018 1980.71 322.018 Q1971.77 322.018 1966.31 315.203 Q1960.84 308.389 1960.84 297.148 Q1960.84 285.863 1966.31 279.049 Q1971.77 272.235 1980.71 272.235 Q1986.1 272.235 1989.96 274.362 Q1993.82 276.488 1996.3 280.785 L1996.3 273.407 L2004.28 273.407 L2004.28 315.985 Z" fill="#000000" fill-rule="evenodd" fill-opacity="1" /><path clip-path="url(#clip470)" d="M2080.97 280.785 L2080.97 254.483 L2088.96 254.483 L2088.96 322.018 L2080.97 322.018 L2080.97 314.726 Q2078.46 319.066 2074.59 321.193 Q2070.78 323.276 2065.39 323.276 Q2056.58 323.276 2051.03 316.245 Q2045.51 309.214 2045.51 297.756 Q2045.51 286.297 2051.03 279.266 Q2056.58 272.235 2065.39 272.235 Q2070.78 272.235 2074.59 274.362 Q2078.46 276.445 2080.97 280.785 M2053.76 297.756 Q2053.76 306.566 2057.36 311.601 Q2061.01 316.592 2067.35 316.592 Q2073.68 316.592 2077.33 311.601 Q2080.97 306.566 2080.97 297.756 Q2080.97 288.945 2077.33 283.954 Q2073.68 278.919 2067.35 278.919 Q2061.01 278.919 2057.36 283.954 Q2053.76 288.945 2053.76 297.756 Z" fill="#000000" fill-rule="evenodd" fill-opacity="1" /><path clip-path="url(#clip470)" d="M2127.5 297.582 Q2117.82 297.582 2114.09 299.795 Q2110.36 302.009 2110.36 307.347 Q2110.36 311.601 2113.14 314.118 Q2115.96 316.592 2120.77 316.592 Q2127.42 316.592 2131.41 311.905 Q2135.44 307.174 2135.44 299.361 L2135.44 297.582 L2127.5 297.582 M2143.43 294.283 L2143.43 322.018 L2135.44 322.018 L2135.44 314.639 Q2132.71 319.066 2128.63 321.193 Q2124.55 323.276 2118.65 323.276 Q2111.18 323.276 2106.76 319.11 Q2102.37 314.9 2102.37 307.868 Q2102.37 299.665 2107.84 295.499 Q2113.35 291.332 2124.25 291.332 L2135.44 291.332 L2135.44 290.551 Q2135.44 285.039 2131.8 282.044 Q2128.2 279.006 2121.64 279.006 Q2117.48 279.006 2113.53 280.004 Q2109.58 281.002 2105.93 282.999 L2105.93 275.62 Q2110.31 273.928 2114.44 273.103 Q2118.56 272.235 2122.47 272.235 Q2133.01 272.235 2138.22 277.704 Q2143.43 283.172 2143.43 294.283 Z" fill="#000000" fill-rule="evenodd" fill-opacity="1" /><path clip-path="url(#clip470)" d="M2167.78 259.605 L2167.78 273.407 L2184.23 273.407 L2184.23 279.613 L2167.78 279.613 L2167.78 306.002 Q2167.78 311.948 2169.39 313.641 Q2171.03 315.334 2176.03 315.334 L2184.23 315.334 L2184.23 322.018 L2176.03 322.018 Q2166.78 322.018 2163.27 318.589 Q2159.75 315.117 2159.75 306.002 L2159.75 279.613 L2153.89 279.613 L2153.89 273.407 L2159.75 273.407 L2159.75 259.605 L2167.78 259.605 Z" fill="#000000" fill-rule="evenodd" fill-opacity="1" /><path clip-path="url(#clip470)" d="M2216.82 297.582 Q2207.15 297.582 2203.41 299.795 Q2199.68 302.009 2199.68 307.347 Q2199.68 311.601 2202.46 314.118 Q2205.28 316.592 2210.1 316.592 Q2216.74 316.592 2220.73 311.905 Q2224.77 307.174 2224.77 299.361 L2224.77 297.582 L2216.82 297.582 M2232.75 294.283 L2232.75 322.018 L2224.77 322.018 L2224.77 314.639 Q2222.03 319.066 2217.95 321.193 Q2213.87 323.276 2207.97 323.276 Q2200.51 323.276 2196.08 319.11 Q2191.69 314.9 2191.69 307.868 Q2191.69 299.665 2197.16 295.499 Q2202.68 291.332 2213.57 291.332 L2224.77 291.332 L2224.77 290.551 Q2224.77 285.039 2221.12 282.044 Q2217.52 279.006 2210.97 279.006 Q2206.8 279.006 2202.85 280.004 Q2198.9 281.002 2195.25 282.999 L2195.25 275.62 Q2199.64 273.928 2203.76 273.103 Q2207.88 272.235 2211.79 272.235 Q2222.34 272.235 2227.55 277.704 Q2232.75 283.172 2232.75 294.283 Z" fill="#000000" fill-rule="evenodd" fill-opacity="1" /></svg>
