<?xml version="1.0" encoding="utf-8"?>
<svg xmlns="http://www.w3.org/2000/svg" xmlns:xlink="http://www.w3.org/1999/xlink" width="600" height="400" viewBox="0 0 2400 1600">
<defs>
  <clipPath id="clip560">
    <rect x="0" y="0" width="2400" height="1600"/>
  </clipPath>
</defs>
<path clip-path="url(#clip560)" d="
M0 1600 L2400 1600 L2400 0 L0 0  Z
  " fill="#ffffff" fill-rule="evenodd" fill-opacity="1"/>
<defs>
  <clipPath id="clip561">
    <rect x="480" y="0" width="1681" height="1600"/>
  </clipPath>
</defs>
<path clip-path="url(#clip560)" d="
M192.709 1486.45 L2352.76 1486.45 L2352.76 47.2441 L192.709 47.2441  Z
  " fill="#ffffff" fill-rule="evenodd" fill-opacity="1"/>
<defs>
  <clipPath id="clip562">
    <rect x="192" y="47" width="2161" height="1440"/>
  </clipPath>
</defs>
<polyline clip-path="url(#clip562)" style="stroke:#000000; stroke-linecap:butt; stroke-linejoin:round; stroke-width:2; stroke-opacity:0.1; fill:none" points="
  253.843,1486.45 253.843,47.2441 
  "/>
<polyline clip-path="url(#clip562)" style="stroke:#000000; stroke-linecap:butt; stroke-linejoin:round; stroke-width:2; stroke-opacity:0.1; fill:none" points="
  593.473,1486.45 593.473,47.2441 
  "/>
<polyline clip-path="url(#clip562)" style="stroke:#000000; stroke-linecap:butt; stroke-linejoin:round; stroke-width:2; stroke-opacity:0.1; fill:none" points="
  933.103,1486.45 933.103,47.2441 
  "/>
<polyline clip-path="url(#clip562)" style="stroke:#000000; stroke-linecap:butt; stroke-linejoin:round; stroke-width:2; stroke-opacity:0.1; fill:none" points="
  1272.73,1486.45 1272.73,47.2441 
  "/>
<polyline clip-path="url(#clip562)" style="stroke:#000000; stroke-linecap:butt; stroke-linejoin:round; stroke-width:2; stroke-opacity:0.1; fill:none" points="
  1612.36,1486.45 1612.36,47.2441 
  "/>
<polyline clip-path="url(#clip562)" style="stroke:#000000; stroke-linecap:butt; stroke-linejoin:round; stroke-width:2; stroke-opacity:0.1; fill:none" points="
  1951.99,1486.45 1951.99,47.2441 
  "/>
<polyline clip-path="url(#clip562)" style="stroke:#000000; stroke-linecap:butt; stroke-linejoin:round; stroke-width:2; stroke-opacity:0.1; fill:none" points="
  2291.62,1486.45 2291.62,47.2441 
  "/>
<polyline clip-path="url(#clip560)" style="stroke:#000000; stroke-linecap:butt; stroke-linejoin:round; stroke-width:4; stroke-opacity:1; fill:none" points="
  192.709,1486.45 2352.76,1486.45 
  "/>
<polyline clip-path="url(#clip560)" style="stroke:#000000; stroke-linecap:butt; stroke-linejoin:round; stroke-width:4; stroke-opacity:1; fill:none" points="
  253.843,1486.45 253.843,1467.55 
  "/>
<polyline clip-path="url(#clip560)" style="stroke:#000000; stroke-linecap:butt; stroke-linejoin:round; stroke-width:4; stroke-opacity:1; fill:none" points="
  593.473,1486.45 593.473,1467.55 
  "/>
<polyline clip-path="url(#clip560)" style="stroke:#000000; stroke-linecap:butt; stroke-linejoin:round; stroke-width:4; stroke-opacity:1; fill:none" points="
  933.103,1486.45 933.103,1467.55 
  "/>
<polyline clip-path="url(#clip560)" style="stroke:#000000; stroke-linecap:butt; stroke-linejoin:round; stroke-width:4; stroke-opacity:1; fill:none" points="
  1272.73,1486.45 1272.73,1467.55 
  "/>
<polyline clip-path="url(#clip560)" style="stroke:#000000; stroke-linecap:butt; stroke-linejoin:round; stroke-width:4; stroke-opacity:1; fill:none" points="
  1612.36,1486.45 1612.36,1467.55 
  "/>
<polyline clip-path="url(#clip560)" style="stroke:#000000; stroke-linecap:butt; stroke-linejoin:round; stroke-width:4; stroke-opacity:1; fill:none" points="
  1951.99,1486.45 1951.99,1467.55 
  "/>
<polyline clip-path="url(#clip560)" style="stroke:#000000; stroke-linecap:butt; stroke-linejoin:round; stroke-width:4; stroke-opacity:1; fill:none" points="
  2291.62,1486.45 2291.62,1467.55 
  "/>
<path clip-path="url(#clip560)" d="M223.31 1532.02 L252.986 1532.02 L252.986 1535.95 L223.31 1535.95 L223.31 1532.02 Z" fill="#000000" fill-rule="evenodd" fill-opacity="1" /><path clip-path="url(#clip560)" d="M277.245 1530.21 Q280.602 1530.93 282.477 1533.2 Q284.375 1535.47 284.375 1538.8 Q284.375 1543.92 280.856 1546.72 Q277.338 1549.52 270.856 1549.52 Q268.68 1549.52 266.366 1549.08 Q264.074 1548.66 261.62 1547.81 L261.62 1543.29 Q263.565 1544.43 265.88 1545.01 Q268.194 1545.58 270.717 1545.58 Q275.116 1545.58 277.407 1543.85 Q279.722 1542.11 279.722 1538.8 Q279.722 1535.75 277.569 1534.03 Q275.44 1532.3 271.62 1532.3 L267.592 1532.3 L267.592 1528.45 L271.805 1528.45 Q275.254 1528.45 277.083 1527.09 Q278.912 1525.7 278.912 1523.11 Q278.912 1520.45 277.014 1519.03 Q275.139 1517.6 271.62 1517.6 Q269.699 1517.6 267.5 1518.01 Q265.301 1518.43 262.662 1519.31 L262.662 1515.14 Q265.324 1514.4 267.639 1514.03 Q269.977 1513.66 272.037 1513.66 Q277.361 1513.66 280.463 1516.09 Q283.565 1518.5 283.565 1522.62 Q283.565 1525.49 281.921 1527.48 Q280.278 1529.45 277.245 1530.21 Z" fill="#000000" fill-rule="evenodd" fill-opacity="1" /><path clip-path="url(#clip560)" d="M563.415 1532.02 L593.091 1532.02 L593.091 1535.95 L563.415 1535.95 L563.415 1532.02 Z" fill="#000000" fill-rule="evenodd" fill-opacity="1" /><path clip-path="url(#clip560)" d="M607.211 1544.91 L623.53 1544.91 L623.53 1548.85 L601.586 1548.85 L601.586 1544.91 Q604.248 1542.16 608.831 1537.53 Q613.438 1532.88 614.618 1531.53 Q616.864 1529.01 617.743 1527.27 Q618.646 1525.51 618.646 1523.82 Q618.646 1521.07 616.702 1519.33 Q614.78 1517.6 611.678 1517.6 Q609.479 1517.6 607.026 1518.36 Q604.595 1519.13 601.817 1520.68 L601.817 1515.95 Q604.641 1514.82 607.095 1514.24 Q609.549 1513.66 611.586 1513.66 Q616.956 1513.66 620.151 1516.35 Q623.345 1519.03 623.345 1523.52 Q623.345 1525.65 622.535 1527.57 Q621.748 1529.47 619.641 1532.07 Q619.063 1532.74 615.961 1535.95 Q612.859 1539.15 607.211 1544.91 Z" fill="#000000" fill-rule="evenodd" fill-opacity="1" /><path clip-path="url(#clip560)" d="M902.86 1532.02 L932.535 1532.02 L932.535 1535.95 L902.86 1535.95 L902.86 1532.02 Z" fill="#000000" fill-rule="evenodd" fill-opacity="1" /><path clip-path="url(#clip560)" d="M943.438 1544.91 L951.077 1544.91 L951.077 1518.55 L942.767 1520.21 L942.767 1515.95 L951.031 1514.29 L955.707 1514.29 L955.707 1544.91 L963.345 1544.91 L963.345 1548.85 L943.438 1548.85 L943.438 1544.91 Z" fill="#000000" fill-rule="evenodd" fill-opacity="1" /><path clip-path="url(#clip560)" d="M1272.73 1517.37 Q1269.12 1517.37 1267.29 1520.93 Q1265.49 1524.47 1265.49 1531.6 Q1265.49 1538.71 1267.29 1542.27 Q1269.12 1545.82 1272.73 1545.82 Q1276.37 1545.82 1278.17 1542.27 Q1280 1538.71 1280 1531.6 Q1280 1524.47 1278.17 1520.93 Q1276.37 1517.37 1272.73 1517.37 M1272.73 1513.66 Q1278.54 1513.66 1281.6 1518.27 Q1284.68 1522.85 1284.68 1531.6 Q1284.68 1540.33 1281.6 1544.94 Q1278.54 1549.52 1272.73 1549.52 Q1266.92 1549.52 1263.84 1544.94 Q1260.79 1540.33 1260.79 1531.6 Q1260.79 1522.85 1263.84 1518.27 Q1266.92 1513.66 1272.73 1513.66 Z" fill="#000000" fill-rule="evenodd" fill-opacity="1" /><path clip-path="url(#clip560)" d="M1602.74 1544.91 L1610.38 1544.91 L1610.38 1518.55 L1602.07 1520.21 L1602.07 1515.95 L1610.34 1514.29 L1615.01 1514.29 L1615.01 1544.91 L1622.65 1544.91 L1622.65 1548.85 L1602.74 1548.85 L1602.74 1544.91 Z" fill="#000000" fill-rule="evenodd" fill-opacity="1" /><path clip-path="url(#clip560)" d="M1946.65 1544.91 L1962.96 1544.91 L1962.96 1548.85 L1941.02 1548.85 L1941.02 1544.91 Q1943.68 1542.16 1948.27 1537.53 Q1952.87 1532.88 1954.05 1531.53 Q1956.3 1529.01 1957.18 1527.27 Q1958.08 1525.51 1958.08 1523.82 Q1958.08 1521.07 1956.14 1519.33 Q1954.21 1517.6 1951.11 1517.6 Q1948.91 1517.6 1946.46 1518.36 Q1944.03 1519.13 1941.25 1520.68 L1941.25 1515.95 Q1944.08 1514.82 1946.53 1514.24 Q1948.98 1513.66 1951.02 1513.66 Q1956.39 1513.66 1959.59 1516.35 Q1962.78 1519.03 1962.78 1523.52 Q1962.78 1525.65 1961.97 1527.57 Q1961.18 1529.47 1959.08 1532.07 Q1958.5 1532.74 1955.4 1535.95 Q1952.29 1539.15 1946.65 1544.91 Z" fill="#000000" fill-rule="evenodd" fill-opacity="1" /><path clip-path="url(#clip560)" d="M2295.87 1530.21 Q2299.23 1530.93 2301.1 1533.2 Q2303 1535.47 2303 1538.8 Q2303 1543.92 2299.48 1546.72 Q2295.96 1549.52 2289.48 1549.52 Q2287.31 1549.52 2284.99 1549.08 Q2282.7 1548.66 2280.25 1547.81 L2280.25 1543.29 Q2282.19 1544.43 2284.5 1545.01 Q2286.82 1545.58 2289.34 1545.58 Q2293.74 1545.58 2296.03 1543.85 Q2298.35 1542.11 2298.35 1538.8 Q2298.35 1535.75 2296.19 1534.03 Q2294.06 1532.3 2290.25 1532.3 L2286.22 1532.3 L2286.22 1528.45 L2290.43 1528.45 Q2293.88 1528.45 2295.71 1527.09 Q2297.54 1525.7 2297.54 1523.11 Q2297.54 1520.45 2295.64 1519.03 Q2293.76 1517.6 2290.25 1517.6 Q2288.32 1517.6 2286.12 1518.01 Q2283.93 1518.43 2281.29 1519.31 L2281.29 1515.14 Q2283.95 1514.4 2286.26 1514.03 Q2288.6 1513.66 2290.66 1513.66 Q2295.99 1513.66 2299.09 1516.09 Q2302.19 1518.5 2302.19 1522.62 Q2302.19 1525.49 2300.55 1527.48 Q2298.9 1529.45 2295.87 1530.21 Z" fill="#000000" fill-rule="evenodd" fill-opacity="1" /><polyline clip-path="url(#clip562)" style="stroke:#000000; stroke-linecap:butt; stroke-linejoin:round; stroke-width:2; stroke-opacity:0.1; fill:none" points="
  192.709,1379.35 2352.76,1379.35 
  "/>
<polyline clip-path="url(#clip562)" style="stroke:#000000; stroke-linecap:butt; stroke-linejoin:round; stroke-width:2; stroke-opacity:0.1; fill:none" points="
  192.709,1160.79 2352.76,1160.79 
  "/>
<polyline clip-path="url(#clip562)" style="stroke:#000000; stroke-linecap:butt; stroke-linejoin:round; stroke-width:2; stroke-opacity:0.1; fill:none" points="
  192.709,942.238 2352.76,942.238 
  "/>
<polyline clip-path="url(#clip562)" style="stroke:#000000; stroke-linecap:butt; stroke-linejoin:round; stroke-width:2; stroke-opacity:0.1; fill:none" points="
  192.709,723.681 2352.76,723.681 
  "/>
<polyline clip-path="url(#clip562)" style="stroke:#000000; stroke-linecap:butt; stroke-linejoin:round; stroke-width:2; stroke-opacity:0.1; fill:none" points="
  192.709,505.125 2352.76,505.125 
  "/>
<polyline clip-path="url(#clip562)" style="stroke:#000000; stroke-linecap:butt; stroke-linejoin:round; stroke-width:2; stroke-opacity:0.1; fill:none" points="
  192.709,286.569 2352.76,286.569 
  "/>
<polyline clip-path="url(#clip562)" style="stroke:#000000; stroke-linecap:butt; stroke-linejoin:round; stroke-width:2; stroke-opacity:0.1; fill:none" points="
  192.709,68.0124 2352.76,68.0124 
  "/>
<polyline clip-path="url(#clip560)" style="stroke:#000000; stroke-linecap:butt; stroke-linejoin:round; stroke-width:4; stroke-opacity:1; fill:none" points="
  192.709,1486.45 192.709,47.2441 
  "/>
<polyline clip-path="url(#clip560)" style="stroke:#000000; stroke-linecap:butt; stroke-linejoin:round; stroke-width:4; stroke-opacity:1; fill:none" points="
  192.709,1379.35 211.607,1379.35 
  "/>
<polyline clip-path="url(#clip560)" style="stroke:#000000; stroke-linecap:butt; stroke-linejoin:round; stroke-width:4; stroke-opacity:1; fill:none" points="
  192.709,1160.79 211.607,1160.79 
  "/>
<polyline clip-path="url(#clip560)" style="stroke:#000000; stroke-linecap:butt; stroke-linejoin:round; stroke-width:4; stroke-opacity:1; fill:none" points="
  192.709,942.238 211.607,942.238 
  "/>
<polyline clip-path="url(#clip560)" style="stroke:#000000; stroke-linecap:butt; stroke-linejoin:round; stroke-width:4; stroke-opacity:1; fill:none" points="
  192.709,723.681 211.607,723.681 
  "/>
<polyline clip-path="url(#clip560)" style="stroke:#000000; stroke-linecap:butt; stroke-linejoin:round; stroke-width:4; stroke-opacity:1; fill:none" points="
  192.709,505.125 211.607,505.125 
  "/>
<polyline clip-path="url(#clip560)" style="stroke:#000000; stroke-linecap:butt; stroke-linejoin:round; stroke-width:4; stroke-opacity:1; fill:none" points="
  192.709,286.569 211.607,286.569 
  "/>
<polyline clip-path="url(#clip560)" style="stroke:#000000; stroke-linecap:butt; stroke-linejoin:round; stroke-width:4; stroke-opacity:1; fill:none" points="
  192.709,68.0124 211.607,68.0124 
  "/>
<path clip-path="url(#clip560)" d="M51.3625 1379.8 L81.0383 1379.8 L81.0383 1383.74 L51.3625 1383.74 L51.3625 1379.8 Z" fill="#000000" fill-rule="evenodd" fill-opacity="1" /><path clip-path="url(#clip560)" d="M101.131 1365.15 Q97.5197 1365.15 95.691 1368.71 Q93.8854 1372.26 93.8854 1379.39 Q93.8854 1386.49 95.691 1390.06 Q97.5197 1393.6 101.131 1393.6 Q104.765 1393.6 106.571 1390.06 Q108.399 1386.49 108.399 1379.39 Q108.399 1372.26 106.571 1368.71 Q104.765 1365.15 101.131 1365.15 M101.131 1361.45 Q106.941 1361.45 109.996 1366.05 Q113.075 1370.64 113.075 1379.39 Q113.075 1388.11 109.996 1392.72 Q106.941 1397.3 101.131 1397.3 Q95.3206 1397.3 92.2419 1392.72 Q89.1864 1388.11 89.1864 1379.39 Q89.1864 1370.64 92.2419 1366.05 Q95.3206 1361.45 101.131 1361.45 Z" fill="#000000" fill-rule="evenodd" fill-opacity="1" /><path clip-path="url(#clip560)" d="M121.293 1390.75 L126.177 1390.75 L126.177 1396.63 L121.293 1396.63 L121.293 1390.75 Z" fill="#000000" fill-rule="evenodd" fill-opacity="1" /><path clip-path="url(#clip560)" d="M140.39 1392.7 L156.709 1392.7 L156.709 1396.63 L134.765 1396.63 L134.765 1392.7 Q137.427 1389.94 142.01 1385.31 Q146.617 1380.66 147.797 1379.32 Q150.043 1376.79 150.922 1375.06 Q151.825 1373.3 151.825 1371.61 Q151.825 1368.85 149.88 1367.12 Q147.959 1365.38 144.857 1365.38 Q142.658 1365.38 140.205 1366.14 Q137.774 1366.91 134.996 1368.46 L134.996 1363.74 Q137.82 1362.6 140.274 1362.02 Q142.728 1361.45 144.765 1361.45 Q150.135 1361.45 153.33 1364.13 Q156.524 1366.82 156.524 1371.31 Q156.524 1373.44 155.714 1375.36 Q154.927 1377.26 152.82 1379.85 Q152.242 1380.52 149.14 1383.74 Q146.038 1386.93 140.39 1392.7 Z" fill="#000000" fill-rule="evenodd" fill-opacity="1" /><path clip-path="url(#clip560)" d="M50.9921 1161.25 L80.6679 1161.25 L80.6679 1165.18 L50.9921 1165.18 L50.9921 1161.25 Z" fill="#000000" fill-rule="evenodd" fill-opacity="1" /><path clip-path="url(#clip560)" d="M100.76 1146.59 Q97.1493 1146.59 95.3206 1150.16 Q93.515 1153.7 93.515 1160.83 Q93.515 1167.94 95.3206 1171.5 Q97.1493 1175.04 100.76 1175.04 Q104.395 1175.04 106.2 1171.5 Q108.029 1167.94 108.029 1160.83 Q108.029 1153.7 106.2 1150.16 Q104.395 1146.59 100.76 1146.59 M100.76 1142.89 Q106.571 1142.89 109.626 1147.5 Q112.705 1152.08 112.705 1160.83 Q112.705 1169.56 109.626 1174.16 Q106.571 1178.75 100.76 1178.75 Q94.9502 1178.75 91.8715 1174.16 Q88.816 1169.56 88.816 1160.83 Q88.816 1152.08 91.8715 1147.5 Q94.9502 1142.89 100.76 1142.89 Z" fill="#000000" fill-rule="evenodd" fill-opacity="1" /><path clip-path="url(#clip560)" d="M120.922 1172.19 L125.807 1172.19 L125.807 1178.07 L120.922 1178.07 L120.922 1172.19 Z" fill="#000000" fill-rule="evenodd" fill-opacity="1" /><path clip-path="url(#clip560)" d="M136.802 1174.14 L144.441 1174.14 L144.441 1147.77 L136.131 1149.44 L136.131 1145.18 L144.394 1143.51 L149.07 1143.51 L149.07 1174.14 L156.709 1174.14 L156.709 1178.07 L136.802 1178.07 L136.802 1174.14 Z" fill="#000000" fill-rule="evenodd" fill-opacity="1" /><path clip-path="url(#clip560)" d="M99.5335 928.036 Q95.9224 928.036 94.0937 931.601 Q92.2882 935.143 92.2882 942.272 Q92.2882 949.379 94.0937 952.944 Q95.9224 956.485 99.5335 956.485 Q103.168 956.485 104.973 952.944 Q106.802 949.379 106.802 942.272 Q106.802 935.143 104.973 931.601 Q103.168 928.036 99.5335 928.036 M99.5335 924.333 Q105.344 924.333 108.399 928.939 Q111.478 933.522 111.478 942.272 Q111.478 950.999 108.399 955.606 Q105.344 960.189 99.5335 960.189 Q93.7234 960.189 90.6447 955.606 Q87.5892 950.999 87.5892 942.272 Q87.5892 933.522 90.6447 928.939 Q93.7234 924.333 99.5335 924.333 Z" fill="#000000" fill-rule="evenodd" fill-opacity="1" /><path clip-path="url(#clip560)" d="M119.695 953.638 L124.58 953.638 L124.58 959.518 L119.695 959.518 L119.695 953.638 Z" fill="#000000" fill-rule="evenodd" fill-opacity="1" /><path clip-path="url(#clip560)" d="M144.765 928.036 Q141.154 928.036 139.325 931.601 Q137.519 935.143 137.519 942.272 Q137.519 949.379 139.325 952.944 Q141.154 956.485 144.765 956.485 Q148.399 956.485 150.205 952.944 Q152.033 949.379 152.033 942.272 Q152.033 935.143 150.205 931.601 Q148.399 928.036 144.765 928.036 M144.765 924.333 Q150.575 924.333 153.63 928.939 Q156.709 933.522 156.709 942.272 Q156.709 950.999 153.63 955.606 Q150.575 960.189 144.765 960.189 Q138.955 960.189 135.876 955.606 Q132.82 950.999 132.82 942.272 Q132.82 933.522 135.876 928.939 Q138.955 924.333 144.765 924.333 Z" fill="#000000" fill-rule="evenodd" fill-opacity="1" /><path clip-path="url(#clip560)" d="M100.76 709.48 Q97.1493 709.48 95.3206 713.045 Q93.515 716.586 93.515 723.716 Q93.515 730.823 95.3206 734.387 Q97.1493 737.929 100.76 737.929 Q104.395 737.929 106.2 734.387 Q108.029 730.823 108.029 723.716 Q108.029 716.586 106.2 713.045 Q104.395 709.48 100.76 709.48 M100.76 705.776 Q106.571 705.776 109.626 710.383 Q112.705 714.966 112.705 723.716 Q112.705 732.443 109.626 737.049 Q106.571 741.633 100.76 741.633 Q94.9502 741.633 91.8715 737.049 Q88.816 732.443 88.816 723.716 Q88.816 714.966 91.8715 710.383 Q94.9502 705.776 100.76 705.776 Z" fill="#000000" fill-rule="evenodd" fill-opacity="1" /><path clip-path="url(#clip560)" d="M120.922 735.082 L125.807 735.082 L125.807 740.961 L120.922 740.961 L120.922 735.082 Z" fill="#000000" fill-rule="evenodd" fill-opacity="1" /><path clip-path="url(#clip560)" d="M136.802 737.026 L144.441 737.026 L144.441 710.661 L136.131 712.327 L136.131 708.068 L144.394 706.401 L149.07 706.401 L149.07 737.026 L156.709 737.026 L156.709 740.961 L136.802 740.961 L136.802 737.026 Z" fill="#000000" fill-rule="evenodd" fill-opacity="1" /><path clip-path="url(#clip560)" d="M101.131 490.924 Q97.5197 490.924 95.691 494.488 Q93.8854 498.03 93.8854 505.16 Q93.8854 512.266 95.691 515.831 Q97.5197 519.373 101.131 519.373 Q104.765 519.373 106.571 515.831 Q108.399 512.266 108.399 505.16 Q108.399 498.03 106.571 494.488 Q104.765 490.924 101.131 490.924 M101.131 487.22 Q106.941 487.22 109.996 491.826 Q113.075 496.41 113.075 505.16 Q113.075 513.887 109.996 518.493 Q106.941 523.076 101.131 523.076 Q95.3206 523.076 92.2419 518.493 Q89.1864 513.887 89.1864 505.16 Q89.1864 496.41 92.2419 491.826 Q95.3206 487.22 101.131 487.22 Z" fill="#000000" fill-rule="evenodd" fill-opacity="1" /><path clip-path="url(#clip560)" d="M121.293 516.525 L126.177 516.525 L126.177 522.405 L121.293 522.405 L121.293 516.525 Z" fill="#000000" fill-rule="evenodd" fill-opacity="1" /><path clip-path="url(#clip560)" d="M140.39 518.47 L156.709 518.47 L156.709 522.405 L134.765 522.405 L134.765 518.47 Q137.427 515.715 142.01 511.086 Q146.617 506.433 147.797 505.09 Q150.043 502.567 150.922 500.831 Q151.825 499.072 151.825 497.382 Q151.825 494.627 149.88 492.891 Q147.959 491.155 144.857 491.155 Q142.658 491.155 140.205 491.919 Q137.774 492.683 134.996 494.234 L134.996 489.512 Q137.82 488.377 140.274 487.799 Q142.728 487.22 144.765 487.22 Q150.135 487.22 153.33 489.905 Q156.524 492.59 156.524 497.081 Q156.524 499.211 155.714 501.132 Q154.927 503.03 152.82 505.623 Q152.242 506.294 149.14 509.512 Q146.038 512.706 140.39 518.47 Z" fill="#000000" fill-rule="evenodd" fill-opacity="1" /><path clip-path="url(#clip560)" d="M100.182 272.367 Q96.5706 272.367 94.7419 275.932 Q92.9363 279.474 92.9363 286.603 Q92.9363 293.71 94.7419 297.275 Q96.5706 300.816 100.182 300.816 Q103.816 300.816 105.621 297.275 Q107.45 293.71 107.45 286.603 Q107.45 279.474 105.621 275.932 Q103.816 272.367 100.182 272.367 M100.182 268.664 Q105.992 268.664 109.047 273.27 Q112.126 277.853 112.126 286.603 Q112.126 295.33 109.047 299.937 Q105.992 304.52 100.182 304.52 Q94.3715 304.52 91.2928 299.937 Q88.2373 295.33 88.2373 286.603 Q88.2373 277.853 91.2928 273.27 Q94.3715 268.664 100.182 268.664 Z" fill="#000000" fill-rule="evenodd" fill-opacity="1" /><path clip-path="url(#clip560)" d="M120.344 297.969 L125.228 297.969 L125.228 303.849 L120.344 303.849 L120.344 297.969 Z" fill="#000000" fill-rule="evenodd" fill-opacity="1" /><path clip-path="url(#clip560)" d="M149.58 285.215 Q152.936 285.932 154.811 288.201 Q156.709 290.469 156.709 293.802 Q156.709 298.918 153.191 301.719 Q149.672 304.52 143.191 304.52 Q141.015 304.52 138.7 304.08 Q136.408 303.664 133.955 302.807 L133.955 298.293 Q135.899 299.427 138.214 300.006 Q140.529 300.585 143.052 300.585 Q147.45 300.585 149.742 298.849 Q152.056 297.113 152.056 293.802 Q152.056 290.747 149.904 289.034 Q147.774 287.298 143.955 287.298 L139.927 287.298 L139.927 283.455 L144.14 283.455 Q147.589 283.455 149.418 282.09 Q151.246 280.701 151.246 278.108 Q151.246 275.446 149.348 274.034 Q147.473 272.599 143.955 272.599 Q142.033 272.599 139.834 273.016 Q137.635 273.432 134.996 274.312 L134.996 270.145 Q137.658 269.404 139.973 269.034 Q142.311 268.664 144.371 268.664 Q149.695 268.664 152.797 271.094 Q155.899 273.502 155.899 277.622 Q155.899 280.492 154.255 282.483 Q152.612 284.451 149.58 285.215 Z" fill="#000000" fill-rule="evenodd" fill-opacity="1" /><path clip-path="url(#clip560)" d="M99.0474 53.8111 Q95.4363 53.8111 93.6076 57.3759 Q91.8021 60.9175 91.8021 68.0471 Q91.8021 75.1535 93.6076 78.7183 Q95.4363 82.26 99.0474 82.26 Q102.682 82.26 104.487 78.7183 Q106.316 75.1535 106.316 68.0471 Q106.316 60.9175 104.487 57.3759 Q102.682 53.8111 99.0474 53.8111 M99.0474 50.1074 Q104.858 50.1074 107.913 54.7138 Q110.992 59.2971 110.992 68.0471 Q110.992 76.7739 107.913 81.3804 Q104.858 85.9637 99.0474 85.9637 Q93.2373 85.9637 90.1586 81.3804 Q87.103 76.7739 87.103 68.0471 Q87.103 59.2971 90.1586 54.7138 Q93.2373 50.1074 99.0474 50.1074 Z" fill="#000000" fill-rule="evenodd" fill-opacity="1" /><path clip-path="url(#clip560)" d="M119.209 79.4128 L124.094 79.4128 L124.094 85.2924 L119.209 85.2924 L119.209 79.4128 Z" fill="#000000" fill-rule="evenodd" fill-opacity="1" /><path clip-path="url(#clip560)" d="M147.126 54.8064 L135.32 73.2554 L147.126 73.2554 L147.126 54.8064 M145.899 50.7324 L151.779 50.7324 L151.779 73.2554 L156.709 73.2554 L156.709 77.1443 L151.779 77.1443 L151.779 85.2924 L147.126 85.2924 L147.126 77.1443 L131.524 77.1443 L131.524 72.6304 L145.899 50.7324 Z" fill="#000000" fill-rule="evenodd" fill-opacity="1" /><polyline clip-path="url(#clip562)" style="stroke:#009af9; stroke-linecap:butt; stroke-linejoin:round; stroke-width:12; stroke-opacity:1; fill:none" points="
  253.843,942.238 257.239,916.396 260.635,951.186 264.031,966.927 267.428,928.18 270.824,918.055 274.22,957.89 277.617,967.923 281.013,928.559 284.409,913.215 
  287.806,949.573 291.202,974.551 294.598,946.405 297.994,910.556 301.391,922.581 304.787,964.335 308.183,975.737 311.58,941.241 314.976,906.988 318.372,916.712 
  321.769,958.08 325.165,981.961 328.561,961.45 331.957,919.404 335.354,900.118 338.75,922.715 342.146,964.803 345.543,987.037 348.939,969.871 352.335,928.585 
  355.732,897.494 359.128,900.985 362.524,935.857 365.92,976.218 369.317,993.782 372.713,977.166 376.109,937.664 379.506,900.085 382.902,886.669 386.298,904.6 
  389.695,943.499 393.091,982.586 396.487,1002.21 399.883,993.289 403.28,960.517 406.676,918.929 410.072,886.424 413.469,876.104 416.865,891.558 420.261,926.429 
  423.658,967.717 427.054,1000.98 430.45,1015.33 433.846,1006.61 437.243,977.979 440.639,938.282 444.035,898.947 447.432,870.595 450.828,860.335 454.224,870.314 
  457.621,897.693 461.017,935.807 464.413,976.032 467.809,1009.84 471.206,1030.53 474.602,1034.38 477.998,1021.08 481.395,993.388 484.791,956.405 488.187,916.436 
  491.584,879.871 494.98,852.179 498.376,837.182 501.772,836.677 505.169,850.388 508.565,876.209 511.961,910.661 515.358,949.448 518.754,988.048 522.15,1022.24 
  525.547,1048.55 528.943,1064.51 532.339,1068.83 535.735,1061.38 539.132,1043.12 542.528,1015.88 545.924,982.11 549.321,944.644 552.717,906.414 556.113,870.221 
  559.51,838.549 562.906,813.413 566.302,796.276 569.698,788 573.095,788.861 576.491,798.582 579.887,816.409 583.284,841.201 586.68,871.527 590.076,905.773 
  593.473,942.238 596.869,979.227 600.265,1015.13 603.661,1048.48 607.058,1078.02 610.454,1102.71 613.85,1121.76 617.247,1134.64 620.643,1141.06 624.039,1140.99 
  627.436,1134.59 630.832,1122.21 634.228,1104.36 637.624,1081.68 641.021,1054.91 644.417,1024.83 647.813,992.277 651.21,958.091 654.606,923.096 658.002,888.083 
  661.399,853.793 664.795,820.907 668.191,790.031 671.587,761.694 674.984,736.344 678.38,714.343 681.776,695.973 685.173,681.436 688.569,670.854 691.965,664.283 
  695.362,661.711 698.758,663.069 702.154,668.234 705.55,677.04 708.947,689.283 712.343,704.727 715.739,723.112 719.136,744.159 722.532,767.574 725.928,793.059 
  729.325,820.31 732.721,849.025 736.117,878.904 739.513,909.659 742.91,941.008 746.306,972.685 749.702,1004.44 753.099,1036.02 756.495,1067.22 759.891,1097.83 
  763.288,1127.67 766.684,1156.56 770.08,1184.35 773.476,1210.91 776.873,1236.13 780.269,1259.9 783.665,1282.14 787.062,1302.78 790.458,1321.76 793.854,1339.05 
  797.251,1354.6 800.647,1368.41 804.043,1380.47 807.439,1390.77 810.836,1399.34 814.232,1406.18 817.628,1411.32 821.025,1414.81 824.421,1416.66 827.817,1416.93 
  831.214,1415.67 834.61,1412.92 838.006,1408.74 841.402,1403.18 844.799,1396.3 848.195,1388.16 851.591,1378.83 854.988,1368.35 858.384,1356.79 861.78,1344.22 
  865.177,1330.69 868.573,1316.26 871.969,1301 875.365,1284.95 878.762,1268.19 882.158,1250.75 885.554,1232.71 888.951,1214.1 892.347,1194.98 895.743,1175.41 
  899.14,1155.43 902.536,1135.08 905.932,1114.41 909.328,1093.46 912.725,1072.27 916.121,1050.89 919.517,1029.34 922.914,1007.67 926.31,985.91 929.706,964.089 
  933.103,942.238 936.499,920.387 939.895,898.563 943.291,876.792 946.688,855.099 950.084,833.506 953.48,812.036 956.877,790.708 960.273,769.541 963.669,748.554 
  967.066,727.764 970.462,707.185 973.858,686.833 977.254,666.721 980.651,646.861 984.047,627.267 987.443,607.948 990.84,588.916 994.236,570.178 997.632,551.745 
  1001.03,533.624 1004.42,515.823 1007.82,498.348 1011.22,481.206 1014.61,464.404 1018.01,447.946 1021.41,431.838 1024.8,416.083 1028.2,400.688 1031.6,385.655 
  1034.99,370.988 1038.39,356.692 1041.78,342.769 1045.18,329.223 1048.58,316.056 1051.97,303.271 1055.37,290.872 1058.77,278.862 1062.16,267.242 1065.56,256.015 
  1068.95,245.186 1072.35,234.755 1075.75,224.728 1079.14,215.105 1082.54,205.891 1085.94,197.089 1089.33,188.703 1092.73,180.736 1096.12,173.193 1099.52,166.078 
  1102.92,159.396 1106.31,153.151 1109.71,147.35 1113.11,141.999 1116.5,137.103 1119.9,132.67 1123.3,128.708 1126.69,125.224 1130.09,122.228 1133.48,119.73 
  1136.88,117.739 1140.28,116.267 1143.67,115.326 1147.07,114.93 1150.47,115.093 1153.86,115.831 1157.26,117.161 1160.65,119.101 1164.05,121.671 1167.45,124.893 
  1170.84,128.79 1174.24,133.389 1177.64,138.717 1181.03,144.805 1184.43,151.685 1187.83,159.396 1191.22,167.975 1194.62,177.467 1198.01,187.92 1201.41,199.386 
  1204.81,211.924 1208.2,225.597 1211.6,240.477 1215,256.644 1218.39,274.185 1221.79,293.2 1225.18,313.802 1228.58,336.116 1231.98,360.288 1235.37,386.486 
  1238.77,414.902 1242.17,445.766 1245.56,479.351 1248.96,515.99 1252.35,556.098 1255.75,600.215 1259.15,649.075 1262.54,703.752 1265.94,766.023 1269.34,839.578 
  1272.73,942.238 1276.13,839.578 1279.53,766.023 1282.92,703.752 1286.32,649.075 1289.71,600.215 1293.11,556.098 1296.51,515.99 1299.9,479.351 1303.3,445.766 
  1306.7,414.902 1310.09,386.486 1313.49,360.288 1316.88,336.116 1320.28,313.802 1323.68,293.2 1327.07,274.185 1330.47,256.644 1333.87,240.477 1337.26,225.597 
  1340.66,211.924 1344.05,199.386 1347.45,187.92 1350.85,177.467 1354.24,167.975 1357.64,159.396 1361.04,151.685 1364.43,144.805 1367.83,138.717 1371.23,133.389 
  1374.62,128.79 1378.02,124.893 1381.41,121.671 1384.81,119.101 1388.21,117.161 1391.6,115.831 1395,115.093 1398.4,114.93 1401.79,115.326 1405.19,116.267 
  1408.58,117.739 1411.98,119.73 1415.38,122.228 1418.77,125.224 1422.17,128.708 1425.57,132.67 1428.96,137.103 1432.36,141.999 1435.75,147.35 1439.15,153.151 
  1442.55,159.396 1445.94,166.078 1449.34,173.193 1452.74,180.736 1456.13,188.703 1459.53,197.089 1462.93,205.891 1466.32,215.105 1469.72,224.728 1473.11,234.755 
  1476.51,245.186 1479.91,256.015 1483.3,267.242 1486.7,278.862 1490.1,290.872 1493.49,303.271 1496.89,316.056 1500.28,329.223 1503.68,342.769 1507.08,356.692 
  1510.47,370.988 1513.87,385.655 1517.27,400.688 1520.66,416.083 1524.06,431.838 1527.46,447.946 1530.85,464.404 1534.25,481.206 1537.64,498.348 1541.04,515.823 
  1544.44,533.624 1547.83,551.745 1551.23,570.178 1554.63,588.916 1558.02,607.948 1561.42,627.267 1564.81,646.861 1568.21,666.721 1571.61,686.833 1575,707.185 
  1578.4,727.764 1581.8,748.554 1585.19,769.541 1588.59,790.708 1591.98,812.036 1595.38,833.506 1598.78,855.099 1602.17,876.792 1605.57,898.563 1608.97,920.387 
  1612.36,942.238 1615.76,964.089 1619.16,985.91 1622.55,1007.67 1625.95,1029.34 1629.34,1050.89 1632.74,1072.27 1636.14,1093.46 1639.53,1114.41 1642.93,1135.08 
  1646.33,1155.43 1649.72,1175.41 1653.12,1194.98 1656.51,1214.1 1659.91,1232.71 1663.31,1250.75 1666.7,1268.19 1670.1,1284.95 1673.5,1301 1676.89,1316.26 
  1680.29,1330.69 1683.68,1344.22 1687.08,1356.79 1690.48,1368.35 1693.87,1378.83 1697.27,1388.16 1700.67,1396.3 1704.06,1403.18 1707.46,1408.74 1710.86,1412.92 
  1714.25,1415.67 1717.65,1416.93 1721.04,1416.66 1724.44,1414.81 1727.84,1411.32 1731.23,1406.18 1734.63,1399.34 1738.03,1390.77 1741.42,1380.47 1744.82,1368.41 
  1748.21,1354.6 1751.61,1339.05 1755.01,1321.76 1758.4,1302.78 1761.8,1282.14 1765.2,1259.9 1768.59,1236.13 1771.99,1210.91 1775.38,1184.35 1778.78,1156.56 
  1782.18,1127.67 1785.57,1097.83 1788.97,1067.22 1792.37,1036.02 1795.76,1004.44 1799.16,972.685 1802.56,941.008 1805.95,909.659 1809.35,878.904 1812.74,849.025 
  1816.14,820.31 1819.54,793.059 1822.93,767.574 1826.33,744.159 1829.73,723.112 1833.12,704.727 1836.52,689.283 1839.91,677.04 1843.31,668.234 1846.71,663.069 
  1850.1,661.711 1853.5,664.283 1856.9,670.854 1860.29,681.436 1863.69,695.973 1867.09,714.343 1870.48,736.344 1873.88,761.694 1877.27,790.031 1880.67,820.907 
  1884.07,853.793 1887.46,888.083 1890.86,923.096 1894.26,958.091 1897.65,992.277 1901.05,1024.83 1904.44,1054.91 1907.84,1081.68 1911.24,1104.36 1914.63,1122.21 
  1918.03,1134.59 1921.43,1140.99 1924.82,1141.06 1928.22,1134.64 1931.61,1121.76 1935.01,1102.71 1938.41,1078.02 1941.8,1048.48 1945.2,1015.13 1948.6,979.227 
  1951.99,942.238 1955.39,905.773 1958.79,871.527 1962.18,841.201 1965.58,816.409 1968.97,798.582 1972.37,788.861 1975.77,788 1979.16,796.276 1982.56,813.413 
  1985.96,838.549 1989.35,870.221 1992.75,906.414 1996.14,944.644 1999.54,982.11 2002.94,1015.88 2006.33,1043.12 2009.73,1061.38 2013.13,1068.83 2016.52,1064.51 
  2019.92,1048.55 2023.31,1022.24 2026.71,988.048 2030.11,949.448 2033.5,910.661 2036.9,876.209 2040.3,850.388 2043.69,836.677 2047.09,837.182 2050.49,852.179 
  2053.88,879.871 2057.28,916.436 2060.67,956.405 2064.07,993.388 2067.47,1021.08 2070.86,1034.38 2074.26,1030.53 2077.66,1009.84 2081.05,976.032 2084.45,935.807 
  2087.84,897.693 2091.24,870.314 2094.64,860.335 2098.03,870.595 2101.43,898.947 2104.83,938.282 2108.22,977.979 2111.62,1006.61 2115.01,1015.33 2118.41,1000.98 
  2121.81,967.717 2125.2,926.429 2128.6,891.558 2132,876.104 2135.39,886.424 2138.79,918.929 2142.19,960.517 2145.58,993.289 2148.98,1002.21 2152.37,982.586 
  2155.77,943.499 2159.17,904.6 2162.56,886.669 2165.96,900.085 2169.36,937.664 2172.75,977.166 2176.15,993.782 2179.54,976.218 2182.94,935.857 2186.34,900.985 
  2189.73,897.494 2193.13,928.585 2196.53,969.871 2199.92,987.037 2203.32,964.803 2206.72,922.715 2210.11,900.118 2213.51,919.404 2216.9,961.45 2220.3,981.961 
  2223.7,958.08 2227.09,916.712 2230.49,906.988 2233.89,941.241 2237.28,975.737 2240.68,964.335 2244.07,922.581 2247.47,910.556 2250.87,946.405 2254.26,974.551 
  2257.66,949.573 2261.06,913.215 2264.45,928.559 2267.85,967.923 2271.24,957.89 2274.64,918.055 2278.04,928.18 2281.43,966.927 2284.83,951.186 2288.23,916.396 
  2291.62,942.238 
  "/>
<circle clip-path="url(#clip562)" cx="859.902" cy="1376.83" r="14" fill="#e26f46" fill-rule="evenodd" fill-opacity="1" stroke="#000000" stroke-opacity="1" stroke-width="3.2"/>
<circle clip-path="url(#clip562)" cx="1576.33" cy="709.387" r="14" fill="#e26f46" fill-rule="evenodd" fill-opacity="1" stroke="#000000" stroke-opacity="1" stroke-width="3.2"/>
<circle clip-path="url(#clip562)" cx="1199.36" cy="206.893" r="14" fill="#e26f46" fill-rule="evenodd" fill-opacity="1" stroke="#000000" stroke-opacity="1" stroke-width="3.2"/>
<circle clip-path="url(#clip562)" cx="1783.2" cy="1105.08" r="14" fill="#e26f46" fill-rule="evenodd" fill-opacity="1" stroke="#000000" stroke-opacity="1" stroke-width="3.2"/>
<circle clip-path="url(#clip562)" cx="773.981" cy="1181.64" r="14" fill="#e26f46" fill-rule="evenodd" fill-opacity="1" stroke="#000000" stroke-opacity="1" stroke-width="3.2"/>
<circle clip-path="url(#clip562)" cx="610.351" cy="1090.08" r="14" fill="#e26f46" fill-rule="evenodd" fill-opacity="1" stroke="#000000" stroke-opacity="1" stroke-width="3.2"/>
<circle clip-path="url(#clip562)" cx="1667.23" cy="1278.4" r="14" fill="#e26f46" fill-rule="evenodd" fill-opacity="1" stroke="#000000" stroke-opacity="1" stroke-width="3.2"/>
<circle clip-path="url(#clip562)" cx="2170" cy="911.02" r="14" fill="#e26f46" fill-rule="evenodd" fill-opacity="1" stroke="#000000" stroke-opacity="1" stroke-width="3.2"/>
<circle clip-path="url(#clip562)" cx="1510.35" cy="356.99" r="14" fill="#e26f46" fill-rule="evenodd" fill-opacity="1" stroke="#000000" stroke-opacity="1" stroke-width="3.2"/>
<circle clip-path="url(#clip562)" cx="838.443" cy="1427.19" r="14" fill="#e26f46" fill-rule="evenodd" fill-opacity="1" stroke="#000000" stroke-opacity="1" stroke-width="3.2"/>
<circle clip-path="url(#clip562)" cx="316.503" cy="962.479" r="14" fill="#e26f46" fill-rule="evenodd" fill-opacity="1" stroke="#000000" stroke-opacity="1" stroke-width="3.2"/>
<circle clip-path="url(#clip562)" cx="881.448" cy="1311.04" r="14" fill="#e26f46" fill-rule="evenodd" fill-opacity="1" stroke="#000000" stroke-opacity="1" stroke-width="3.2"/>
<circle clip-path="url(#clip562)" cx="868.095" cy="1297.97" r="14" fill="#e26f46" fill-rule="evenodd" fill-opacity="1" stroke="#000000" stroke-opacity="1" stroke-width="3.2"/>
<circle clip-path="url(#clip562)" cx="1428.81" cy="158.22" r="14" fill="#e26f46" fill-rule="evenodd" fill-opacity="1" stroke="#000000" stroke-opacity="1" stroke-width="3.2"/>
<circle clip-path="url(#clip562)" cx="957.761" cy="787.013" r="14" fill="#e26f46" fill-rule="evenodd" fill-opacity="1" stroke="#000000" stroke-opacity="1" stroke-width="3.2"/>
<circle clip-path="url(#clip562)" cx="300.901" cy="889.333" r="14" fill="#e26f46" fill-rule="evenodd" fill-opacity="1" stroke="#000000" stroke-opacity="1" stroke-width="3.2"/>
<circle clip-path="url(#clip562)" cx="2200.25" cy="992.84" r="14" fill="#e26f46" fill-rule="evenodd" fill-opacity="1" stroke="#000000" stroke-opacity="1" stroke-width="3.2"/>
<circle clip-path="url(#clip562)" cx="1495.83" cy="344.508" r="14" fill="#e26f46" fill-rule="evenodd" fill-opacity="1" stroke="#000000" stroke-opacity="1" stroke-width="3.2"/>
<circle clip-path="url(#clip562)" cx="1402.64" cy="96.0942" r="14" fill="#e26f46" fill-rule="evenodd" fill-opacity="1" stroke="#000000" stroke-opacity="1" stroke-width="3.2"/>
<circle clip-path="url(#clip562)" cx="1651" cy="1189.99" r="14" fill="#e26f46" fill-rule="evenodd" fill-opacity="1" stroke="#000000" stroke-opacity="1" stroke-width="3.2"/>
<circle clip-path="url(#clip562)" cx="1576.31" cy="692.366" r="14" fill="#e26f46" fill-rule="evenodd" fill-opacity="1" stroke="#000000" stroke-opacity="1" stroke-width="3.2"/>
<circle clip-path="url(#clip562)" cx="2177.28" cy="1016.08" r="14" fill="#e26f46" fill-rule="evenodd" fill-opacity="1" stroke="#000000" stroke-opacity="1" stroke-width="3.2"/>
<circle clip-path="url(#clip562)" cx="986.671" cy="655.411" r="14" fill="#e26f46" fill-rule="evenodd" fill-opacity="1" stroke="#000000" stroke-opacity="1" stroke-width="3.2"/>
<circle clip-path="url(#clip562)" cx="902.279" cy="1122.51" r="14" fill="#e26f46" fill-rule="evenodd" fill-opacity="1" stroke="#000000" stroke-opacity="1" stroke-width="3.2"/>
<circle clip-path="url(#clip562)" cx="1219.35" cy="301.037" r="14" fill="#e26f46" fill-rule="evenodd" fill-opacity="1" stroke="#000000" stroke-opacity="1" stroke-width="3.2"/>
<circle clip-path="url(#clip562)" cx="1704.75" cy="1387.03" r="14" fill="#e26f46" fill-rule="evenodd" fill-opacity="1" stroke="#000000" stroke-opacity="1" stroke-width="3.2"/>
<circle clip-path="url(#clip562)" cx="631.815" cy="1172.96" r="14" fill="#e26f46" fill-rule="evenodd" fill-opacity="1" stroke="#000000" stroke-opacity="1" stroke-width="3.2"/>
<circle clip-path="url(#clip562)" cx="2066.56" cy="995.7" r="14" fill="#e26f46" fill-rule="evenodd" fill-opacity="1" stroke="#000000" stroke-opacity="1" stroke-width="3.2"/>
<circle clip-path="url(#clip562)" cx="1123.64" cy="87.9763" r="14" fill="#e26f46" fill-rule="evenodd" fill-opacity="1" stroke="#000000" stroke-opacity="1" stroke-width="3.2"/>
<circle clip-path="url(#clip562)" cx="1504.03" cy="353.181" r="14" fill="#e26f46" fill-rule="evenodd" fill-opacity="1" stroke="#000000" stroke-opacity="1" stroke-width="3.2"/>
<circle clip-path="url(#clip562)" cx="2183.93" cy="947.402" r="14" fill="#e26f46" fill-rule="evenodd" fill-opacity="1" stroke="#000000" stroke-opacity="1" stroke-width="3.2"/>
<circle clip-path="url(#clip562)" cx="1114.19" cy="155.402" r="14" fill="#e26f46" fill-rule="evenodd" fill-opacity="1" stroke="#000000" stroke-opacity="1" stroke-width="3.2"/>
<circle clip-path="url(#clip562)" cx="1499.52" cy="373.698" r="14" fill="#e26f46" fill-rule="evenodd" fill-opacity="1" stroke="#000000" stroke-opacity="1" stroke-width="3.2"/>
<circle clip-path="url(#clip562)" cx="432.166" cy="1006.94" r="14" fill="#e26f46" fill-rule="evenodd" fill-opacity="1" stroke="#000000" stroke-opacity="1" stroke-width="3.2"/>
<circle clip-path="url(#clip562)" cx="460.715" cy="932.367" r="14" fill="#e26f46" fill-rule="evenodd" fill-opacity="1" stroke="#000000" stroke-opacity="1" stroke-width="3.2"/>
<circle clip-path="url(#clip562)" cx="469.119" cy="1008.05" r="14" fill="#e26f46" fill-rule="evenodd" fill-opacity="1" stroke="#000000" stroke-opacity="1" stroke-width="3.2"/>
<circle clip-path="url(#clip562)" cx="821.355" cy="1428.55" r="14" fill="#e26f46" fill-rule="evenodd" fill-opacity="1" stroke="#000000" stroke-opacity="1" stroke-width="3.2"/>
<circle clip-path="url(#clip562)" cx="268.679" cy="926.841" r="14" fill="#e26f46" fill-rule="evenodd" fill-opacity="1" stroke="#000000" stroke-opacity="1" stroke-width="3.2"/>
<circle clip-path="url(#clip562)" cx="906.391" cy="1098.4" r="14" fill="#e26f46" fill-rule="evenodd" fill-opacity="1" stroke="#000000" stroke-opacity="1" stroke-width="3.2"/>
<circle clip-path="url(#clip562)" cx="1426.46" cy="149.727" r="14" fill="#e26f46" fill-rule="evenodd" fill-opacity="1" stroke="#000000" stroke-opacity="1" stroke-width="3.2"/>
<circle clip-path="url(#clip562)" cx="1569.02" cy="618.351" r="14" fill="#e26f46" fill-rule="evenodd" fill-opacity="1" stroke="#000000" stroke-opacity="1" stroke-width="3.2"/>
<circle clip-path="url(#clip562)" cx="464.415" cy="1005.18" r="14" fill="#e26f46" fill-rule="evenodd" fill-opacity="1" stroke="#000000" stroke-opacity="1" stroke-width="3.2"/>
<circle clip-path="url(#clip562)" cx="580.049" cy="813.903" r="14" fill="#e26f46" fill-rule="evenodd" fill-opacity="1" stroke="#000000" stroke-opacity="1" stroke-width="3.2"/>
<circle clip-path="url(#clip562)" cx="1853.59" cy="627.099" r="14" fill="#e26f46" fill-rule="evenodd" fill-opacity="1" stroke="#000000" stroke-opacity="1" stroke-width="3.2"/>
<circle clip-path="url(#clip562)" cx="1318.36" cy="328.958" r="14" fill="#e26f46" fill-rule="evenodd" fill-opacity="1" stroke="#000000" stroke-opacity="1" stroke-width="3.2"/>
<circle clip-path="url(#clip562)" cx="1615.94" cy="955.921" r="14" fill="#e26f46" fill-rule="evenodd" fill-opacity="1" stroke="#000000" stroke-opacity="1" stroke-width="3.2"/>
<circle clip-path="url(#clip562)" cx="1289.46" cy="637.528" r="14" fill="#e26f46" fill-rule="evenodd" fill-opacity="1" stroke="#000000" stroke-opacity="1" stroke-width="3.2"/>
<circle clip-path="url(#clip562)" cx="659.986" cy="868.34" r="14" fill="#e26f46" fill-rule="evenodd" fill-opacity="1" stroke="#000000" stroke-opacity="1" stroke-width="3.2"/>
<circle clip-path="url(#clip562)" cx="1489.75" cy="254.56" r="14" fill="#e26f46" fill-rule="evenodd" fill-opacity="1" stroke="#000000" stroke-opacity="1" stroke-width="3.2"/>
<circle clip-path="url(#clip562)" cx="571.101" cy="750.353" r="14" fill="#e26f46" fill-rule="evenodd" fill-opacity="1" stroke="#000000" stroke-opacity="1" stroke-width="3.2"/>
<circle clip-path="url(#clip562)" cx="2142.71" cy="968.436" r="14" fill="#e26f46" fill-rule="evenodd" fill-opacity="1" stroke="#000000" stroke-opacity="1" stroke-width="3.2"/>
<circle clip-path="url(#clip562)" cx="1454.49" cy="233.279" r="14" fill="#e26f46" fill-rule="evenodd" fill-opacity="1" stroke="#000000" stroke-opacity="1" stroke-width="3.2"/>
<circle clip-path="url(#clip562)" cx="1988.14" cy="818.129" r="14" fill="#e26f46" fill-rule="evenodd" fill-opacity="1" stroke="#000000" stroke-opacity="1" stroke-width="3.2"/>
<circle clip-path="url(#clip562)" cx="1103.76" cy="161.39" r="14" fill="#e26f46" fill-rule="evenodd" fill-opacity="1" stroke="#000000" stroke-opacity="1" stroke-width="3.2"/>
<circle clip-path="url(#clip562)" cx="320.841" cy="940.625" r="14" fill="#e26f46" fill-rule="evenodd" fill-opacity="1" stroke="#000000" stroke-opacity="1" stroke-width="3.2"/>
<circle clip-path="url(#clip562)" cx="1993.33" cy="888.27" r="14" fill="#e26f46" fill-rule="evenodd" fill-opacity="1" stroke="#000000" stroke-opacity="1" stroke-width="3.2"/>
<circle clip-path="url(#clip562)" cx="346.214" cy="989.134" r="14" fill="#e26f46" fill-rule="evenodd" fill-opacity="1" stroke="#000000" stroke-opacity="1" stroke-width="3.2"/>
<circle clip-path="url(#clip562)" cx="513.006" cy="943.535" r="14" fill="#e26f46" fill-rule="evenodd" fill-opacity="1" stroke="#000000" stroke-opacity="1" stroke-width="3.2"/>
<circle clip-path="url(#clip562)" cx="291.208" cy="946.987" r="14" fill="#e26f46" fill-rule="evenodd" fill-opacity="1" stroke="#000000" stroke-opacity="1" stroke-width="3.2"/>
<circle clip-path="url(#clip562)" cx="737.032" cy="907.82" r="14" fill="#e26f46" fill-rule="evenodd" fill-opacity="1" stroke="#000000" stroke-opacity="1" stroke-width="3.2"/>
<circle clip-path="url(#clip562)" cx="2199.28" cy="973.121" r="14" fill="#e26f46" fill-rule="evenodd" fill-opacity="1" stroke="#000000" stroke-opacity="1" stroke-width="3.2"/>
<circle clip-path="url(#clip562)" cx="1295.05" cy="553.353" r="14" fill="#e26f46" fill-rule="evenodd" fill-opacity="1" stroke="#000000" stroke-opacity="1" stroke-width="3.2"/>
<circle clip-path="url(#clip562)" cx="1156.25" cy="94.7454" r="14" fill="#e26f46" fill-rule="evenodd" fill-opacity="1" stroke="#000000" stroke-opacity="1" stroke-width="3.2"/>
<circle clip-path="url(#clip562)" cx="405.491" cy="941.799" r="14" fill="#e26f46" fill-rule="evenodd" fill-opacity="1" stroke="#000000" stroke-opacity="1" stroke-width="3.2"/>
<circle clip-path="url(#clip562)" cx="1870.27" cy="749.209" r="14" fill="#e26f46" fill-rule="evenodd" fill-opacity="1" stroke="#000000" stroke-opacity="1" stroke-width="3.2"/>
<circle clip-path="url(#clip562)" cx="1720.14" cy="1445.72" r="14" fill="#e26f46" fill-rule="evenodd" fill-opacity="1" stroke="#000000" stroke-opacity="1" stroke-width="3.2"/>
<circle clip-path="url(#clip562)" cx="268.198" cy="866.149" r="14" fill="#e26f46" fill-rule="evenodd" fill-opacity="1" stroke="#000000" stroke-opacity="1" stroke-width="3.2"/>
<circle clip-path="url(#clip562)" cx="917.467" cy="1066.39" r="14" fill="#e26f46" fill-rule="evenodd" fill-opacity="1" stroke="#000000" stroke-opacity="1" stroke-width="3.2"/>
<circle clip-path="url(#clip562)" cx="2001.75" cy="1050.92" r="14" fill="#e26f46" fill-rule="evenodd" fill-opacity="1" stroke="#000000" stroke-opacity="1" stroke-width="3.2"/>
<circle clip-path="url(#clip562)" cx="2004.76" cy="1009.07" r="14" fill="#e26f46" fill-rule="evenodd" fill-opacity="1" stroke="#000000" stroke-opacity="1" stroke-width="3.2"/>
<circle clip-path="url(#clip562)" cx="391.209" cy="964.645" r="14" fill="#e26f46" fill-rule="evenodd" fill-opacity="1" stroke="#000000" stroke-opacity="1" stroke-width="3.2"/>
<circle clip-path="url(#clip562)" cx="2186.84" cy="920.284" r="14" fill="#e26f46" fill-rule="evenodd" fill-opacity="1" stroke="#000000" stroke-opacity="1" stroke-width="3.2"/>
<circle clip-path="url(#clip562)" cx="2161.85" cy="845.526" r="14" fill="#e26f46" fill-rule="evenodd" fill-opacity="1" stroke="#000000" stroke-opacity="1" stroke-width="3.2"/>
<circle clip-path="url(#clip562)" cx="288.142" cy="986.037" r="14" fill="#e26f46" fill-rule="evenodd" fill-opacity="1" stroke="#000000" stroke-opacity="1" stroke-width="3.2"/>
<circle clip-path="url(#clip562)" cx="2234.83" cy="990.785" r="14" fill="#e26f46" fill-rule="evenodd" fill-opacity="1" stroke="#000000" stroke-opacity="1" stroke-width="3.2"/>
<circle clip-path="url(#clip562)" cx="1225.89" cy="311.322" r="14" fill="#e26f46" fill-rule="evenodd" fill-opacity="1" stroke="#000000" stroke-opacity="1" stroke-width="3.2"/>
<circle clip-path="url(#clip562)" cx="486.581" cy="930.03" r="14" fill="#e26f46" fill-rule="evenodd" fill-opacity="1" stroke="#000000" stroke-opacity="1" stroke-width="3.2"/>
<circle clip-path="url(#clip562)" cx="1522.08" cy="415.972" r="14" fill="#e26f46" fill-rule="evenodd" fill-opacity="1" stroke="#000000" stroke-opacity="1" stroke-width="3.2"/>
<circle clip-path="url(#clip562)" cx="1302.74" cy="451.735" r="14" fill="#e26f46" fill-rule="evenodd" fill-opacity="1" stroke="#000000" stroke-opacity="1" stroke-width="3.2"/>
<circle clip-path="url(#clip562)" cx="1345.58" cy="216.289" r="14" fill="#e26f46" fill-rule="evenodd" fill-opacity="1" stroke="#000000" stroke-opacity="1" stroke-width="3.2"/>
<circle clip-path="url(#clip562)" cx="1549.18" cy="528.462" r="14" fill="#e26f46" fill-rule="evenodd" fill-opacity="1" stroke="#000000" stroke-opacity="1" stroke-width="3.2"/>
<circle clip-path="url(#clip562)" cx="1118.57" cy="131.833" r="14" fill="#e26f46" fill-rule="evenodd" fill-opacity="1" stroke="#000000" stroke-opacity="1" stroke-width="3.2"/>
<circle clip-path="url(#clip562)" cx="1884.83" cy="871.601" r="14" fill="#e26f46" fill-rule="evenodd" fill-opacity="1" stroke="#000000" stroke-opacity="1" stroke-width="3.2"/>
<circle clip-path="url(#clip562)" cx="935.544" cy="917.493" r="14" fill="#e26f46" fill-rule="evenodd" fill-opacity="1" stroke="#000000" stroke-opacity="1" stroke-width="3.2"/>
<circle clip-path="url(#clip562)" cx="2129.25" cy="864.079" r="14" fill="#e26f46" fill-rule="evenodd" fill-opacity="1" stroke="#000000" stroke-opacity="1" stroke-width="3.2"/>
<circle clip-path="url(#clip562)" cx="1501.37" cy="338.674" r="14" fill="#e26f46" fill-rule="evenodd" fill-opacity="1" stroke="#000000" stroke-opacity="1" stroke-width="3.2"/>
<circle clip-path="url(#clip562)" cx="822.829" cy="1413.45" r="14" fill="#e26f46" fill-rule="evenodd" fill-opacity="1" stroke="#000000" stroke-opacity="1" stroke-width="3.2"/>
<circle clip-path="url(#clip562)" cx="1229.22" cy="357.111" r="14" fill="#e26f46" fill-rule="evenodd" fill-opacity="1" stroke="#000000" stroke-opacity="1" stroke-width="3.2"/>
<circle clip-path="url(#clip562)" cx="912.128" cy="1066.66" r="14" fill="#e26f46" fill-rule="evenodd" fill-opacity="1" stroke="#000000" stroke-opacity="1" stroke-width="3.2"/>
<circle clip-path="url(#clip562)" cx="1273.28" cy="910.635" r="14" fill="#e26f46" fill-rule="evenodd" fill-opacity="1" stroke="#000000" stroke-opacity="1" stroke-width="3.2"/>
<circle clip-path="url(#clip562)" cx="669.734" cy="809.1" r="14" fill="#e26f46" fill-rule="evenodd" fill-opacity="1" stroke="#000000" stroke-opacity="1" stroke-width="3.2"/>
<circle clip-path="url(#clip562)" cx="1375.73" cy="103.167" r="14" fill="#e26f46" fill-rule="evenodd" fill-opacity="1" stroke="#000000" stroke-opacity="1" stroke-width="3.2"/>
<circle clip-path="url(#clip562)" cx="1073.44" cy="215.981" r="14" fill="#e26f46" fill-rule="evenodd" fill-opacity="1" stroke="#000000" stroke-opacity="1" stroke-width="3.2"/>
<circle clip-path="url(#clip562)" cx="662.37" cy="866.483" r="14" fill="#e26f46" fill-rule="evenodd" fill-opacity="1" stroke="#000000" stroke-opacity="1" stroke-width="3.2"/>
<circle clip-path="url(#clip562)" cx="2285.46" cy="934.302" r="14" fill="#e26f46" fill-rule="evenodd" fill-opacity="1" stroke="#000000" stroke-opacity="1" stroke-width="3.2"/>
<circle clip-path="url(#clip562)" cx="257.804" cy="932.917" r="14" fill="#e26f46" fill-rule="evenodd" fill-opacity="1" stroke="#000000" stroke-opacity="1" stroke-width="3.2"/>
<circle clip-path="url(#clip562)" cx="1691.27" cy="1358.19" r="14" fill="#e26f46" fill-rule="evenodd" fill-opacity="1" stroke="#000000" stroke-opacity="1" stroke-width="3.2"/>
<circle clip-path="url(#clip562)" cx="451.171" cy="867.305" r="14" fill="#e26f46" fill-rule="evenodd" fill-opacity="1" stroke="#000000" stroke-opacity="1" stroke-width="3.2"/>
<circle clip-path="url(#clip562)" cx="844.46" cy="1366.41" r="14" fill="#e26f46" fill-rule="evenodd" fill-opacity="1" stroke="#000000" stroke-opacity="1" stroke-width="3.2"/>
<circle clip-path="url(#clip562)" cx="1053.3" cy="299.405" r="14" fill="#e26f46" fill-rule="evenodd" fill-opacity="1" stroke="#000000" stroke-opacity="1" stroke-width="3.2"/>
<circle clip-path="url(#clip562)" cx="2051.3" cy="890.85" r="14" fill="#e26f46" fill-rule="evenodd" fill-opacity="1" stroke="#000000" stroke-opacity="1" stroke-width="3.2"/>
<circle clip-path="url(#clip562)" cx="1122.39" cy="129.276" r="14" fill="#e26f46" fill-rule="evenodd" fill-opacity="1" stroke="#000000" stroke-opacity="1" stroke-width="3.2"/>
<circle clip-path="url(#clip562)" cx="391.654" cy="918.687" r="14" fill="#e26f46" fill-rule="evenodd" fill-opacity="1" stroke="#000000" stroke-opacity="1" stroke-width="3.2"/>
<circle clip-path="url(#clip562)" cx="768.563" cy="1174.92" r="14" fill="#e26f46" fill-rule="evenodd" fill-opacity="1" stroke="#000000" stroke-opacity="1" stroke-width="3.2"/>
<circle clip-path="url(#clip562)" cx="646.925" cy="988.77" r="14" fill="#e26f46" fill-rule="evenodd" fill-opacity="1" stroke="#000000" stroke-opacity="1" stroke-width="3.2"/>
<circle clip-path="url(#clip562)" cx="2152.56" cy="970.615" r="14" fill="#e26f46" fill-rule="evenodd" fill-opacity="1" stroke="#000000" stroke-opacity="1" stroke-width="3.2"/>
<circle clip-path="url(#clip562)" cx="2042.61" cy="849.391" r="14" fill="#e26f46" fill-rule="evenodd" fill-opacity="1" stroke="#000000" stroke-opacity="1" stroke-width="3.2"/>
<circle clip-path="url(#clip562)" cx="1733.87" cy="1377.57" r="14" fill="#e26f46" fill-rule="evenodd" fill-opacity="1" stroke="#000000" stroke-opacity="1" stroke-width="3.2"/>
<circle clip-path="url(#clip562)" cx="2001.15" cy="963.755" r="14" fill="#e26f46" fill-rule="evenodd" fill-opacity="1" stroke="#000000" stroke-opacity="1" stroke-width="3.2"/>
<circle clip-path="url(#clip562)" cx="1800.96" cy="938.867" r="14" fill="#e26f46" fill-rule="evenodd" fill-opacity="1" stroke="#000000" stroke-opacity="1" stroke-width="3.2"/>
<circle clip-path="url(#clip562)" cx="756.681" cy="1088.25" r="14" fill="#e26f46" fill-rule="evenodd" fill-opacity="1" stroke="#000000" stroke-opacity="1" stroke-width="3.2"/>
<circle clip-path="url(#clip562)" cx="2034.8" cy="869.811" r="14" fill="#e26f46" fill-rule="evenodd" fill-opacity="1" stroke="#000000" stroke-opacity="1" stroke-width="3.2"/>
<circle clip-path="url(#clip562)" cx="1965.53" cy="819.385" r="14" fill="#e26f46" fill-rule="evenodd" fill-opacity="1" stroke="#000000" stroke-opacity="1" stroke-width="3.2"/>
<circle clip-path="url(#clip562)" cx="2147.37" cy="1009.9" r="14" fill="#e26f46" fill-rule="evenodd" fill-opacity="1" stroke="#000000" stroke-opacity="1" stroke-width="3.2"/>
<circle clip-path="url(#clip562)" cx="1876.92" cy="804.354" r="14" fill="#e26f46" fill-rule="evenodd" fill-opacity="1" stroke="#000000" stroke-opacity="1" stroke-width="3.2"/>
<circle clip-path="url(#clip562)" cx="2169.54" cy="941.107" r="14" fill="#e26f46" fill-rule="evenodd" fill-opacity="1" stroke="#000000" stroke-opacity="1" stroke-width="3.2"/>
<circle clip-path="url(#clip562)" cx="1586.22" cy="810.546" r="14" fill="#e26f46" fill-rule="evenodd" fill-opacity="1" stroke="#000000" stroke-opacity="1" stroke-width="3.2"/>
<circle clip-path="url(#clip562)" cx="615.435" cy="1140.25" r="14" fill="#e26f46" fill-rule="evenodd" fill-opacity="1" stroke="#000000" stroke-opacity="1" stroke-width="3.2"/>
<circle clip-path="url(#clip562)" cx="254.317" cy="924.239" r="14" fill="#e26f46" fill-rule="evenodd" fill-opacity="1" stroke="#000000" stroke-opacity="1" stroke-width="3.2"/>
<circle clip-path="url(#clip562)" cx="895.752" cy="1166.9" r="14" fill="#e26f46" fill-rule="evenodd" fill-opacity="1" stroke="#000000" stroke-opacity="1" stroke-width="3.2"/>
<circle clip-path="url(#clip562)" cx="610.416" cy="1107.98" r="14" fill="#e26f46" fill-rule="evenodd" fill-opacity="1" stroke="#000000" stroke-opacity="1" stroke-width="3.2"/>
<circle clip-path="url(#clip562)" cx="1867.24" cy="716.432" r="14" fill="#e26f46" fill-rule="evenodd" fill-opacity="1" stroke="#000000" stroke-opacity="1" stroke-width="3.2"/>
<circle clip-path="url(#clip562)" cx="1925.96" cy="1168.12" r="14" fill="#e26f46" fill-rule="evenodd" fill-opacity="1" stroke="#000000" stroke-opacity="1" stroke-width="3.2"/>
<circle clip-path="url(#clip562)" cx="2263.56" cy="946.266" r="14" fill="#e26f46" fill-rule="evenodd" fill-opacity="1" stroke="#000000" stroke-opacity="1" stroke-width="3.2"/>
<circle clip-path="url(#clip562)" cx="1988.47" cy="855.811" r="14" fill="#e26f46" fill-rule="evenodd" fill-opacity="1" stroke="#000000" stroke-opacity="1" stroke-width="3.2"/>
<circle clip-path="url(#clip562)" cx="322.619" cy="971.598" r="14" fill="#e26f46" fill-rule="evenodd" fill-opacity="1" stroke="#000000" stroke-opacity="1" stroke-width="3.2"/>
<circle clip-path="url(#clip562)" cx="1006.73" cy="493.35" r="14" fill="#e26f46" fill-rule="evenodd" fill-opacity="1" stroke="#000000" stroke-opacity="1" stroke-width="3.2"/>
<circle clip-path="url(#clip562)" cx="511.005" cy="937.298" r="14" fill="#e26f46" fill-rule="evenodd" fill-opacity="1" stroke="#000000" stroke-opacity="1" stroke-width="3.2"/>
<circle clip-path="url(#clip562)" cx="996.551" cy="562.833" r="14" fill="#e26f46" fill-rule="evenodd" fill-opacity="1" stroke="#000000" stroke-opacity="1" stroke-width="3.2"/>
<circle clip-path="url(#clip562)" cx="637.239" cy="1055.8" r="14" fill="#e26f46" fill-rule="evenodd" fill-opacity="1" stroke="#000000" stroke-opacity="1" stroke-width="3.2"/>
<circle clip-path="url(#clip562)" cx="301.284" cy="924.202" r="14" fill="#e26f46" fill-rule="evenodd" fill-opacity="1" stroke="#000000" stroke-opacity="1" stroke-width="3.2"/>
<circle clip-path="url(#clip562)" cx="1789.29" cy="1071.67" r="14" fill="#e26f46" fill-rule="evenodd" fill-opacity="1" stroke="#000000" stroke-opacity="1" stroke-width="3.2"/>
<circle clip-path="url(#clip562)" cx="1827.46" cy="745.585" r="14" fill="#e26f46" fill-rule="evenodd" fill-opacity="1" stroke="#000000" stroke-opacity="1" stroke-width="3.2"/>
<circle clip-path="url(#clip562)" cx="331.453" cy="937.41" r="14" fill="#e26f46" fill-rule="evenodd" fill-opacity="1" stroke="#000000" stroke-opacity="1" stroke-width="3.2"/>
<circle clip-path="url(#clip562)" cx="443.224" cy="881.223" r="14" fill="#e26f46" fill-rule="evenodd" fill-opacity="1" stroke="#000000" stroke-opacity="1" stroke-width="3.2"/>
<circle clip-path="url(#clip562)" cx="1828.65" cy="725.405" r="14" fill="#e26f46" fill-rule="evenodd" fill-opacity="1" stroke="#000000" stroke-opacity="1" stroke-width="3.2"/>
<circle clip-path="url(#clip562)" cx="841.618" cy="1377.43" r="14" fill="#e26f46" fill-rule="evenodd" fill-opacity="1" stroke="#000000" stroke-opacity="1" stroke-width="3.2"/>
<circle clip-path="url(#clip562)" cx="369.651" cy="1013.42" r="14" fill="#e26f46" fill-rule="evenodd" fill-opacity="1" stroke="#000000" stroke-opacity="1" stroke-width="3.2"/>
<circle clip-path="url(#clip562)" cx="375.163" cy="894.84" r="14" fill="#e26f46" fill-rule="evenodd" fill-opacity="1" stroke="#000000" stroke-opacity="1" stroke-width="3.2"/>
<circle clip-path="url(#clip562)" cx="2050.2" cy="857.104" r="14" fill="#e26f46" fill-rule="evenodd" fill-opacity="1" stroke="#000000" stroke-opacity="1" stroke-width="3.2"/>
<circle clip-path="url(#clip562)" cx="1432.79" cy="152.974" r="14" fill="#e26f46" fill-rule="evenodd" fill-opacity="1" stroke="#000000" stroke-opacity="1" stroke-width="3.2"/>
<circle clip-path="url(#clip562)" cx="1687.22" cy="1352.01" r="14" fill="#e26f46" fill-rule="evenodd" fill-opacity="1" stroke="#000000" stroke-opacity="1" stroke-width="3.2"/>
<circle clip-path="url(#clip562)" cx="550.693" cy="930.55" r="14" fill="#e26f46" fill-rule="evenodd" fill-opacity="1" stroke="#000000" stroke-opacity="1" stroke-width="3.2"/>
<circle clip-path="url(#clip562)" cx="516.697" cy="961.067" r="14" fill="#e26f46" fill-rule="evenodd" fill-opacity="1" stroke="#000000" stroke-opacity="1" stroke-width="3.2"/>
<circle clip-path="url(#clip562)" cx="1361.49" cy="188.816" r="14" fill="#e26f46" fill-rule="evenodd" fill-opacity="1" stroke="#000000" stroke-opacity="1" stroke-width="3.2"/>
<circle clip-path="url(#clip562)" cx="1292.32" cy="572.511" r="14" fill="#e26f46" fill-rule="evenodd" fill-opacity="1" stroke="#000000" stroke-opacity="1" stroke-width="3.2"/>
<circle clip-path="url(#clip562)" cx="1755.5" cy="1330.4" r="14" fill="#e26f46" fill-rule="evenodd" fill-opacity="1" stroke="#000000" stroke-opacity="1" stroke-width="3.2"/>
<circle clip-path="url(#clip562)" cx="1644.47" cy="1204.56" r="14" fill="#e26f46" fill-rule="evenodd" fill-opacity="1" stroke="#000000" stroke-opacity="1" stroke-width="3.2"/>
<circle clip-path="url(#clip562)" cx="1843.83" cy="668.17" r="14" fill="#e26f46" fill-rule="evenodd" fill-opacity="1" stroke="#000000" stroke-opacity="1" stroke-width="3.2"/>
<circle clip-path="url(#clip562)" cx="998.83" cy="566.405" r="14" fill="#e26f46" fill-rule="evenodd" fill-opacity="1" stroke="#000000" stroke-opacity="1" stroke-width="3.2"/>
<path clip-path="url(#clip560)" d="
M1478.38 386.818 L2280.75 386.818 L2280.75 95.2176 L1478.38 95.2176  Z
  " fill="#ffffff" fill-rule="evenodd" fill-opacity="1"/>
<polyline clip-path="url(#clip560)" style="stroke:#000000; stroke-linecap:butt; stroke-linejoin:round; stroke-width:4; stroke-opacity:1; fill:none" points="
  1478.38,386.818 2280.75,386.818 2280.75,95.2176 1478.38,95.2176 1478.38,386.818 
  "/>
<polyline clip-path="url(#clip560)" style="stroke:#009af9; stroke-linecap:butt; stroke-linejoin:round; stroke-width:7.5; stroke-opacity:1; fill:none" points="
  1502.38,192.418 1646.39,192.418 
  "/>
<path clip-path="url(#clip560)" d="M1705.85 199.948 Q1705.85 191.267 1702.24 186.493 Q1698.68 181.719 1692.22 181.719 Q1685.79 181.719 1682.19 186.493 Q1678.63 191.267 1678.63 199.948 Q1678.63 208.585 1682.19 213.359 Q1685.79 218.134 1692.22 218.134 Q1698.68 218.134 1702.24 213.359 Q1705.85 208.585 1705.85 199.948 M1713.83 218.785 Q1713.83 231.198 1708.32 237.231 Q1702.81 243.307 1691.44 243.307 Q1687.23 243.307 1683.49 242.656 Q1679.76 242.048 1676.25 240.746 L1676.25 232.977 Q1679.76 234.887 1683.19 235.798 Q1686.62 236.71 1690.18 236.71 Q1698.03 236.71 1701.94 232.587 Q1705.85 228.507 1705.85 220.217 L1705.85 216.267 Q1703.37 220.564 1699.51 222.691 Q1695.65 224.818 1690.26 224.818 Q1681.32 224.818 1675.86 218.003 Q1670.39 211.189 1670.39 199.948 Q1670.39 188.663 1675.86 181.849 Q1681.32 175.035 1690.26 175.035 Q1695.65 175.035 1699.51 177.162 Q1703.37 179.288 1705.85 183.585 L1705.85 176.207 L1713.83 176.207 L1713.83 218.785 Z" fill="#000000" fill-rule="evenodd" fill-opacity="1" /><path clip-path="url(#clip560)" d="M1758.45 183.672 Q1757.1 182.891 1755.5 182.543 Q1753.94 182.153 1752.03 182.153 Q1745.26 182.153 1741.61 186.58 Q1738.01 190.964 1738.01 199.21 L1738.01 224.818 L1729.98 224.818 L1729.98 176.207 L1738.01 176.207 L1738.01 183.759 Q1740.53 179.332 1744.56 177.205 Q1748.6 175.035 1754.37 175.035 Q1755.2 175.035 1756.19 175.165 Q1757.19 175.252 1758.41 175.469 L1758.45 183.672 Z" fill="#000000" fill-rule="evenodd" fill-opacity="1" /><path clip-path="url(#clip560)" d="M1783.71 181.806 Q1777.29 181.806 1773.55 186.84 Q1769.82 191.832 1769.82 200.556 Q1769.82 209.279 1773.51 214.314 Q1777.24 219.305 1783.71 219.305 Q1790.09 219.305 1793.82 214.271 Q1797.56 209.236 1797.56 200.556 Q1797.56 191.918 1793.82 186.884 Q1790.09 181.806 1783.71 181.806 M1783.71 175.035 Q1794.13 175.035 1800.07 181.806 Q1806.02 188.576 1806.02 200.556 Q1806.02 212.491 1800.07 219.305 Q1794.13 226.076 1783.71 226.076 Q1773.25 226.076 1767.3 219.305 Q1761.4 212.491 1761.4 200.556 Q1761.4 188.576 1767.3 181.806 Q1773.25 175.035 1783.71 175.035 Z" fill="#000000" fill-rule="evenodd" fill-opacity="1" /><path clip-path="url(#clip560)" d="M1818.43 205.634 L1818.43 176.207 L1826.42 176.207 L1826.42 205.33 Q1826.42 212.231 1829.11 215.703 Q1831.8 219.132 1837.18 219.132 Q1843.65 219.132 1847.38 215.009 Q1851.16 210.885 1851.16 203.767 L1851.16 176.207 L1859.14 176.207 L1859.14 224.818 L1851.16 224.818 L1851.16 217.352 Q1848.25 221.779 1844.39 223.95 Q1840.57 226.076 1835.49 226.076 Q1827.11 226.076 1822.77 220.868 Q1818.43 215.66 1818.43 205.634 M1838.53 175.035 L1838.53 175.035 Z" fill="#000000" fill-rule="evenodd" fill-opacity="1" /><path clip-path="url(#clip560)" d="M1916 195.477 L1916 224.818 L1908.02 224.818 L1908.02 195.738 Q1908.02 188.837 1905.32 185.408 Q1902.63 181.979 1897.25 181.979 Q1890.78 181.979 1887.05 186.102 Q1883.32 190.226 1883.32 197.344 L1883.32 224.818 L1875.29 224.818 L1875.29 176.207 L1883.32 176.207 L1883.32 183.759 Q1886.18 179.375 1890.05 177.205 Q1893.95 175.035 1899.03 175.035 Q1907.41 175.035 1911.7 180.243 Q1916 185.408 1916 195.477 Z" fill="#000000" fill-rule="evenodd" fill-opacity="1" /><path clip-path="url(#clip560)" d="M1963.92 183.585 L1963.92 157.283 L1971.9 157.283 L1971.9 224.818 L1963.92 224.818 L1963.92 217.526 Q1961.4 221.866 1957.54 223.993 Q1953.72 226.076 1948.34 226.076 Q1939.53 226.076 1933.97 219.045 Q1928.46 212.014 1928.46 200.556 Q1928.46 189.097 1933.97 182.066 Q1939.53 175.035 1948.34 175.035 Q1953.72 175.035 1957.54 177.162 Q1961.4 179.245 1963.92 183.585 M1936.7 200.556 Q1936.7 209.366 1940.31 214.401 Q1943.95 219.392 1950.29 219.392 Q1956.63 219.392 1960.27 214.401 Q1963.92 209.366 1963.92 200.556 Q1963.92 191.745 1960.27 186.754 Q1956.63 181.719 1950.29 181.719 Q1943.95 181.719 1940.31 186.754 Q1936.7 191.745 1936.7 200.556 Z" fill="#000000" fill-rule="evenodd" fill-opacity="1" /><path clip-path="url(#clip560)" d="M2024.51 162.405 L2024.51 176.207 L2040.96 176.207 L2040.96 182.413 L2024.51 182.413 L2024.51 208.802 Q2024.51 214.748 2026.11 216.441 Q2027.76 218.134 2032.75 218.134 L2040.96 218.134 L2040.96 224.818 L2032.75 224.818 Q2023.51 224.818 2019.99 221.389 Q2016.48 217.917 2016.48 208.802 L2016.48 182.413 L2010.62 182.413 L2010.62 176.207 L2016.48 176.207 L2016.48 162.405 L2024.51 162.405 Z" fill="#000000" fill-rule="evenodd" fill-opacity="1" /><path clip-path="url(#clip560)" d="M2079.63 183.672 Q2078.28 182.891 2076.68 182.543 Q2075.12 182.153 2073.21 182.153 Q2066.43 182.153 2062.79 186.58 Q2059.19 190.964 2059.19 199.21 L2059.19 224.818 L2051.16 224.818 L2051.16 176.207 L2059.19 176.207 L2059.19 183.759 Q2061.7 179.332 2065.74 177.205 Q2069.78 175.035 2075.55 175.035 Q2076.37 175.035 2077.37 175.165 Q2078.37 175.252 2079.59 175.469 L2079.63 183.672 Z" fill="#000000" fill-rule="evenodd" fill-opacity="1" /><path clip-path="url(#clip560)" d="M2087.18 205.634 L2087.18 176.207 L2095.17 176.207 L2095.17 205.33 Q2095.17 212.231 2097.86 215.703 Q2100.55 219.132 2105.93 219.132 Q2112.4 219.132 2116.13 215.009 Q2119.91 210.885 2119.91 203.767 L2119.91 176.207 L2127.89 176.207 L2127.89 224.818 L2119.91 224.818 L2119.91 217.352 Q2117 221.779 2113.14 223.95 Q2109.32 226.076 2104.24 226.076 Q2095.86 226.076 2091.52 220.868 Q2087.18 215.66 2087.18 205.634 M2107.28 175.035 L2107.28 175.035 Z" fill="#000000" fill-rule="evenodd" fill-opacity="1" /><path clip-path="url(#clip560)" d="M2152.24 162.405 L2152.24 176.207 L2168.69 176.207 L2168.69 182.413 L2152.24 182.413 L2152.24 208.802 Q2152.24 214.748 2153.85 216.441 Q2155.5 218.134 2160.49 218.134 L2168.69 218.134 L2168.69 224.818 L2160.49 224.818 Q2151.24 224.818 2147.73 221.389 Q2144.21 217.917 2144.21 208.802 L2144.21 182.413 L2138.35 182.413 L2138.35 176.207 L2144.21 176.207 L2144.21 162.405 L2152.24 162.405 Z" fill="#000000" fill-rule="evenodd" fill-opacity="1" /><path clip-path="url(#clip560)" d="M2219.6 195.477 L2219.6 224.818 L2211.62 224.818 L2211.62 195.738 Q2211.62 188.837 2208.93 185.408 Q2206.23 181.979 2200.85 181.979 Q2194.39 181.979 2190.65 186.102 Q2186.92 190.226 2186.92 197.344 L2186.92 224.818 L2178.89 224.818 L2178.89 157.283 L2186.92 157.283 L2186.92 183.759 Q2189.78 179.375 2193.65 177.205 Q2197.55 175.035 2202.63 175.035 Q2211.01 175.035 2215.31 180.243 Q2219.6 185.408 2219.6 195.477 Z" fill="#000000" fill-rule="evenodd" fill-opacity="1" /><circle clip-path="url(#clip560)" cx="1574.38" cy="289.618" r="43" fill="#e26f46" fill-rule="evenodd" fill-opacity="1" stroke="#000000" stroke-opacity="1" stroke-width="9.6"/>
<path clip-path="url(#clip560)" d="M1684.28 259.605 L1684.28 273.407 L1700.72 273.407 L1700.72 279.613 L1684.28 279.613 L1684.28 306.002 Q1684.28 311.948 1685.88 313.641 Q1687.53 315.334 1692.52 315.334 L1700.72 315.334 L1700.72 322.018 L1692.52 322.018 Q1683.28 322.018 1679.76 318.589 Q1676.25 315.117 1676.25 306.002 L1676.25 279.613 L1670.39 279.613 L1670.39 273.407 L1676.25 273.407 L1676.25 259.605 L1684.28 259.605 Z" fill="#000000" fill-rule="evenodd" fill-opacity="1" /><path clip-path="url(#clip560)" d="M1739.4 280.872 Q1738.05 280.091 1736.45 279.743 Q1734.88 279.353 1732.97 279.353 Q1726.2 279.353 1722.56 283.78 Q1718.95 288.164 1718.95 296.41 L1718.95 322.018 L1710.92 322.018 L1710.92 273.407 L1718.95 273.407 L1718.95 280.959 Q1721.47 276.532 1725.51 274.405 Q1729.54 272.235 1735.32 272.235 Q1736.14 272.235 1737.14 272.365 Q1738.14 272.452 1739.35 272.669 L1739.4 280.872 Z" fill="#000000" fill-rule="evenodd" fill-opacity="1" /><path clip-path="url(#clip560)" d="M1769.87 297.582 Q1760.19 297.582 1756.45 299.795 Q1752.72 302.009 1752.72 307.347 Q1752.72 311.601 1755.5 314.118 Q1758.32 316.592 1763.14 316.592 Q1769.78 316.592 1773.77 311.905 Q1777.81 307.174 1777.81 299.361 L1777.81 297.582 L1769.87 297.582 M1785.79 294.283 L1785.79 322.018 L1777.81 322.018 L1777.81 314.639 Q1775.07 319.066 1770.99 321.193 Q1766.91 323.276 1761.01 323.276 Q1753.55 323.276 1749.12 319.11 Q1744.74 314.9 1744.74 307.868 Q1744.74 299.665 1750.2 295.499 Q1755.72 291.332 1766.61 291.332 L1777.81 291.332 L1777.81 290.551 Q1777.81 285.039 1774.16 282.044 Q1770.56 279.006 1764.01 279.006 Q1759.84 279.006 1755.89 280.004 Q1751.94 281.002 1748.29 282.999 L1748.29 275.62 Q1752.68 273.928 1756.8 273.103 Q1760.92 272.235 1764.83 272.235 Q1775.38 272.235 1780.59 277.704 Q1785.79 283.172 1785.79 294.283 Z" fill="#000000" fill-rule="evenodd" fill-opacity="1" /><path clip-path="url(#clip560)" d="M1802.24 273.407 L1810.23 273.407 L1810.23 322.018 L1802.24 322.018 L1802.24 273.407 M1802.24 254.483 L1810.23 254.483 L1810.23 264.596 L1802.24 264.596 L1802.24 254.483 Z" fill="#000000" fill-rule="evenodd" fill-opacity="1" /><path clip-path="url(#clip560)" d="M1867.35 292.677 L1867.35 322.018 L1859.36 322.018 L1859.36 292.938 Q1859.36 286.037 1856.67 282.608 Q1853.98 279.179 1848.6 279.179 Q1842.13 279.179 1838.4 283.302 Q1834.67 287.426 1834.67 294.544 L1834.67 322.018 L1826.64 322.018 L1826.64 273.407 L1834.67 273.407 L1834.67 280.959 Q1837.53 276.575 1841.39 274.405 Q1845.3 272.235 1850.38 272.235 Q1858.75 272.235 1863.05 277.443 Q1867.35 282.608 1867.35 292.677 Z" fill="#000000" fill-rule="evenodd" fill-opacity="1" /><path clip-path="url(#clip560)" d="M1883.28 273.407 L1891.26 273.407 L1891.26 322.018 L1883.28 322.018 L1883.28 273.407 M1883.28 254.483 L1891.26 254.483 L1891.26 264.596 L1883.28 264.596 L1883.28 254.483 Z" fill="#000000" fill-rule="evenodd" fill-opacity="1" /><path clip-path="url(#clip560)" d="M1948.38 292.677 L1948.38 322.018 L1940.39 322.018 L1940.39 292.938 Q1940.39 286.037 1937.7 282.608 Q1935.01 279.179 1929.63 279.179 Q1923.16 279.179 1919.43 283.302 Q1915.7 287.426 1915.7 294.544 L1915.7 322.018 L1907.67 322.018 L1907.67 273.407 L1915.7 273.407 L1915.7 280.959 Q1918.56 276.575 1922.43 274.405 Q1926.33 272.235 1931.41 272.235 Q1939.79 272.235 1944.08 277.443 Q1948.38 282.608 1948.38 292.677 Z" fill="#000000" fill-rule="evenodd" fill-opacity="1" /><path clip-path="url(#clip560)" d="M1996.3 297.148 Q1996.3 288.467 1992.69 283.693 Q1989.13 278.919 1982.67 278.919 Q1976.24 278.919 1972.64 283.693 Q1969.08 288.467 1969.08 297.148 Q1969.08 305.785 1972.64 310.559 Q1976.24 315.334 1982.67 315.334 Q1989.13 315.334 1992.69 310.559 Q1996.3 305.785 1996.3 297.148 M2004.28 315.985 Q2004.28 328.398 1998.77 334.431 Q1993.26 340.507 1981.89 340.507 Q1977.68 340.507 1973.94 339.856 Q1970.21 339.248 1966.7 337.946 L1966.7 330.177 Q1970.21 332.087 1973.64 332.998 Q1977.07 333.91 1980.63 333.91 Q1988.48 333.91 1992.39 329.787 Q1996.3 325.707 1996.3 317.417 L1996.3 313.467 Q1993.82 317.764 1989.96 319.891 Q1986.1 322.018 1980.71 322.018 Q1971.77 322.018 1966.31 315.203 Q1960.84 308.389 1960.84 297.148 Q1960.84 285.863 1966.31 279.049 Q1971.77 272.235 1980.71 272.235 Q1986.1 272.235 1989.96 274.362 Q1993.82 276.488 1996.3 280.785 L1996.3 273.407 L2004.28 273.407 L2004.28 315.985 Z" fill="#000000" fill-rule="evenodd" fill-opacity="1" /><path clip-path="url(#clip560)" d="M2080.97 280.785 L2080.97 254.483 L2088.96 254.483 L2088.96 322.018 L2080.97 322.018 L2080.97 314.726 Q2078.46 319.066 2074.59 321.193 Q2070.78 323.276 2065.39 323.276 Q2056.58 323.276 2051.03 316.245 Q2045.51 309.214 2045.51 297.756 Q2045.51 286.297 2051.03 279.266 Q2056.58 272.235 2065.39 272.235 Q2070.78 272.235 2074.59 274.362 Q2078.46 276.445 2080.97 280.785 M2053.76 297.756 Q2053.76 306.566 2057.36 311.601 Q2061.01 316.592 2067.35 316.592 Q2073.68 316.592 2077.33 311.601 Q2080.97 306.566 2080.97 297.756 Q2080.97 288.945 2077.33 283.954 Q2073.68 278.919 2067.35 278.919 Q2061.01 278.919 2057.36 283.954 Q2053.76 288.945 2053.76 297.756 Z" fill="#000000" fill-rule="evenodd" fill-opacity="1" /><path clip-path="url(#clip560)" d="M2127.5 297.582 Q2117.82 297.582 2114.09 299.795 Q2110.36 302.009 2110.36 307.347 Q2110.36 311.601 2113.14 314.118 Q2115.96 316.592 2120.77 316.592 Q2127.42 316.592 2131.41 311.905 Q2135.44 307.174 2135.44 299.361 L2135.44 297.582 L2127.5 297.582 M2143.43 294.283 L2143.43 322.018 L2135.44 322.018 L2135.44 314.639 Q2132.71 319.066 2128.63 321.193 Q2124.55 323.276 2118.65 323.276 Q2111.18 323.276 2106.76 319.11 Q2102.37 314.9 2102.37 307.868 Q2102.37 299.665 2107.84 295.499 Q2113.35 291.332 2124.25 291.332 L2135.44 291.332 L2135.44 290.551 Q2135.44 285.039 2131.8 282.044 Q2128.2 279.006 2121.64 279.006 Q2117.48 279.006 2113.53 280.004 Q2109.58 281.002 2105.93 282.999 L2105.93 275.62 Q2110.31 273.928 2114.44 273.103 Q2118.56 272.235 2122.47 272.235 Q2133.01 272.235 2138.22 277.704 Q2143.43 283.172 2143.43 294.283 Z" fill="#000000" fill-rule="evenodd" fill-opacity="1" /><path clip-path="url(#clip560)" d="M2167.78 259.605 L2167.78 273.407 L2184.23 273.407 L2184.23 279.613 L2167.78 279.613 L2167.78 306.002 Q2167.78 311.948 2169.39 313.641 Q2171.03 315.334 2176.03 315.334 L2184.23 315.334 L2184.23 322.018 L2176.03 322.018 Q2166.78 322.018 2163.27 318.589 Q2159.75 315.117 2159.75 306.002 L2159.75 279.613 L2153.89 279.613 L2153.89 273.407 L2159.75 273.407 L2159.75 259.605 L2167.78 259.605 Z" fill="#000000" fill-rule="evenodd" fill-opacity="1" /><path clip-path="url(#clip560)" d="M2216.82 297.582 Q2207.15 297.582 2203.41 299.795 Q2199.68 302.009 2199.68 307.347 Q2199.68 311.601 2202.46 314.118 Q2205.28 316.592 2210.1 316.592 Q2216.74 316.592 2220.73 311.905 Q2224.77 307.174 2224.77 299.361 L2224.77 297.582 L2216.82 297.582 M2232.75 294.283 L2232.75 322.018 L2224.77 322.018 L2224.77 314.639 Q2222.03 319.066 2217.95 321.193 Q2213.87 323.276 2207.97 323.276 Q2200.51 323.276 2196.08 319.11 Q2191.69 314.9 2191.69 307.868 Q2191.69 299.665 2197.16 295.499 Q2202.68 291.332 2213.57 291.332 L2224.77 291.332 L2224.77 290.551 Q2224.77 285.039 2221.12 282.044 Q2217.52 279.006 2210.97 279.006 Q2206.8 279.006 2202.85 280.004 Q2198.9 281.002 2195.25 282.999 L2195.25 275.62 Q2199.64 273.928 2203.76 273.103 Q2207.88 272.235 2211.79 272.235 Q2222.34 272.235 2227.55 277.704 Q2232.75 283.172 2232.75 294.283 Z" fill="#000000" fill-rule="evenodd" fill-opacity="1" /></svg>
