<?xml version="1.0" encoding="utf-8"?>
<svg xmlns="http://www.w3.org/2000/svg" xmlns:xlink="http://www.w3.org/1999/xlink" width="600" height="400" viewBox="0 0 2400 1600">
<defs>
  <clipPath id="clip500">
    <rect x="0" y="0" width="2400" height="1600"/>
  </clipPath>
</defs>
<path clip-path="url(#clip500)" d="
M0 1600 L2400 1600 L2400 0 L0 0  Z
  " fill="#ffffff" fill-rule="evenodd" fill-opacity="1"/>
<defs>
  <clipPath id="clip501">
    <rect x="480" y="0" width="1681" height="1600"/>
  </clipPath>
</defs>
<path clip-path="url(#clip500)" d="
M192.709 1486.45 L2352.76 1486.45 L2352.76 123.472 L192.709 123.472  Z
  " fill="#ffffff" fill-rule="evenodd" fill-opacity="1"/>
<defs>
  <clipPath id="clip502">
    <rect x="192" y="123" width="2161" height="1364"/>
  </clipPath>
</defs>
<polyline clip-path="url(#clip502)" style="stroke:#000000; stroke-linecap:butt; stroke-linejoin:round; stroke-width:2; stroke-opacity:0.1; fill:none" points="
  253.843,1486.45 253.843,123.472 
  "/>
<polyline clip-path="url(#clip502)" style="stroke:#000000; stroke-linecap:butt; stroke-linejoin:round; stroke-width:2; stroke-opacity:0.1; fill:none" points="
  593.473,1486.45 593.473,123.472 
  "/>
<polyline clip-path="url(#clip502)" style="stroke:#000000; stroke-linecap:butt; stroke-linejoin:round; stroke-width:2; stroke-opacity:0.1; fill:none" points="
  933.103,1486.45 933.103,123.472 
  "/>
<polyline clip-path="url(#clip502)" style="stroke:#000000; stroke-linecap:butt; stroke-linejoin:round; stroke-width:2; stroke-opacity:0.1; fill:none" points="
  1272.73,1486.45 1272.73,123.472 
  "/>
<polyline clip-path="url(#clip502)" style="stroke:#000000; stroke-linecap:butt; stroke-linejoin:round; stroke-width:2; stroke-opacity:0.1; fill:none" points="
  1612.36,1486.45 1612.36,123.472 
  "/>
<polyline clip-path="url(#clip502)" style="stroke:#000000; stroke-linecap:butt; stroke-linejoin:round; stroke-width:2; stroke-opacity:0.1; fill:none" points="
  1951.99,1486.45 1951.99,123.472 
  "/>
<polyline clip-path="url(#clip502)" style="stroke:#000000; stroke-linecap:butt; stroke-linejoin:round; stroke-width:2; stroke-opacity:0.1; fill:none" points="
  2291.62,1486.45 2291.62,123.472 
  "/>
<polyline clip-path="url(#clip500)" style="stroke:#000000; stroke-linecap:butt; stroke-linejoin:round; stroke-width:4; stroke-opacity:1; fill:none" points="
  192.709,1486.45 2352.76,1486.45 
  "/>
<polyline clip-path="url(#clip500)" style="stroke:#000000; stroke-linecap:butt; stroke-linejoin:round; stroke-width:4; stroke-opacity:1; fill:none" points="
  253.843,1486.45 253.843,1467.55 
  "/>
<polyline clip-path="url(#clip500)" style="stroke:#000000; stroke-linecap:butt; stroke-linejoin:round; stroke-width:4; stroke-opacity:1; fill:none" points="
  593.473,1486.45 593.473,1467.55 
  "/>
<polyline clip-path="url(#clip500)" style="stroke:#000000; stroke-linecap:butt; stroke-linejoin:round; stroke-width:4; stroke-opacity:1; fill:none" points="
  933.103,1486.45 933.103,1467.55 
  "/>
<polyline clip-path="url(#clip500)" style="stroke:#000000; stroke-linecap:butt; stroke-linejoin:round; stroke-width:4; stroke-opacity:1; fill:none" points="
  1272.73,1486.45 1272.73,1467.55 
  "/>
<polyline clip-path="url(#clip500)" style="stroke:#000000; stroke-linecap:butt; stroke-linejoin:round; stroke-width:4; stroke-opacity:1; fill:none" points="
  1612.36,1486.45 1612.36,1467.55 
  "/>
<polyline clip-path="url(#clip500)" style="stroke:#000000; stroke-linecap:butt; stroke-linejoin:round; stroke-width:4; stroke-opacity:1; fill:none" points="
  1951.99,1486.45 1951.99,1467.55 
  "/>
<polyline clip-path="url(#clip500)" style="stroke:#000000; stroke-linecap:butt; stroke-linejoin:round; stroke-width:4; stroke-opacity:1; fill:none" points="
  2291.62,1486.45 2291.62,1467.55 
  "/>
<path clip-path="url(#clip500)" d="M223.31 1532.02 L252.986 1532.02 L252.986 1535.95 L223.31 1535.95 L223.31 1532.02 Z" fill="#000000" fill-rule="evenodd" fill-opacity="1" /><path clip-path="url(#clip500)" d="M277.245 1530.21 Q280.602 1530.93 282.477 1533.2 Q284.375 1535.47 284.375 1538.8 Q284.375 1543.92 280.856 1546.72 Q277.338 1549.52 270.856 1549.52 Q268.68 1549.52 266.366 1549.08 Q264.074 1548.66 261.62 1547.81 L261.62 1543.29 Q263.565 1544.43 265.88 1545.01 Q268.194 1545.58 270.717 1545.58 Q275.116 1545.58 277.407 1543.85 Q279.722 1542.11 279.722 1538.8 Q279.722 1535.75 277.569 1534.03 Q275.44 1532.3 271.62 1532.3 L267.592 1532.3 L267.592 1528.45 L271.805 1528.45 Q275.254 1528.45 277.083 1527.09 Q278.912 1525.7 278.912 1523.11 Q278.912 1520.45 277.014 1519.03 Q275.139 1517.6 271.62 1517.6 Q269.699 1517.6 267.5 1518.01 Q265.301 1518.43 262.662 1519.31 L262.662 1515.14 Q265.324 1514.4 267.639 1514.03 Q269.977 1513.66 272.037 1513.66 Q277.361 1513.66 280.463 1516.09 Q283.565 1518.5 283.565 1522.62 Q283.565 1525.49 281.921 1527.48 Q280.278 1529.45 277.245 1530.21 Z" fill="#000000" fill-rule="evenodd" fill-opacity="1" /><path clip-path="url(#clip500)" d="M563.415 1532.02 L593.091 1532.02 L593.091 1535.95 L563.415 1535.95 L563.415 1532.02 Z" fill="#000000" fill-rule="evenodd" fill-opacity="1" /><path clip-path="url(#clip500)" d="M607.211 1544.91 L623.53 1544.91 L623.53 1548.85 L601.586 1548.85 L601.586 1544.91 Q604.248 1542.16 608.831 1537.53 Q613.438 1532.88 614.618 1531.53 Q616.864 1529.01 617.743 1527.27 Q618.646 1525.51 618.646 1523.82 Q618.646 1521.07 616.702 1519.33 Q614.78 1517.6 611.678 1517.6 Q609.479 1517.6 607.026 1518.36 Q604.595 1519.13 601.817 1520.68 L601.817 1515.95 Q604.641 1514.82 607.095 1514.24 Q609.549 1513.66 611.586 1513.66 Q616.956 1513.66 620.151 1516.35 Q623.345 1519.03 623.345 1523.52 Q623.345 1525.65 622.535 1527.57 Q621.748 1529.47 619.641 1532.07 Q619.063 1532.74 615.961 1535.95 Q612.859 1539.15 607.211 1544.91 Z" fill="#000000" fill-rule="evenodd" fill-opacity="1" /><path clip-path="url(#clip500)" d="M902.86 1532.02 L932.535 1532.02 L932.535 1535.95 L902.86 1535.95 L902.86 1532.02 Z" fill="#000000" fill-rule="evenodd" fill-opacity="1" /><path clip-path="url(#clip500)" d="M943.438 1544.91 L951.077 1544.91 L951.077 1518.55 L942.767 1520.21 L942.767 1515.95 L951.031 1514.29 L955.707 1514.29 L955.707 1544.91 L963.345 1544.91 L963.345 1548.85 L943.438 1548.85 L943.438 1544.91 Z" fill="#000000" fill-rule="evenodd" fill-opacity="1" /><path clip-path="url(#clip500)" d="M1272.73 1517.37 Q1269.12 1517.37 1267.29 1520.93 Q1265.49 1524.47 1265.49 1531.6 Q1265.49 1538.71 1267.29 1542.27 Q1269.12 1545.82 1272.73 1545.82 Q1276.37 1545.82 1278.17 1542.27 Q1280 1538.71 1280 1531.6 Q1280 1524.47 1278.17 1520.93 Q1276.37 1517.37 1272.73 1517.37 M1272.73 1513.66 Q1278.54 1513.66 1281.6 1518.27 Q1284.68 1522.85 1284.68 1531.6 Q1284.68 1540.33 1281.6 1544.94 Q1278.54 1549.52 1272.73 1549.52 Q1266.92 1549.52 1263.84 1544.94 Q1260.79 1540.33 1260.79 1531.6 Q1260.79 1522.85 1263.84 1518.27 Q1266.92 1513.66 1272.73 1513.66 Z" fill="#000000" fill-rule="evenodd" fill-opacity="1" /><path clip-path="url(#clip500)" d="M1602.74 1544.91 L1610.38 1544.91 L1610.38 1518.55 L1602.07 1520.21 L1602.07 1515.95 L1610.34 1514.29 L1615.01 1514.29 L1615.01 1544.91 L1622.65 1544.91 L1622.65 1548.85 L1602.74 1548.85 L1602.74 1544.91 Z" fill="#000000" fill-rule="evenodd" fill-opacity="1" /><path clip-path="url(#clip500)" d="M1946.65 1544.91 L1962.96 1544.91 L1962.96 1548.85 L1941.02 1548.85 L1941.02 1544.91 Q1943.68 1542.16 1948.27 1537.53 Q1952.87 1532.88 1954.05 1531.53 Q1956.3 1529.01 1957.18 1527.27 Q1958.08 1525.51 1958.08 1523.82 Q1958.08 1521.07 1956.14 1519.33 Q1954.21 1517.6 1951.11 1517.6 Q1948.91 1517.6 1946.46 1518.36 Q1944.03 1519.13 1941.25 1520.68 L1941.25 1515.95 Q1944.08 1514.82 1946.53 1514.24 Q1948.98 1513.66 1951.02 1513.66 Q1956.39 1513.66 1959.59 1516.35 Q1962.78 1519.03 1962.78 1523.52 Q1962.78 1525.65 1961.97 1527.57 Q1961.18 1529.47 1959.08 1532.07 Q1958.5 1532.74 1955.4 1535.95 Q1952.29 1539.15 1946.65 1544.91 Z" fill="#000000" fill-rule="evenodd" fill-opacity="1" /><path clip-path="url(#clip500)" d="M2295.87 1530.21 Q2299.23 1530.93 2301.1 1533.2 Q2303 1535.47 2303 1538.8 Q2303 1543.92 2299.48 1546.72 Q2295.96 1549.52 2289.48 1549.52 Q2287.31 1549.52 2284.99 1549.08 Q2282.7 1548.66 2280.25 1547.81 L2280.25 1543.29 Q2282.19 1544.43 2284.5 1545.01 Q2286.82 1545.58 2289.34 1545.58 Q2293.74 1545.58 2296.03 1543.85 Q2298.35 1542.11 2298.35 1538.8 Q2298.35 1535.75 2296.19 1534.03 Q2294.06 1532.3 2290.25 1532.3 L2286.22 1532.3 L2286.22 1528.45 L2290.43 1528.45 Q2293.88 1528.45 2295.71 1527.09 Q2297.54 1525.7 2297.54 1523.11 Q2297.54 1520.45 2295.64 1519.03 Q2293.76 1517.6 2290.25 1517.6 Q2288.32 1517.6 2286.12 1518.01 Q2283.93 1518.43 2281.29 1519.31 L2281.29 1515.14 Q2283.95 1514.4 2286.26 1514.03 Q2288.6 1513.66 2290.66 1513.66 Q2295.99 1513.66 2299.09 1516.09 Q2302.19 1518.5 2302.19 1522.62 Q2302.19 1525.49 2300.55 1527.48 Q2298.9 1529.45 2295.87 1530.21 Z" fill="#000000" fill-rule="evenodd" fill-opacity="1" /><polyline clip-path="url(#clip502)" style="stroke:#000000; stroke-linecap:butt; stroke-linejoin:round; stroke-width:2; stroke-opacity:0.1; fill:none" points="
  192.709,1380.57 2352.76,1380.57 
  "/>
<polyline clip-path="url(#clip502)" style="stroke:#000000; stroke-linecap:butt; stroke-linejoin:round; stroke-width:2; stroke-opacity:0.1; fill:none" points="
  192.709,1175.79 2352.76,1175.79 
  "/>
<polyline clip-path="url(#clip502)" style="stroke:#000000; stroke-linecap:butt; stroke-linejoin:round; stroke-width:2; stroke-opacity:0.1; fill:none" points="
  192.709,971.007 2352.76,971.007 
  "/>
<polyline clip-path="url(#clip502)" style="stroke:#000000; stroke-linecap:butt; stroke-linejoin:round; stroke-width:2; stroke-opacity:0.1; fill:none" points="
  192.709,766.224 2352.76,766.224 
  "/>
<polyline clip-path="url(#clip502)" style="stroke:#000000; stroke-linecap:butt; stroke-linejoin:round; stroke-width:2; stroke-opacity:0.1; fill:none" points="
  192.709,561.441 2352.76,561.441 
  "/>
<polyline clip-path="url(#clip502)" style="stroke:#000000; stroke-linecap:butt; stroke-linejoin:round; stroke-width:2; stroke-opacity:0.1; fill:none" points="
  192.709,356.658 2352.76,356.658 
  "/>
<polyline clip-path="url(#clip502)" style="stroke:#000000; stroke-linecap:butt; stroke-linejoin:round; stroke-width:2; stroke-opacity:0.1; fill:none" points="
  192.709,151.875 2352.76,151.875 
  "/>
<polyline clip-path="url(#clip500)" style="stroke:#000000; stroke-linecap:butt; stroke-linejoin:round; stroke-width:4; stroke-opacity:1; fill:none" points="
  192.709,1486.45 192.709,123.472 
  "/>
<polyline clip-path="url(#clip500)" style="stroke:#000000; stroke-linecap:butt; stroke-linejoin:round; stroke-width:4; stroke-opacity:1; fill:none" points="
  192.709,1380.57 211.607,1380.57 
  "/>
<polyline clip-path="url(#clip500)" style="stroke:#000000; stroke-linecap:butt; stroke-linejoin:round; stroke-width:4; stroke-opacity:1; fill:none" points="
  192.709,1175.79 211.607,1175.79 
  "/>
<polyline clip-path="url(#clip500)" style="stroke:#000000; stroke-linecap:butt; stroke-linejoin:round; stroke-width:4; stroke-opacity:1; fill:none" points="
  192.709,971.007 211.607,971.007 
  "/>
<polyline clip-path="url(#clip500)" style="stroke:#000000; stroke-linecap:butt; stroke-linejoin:round; stroke-width:4; stroke-opacity:1; fill:none" points="
  192.709,766.224 211.607,766.224 
  "/>
<polyline clip-path="url(#clip500)" style="stroke:#000000; stroke-linecap:butt; stroke-linejoin:round; stroke-width:4; stroke-opacity:1; fill:none" points="
  192.709,561.441 211.607,561.441 
  "/>
<polyline clip-path="url(#clip500)" style="stroke:#000000; stroke-linecap:butt; stroke-linejoin:round; stroke-width:4; stroke-opacity:1; fill:none" points="
  192.709,356.658 211.607,356.658 
  "/>
<polyline clip-path="url(#clip500)" style="stroke:#000000; stroke-linecap:butt; stroke-linejoin:round; stroke-width:4; stroke-opacity:1; fill:none" points="
  192.709,151.875 211.607,151.875 
  "/>
<path clip-path="url(#clip500)" d="M51.3625 1381.03 L81.0383 1381.03 L81.0383 1384.96 L51.3625 1384.96 L51.3625 1381.03 Z" fill="#000000" fill-rule="evenodd" fill-opacity="1" /><path clip-path="url(#clip500)" d="M101.131 1366.37 Q97.5197 1366.37 95.691 1369.94 Q93.8854 1373.48 93.8854 1380.61 Q93.8854 1387.71 95.691 1391.28 Q97.5197 1394.82 101.131 1394.82 Q104.765 1394.82 106.571 1391.28 Q108.399 1387.71 108.399 1380.61 Q108.399 1373.48 106.571 1369.94 Q104.765 1366.37 101.131 1366.37 M101.131 1362.67 Q106.941 1362.67 109.996 1367.28 Q113.075 1371.86 113.075 1380.61 Q113.075 1389.34 109.996 1393.94 Q106.941 1398.52 101.131 1398.52 Q95.3206 1398.52 92.2419 1393.94 Q89.1864 1389.34 89.1864 1380.61 Q89.1864 1371.86 92.2419 1367.28 Q95.3206 1362.67 101.131 1362.67 Z" fill="#000000" fill-rule="evenodd" fill-opacity="1" /><path clip-path="url(#clip500)" d="M121.293 1391.97 L126.177 1391.97 L126.177 1397.85 L121.293 1397.85 L121.293 1391.97 Z" fill="#000000" fill-rule="evenodd" fill-opacity="1" /><path clip-path="url(#clip500)" d="M140.39 1393.92 L156.709 1393.92 L156.709 1397.85 L134.765 1397.85 L134.765 1393.92 Q137.427 1391.16 142.01 1386.53 Q146.617 1381.88 147.797 1380.54 Q150.043 1378.02 150.922 1376.28 Q151.825 1374.52 151.825 1372.83 Q151.825 1370.08 149.88 1368.34 Q147.959 1366.6 144.857 1366.6 Q142.658 1366.6 140.205 1367.37 Q137.774 1368.13 134.996 1369.68 L134.996 1364.96 Q137.82 1363.83 140.274 1363.25 Q142.728 1362.67 144.765 1362.67 Q150.135 1362.67 153.33 1365.35 Q156.524 1368.04 156.524 1372.53 Q156.524 1374.66 155.714 1376.58 Q154.927 1378.48 152.82 1381.07 Q152.242 1381.74 149.14 1384.96 Q146.038 1388.15 140.39 1393.92 Z" fill="#000000" fill-rule="evenodd" fill-opacity="1" /><path clip-path="url(#clip500)" d="M50.9921 1176.24 L80.6679 1176.24 L80.6679 1180.18 L50.9921 1180.18 L50.9921 1176.24 Z" fill="#000000" fill-rule="evenodd" fill-opacity="1" /><path clip-path="url(#clip500)" d="M100.76 1161.59 Q97.1493 1161.59 95.3206 1165.15 Q93.515 1168.7 93.515 1175.83 Q93.515 1182.93 95.3206 1186.5 Q97.1493 1190.04 100.76 1190.04 Q104.395 1190.04 106.2 1186.5 Q108.029 1182.93 108.029 1175.83 Q108.029 1168.7 106.2 1165.15 Q104.395 1161.59 100.76 1161.59 M100.76 1157.89 Q106.571 1157.89 109.626 1162.49 Q112.705 1167.08 112.705 1175.83 Q112.705 1184.55 109.626 1189.16 Q106.571 1193.74 100.76 1193.74 Q94.9502 1193.74 91.8715 1189.16 Q88.816 1184.55 88.816 1175.83 Q88.816 1167.08 91.8715 1162.49 Q94.9502 1157.89 100.76 1157.89 Z" fill="#000000" fill-rule="evenodd" fill-opacity="1" /><path clip-path="url(#clip500)" d="M120.922 1187.19 L125.807 1187.19 L125.807 1193.07 L120.922 1193.07 L120.922 1187.19 Z" fill="#000000" fill-rule="evenodd" fill-opacity="1" /><path clip-path="url(#clip500)" d="M136.802 1189.14 L144.441 1189.14 L144.441 1162.77 L136.131 1164.44 L136.131 1160.18 L144.394 1158.51 L149.07 1158.51 L149.07 1189.14 L156.709 1189.14 L156.709 1193.07 L136.802 1193.07 L136.802 1189.14 Z" fill="#000000" fill-rule="evenodd" fill-opacity="1" /><path clip-path="url(#clip500)" d="M99.5335 956.806 Q95.9224 956.806 94.0937 960.371 Q92.2882 963.912 92.2882 971.042 Q92.2882 978.149 94.0937 981.713 Q95.9224 985.255 99.5335 985.255 Q103.168 985.255 104.973 981.713 Q106.802 978.149 106.802 971.042 Q106.802 963.912 104.973 960.371 Q103.168 956.806 99.5335 956.806 M99.5335 953.102 Q105.344 953.102 108.399 957.709 Q111.478 962.292 111.478 971.042 Q111.478 979.769 108.399 984.375 Q105.344 988.959 99.5335 988.959 Q93.7234 988.959 90.6447 984.375 Q87.5892 979.769 87.5892 971.042 Q87.5892 962.292 90.6447 957.709 Q93.7234 953.102 99.5335 953.102 Z" fill="#000000" fill-rule="evenodd" fill-opacity="1" /><path clip-path="url(#clip500)" d="M119.695 982.408 L124.58 982.408 L124.58 988.287 L119.695 988.287 L119.695 982.408 Z" fill="#000000" fill-rule="evenodd" fill-opacity="1" /><path clip-path="url(#clip500)" d="M144.765 956.806 Q141.154 956.806 139.325 960.371 Q137.519 963.912 137.519 971.042 Q137.519 978.149 139.325 981.713 Q141.154 985.255 144.765 985.255 Q148.399 985.255 150.205 981.713 Q152.033 978.149 152.033 971.042 Q152.033 963.912 150.205 960.371 Q148.399 956.806 144.765 956.806 M144.765 953.102 Q150.575 953.102 153.63 957.709 Q156.709 962.292 156.709 971.042 Q156.709 979.769 153.63 984.375 Q150.575 988.959 144.765 988.959 Q138.955 988.959 135.876 984.375 Q132.82 979.769 132.82 971.042 Q132.82 962.292 135.876 957.709 Q138.955 953.102 144.765 953.102 Z" fill="#000000" fill-rule="evenodd" fill-opacity="1" /><path clip-path="url(#clip500)" d="M100.76 752.023 Q97.1493 752.023 95.3206 755.588 Q93.515 759.129 93.515 766.259 Q93.515 773.365 95.3206 776.93 Q97.1493 780.472 100.76 780.472 Q104.395 780.472 106.2 776.93 Q108.029 773.365 108.029 766.259 Q108.029 759.129 106.2 755.588 Q104.395 752.023 100.76 752.023 M100.76 748.319 Q106.571 748.319 109.626 752.926 Q112.705 757.509 112.705 766.259 Q112.705 774.986 109.626 779.592 Q106.571 784.175 100.76 784.175 Q94.9502 784.175 91.8715 779.592 Q88.816 774.986 88.816 766.259 Q88.816 757.509 91.8715 752.926 Q94.9502 748.319 100.76 748.319 Z" fill="#000000" fill-rule="evenodd" fill-opacity="1" /><path clip-path="url(#clip500)" d="M120.922 777.625 L125.807 777.625 L125.807 783.504 L120.922 783.504 L120.922 777.625 Z" fill="#000000" fill-rule="evenodd" fill-opacity="1" /><path clip-path="url(#clip500)" d="M136.802 779.569 L144.441 779.569 L144.441 753.203 L136.131 754.87 L136.131 750.611 L144.394 748.944 L149.07 748.944 L149.07 779.569 L156.709 779.569 L156.709 783.504 L136.802 783.504 L136.802 779.569 Z" fill="#000000" fill-rule="evenodd" fill-opacity="1" /><path clip-path="url(#clip500)" d="M101.131 547.24 Q97.5197 547.24 95.691 550.805 Q93.8854 554.346 93.8854 561.476 Q93.8854 568.582 95.691 572.147 Q97.5197 575.689 101.131 575.689 Q104.765 575.689 106.571 572.147 Q108.399 568.582 108.399 561.476 Q108.399 554.346 106.571 550.805 Q104.765 547.24 101.131 547.24 M101.131 543.536 Q106.941 543.536 109.996 548.142 Q113.075 552.726 113.075 561.476 Q113.075 570.203 109.996 574.809 Q106.941 579.392 101.131 579.392 Q95.3206 579.392 92.2419 574.809 Q89.1864 570.203 89.1864 561.476 Q89.1864 552.726 92.2419 548.142 Q95.3206 543.536 101.131 543.536 Z" fill="#000000" fill-rule="evenodd" fill-opacity="1" /><path clip-path="url(#clip500)" d="M121.293 572.841 L126.177 572.841 L126.177 578.721 L121.293 578.721 L121.293 572.841 Z" fill="#000000" fill-rule="evenodd" fill-opacity="1" /><path clip-path="url(#clip500)" d="M140.39 574.786 L156.709 574.786 L156.709 578.721 L134.765 578.721 L134.765 574.786 Q137.427 572.031 142.01 567.402 Q146.617 562.749 147.797 561.406 Q150.043 558.883 150.922 557.147 Q151.825 555.388 151.825 553.698 Q151.825 550.943 149.88 549.207 Q147.959 547.471 144.857 547.471 Q142.658 547.471 140.205 548.235 Q137.774 548.999 134.996 550.55 L134.996 545.828 Q137.82 544.693 140.274 544.115 Q142.728 543.536 144.765 543.536 Q150.135 543.536 153.33 546.221 Q156.524 548.906 156.524 553.397 Q156.524 555.527 155.714 557.448 Q154.927 559.346 152.82 561.939 Q152.242 562.61 149.14 565.828 Q146.038 569.022 140.39 574.786 Z" fill="#000000" fill-rule="evenodd" fill-opacity="1" /><path clip-path="url(#clip500)" d="M100.182 342.457 Q96.5706 342.457 94.7419 346.021 Q92.9363 349.563 92.9363 356.693 Q92.9363 363.799 94.7419 367.364 Q96.5706 370.905 100.182 370.905 Q103.816 370.905 105.621 367.364 Q107.45 363.799 107.45 356.693 Q107.45 349.563 105.621 346.021 Q103.816 342.457 100.182 342.457 M100.182 338.753 Q105.992 338.753 109.047 343.359 Q112.126 347.943 112.126 356.693 Q112.126 365.419 109.047 370.026 Q105.992 374.609 100.182 374.609 Q94.3715 374.609 91.2928 370.026 Q88.2373 365.419 88.2373 356.693 Q88.2373 347.943 91.2928 343.359 Q94.3715 338.753 100.182 338.753 Z" fill="#000000" fill-rule="evenodd" fill-opacity="1" /><path clip-path="url(#clip500)" d="M120.344 368.058 L125.228 368.058 L125.228 373.938 L120.344 373.938 L120.344 368.058 Z" fill="#000000" fill-rule="evenodd" fill-opacity="1" /><path clip-path="url(#clip500)" d="M149.58 355.304 Q152.936 356.021 154.811 358.29 Q156.709 360.558 156.709 363.892 Q156.709 369.007 153.191 371.808 Q149.672 374.609 143.191 374.609 Q141.015 374.609 138.7 374.169 Q136.408 373.753 133.955 372.896 L133.955 368.382 Q135.899 369.517 138.214 370.095 Q140.529 370.674 143.052 370.674 Q147.45 370.674 149.742 368.938 Q152.056 367.202 152.056 363.892 Q152.056 360.836 149.904 359.123 Q147.774 357.387 143.955 357.387 L139.927 357.387 L139.927 353.544 L144.14 353.544 Q147.589 353.544 149.418 352.179 Q151.246 350.79 151.246 348.197 Q151.246 345.535 149.348 344.123 Q147.473 342.688 143.955 342.688 Q142.033 342.688 139.834 343.105 Q137.635 343.521 134.996 344.401 L134.996 340.234 Q137.658 339.494 139.973 339.123 Q142.311 338.753 144.371 338.753 Q149.695 338.753 152.797 341.183 Q155.899 343.591 155.899 347.711 Q155.899 350.582 154.255 352.572 Q152.612 354.54 149.58 355.304 Z" fill="#000000" fill-rule="evenodd" fill-opacity="1" /><path clip-path="url(#clip500)" d="M99.0474 137.673 Q95.4363 137.673 93.6076 141.238 Q91.8021 144.78 91.8021 151.909 Q91.8021 159.016 93.6076 162.581 Q95.4363 166.122 99.0474 166.122 Q102.682 166.122 104.487 162.581 Q106.316 159.016 106.316 151.909 Q106.316 144.78 104.487 141.238 Q102.682 137.673 99.0474 137.673 M99.0474 133.97 Q104.858 133.97 107.913 138.576 Q110.992 143.159 110.992 151.909 Q110.992 160.636 107.913 165.243 Q104.858 169.826 99.0474 169.826 Q93.2373 169.826 90.1586 165.243 Q87.103 160.636 87.103 151.909 Q87.103 143.159 90.1586 138.576 Q93.2373 133.97 99.0474 133.97 Z" fill="#000000" fill-rule="evenodd" fill-opacity="1" /><path clip-path="url(#clip500)" d="M119.209 163.275 L124.094 163.275 L124.094 169.155 L119.209 169.155 L119.209 163.275 Z" fill="#000000" fill-rule="evenodd" fill-opacity="1" /><path clip-path="url(#clip500)" d="M147.126 138.669 L135.32 157.118 L147.126 157.118 L147.126 138.669 M145.899 134.595 L151.779 134.595 L151.779 157.118 L156.709 157.118 L156.709 161.007 L151.779 161.007 L151.779 169.155 L147.126 169.155 L147.126 161.007 L131.524 161.007 L131.524 156.493 L145.899 134.595 Z" fill="#000000" fill-rule="evenodd" fill-opacity="1" /><path clip-path="url(#clip500)" d="M665.461 12.096 L673.644 12.096 L673.644 65.6895 L703.094 65.6895 L703.094 72.576 L665.461 72.576 L665.461 12.096 Z" fill="#000000" fill-rule="evenodd" fill-opacity="1" /><path clip-path="url(#clip500)" d="M727.481 32.4315 Q721.485 32.4315 718.002 37.1306 Q714.518 41.7891 714.518 49.9314 Q714.518 58.0738 717.961 62.7728 Q721.445 67.4314 727.481 67.4314 Q733.436 67.4314 736.919 62.7323 Q740.403 58.0333 740.403 49.9314 Q740.403 41.8701 736.919 37.1711 Q733.436 32.4315 727.481 32.4315 M727.481 26.1121 Q737.203 26.1121 742.753 32.4315 Q748.302 38.7509 748.302 49.9314 Q748.302 61.0714 742.753 67.4314 Q737.203 73.7508 727.481 73.7508 Q717.718 73.7508 712.168 67.4314 Q706.659 61.0714 706.659 49.9314 Q706.659 38.7509 712.168 32.4315 Q717.718 26.1121 727.481 26.1121 Z" fill="#000000" fill-rule="evenodd" fill-opacity="1" /><path clip-path="url(#clip500)" d="M789.581 28.5427 L789.581 35.5912 Q786.421 33.9709 783.019 33.1607 Q779.616 32.3505 775.97 32.3505 Q770.42 32.3505 767.625 34.0519 Q764.871 35.7533 764.871 39.156 Q764.871 41.7486 766.856 43.2475 Q768.841 44.7058 774.836 46.0426 L777.388 46.6097 Q785.328 48.3111 788.649 51.4303 Q792.012 54.509 792.012 60.0587 Q792.012 66.3781 786.989 70.0644 Q782.006 73.7508 773.256 73.7508 Q769.61 73.7508 765.64 73.0216 Q761.711 72.3329 757.336 70.9151 L757.336 63.2184 Q761.468 65.3654 765.478 66.4591 Q769.489 67.5124 773.418 67.5124 Q778.684 67.5124 781.52 65.73 Q784.356 63.9071 784.356 60.6258 Q784.356 57.5877 782.29 55.9673 Q780.264 54.3469 773.337 52.8481 L770.744 52.2405 Q763.817 50.7821 760.739 47.7845 Q757.66 44.7463 757.66 39.4801 Q757.66 33.0797 762.197 29.5959 Q766.734 26.1121 775.079 26.1121 Q779.211 26.1121 782.857 26.7198 Q786.502 27.3274 789.581 28.5427 Z" fill="#000000" fill-rule="evenodd" fill-opacity="1" /><path clip-path="url(#clip500)" d="M832.804 28.5427 L832.804 35.5912 Q829.645 33.9709 826.242 33.1607 Q822.839 32.3505 819.193 32.3505 Q813.644 32.3505 810.848 34.0519 Q808.094 35.7533 808.094 39.156 Q808.094 41.7486 810.079 43.2475 Q812.064 44.7058 818.059 46.0426 L820.611 46.6097 Q828.551 48.3111 831.873 51.4303 Q835.235 54.509 835.235 60.0587 Q835.235 66.3781 830.212 70.0644 Q825.229 73.7508 816.479 73.7508 Q812.833 73.7508 808.863 73.0216 Q804.934 72.3329 800.559 70.9151 L800.559 63.2184 Q804.691 65.3654 808.701 66.4591 Q812.712 67.5124 816.641 67.5124 Q821.907 67.5124 824.743 65.73 Q827.579 63.9071 827.579 60.6258 Q827.579 57.5877 825.513 55.9673 Q823.487 54.3469 816.56 52.8481 L813.968 52.2405 Q807.041 50.7821 803.962 47.7845 Q800.883 44.7463 800.883 39.4801 Q800.883 33.0797 805.42 29.5959 Q809.957 26.1121 818.302 26.1121 Q822.434 26.1121 826.08 26.7198 Q829.726 27.3274 832.804 28.5427 Z" fill="#000000" fill-rule="evenodd" fill-opacity="1" /><path clip-path="url(#clip500)" d="M874.448 34.9026 L926.38 34.9026 L926.38 41.7081 L874.448 41.7081 L874.448 34.9026 M874.448 51.4303 L926.38 51.4303 L926.38 58.3168 L874.448 58.3168 L874.448 51.4303 Z" fill="#000000" fill-rule="evenodd" fill-opacity="1" /><path clip-path="url(#clip500)" d="M971.831 65.6895 L985.199 65.6895 L985.199 19.5497 L970.657 22.4663 L970.657 15.0127 L985.118 12.096 L993.301 12.096 L993.301 65.6895 L1006.67 65.6895 L1006.67 72.576 L971.831 72.576 L971.831 65.6895 Z" fill="#000000" fill-rule="evenodd" fill-opacity="1" /><path clip-path="url(#clip500)" d="M1040.7 43.8551 Q1034.86 43.8551 1031.5 46.9743 Q1028.18 50.0935 1028.18 55.5622 Q1028.18 61.0309 1031.5 64.1501 Q1034.86 67.2693 1040.7 67.2693 Q1046.53 67.2693 1049.89 64.1501 Q1053.25 60.9904 1053.25 55.5622 Q1053.25 50.0935 1049.89 46.9743 Q1046.57 43.8551 1040.7 43.8551 M1032.51 40.3713 Q1027.25 39.075 1024.29 35.4697 Q1021.37 31.8644 1021.37 26.6793 Q1021.37 19.4281 1026.52 15.2152 Q1031.7 11.0023 1040.7 11.0023 Q1049.73 11.0023 1054.87 15.2152 Q1060.02 19.4281 1060.02 26.6793 Q1060.02 31.8644 1057.06 35.4697 Q1054.15 39.075 1048.92 40.3713 Q1054.83 41.7486 1058.12 45.759 Q1061.44 49.7694 1061.44 55.5622 Q1061.44 64.3527 1056.05 69.0517 Q1050.7 73.7508 1040.7 73.7508 Q1030.69 73.7508 1025.3 69.0517 Q1019.96 64.3527 1019.96 55.5622 Q1019.96 49.7694 1023.28 45.759 Q1026.6 41.7486 1032.51 40.3713 M1029.52 27.4489 Q1029.52 32.148 1032.43 34.7811 Q1035.39 37.4142 1040.7 37.4142 Q1045.96 37.4142 1048.92 34.7811 Q1051.92 32.148 1051.92 27.4489 Q1051.92 22.7499 1048.92 20.1168 Q1045.96 17.4837 1040.7 17.4837 Q1035.39 17.4837 1032.43 20.1168 Q1029.52 22.7499 1029.52 27.4489 Z" fill="#000000" fill-rule="evenodd" fill-opacity="1" /><path clip-path="url(#clip500)" d="M1077.4 65.6895 L1090.77 65.6895 L1090.77 19.5497 L1076.22 22.4663 L1076.22 15.0127 L1090.68 12.096 L1098.87 12.096 L1098.87 65.6895 L1112.24 65.6895 L1112.24 72.576 L1077.4 72.576 L1077.4 65.6895 Z" fill="#000000" fill-rule="evenodd" fill-opacity="1" /><path clip-path="url(#clip500)" d="M1129.01 71.3202 L1129.01 63.8666 Q1132.09 65.3249 1135.24 66.0946 Q1138.4 66.8642 1141.44 66.8642 Q1149.54 66.8642 1153.8 61.436 Q1158.09 55.9673 1158.7 44.8678 Q1156.35 48.3516 1152.74 50.215 Q1149.14 52.0784 1144.76 52.0784 Q1135.69 52.0784 1130.38 46.6097 Q1125.12 41.1005 1125.12 31.5808 Q1125.12 22.2638 1130.63 16.633 Q1136.14 11.0023 1145.29 11.0023 Q1155.78 11.0023 1161.29 19.0636 Q1166.84 27.0843 1166.84 42.3968 Q1166.84 56.6965 1160.04 65.2439 Q1153.27 73.7508 1141.81 73.7508 Q1138.73 73.7508 1135.57 73.1431 Q1132.41 72.5355 1129.01 71.3202 M1145.29 45.678 Q1150.8 45.678 1154 41.9107 Q1157.24 38.1433 1157.24 31.5808 Q1157.24 25.0589 1154 21.2916 Q1150.8 17.4837 1145.29 17.4837 Q1139.78 17.4837 1136.54 21.2916 Q1133.34 25.0589 1133.34 31.5808 Q1133.34 38.1433 1136.54 41.9107 Q1139.78 45.678 1145.29 45.678 Z" fill="#000000" fill-rule="evenodd" fill-opacity="1" /><path clip-path="url(#clip500)" d="M1181.55 62.2867 L1190.09 62.2867 L1190.09 72.576 L1181.55 72.576 L1181.55 62.2867 Z" fill="#000000" fill-rule="evenodd" fill-opacity="1" /><path clip-path="url(#clip500)" d="M1230.4 19.2256 L1209.74 51.5113 L1230.4 51.5113 L1230.4 19.2256 M1228.25 12.096 L1238.54 12.096 L1238.54 51.5113 L1247.17 51.5113 L1247.17 58.3168 L1238.54 58.3168 L1238.54 72.576 L1230.4 72.576 L1230.4 58.3168 L1203.1 58.3168 L1203.1 50.4176 L1228.25 12.096 Z" fill="#000000" fill-rule="evenodd" fill-opacity="1" /><path clip-path="url(#clip500)" d="M1262.12 65.6895 L1275.49 65.6895 L1275.49 19.5497 L1260.94 22.4663 L1260.94 15.0127 L1275.41 12.096 L1283.59 12.096 L1283.59 65.6895 L1296.96 65.6895 L1296.96 72.576 L1262.12 72.576 L1262.12 65.6895 Z" fill="#000000" fill-rule="evenodd" fill-opacity="1" /><path clip-path="url(#clip500)" d="M1313.73 71.3202 L1313.73 63.8666 Q1316.81 65.3249 1319.97 66.0946 Q1323.13 66.8642 1326.16 66.8642 Q1334.27 66.8642 1338.52 61.436 Q1342.81 55.9673 1343.42 44.8678 Q1341.07 48.3516 1337.47 50.215 Q1333.86 52.0784 1329.49 52.0784 Q1320.41 52.0784 1315.1 46.6097 Q1309.84 41.1005 1309.84 31.5808 Q1309.84 22.2638 1315.35 16.633 Q1320.86 11.0023 1330.01 11.0023 Q1340.5 11.0023 1346.01 19.0636 Q1351.56 27.0843 1351.56 42.3968 Q1351.56 56.6965 1344.76 65.2439 Q1337.99 73.7508 1326.53 73.7508 Q1323.45 73.7508 1320.29 73.1431 Q1317.13 72.5355 1313.73 71.3202 M1330.01 45.678 Q1335.52 45.678 1338.72 41.9107 Q1341.96 38.1433 1341.96 31.5808 Q1341.96 25.0589 1338.72 21.2916 Q1335.52 17.4837 1330.01 17.4837 Q1324.5 17.4837 1321.26 21.2916 Q1318.06 25.0589 1318.06 31.5808 Q1318.06 38.1433 1321.26 41.9107 Q1324.5 45.678 1330.01 45.678 Z" fill="#000000" fill-rule="evenodd" fill-opacity="1" /><path clip-path="url(#clip500)" d="M1388.75 19.2256 L1368.09 51.5113 L1388.75 51.5113 L1388.75 19.2256 M1386.6 12.096 L1396.89 12.096 L1396.89 51.5113 L1405.52 51.5113 L1405.52 58.3168 L1396.89 58.3168 L1396.89 72.576 L1388.75 72.576 L1388.75 58.3168 L1361.45 58.3168 L1361.45 50.4176 L1386.6 12.096 Z" fill="#000000" fill-rule="evenodd" fill-opacity="1" /><path clip-path="url(#clip500)" d="M1441.53 19.2256 L1420.87 51.5113 L1441.53 51.5113 L1441.53 19.2256 M1439.39 12.096 L1449.68 12.096 L1449.68 51.5113 L1458.3 51.5113 L1458.3 58.3168 L1449.68 58.3168 L1449.68 72.576 L1441.53 72.576 L1441.53 58.3168 L1414.23 58.3168 L1414.23 50.4176 L1439.39 12.096 Z" fill="#000000" fill-rule="evenodd" fill-opacity="1" /><path clip-path="url(#clip500)" d="M1469.77 12.096 L1508.66 12.096 L1508.66 15.5798 L1486.7 72.576 L1478.15 72.576 L1498.81 18.9825 L1469.77 18.9825 L1469.77 12.096 Z" fill="#000000" fill-rule="evenodd" fill-opacity="1" /><path clip-path="url(#clip500)" d="M1547.1 19.2256 L1526.44 51.5113 L1547.1 51.5113 L1547.1 19.2256 M1544.95 12.096 L1555.24 12.096 L1555.24 51.5113 L1563.87 51.5113 L1563.87 58.3168 L1555.24 58.3168 L1555.24 72.576 L1547.1 72.576 L1547.1 58.3168 L1519.8 58.3168 L1519.8 50.4176 L1544.95 12.096 Z" fill="#000000" fill-rule="evenodd" fill-opacity="1" /><path clip-path="url(#clip500)" d="M1577.48 12.096 L1609.61 12.096 L1609.61 18.9825 L1584.98 18.9825 L1584.98 33.8088 Q1586.76 33.2012 1588.54 32.9176 Q1590.32 32.5936 1592.11 32.5936 Q1602.23 32.5936 1608.15 38.1433 Q1614.06 43.6931 1614.06 53.1722 Q1614.06 62.9348 1607.99 68.3631 Q1601.91 73.7508 1590.85 73.7508 Q1587.04 73.7508 1583.07 73.1026 Q1579.14 72.4545 1574.93 71.1582 L1574.93 62.9348 Q1578.58 64.9198 1582.46 65.892 Q1586.35 66.8642 1590.69 66.8642 Q1597.7 66.8642 1601.79 63.1779 Q1605.88 59.4916 1605.88 53.1722 Q1605.88 46.8528 1601.79 43.1664 Q1597.7 39.4801 1590.69 39.4801 Q1587.41 39.4801 1584.13 40.2093 Q1580.88 40.9384 1577.48 42.4778 L1577.48 12.096 Z" fill="#000000" fill-rule="evenodd" fill-opacity="1" /><path clip-path="url(#clip500)" d="M1647.68 17.4837 Q1641.36 17.4837 1638.16 23.7221 Q1635 29.92 1635 42.3968 Q1635 54.833 1638.16 61.0714 Q1641.36 67.2693 1647.68 67.2693 Q1654.04 67.2693 1657.2 61.0714 Q1660.4 54.833 1660.4 42.3968 Q1660.4 29.92 1657.2 23.7221 Q1654.04 17.4837 1647.68 17.4837 M1647.68 11.0023 Q1657.85 11.0023 1663.2 19.0636 Q1668.59 27.0843 1668.59 42.3968 Q1668.59 57.6687 1663.2 65.73 Q1657.85 73.7508 1647.68 73.7508 Q1637.52 73.7508 1632.13 65.73 Q1626.78 57.6687 1626.78 42.3968 Q1626.78 27.0843 1632.13 19.0636 Q1637.52 11.0023 1647.68 11.0023 Z" fill="#000000" fill-rule="evenodd" fill-opacity="1" /><path clip-path="url(#clip500)" d="M1705.45 19.2256 L1684.79 51.5113 L1705.45 51.5113 L1705.45 19.2256 M1703.3 12.096 L1713.59 12.096 L1713.59 51.5113 L1722.22 51.5113 L1722.22 58.3168 L1713.59 58.3168 L1713.59 72.576 L1705.45 72.576 L1705.45 58.3168 L1678.15 58.3168 L1678.15 50.4176 L1703.3 12.096 Z" fill="#000000" fill-rule="evenodd" fill-opacity="1" /><path clip-path="url(#clip500)" d="M1760.54 39.9662 Q1766.42 41.222 1769.7 45.1919 Q1773.02 49.1618 1773.02 54.9951 Q1773.02 63.9476 1766.86 68.8492 Q1760.7 73.7508 1749.36 73.7508 Q1745.55 73.7508 1741.5 72.9811 Q1737.49 72.2519 1733.2 70.7531 L1733.2 62.8538 Q1736.6 64.8388 1740.65 65.8515 Q1744.7 66.8642 1749.12 66.8642 Q1756.82 66.8642 1760.83 63.826 Q1764.88 60.7879 1764.88 54.9951 Q1764.88 49.6479 1761.11 46.6502 Q1757.38 43.612 1750.7 43.612 L1743.65 43.612 L1743.65 36.8875 L1751.02 36.8875 Q1757.06 36.8875 1760.26 34.4975 Q1763.46 32.067 1763.46 27.5299 Q1763.46 22.8714 1760.14 20.4004 Q1756.86 17.8888 1750.7 17.8888 Q1747.34 17.8888 1743.49 18.618 Q1739.64 19.3471 1735.02 20.8865 L1735.02 13.5948 Q1739.68 12.2985 1743.73 11.6504 Q1747.82 11.0023 1751.43 11.0023 Q1760.74 11.0023 1766.17 15.2557 Q1771.6 19.4686 1771.6 26.6793 Q1771.6 31.7024 1768.73 35.1862 Q1765.85 38.6294 1760.54 39.9662 Z" fill="#000000" fill-rule="evenodd" fill-opacity="1" /><path clip-path="url(#clip500)" d="M1813.33 39.9662 Q1819.2 41.222 1822.48 45.1919 Q1825.8 49.1618 1825.8 54.9951 Q1825.8 63.9476 1819.65 68.8492 Q1813.49 73.7508 1802.15 73.7508 Q1798.34 73.7508 1794.29 72.9811 Q1790.28 72.2519 1785.98 70.7531 L1785.98 62.8538 Q1789.38 64.8388 1793.44 65.8515 Q1797.49 66.8642 1801.9 66.8642 Q1809.6 66.8642 1813.61 63.826 Q1817.66 60.7879 1817.66 54.9951 Q1817.66 49.6479 1813.89 46.6502 Q1810.17 43.612 1803.48 43.612 L1796.43 43.612 L1796.43 36.8875 L1803.81 36.8875 Q1809.84 36.8875 1813.04 34.4975 Q1816.24 32.067 1816.24 27.5299 Q1816.24 22.8714 1812.92 20.4004 Q1809.64 17.8888 1803.48 17.8888 Q1800.12 17.8888 1796.27 18.618 Q1792.42 19.3471 1787.81 20.8865 L1787.81 13.5948 Q1792.46 12.2985 1796.51 11.6504 Q1800.61 11.0023 1804.21 11.0023 Q1813.53 11.0023 1818.96 15.2557 Q1824.38 19.4686 1824.38 26.6793 Q1824.38 31.7024 1821.51 35.1862 Q1818.63 38.6294 1813.33 39.9662 Z" fill="#000000" fill-rule="evenodd" fill-opacity="1" /><path clip-path="url(#clip500)" d="M1859.83 39.075 Q1854.32 39.075 1851.08 42.8424 Q1847.88 46.6097 1847.88 53.1722 Q1847.88 59.6941 1851.08 63.502 Q1854.32 67.2693 1859.83 67.2693 Q1865.34 67.2693 1868.54 63.502 Q1871.78 59.6941 1871.78 53.1722 Q1871.78 46.6097 1868.54 42.8424 Q1865.34 39.075 1859.83 39.075 M1876.07 13.4328 L1876.07 20.8865 Q1873 19.4281 1869.84 18.6585 Q1866.72 17.8888 1863.64 17.8888 Q1855.54 17.8888 1851.24 23.3575 Q1846.99 28.8262 1846.38 39.8852 Q1848.77 36.3609 1852.38 34.4975 Q1855.98 32.5936 1860.32 32.5936 Q1869.43 32.5936 1874.7 38.1433 Q1880 43.6525 1880 53.1722 Q1880 62.4892 1874.49 68.12 Q1868.99 73.7508 1859.83 73.7508 Q1849.34 73.7508 1843.79 65.73 Q1838.24 57.6687 1838.24 42.3968 Q1838.24 28.0566 1845.04 19.5497 Q1851.85 11.0023 1863.31 11.0023 Q1866.39 11.0023 1869.51 11.6099 Q1872.67 12.2175 1876.07 13.4328 Z" fill="#000000" fill-rule="evenodd" fill-opacity="1" /><polyline clip-path="url(#clip502)" style="stroke:#009af9; stroke-linecap:butt; stroke-linejoin:round; stroke-width:12; stroke-opacity:1; fill:none" points="
  253.843,971.007 264.083,993.86 274.323,986.749 284.563,944.532 294.803,972.384 305.043,994.105 315.283,936.853 325.523,1008.16 335.763,932.099 346.003,1012.97 
  356.244,927.255 366.484,1007.6 376.724,959.491 386.964,941.874 397.204,1027.71 407.444,940.982 417.684,930.128 427.924,1031.46 438.164,994.996 448.404,899.213 
  458.645,939.329 468.885,1042.04 479.125,1037.57 489.365,934.304 499.605,870.807 509.845,920.563 520.085,1027.18 530.325,1088.57 540.565,1055.66 550.805,957.53 
  561.046,862.348 571.286,825.805 581.526,863.577 591.766,953.678 602.006,1055.7 612.246,1131.48 622.486,1158.02 632.726,1130.9 642.966,1060.76 653.206,966.627 
  663.447,869.36 673.687,786.806 683.927,731.212 694.167,708.583 704.407,719.375 714.647,759.866 724.887,823.721 735.127,903.409 745.367,991.316 755.607,1080.52 
  765.848,1165.25 776.088,1241.04 786.328,1304.78 796.568,1354.59 806.808,1389.61 817.048,1409.82 827.288,1415.84 837.528,1408.74 847.768,1389.85 858.008,1360.68 
  868.249,1322.79 878.489,1277.7 888.729,1226.89 898.969,1171.71 909.209,1113.39 919.449,1053.03 929.689,991.584 939.929,929.88 950.169,868.621 960.409,808.4 
  970.65,749.707 980.89,692.945 991.13,638.44 1001.37,586.454 1011.61,537.194 1021.85,490.824 1032.09,447.476 1042.33,407.252 1052.57,370.238 1062.81,336.512 
  1073.05,306.143 1083.29,279.208 1093.53,255.79 1103.77,235.99 1114.01,219.935 1124.25,207.781 1134.49,199.73 1144.73,196.036 1154.97,197.025 1165.21,203.113 
  1175.45,214.833 1185.69,232.869 1195.93,258.112 1206.17,291.736 1216.41,335.312 1226.65,391.006 1236.89,461.917 1247.13,552.785 1257.37,671.787 1267.61,838.151 
  1277.85,838.151 1288.09,671.787 1298.33,552.785 1308.57,461.917 1318.81,391.006 1329.05,335.312 1339.29,291.736 1349.53,258.112 1359.77,232.869 1370.01,214.833 
  1380.25,203.113 1390.49,197.025 1400.73,196.036 1410.97,199.73 1421.21,207.781 1431.45,219.935 1441.69,235.99 1451.93,255.79 1462.17,279.208 1472.41,306.143 
  1482.65,336.512 1492.89,370.238 1503.13,407.252 1513.37,447.476 1523.61,490.824 1533.86,537.194 1544.1,586.454 1554.34,638.44 1564.58,692.945 1574.82,749.707 
  1585.06,808.4 1595.3,868.621 1605.54,929.88 1615.78,991.584 1626.02,1053.03 1636.26,1113.39 1646.5,1171.71 1656.74,1226.89 1666.98,1277.7 1677.22,1322.79 
  1687.46,1360.68 1697.7,1389.85 1707.94,1408.74 1718.18,1415.84 1728.42,1409.82 1738.66,1389.61 1748.9,1354.59 1759.14,1304.78 1769.38,1241.04 1779.62,1165.25 
  1789.86,1080.52 1800.1,991.316 1810.34,903.409 1820.58,823.721 1830.82,759.866 1841.06,719.375 1851.3,708.583 1861.54,731.212 1871.78,786.806 1882.02,869.36 
  1892.26,966.627 1902.5,1060.76 1912.74,1130.9 1922.98,1158.02 1933.22,1131.48 1943.46,1055.7 1953.7,953.678 1963.94,863.577 1974.18,825.805 1984.42,862.348 
  1994.66,957.53 2004.9,1055.66 2015.14,1088.57 2025.38,1027.18 2035.62,920.563 2045.86,870.807 2056.1,934.304 2066.34,1037.57 2076.58,1042.04 2086.82,939.329 
  2097.06,899.213 2107.3,994.996 2117.54,1031.46 2127.78,930.128 2138.02,940.982 2148.26,1027.71 2158.5,941.874 2168.74,959.491 2178.98,1007.6 2189.22,927.255 
  2199.46,1012.97 2209.7,932.099 2219.94,1008.16 2230.18,936.853 2240.42,994.105 2250.66,972.384 2260.9,944.532 2271.14,986.749 2281.38,993.86 2291.62,971.007 
  
  "/>
<circle clip-path="url(#clip502)" cx="2100.35" cy="937.146" r="14" fill="#e26f46" fill-rule="evenodd" fill-opacity="1" stroke="#000000" stroke-opacity="1" stroke-width="3.2"/>
<circle clip-path="url(#clip502)" cx="1162.95" cy="181.518" r="14" fill="#e26f46" fill-rule="evenodd" fill-opacity="1" stroke="#000000" stroke-opacity="1" stroke-width="3.2"/>
<circle clip-path="url(#clip502)" cx="885.265" cy="1252.88" r="14" fill="#e26f46" fill-rule="evenodd" fill-opacity="1" stroke="#000000" stroke-opacity="1" stroke-width="3.2"/>
<circle clip-path="url(#clip502)" cx="1796.56" cy="1004.91" r="14" fill="#e26f46" fill-rule="evenodd" fill-opacity="1" stroke="#000000" stroke-opacity="1" stroke-width="3.2"/>
<circle clip-path="url(#clip502)" cx="1926.75" cy="1161.46" r="14" fill="#e26f46" fill-rule="evenodd" fill-opacity="1" stroke="#000000" stroke-opacity="1" stroke-width="3.2"/>
<circle clip-path="url(#clip502)" cx="1097.26" cy="219.537" r="14" fill="#e26f46" fill-rule="evenodd" fill-opacity="1" stroke="#000000" stroke-opacity="1" stroke-width="3.2"/>
<circle clip-path="url(#clip502)" cx="1725.51" cy="1447.87" r="14" fill="#e26f46" fill-rule="evenodd" fill-opacity="1" stroke="#000000" stroke-opacity="1" stroke-width="3.2"/>
<circle clip-path="url(#clip502)" cx="1530.1" cy="500.113" r="14" fill="#e26f46" fill-rule="evenodd" fill-opacity="1" stroke="#000000" stroke-opacity="1" stroke-width="3.2"/>
<circle clip-path="url(#clip502)" cx="1828.46" cy="766.345" r="14" fill="#e26f46" fill-rule="evenodd" fill-opacity="1" stroke="#000000" stroke-opacity="1" stroke-width="3.2"/>
<circle clip-path="url(#clip502)" cx="1975.8" cy="835.117" r="14" fill="#e26f46" fill-rule="evenodd" fill-opacity="1" stroke="#000000" stroke-opacity="1" stroke-width="3.2"/>
<circle clip-path="url(#clip502)" cx="641.532" cy="1089.19" r="14" fill="#e26f46" fill-rule="evenodd" fill-opacity="1" stroke="#000000" stroke-opacity="1" stroke-width="3.2"/>
<circle clip-path="url(#clip502)" cx="1858.99" cy="719.741" r="14" fill="#e26f46" fill-rule="evenodd" fill-opacity="1" stroke="#000000" stroke-opacity="1" stroke-width="3.2"/>
<circle clip-path="url(#clip502)" cx="528.138" cy="1077.75" r="14" fill="#e26f46" fill-rule="evenodd" fill-opacity="1" stroke="#000000" stroke-opacity="1" stroke-width="3.2"/>
<circle clip-path="url(#clip502)" cx="1267.3" cy="830.81" r="14" fill="#e26f46" fill-rule="evenodd" fill-opacity="1" stroke="#000000" stroke-opacity="1" stroke-width="3.2"/>
<circle clip-path="url(#clip502)" cx="1966.48" cy="838.473" r="14" fill="#e26f46" fill-rule="evenodd" fill-opacity="1" stroke="#000000" stroke-opacity="1" stroke-width="3.2"/>
<circle clip-path="url(#clip502)" cx="1959.7" cy="901.031" r="14" fill="#e26f46" fill-rule="evenodd" fill-opacity="1" stroke="#000000" stroke-opacity="1" stroke-width="3.2"/>
<circle clip-path="url(#clip502)" cx="722.058" cy="815.985" r="14" fill="#e26f46" fill-rule="evenodd" fill-opacity="1" stroke="#000000" stroke-opacity="1" stroke-width="3.2"/>
<circle clip-path="url(#clip502)" cx="294.514" cy="987.66" r="14" fill="#e26f46" fill-rule="evenodd" fill-opacity="1" stroke="#000000" stroke-opacity="1" stroke-width="3.2"/>
<circle clip-path="url(#clip502)" cx="1795.42" cy="1000.29" r="14" fill="#e26f46" fill-rule="evenodd" fill-opacity="1" stroke="#000000" stroke-opacity="1" stroke-width="3.2"/>
<circle clip-path="url(#clip502)" cx="775.851" cy="1241.26" r="14" fill="#e26f46" fill-rule="evenodd" fill-opacity="1" stroke="#000000" stroke-opacity="1" stroke-width="3.2"/>
<circle clip-path="url(#clip502)" cx="2154.66" cy="970.434" r="14" fill="#e26f46" fill-rule="evenodd" fill-opacity="1" stroke="#000000" stroke-opacity="1" stroke-width="3.2"/>
<circle clip-path="url(#clip502)" cx="1441.83" cy="241.147" r="14" fill="#e26f46" fill-rule="evenodd" fill-opacity="1" stroke="#000000" stroke-opacity="1" stroke-width="3.2"/>
<circle clip-path="url(#clip502)" cx="2164.79" cy="937.227" r="14" fill="#e26f46" fill-rule="evenodd" fill-opacity="1" stroke="#000000" stroke-opacity="1" stroke-width="3.2"/>
<circle clip-path="url(#clip502)" cx="393.914" cy="1001.15" r="14" fill="#e26f46" fill-rule="evenodd" fill-opacity="1" stroke="#000000" stroke-opacity="1" stroke-width="3.2"/>
<circle clip-path="url(#clip502)" cx="1184.35" cy="232.331" r="14" fill="#e26f46" fill-rule="evenodd" fill-opacity="1" stroke="#000000" stroke-opacity="1" stroke-width="3.2"/>
<circle clip-path="url(#clip502)" cx="710.599" cy="760.345" r="14" fill="#e26f46" fill-rule="evenodd" fill-opacity="1" stroke="#000000" stroke-opacity="1" stroke-width="3.2"/>
<circle clip-path="url(#clip502)" cx="369.604" cy="973.161" r="14" fill="#e26f46" fill-rule="evenodd" fill-opacity="1" stroke="#000000" stroke-opacity="1" stroke-width="3.2"/>
<circle clip-path="url(#clip502)" cx="1543.91" cy="584.208" r="14" fill="#e26f46" fill-rule="evenodd" fill-opacity="1" stroke="#000000" stroke-opacity="1" stroke-width="3.2"/>
<circle clip-path="url(#clip502)" cx="1169.23" cy="195.347" r="14" fill="#e26f46" fill-rule="evenodd" fill-opacity="1" stroke="#000000" stroke-opacity="1" stroke-width="3.2"/>
<circle clip-path="url(#clip502)" cx="1669.44" cy="1283.6" r="14" fill="#e26f46" fill-rule="evenodd" fill-opacity="1" stroke="#000000" stroke-opacity="1" stroke-width="3.2"/>
<circle clip-path="url(#clip502)" cx="315.076" cy="925.91" r="14" fill="#e26f46" fill-rule="evenodd" fill-opacity="1" stroke="#000000" stroke-opacity="1" stroke-width="3.2"/>
<circle clip-path="url(#clip502)" cx="266.3" cy="954.1" r="14" fill="#e26f46" fill-rule="evenodd" fill-opacity="1" stroke="#000000" stroke-opacity="1" stroke-width="3.2"/>
<circle clip-path="url(#clip502)" cx="362.019" cy="1018.37" r="14" fill="#e26f46" fill-rule="evenodd" fill-opacity="1" stroke="#000000" stroke-opacity="1" stroke-width="3.2"/>
<circle clip-path="url(#clip502)" cx="1930.05" cy="1166.13" r="14" fill="#e26f46" fill-rule="evenodd" fill-opacity="1" stroke="#000000" stroke-opacity="1" stroke-width="3.2"/>
<circle clip-path="url(#clip502)" cx="1656.01" cy="1201.23" r="14" fill="#e26f46" fill-rule="evenodd" fill-opacity="1" stroke="#000000" stroke-opacity="1" stroke-width="3.2"/>
<circle clip-path="url(#clip502)" cx="1852.91" cy="706.588" r="14" fill="#e26f46" fill-rule="evenodd" fill-opacity="1" stroke="#000000" stroke-opacity="1" stroke-width="3.2"/>
<circle clip-path="url(#clip502)" cx="296.114" cy="950.103" r="14" fill="#e26f46" fill-rule="evenodd" fill-opacity="1" stroke="#000000" stroke-opacity="1" stroke-width="3.2"/>
<circle clip-path="url(#clip502)" cx="1450.07" cy="259.201" r="14" fill="#e26f46" fill-rule="evenodd" fill-opacity="1" stroke="#000000" stroke-opacity="1" stroke-width="3.2"/>
<circle clip-path="url(#clip502)" cx="669.314" cy="842.574" r="14" fill="#e26f46" fill-rule="evenodd" fill-opacity="1" stroke="#000000" stroke-opacity="1" stroke-width="3.2"/>
<circle clip-path="url(#clip502)" cx="1084.19" cy="270.585" r="14" fill="#e26f46" fill-rule="evenodd" fill-opacity="1" stroke="#000000" stroke-opacity="1" stroke-width="3.2"/>
<circle clip-path="url(#clip502)" cx="1762.13" cy="1306.02" r="14" fill="#e26f46" fill-rule="evenodd" fill-opacity="1" stroke="#000000" stroke-opacity="1" stroke-width="3.2"/>
<circle clip-path="url(#clip502)" cx="2255.36" cy="1018.93" r="14" fill="#e26f46" fill-rule="evenodd" fill-opacity="1" stroke="#000000" stroke-opacity="1" stroke-width="3.2"/>
<circle clip-path="url(#clip502)" cx="1569.67" cy="714.028" r="14" fill="#e26f46" fill-rule="evenodd" fill-opacity="1" stroke="#000000" stroke-opacity="1" stroke-width="3.2"/>
<circle clip-path="url(#clip502)" cx="774.437" cy="1229.29" r="14" fill="#e26f46" fill-rule="evenodd" fill-opacity="1" stroke="#000000" stroke-opacity="1" stroke-width="3.2"/>
<circle clip-path="url(#clip502)" cx="955.466" cy="853.366" r="14" fill="#e26f46" fill-rule="evenodd" fill-opacity="1" stroke="#000000" stroke-opacity="1" stroke-width="3.2"/>
<circle clip-path="url(#clip502)" cx="1697.27" cy="1392.25" r="14" fill="#e26f46" fill-rule="evenodd" fill-opacity="1" stroke="#000000" stroke-opacity="1" stroke-width="3.2"/>
<circle clip-path="url(#clip502)" cx="1335.24" cy="329.429" r="14" fill="#e26f46" fill-rule="evenodd" fill-opacity="1" stroke="#000000" stroke-opacity="1" stroke-width="3.2"/>
<circle clip-path="url(#clip502)" cx="880.315" cy="1271.76" r="14" fill="#e26f46" fill-rule="evenodd" fill-opacity="1" stroke="#000000" stroke-opacity="1" stroke-width="3.2"/>
<circle clip-path="url(#clip502)" cx="2149.57" cy="1039.83" r="14" fill="#e26f46" fill-rule="evenodd" fill-opacity="1" stroke="#000000" stroke-opacity="1" stroke-width="3.2"/>
<circle clip-path="url(#clip502)" cx="1567.61" cy="684.853" r="14" fill="#e26f46" fill-rule="evenodd" fill-opacity="1" stroke="#000000" stroke-opacity="1" stroke-width="3.2"/>
<circle clip-path="url(#clip502)" cx="523.626" cy="1071.91" r="14" fill="#e26f46" fill-rule="evenodd" fill-opacity="1" stroke="#000000" stroke-opacity="1" stroke-width="3.2"/>
<circle clip-path="url(#clip502)" cx="608.049" cy="1089.8" r="14" fill="#e26f46" fill-rule="evenodd" fill-opacity="1" stroke="#000000" stroke-opacity="1" stroke-width="3.2"/>
<circle clip-path="url(#clip502)" cx="1270.14" cy="898.785" r="14" fill="#e26f46" fill-rule="evenodd" fill-opacity="1" stroke="#000000" stroke-opacity="1" stroke-width="3.2"/>
<circle clip-path="url(#clip502)" cx="1438.17" cy="228.917" r="14" fill="#e26f46" fill-rule="evenodd" fill-opacity="1" stroke="#000000" stroke-opacity="1" stroke-width="3.2"/>
<circle clip-path="url(#clip502)" cx="985.213" cy="679.835" r="14" fill="#e26f46" fill-rule="evenodd" fill-opacity="1" stroke="#000000" stroke-opacity="1" stroke-width="3.2"/>
<circle clip-path="url(#clip502)" cx="932.379" cy="980.806" r="14" fill="#e26f46" fill-rule="evenodd" fill-opacity="1" stroke="#000000" stroke-opacity="1" stroke-width="3.2"/>
<circle clip-path="url(#clip502)" cx="2274.58" cy="985.763" r="14" fill="#e26f46" fill-rule="evenodd" fill-opacity="1" stroke="#000000" stroke-opacity="1" stroke-width="3.2"/>
<circle clip-path="url(#clip502)" cx="2227.84" cy="924.653" r="14" fill="#e26f46" fill-rule="evenodd" fill-opacity="1" stroke="#000000" stroke-opacity="1" stroke-width="3.2"/>
<circle clip-path="url(#clip502)" cx="1727.66" cy="1423.16" r="14" fill="#e26f46" fill-rule="evenodd" fill-opacity="1" stroke="#000000" stroke-opacity="1" stroke-width="3.2"/>
<circle clip-path="url(#clip502)" cx="1103.91" cy="203.909" r="14" fill="#e26f46" fill-rule="evenodd" fill-opacity="1" stroke="#000000" stroke-opacity="1" stroke-width="3.2"/>
<circle clip-path="url(#clip502)" cx="1674.2" cy="1293.53" r="14" fill="#e26f46" fill-rule="evenodd" fill-opacity="1" stroke="#000000" stroke-opacity="1" stroke-width="3.2"/>
<circle clip-path="url(#clip502)" cx="1164.78" cy="230.969" r="14" fill="#e26f46" fill-rule="evenodd" fill-opacity="1" stroke="#000000" stroke-opacity="1" stroke-width="3.2"/>
<circle clip-path="url(#clip502)" cx="1691.92" cy="1372.67" r="14" fill="#e26f46" fill-rule="evenodd" fill-opacity="1" stroke="#000000" stroke-opacity="1" stroke-width="3.2"/>
<circle clip-path="url(#clip502)" cx="1580.82" cy="729.844" r="14" fill="#e26f46" fill-rule="evenodd" fill-opacity="1" stroke="#000000" stroke-opacity="1" stroke-width="3.2"/>
<circle clip-path="url(#clip502)" cx="389.792" cy="936.005" r="14" fill="#e26f46" fill-rule="evenodd" fill-opacity="1" stroke="#000000" stroke-opacity="1" stroke-width="3.2"/>
<circle clip-path="url(#clip502)" cx="1938.15" cy="1115.21" r="14" fill="#e26f46" fill-rule="evenodd" fill-opacity="1" stroke="#000000" stroke-opacity="1" stroke-width="3.2"/>
<circle clip-path="url(#clip502)" cx="1510.98" cy="466.733" r="14" fill="#e26f46" fill-rule="evenodd" fill-opacity="1" stroke="#000000" stroke-opacity="1" stroke-width="3.2"/>
<circle clip-path="url(#clip502)" cx="2198.44" cy="1024.78" r="14" fill="#e26f46" fill-rule="evenodd" fill-opacity="1" stroke="#000000" stroke-opacity="1" stroke-width="3.2"/>
<circle clip-path="url(#clip502)" cx="395.106" cy="1008.58" r="14" fill="#e26f46" fill-rule="evenodd" fill-opacity="1" stroke="#000000" stroke-opacity="1" stroke-width="3.2"/>
<circle clip-path="url(#clip502)" cx="841.028" cy="1404.55" r="14" fill="#e26f46" fill-rule="evenodd" fill-opacity="1" stroke="#000000" stroke-opacity="1" stroke-width="3.2"/>
<circle clip-path="url(#clip502)" cx="1888.98" cy="960.194" r="14" fill="#e26f46" fill-rule="evenodd" fill-opacity="1" stroke="#000000" stroke-opacity="1" stroke-width="3.2"/>
<circle clip-path="url(#clip502)" cx="2084.02" cy="962.834" r="14" fill="#e26f46" fill-rule="evenodd" fill-opacity="1" stroke="#000000" stroke-opacity="1" stroke-width="3.2"/>
<circle clip-path="url(#clip502)" cx="1050.19" cy="414.562" r="14" fill="#e26f46" fill-rule="evenodd" fill-opacity="1" stroke="#000000" stroke-opacity="1" stroke-width="3.2"/>
<circle clip-path="url(#clip502)" cx="2197.38" cy="1013.92" r="14" fill="#e26f46" fill-rule="evenodd" fill-opacity="1" stroke="#000000" stroke-opacity="1" stroke-width="3.2"/>
<circle clip-path="url(#clip502)" cx="1381.44" cy="222.526" r="14" fill="#e26f46" fill-rule="evenodd" fill-opacity="1" stroke="#000000" stroke-opacity="1" stroke-width="3.2"/>
<circle clip-path="url(#clip502)" cx="1891.58" cy="984.835" r="14" fill="#e26f46" fill-rule="evenodd" fill-opacity="1" stroke="#000000" stroke-opacity="1" stroke-width="3.2"/>
<circle clip-path="url(#clip502)" cx="1088.96" cy="278.24" r="14" fill="#e26f46" fill-rule="evenodd" fill-opacity="1" stroke="#000000" stroke-opacity="1" stroke-width="3.2"/>
<circle clip-path="url(#clip502)" cx="1011" cy="536.858" r="14" fill="#e26f46" fill-rule="evenodd" fill-opacity="1" stroke="#000000" stroke-opacity="1" stroke-width="3.2"/>
<circle clip-path="url(#clip502)" cx="950.681" cy="861.932" r="14" fill="#e26f46" fill-rule="evenodd" fill-opacity="1" stroke="#000000" stroke-opacity="1" stroke-width="3.2"/>
<circle clip-path="url(#clip502)" cx="435.052" cy="1011.71" r="14" fill="#e26f46" fill-rule="evenodd" fill-opacity="1" stroke="#000000" stroke-opacity="1" stroke-width="3.2"/>
<circle clip-path="url(#clip502)" cx="810.314" cy="1394.68" r="14" fill="#e26f46" fill-rule="evenodd" fill-opacity="1" stroke="#000000" stroke-opacity="1" stroke-width="3.2"/>
<circle clip-path="url(#clip502)" cx="2000.69" cy="1002.21" r="14" fill="#e26f46" fill-rule="evenodd" fill-opacity="1" stroke="#000000" stroke-opacity="1" stroke-width="3.2"/>
<circle clip-path="url(#clip502)" cx="736.61" cy="884.861" r="14" fill="#e26f46" fill-rule="evenodd" fill-opacity="1" stroke="#000000" stroke-opacity="1" stroke-width="3.2"/>
<circle clip-path="url(#clip502)" cx="1513.36" cy="431.663" r="14" fill="#e26f46" fill-rule="evenodd" fill-opacity="1" stroke="#000000" stroke-opacity="1" stroke-width="3.2"/>
<circle clip-path="url(#clip502)" cx="512.473" cy="946.34" r="14" fill="#e26f46" fill-rule="evenodd" fill-opacity="1" stroke="#000000" stroke-opacity="1" stroke-width="3.2"/>
<circle clip-path="url(#clip502)" cx="2272.68" cy="947.396" r="14" fill="#e26f46" fill-rule="evenodd" fill-opacity="1" stroke="#000000" stroke-opacity="1" stroke-width="3.2"/>
<circle clip-path="url(#clip502)" cx="2118.75" cy="1035.7" r="14" fill="#e26f46" fill-rule="evenodd" fill-opacity="1" stroke="#000000" stroke-opacity="1" stroke-width="3.2"/>
<circle clip-path="url(#clip502)" cx="2285.5" cy="956.844" r="14" fill="#e26f46" fill-rule="evenodd" fill-opacity="1" stroke="#000000" stroke-opacity="1" stroke-width="3.2"/>
<circle clip-path="url(#clip502)" cx="1353.41" cy="293.646" r="14" fill="#e26f46" fill-rule="evenodd" fill-opacity="1" stroke="#000000" stroke-opacity="1" stroke-width="3.2"/>
<circle clip-path="url(#clip502)" cx="1352.11" cy="219.384" r="14" fill="#e26f46" fill-rule="evenodd" fill-opacity="1" stroke="#000000" stroke-opacity="1" stroke-width="3.2"/>
<circle clip-path="url(#clip502)" cx="1981.1" cy="817.904" r="14" fill="#e26f46" fill-rule="evenodd" fill-opacity="1" stroke="#000000" stroke-opacity="1" stroke-width="3.2"/>
<circle clip-path="url(#clip502)" cx="438.511" cy="1005.58" r="14" fill="#e26f46" fill-rule="evenodd" fill-opacity="1" stroke="#000000" stroke-opacity="1" stroke-width="3.2"/>
<circle clip-path="url(#clip502)" cx="1461.21" cy="259.761" r="14" fill="#e26f46" fill-rule="evenodd" fill-opacity="1" stroke="#000000" stroke-opacity="1" stroke-width="3.2"/>
<circle clip-path="url(#clip502)" cx="1993.75" cy="953.727" r="14" fill="#e26f46" fill-rule="evenodd" fill-opacity="1" stroke="#000000" stroke-opacity="1" stroke-width="3.2"/>
<circle clip-path="url(#clip502)" cx="963.912" cy="788.73" r="14" fill="#e26f46" fill-rule="evenodd" fill-opacity="1" stroke="#000000" stroke-opacity="1" stroke-width="3.2"/>
<circle clip-path="url(#clip502)" cx="1855.71" cy="688.799" r="14" fill="#e26f46" fill-rule="evenodd" fill-opacity="1" stroke="#000000" stroke-opacity="1" stroke-width="3.2"/>
<circle clip-path="url(#clip502)" cx="2128.23" cy="975.205" r="14" fill="#e26f46" fill-rule="evenodd" fill-opacity="1" stroke="#000000" stroke-opacity="1" stroke-width="3.2"/>
<circle clip-path="url(#clip502)" cx="1272.55" cy="958.579" r="14" fill="#e26f46" fill-rule="evenodd" fill-opacity="1" stroke="#000000" stroke-opacity="1" stroke-width="3.2"/>
<circle clip-path="url(#clip502)" cx="1913.85" cy="1088.03" r="14" fill="#e26f46" fill-rule="evenodd" fill-opacity="1" stroke="#000000" stroke-opacity="1" stroke-width="3.2"/>
<circle clip-path="url(#clip502)" cx="1199.15" cy="247.366" r="14" fill="#e26f46" fill-rule="evenodd" fill-opacity="1" stroke="#000000" stroke-opacity="1" stroke-width="3.2"/>
<circle clip-path="url(#clip502)" cx="2074.92" cy="1061.41" r="14" fill="#e26f46" fill-rule="evenodd" fill-opacity="1" stroke="#000000" stroke-opacity="1" stroke-width="3.2"/>
<circle clip-path="url(#clip502)" cx="2006.89" cy="1065.88" r="14" fill="#e26f46" fill-rule="evenodd" fill-opacity="1" stroke="#000000" stroke-opacity="1" stroke-width="3.2"/>
<circle clip-path="url(#clip502)" cx="1264.68" cy="766.259" r="14" fill="#e26f46" fill-rule="evenodd" fill-opacity="1" stroke="#000000" stroke-opacity="1" stroke-width="3.2"/>
<circle clip-path="url(#clip502)" cx="1413.94" cy="216.504" r="14" fill="#e26f46" fill-rule="evenodd" fill-opacity="1" stroke="#000000" stroke-opacity="1" stroke-width="3.2"/>
<circle clip-path="url(#clip502)" cx="1692.64" cy="1367.59" r="14" fill="#e26f46" fill-rule="evenodd" fill-opacity="1" stroke="#000000" stroke-opacity="1" stroke-width="3.2"/>
<circle clip-path="url(#clip502)" cx="433.56" cy="1046" r="14" fill="#e26f46" fill-rule="evenodd" fill-opacity="1" stroke="#000000" stroke-opacity="1" stroke-width="3.2"/>
<circle clip-path="url(#clip502)" cx="1924.9" cy="1123.06" r="14" fill="#e26f46" fill-rule="evenodd" fill-opacity="1" stroke="#000000" stroke-opacity="1" stroke-width="3.2"/>
<circle clip-path="url(#clip502)" cx="401.176" cy="1051.01" r="14" fill="#e26f46" fill-rule="evenodd" fill-opacity="1" stroke="#000000" stroke-opacity="1" stroke-width="3.2"/>
<circle clip-path="url(#clip502)" cx="526.088" cy="1058.74" r="14" fill="#e26f46" fill-rule="evenodd" fill-opacity="1" stroke="#000000" stroke-opacity="1" stroke-width="3.2"/>
<circle clip-path="url(#clip502)" cx="1424.15" cy="197.559" r="14" fill="#e26f46" fill-rule="evenodd" fill-opacity="1" stroke="#000000" stroke-opacity="1" stroke-width="3.2"/>
<circle clip-path="url(#clip502)" cx="382.107" cy="947.113" r="14" fill="#e26f46" fill-rule="evenodd" fill-opacity="1" stroke="#000000" stroke-opacity="1" stroke-width="3.2"/>
<circle clip-path="url(#clip502)" cx="1241.95" cy="529.518" r="14" fill="#e26f46" fill-rule="evenodd" fill-opacity="1" stroke="#000000" stroke-opacity="1" stroke-width="3.2"/>
<circle clip-path="url(#clip502)" cx="451.902" cy="942.223" r="14" fill="#e26f46" fill-rule="evenodd" fill-opacity="1" stroke="#000000" stroke-opacity="1" stroke-width="3.2"/>
<circle clip-path="url(#clip502)" cx="728.274" cy="829.982" r="14" fill="#e26f46" fill-rule="evenodd" fill-opacity="1" stroke="#000000" stroke-opacity="1" stroke-width="3.2"/>
<circle clip-path="url(#clip502)" cx="1519.49" cy="451.553" r="14" fill="#e26f46" fill-rule="evenodd" fill-opacity="1" stroke="#000000" stroke-opacity="1" stroke-width="3.2"/>
<circle clip-path="url(#clip502)" cx="851.047" cy="1404.82" r="14" fill="#e26f46" fill-rule="evenodd" fill-opacity="1" stroke="#000000" stroke-opacity="1" stroke-width="3.2"/>
<circle clip-path="url(#clip502)" cx="1747.48" cy="1372.59" r="14" fill="#e26f46" fill-rule="evenodd" fill-opacity="1" stroke="#000000" stroke-opacity="1" stroke-width="3.2"/>
<circle clip-path="url(#clip502)" cx="713.542" cy="802.334" r="14" fill="#e26f46" fill-rule="evenodd" fill-opacity="1" stroke="#000000" stroke-opacity="1" stroke-width="3.2"/>
<circle clip-path="url(#clip502)" cx="1061.73" cy="323.583" r="14" fill="#e26f46" fill-rule="evenodd" fill-opacity="1" stroke="#000000" stroke-opacity="1" stroke-width="3.2"/>
<circle clip-path="url(#clip502)" cx="751.997" cy="1076.26" r="14" fill="#e26f46" fill-rule="evenodd" fill-opacity="1" stroke="#000000" stroke-opacity="1" stroke-width="3.2"/>
<circle clip-path="url(#clip502)" cx="933.793" cy="987.239" r="14" fill="#e26f46" fill-rule="evenodd" fill-opacity="1" stroke="#000000" stroke-opacity="1" stroke-width="3.2"/>
<circle clip-path="url(#clip502)" cx="1913" cy="1092.64" r="14" fill="#e26f46" fill-rule="evenodd" fill-opacity="1" stroke="#000000" stroke-opacity="1" stroke-width="3.2"/>
<circle clip-path="url(#clip502)" cx="443.444" cy="918.742" r="14" fill="#e26f46" fill-rule="evenodd" fill-opacity="1" stroke="#000000" stroke-opacity="1" stroke-width="3.2"/>
<circle clip-path="url(#clip502)" cx="1979.97" cy="831.792" r="14" fill="#e26f46" fill-rule="evenodd" fill-opacity="1" stroke="#000000" stroke-opacity="1" stroke-width="3.2"/>
<circle clip-path="url(#clip502)" cx="1788.01" cy="1088.89" r="14" fill="#e26f46" fill-rule="evenodd" fill-opacity="1" stroke="#000000" stroke-opacity="1" stroke-width="3.2"/>
<circle clip-path="url(#clip502)" cx="1439.9" cy="230.505" r="14" fill="#e26f46" fill-rule="evenodd" fill-opacity="1" stroke="#000000" stroke-opacity="1" stroke-width="3.2"/>
<circle clip-path="url(#clip502)" cx="1537.93" cy="582.341" r="14" fill="#e26f46" fill-rule="evenodd" fill-opacity="1" stroke="#000000" stroke-opacity="1" stroke-width="3.2"/>
<circle clip-path="url(#clip502)" cx="2202.5" cy="995.142" r="14" fill="#e26f46" fill-rule="evenodd" fill-opacity="1" stroke="#000000" stroke-opacity="1" stroke-width="3.2"/>
<circle clip-path="url(#clip502)" cx="716" cy="754.208" r="14" fill="#e26f46" fill-rule="evenodd" fill-opacity="1" stroke="#000000" stroke-opacity="1" stroke-width="3.2"/>
<circle clip-path="url(#clip502)" cx="2241.67" cy="974.898" r="14" fill="#e26f46" fill-rule="evenodd" fill-opacity="1" stroke="#000000" stroke-opacity="1" stroke-width="3.2"/>
<circle clip-path="url(#clip502)" cx="614.853" cy="1127.16" r="14" fill="#e26f46" fill-rule="evenodd" fill-opacity="1" stroke="#000000" stroke-opacity="1" stroke-width="3.2"/>
<circle clip-path="url(#clip502)" cx="802.25" cy="1402.95" r="14" fill="#e26f46" fill-rule="evenodd" fill-opacity="1" stroke="#000000" stroke-opacity="1" stroke-width="3.2"/>
<circle clip-path="url(#clip502)" cx="2114.42" cy="1026.8" r="14" fill="#e26f46" fill-rule="evenodd" fill-opacity="1" stroke="#000000" stroke-opacity="1" stroke-width="3.2"/>
<circle clip-path="url(#clip502)" cx="914.992" cy="1090.14" r="14" fill="#e26f46" fill-rule="evenodd" fill-opacity="1" stroke="#000000" stroke-opacity="1" stroke-width="3.2"/>
<circle clip-path="url(#clip502)" cx="482.477" cy="985.332" r="14" fill="#e26f46" fill-rule="evenodd" fill-opacity="1" stroke="#000000" stroke-opacity="1" stroke-width="3.2"/>
<circle clip-path="url(#clip502)" cx="626.729" cy="1152.28" r="14" fill="#e26f46" fill-rule="evenodd" fill-opacity="1" stroke="#000000" stroke-opacity="1" stroke-width="3.2"/>
<circle clip-path="url(#clip502)" cx="1133.84" cy="203.713" r="14" fill="#e26f46" fill-rule="evenodd" fill-opacity="1" stroke="#000000" stroke-opacity="1" stroke-width="3.2"/>
<circle clip-path="url(#clip502)" cx="312.01" cy="965.581" r="14" fill="#e26f46" fill-rule="evenodd" fill-opacity="1" stroke="#000000" stroke-opacity="1" stroke-width="3.2"/>
<circle clip-path="url(#clip502)" cx="847.81" cy="1389.86" r="14" fill="#e26f46" fill-rule="evenodd" fill-opacity="1" stroke="#000000" stroke-opacity="1" stroke-width="3.2"/>
<circle clip-path="url(#clip502)" cx="995.51" cy="625.971" r="14" fill="#e26f46" fill-rule="evenodd" fill-opacity="1" stroke="#000000" stroke-opacity="1" stroke-width="3.2"/>
<circle clip-path="url(#clip502)" cx="1649.33" cy="1229.09" r="14" fill="#e26f46" fill-rule="evenodd" fill-opacity="1" stroke="#000000" stroke-opacity="1" stroke-width="3.2"/>
<circle clip-path="url(#clip502)" cx="1204.89" cy="261.513" r="14" fill="#e26f46" fill-rule="evenodd" fill-opacity="1" stroke="#000000" stroke-opacity="1" stroke-width="3.2"/>
<circle clip-path="url(#clip502)" cx="2112.85" cy="1013.95" r="14" fill="#e26f46" fill-rule="evenodd" fill-opacity="1" stroke="#000000" stroke-opacity="1" stroke-width="3.2"/>
<circle clip-path="url(#clip502)" cx="920.734" cy="1029.58" r="14" fill="#e26f46" fill-rule="evenodd" fill-opacity="1" stroke="#000000" stroke-opacity="1" stroke-width="3.2"/>
<circle clip-path="url(#clip502)" cx="298.355" cy="936.951" r="14" fill="#e26f46" fill-rule="evenodd" fill-opacity="1" stroke="#000000" stroke-opacity="1" stroke-width="3.2"/>
<circle clip-path="url(#clip502)" cx="1527.72" cy="509.325" r="14" fill="#e26f46" fill-rule="evenodd" fill-opacity="1" stroke="#000000" stroke-opacity="1" stroke-width="3.2"/>
<circle clip-path="url(#clip502)" cx="543.566" cy="1015.11" r="14" fill="#e26f46" fill-rule="evenodd" fill-opacity="1" stroke="#000000" stroke-opacity="1" stroke-width="3.2"/>
<circle clip-path="url(#clip502)" cx="2132.94" cy="905.423" r="14" fill="#e26f46" fill-rule="evenodd" fill-opacity="1" stroke="#000000" stroke-opacity="1" stroke-width="3.2"/>
<circle clip-path="url(#clip502)" cx="1124.87" cy="201.98" r="14" fill="#e26f46" fill-rule="evenodd" fill-opacity="1" stroke="#000000" stroke-opacity="1" stroke-width="3.2"/>
<circle clip-path="url(#clip502)" cx="2176.02" cy="997.513" r="14" fill="#e26f46" fill-rule="evenodd" fill-opacity="1" stroke="#000000" stroke-opacity="1" stroke-width="3.2"/>
<path clip-path="url(#clip502)" d="
M253.843 992.139 L264.083 989.067 L274.323 984.067 L284.563 978.085 L294.803 971.924 L305.043 966.091 L315.283 960.866 L325.523 956.533 L335.763 953.444 L346.003 951.956 
  L356.244 952.36 L366.484 954.848 L376.724 959.493 L386.964 966.244 L397.204 974.929 L407.444 985.26 L417.684 996.845 L427.924 1009.21 L438.164 1021.84 L448.404 1034.18 
  L458.645 1045.69 L468.885 1055.84 L479.125 1064.18 L489.365 1070.29 L499.605 1073.86 L509.845 1074.67 L520.085 1072.59 L530.325 1067.62 L540.565 1059.85 L550.805 1049.51 
  L561.046 1036.92 L571.286 1022.51 L581.526 1006.79 L591.766 990.36 L602.006 973.863 L612.246 957.983 L622.486 943.416 L632.726 930.85 L642.966 920.934 L653.206 914.262 
  L663.447 911.343 L673.687 912.585 L683.927 918.274 L694.167 928.556 L704.407 943.431 L714.647 962.743 L724.887 986.173 L735.127 1013.25 L745.367 1043.35 L755.607 1075.72 
  L765.848 1109.48 L776.088 1143.66 L786.328 1177.21 L796.568 1209.05 L806.808 1238.08 L817.048 1263.23 L827.288 1283.47 L837.528 1297.87 L847.768 1305.57 L858.008 1305.9 
  L868.249 1298.32 L878.489 1282.48 L888.729 1258.22 L898.969 1225.58 L909.209 1184.82 L919.449 1136.4 L929.689 1080.97 L939.929 1019.37 L950.169 952.598 L960.409 881.809 
  L970.65 808.257 L980.89 733.284 L991.13 658.28 L1001.37 584.653 L1011.61 513.783 L1021.85 446.996 L1032.09 385.523 L1042.33 330.467 L1052.57 282.775 L1062.81 243.213 
  L1073.05 212.344 L1083.29 190.511 L1093.53 177.831 L1103.77 174.189 L1114.01 179.242 L1124.25 192.431 L1134.49 212.99 L1144.73 239.975 L1154.97 272.287 L1165.21 308.702 
  L1175.45 347.907 L1185.69 388.538 L1195.93 429.218 L1206.17 468.596 L1216.41 505.386 L1226.65 538.401 L1236.89 566.593 L1247.13 589.076 L1257.37 605.155 L1267.61 614.343 
  L1277.85 616.378 L1288.09 611.227 L1298.33 599.087 L1308.57 580.382 L1318.81 555.747 L1329.05 526.013 L1339.29 492.179 L1349.53 455.389 L1359.77 416.894 L1370.01 378.019 
  L1380.25 340.128 L1390.49 304.578 L1400.73 272.688 L1410.97 245.697 L1421.21 224.734 L1431.45 210.778 L1441.69 204.641 L1451.93 206.935 L1462.17 218.063 L1472.41 238.201 
  L1482.65 267.297 L1492.89 305.072 L1503.13 351.023 L1513.37 404.443 L1523.61 464.436 L1533.86 529.943 L1544.1 599.77 L1554.34 672.624 L1564.58 747.144 L1574.82 821.938 
  L1585.06 895.621 L1595.3 966.85 L1605.54 1034.36 L1615.78 1096.99 L1626.02 1153.72 L1636.26 1203.68 L1646.5 1246.19 L1656.74 1280.76 L1666.98 1307.1 L1677.22 1325.11 
  L1687.46 1334.9 L1697.7 1336.77 L1707.94 1331.2 L1718.18 1318.81 L1728.42 1300.38 L1738.66 1276.77 L1748.9 1248.93 L1759.14 1217.89 L1769.38 1184.66 L1779.62 1150.28 
  L1789.86 1115.74 L1800.1 1081.98 L1810.34 1049.84 L1820.58 1020.08 L1830.82 993.326 L1841.06 970.093 L1851.3 950.74 L1861.54 935.491 L1871.78 924.429 L1882.02 917.501 
  L1892.26 914.531 L1902.5 915.226 L1912.74 919.197 L1922.98 925.973 L1933.22 935.023 L1943.46 945.775 L1953.7 957.637 L1963.94 970.018 L1974.18 982.352 L1984.42 994.114 
  L1994.66 1004.84 L2004.9 1014.14 L2015.14 1021.71 L2025.38 1027.35 L2035.62 1030.93 L2045.86 1032.45 L2056.1 1031.98 L2066.34 1029.68 L2076.58 1025.8 L2086.82 1020.64 
  L2097.06 1014.56 L2107.3 1007.95 L2117.54 1001.22 L2127.78 994.758 L2138.02 988.958 L2148.26 984.147 L2158.5 980.579 L2168.74 978.41 L2178.98 977.678 L2189.22 978.303 
  L2199.46 980.082 L2209.7 982.697 L2219.94 985.731 L2230.18 988.68 L2240.42 990.997 L2250.66 992.159 L2260.9 991.744 L2271.14 989.41 L2281.38 984.674 L2291.62 976.786 
  L2291.62 945.286 L2281.38 961.094 L2271.14 970.916 L2260.9 975.8 L2250.66 977.008 L2240.42 975.846 L2230.18 973.41 L2219.94 970.532 L2209.7 967.837 L2199.46 965.785 
  L2189.22 964.704 L2178.98 964.794 L2168.74 966.15 L2158.5 968.764 L2148.26 972.551 L2138.02 977.354 L2127.78 982.96 L2117.54 989.103 L2107.3 995.473 L2097.06 1001.72 
  L2086.82 1007.5 L2076.58 1012.43 L2066.34 1016.18 L2056.1 1018.46 L2045.86 1019.01 L2035.62 1017.67 L2025.38 1014.34 L2015.14 1009.02 L2004.9 1001.81 L1994.66 992.888 
  L1984.42 982.541 L1974.18 971.133 L1963.94 959.103 L1953.7 946.957 L1943.46 935.246 L1933.22 924.551 L1922.98 915.465 L1912.74 908.569 L1902.5 904.408 L1892.26 903.473 
  L1882.02 906.176 L1871.78 912.828 L1861.54 923.629 L1851.3 938.645 L1841.06 957.808 L1830.82 980.901 L1820.58 1007.56 L1810.34 1037.29 L1800.1 1069.45 L1789.86 1103.28 
  L1779.62 1137.91 L1769.38 1172.39 L1759.14 1205.73 L1748.9 1236.87 L1738.66 1264.77 L1728.42 1288.42 L1718.18 1306.85 L1707.94 1319.19 L1697.7 1324.67 L1687.46 1322.68 
  L1677.22 1312.75 L1666.98 1294.6 L1656.74 1268.12 L1646.5 1233.43 L1636.26 1190.83 L1626.02 1140.82 L1615.78 1084.08 L1605.54 1021.49 L1595.3 954.072 L1585.06 882.972 
  L1574.82 809.454 L1564.58 734.85 L1554.34 660.535 L1544.1 587.886 L1533.86 518.251 L1523.61 452.909 L1513.37 393.043 L1503.13 339.702 L1492.89 293.776 L1482.65 255.97 
  L1472.41 226.787 L1462.17 206.514 L1451.93 195.211 L1441.69 192.709 L1431.45 198.619 L1421.21 212.337 L1410.97 233.063 L1400.73 259.825 L1390.49 291.503 L1380.25 326.862 
  L1370.01 364.59 L1359.77 403.33 L1349.53 441.722 L1339.29 478.443 L1329.05 512.24 L1318.81 541.971 L1308.57 566.633 L1298.33 585.396 L1288.09 597.622 L1277.85 602.885 
  L1267.61 600.985 L1257.37 591.95 L1247.13 576.04 L1236.89 553.736 L1226.65 525.728 L1216.41 492.894 L1206.17 456.279 L1195.93 417.059 L1185.69 376.515 L1175.45 335.991 
  L1165.21 296.859 L1154.97 260.48 L1144.73 228.166 L1134.49 201.14 L1124.25 180.508 L1114.01 167.219 L1103.77 162.047 L1093.53 165.561 L1083.29 178.115 L1073.05 199.833 
  L1062.81 230.609 L1052.57 270.105 L1042.33 317.766 L1032.09 372.828 L1021.85 434.344 L1011.61 501.209 L1001.37 572.186 L991.13 645.943 L980.89 721.087 L970.65 796.2 
  L960.409 869.881 L950.169 940.774 L939.929 1007.61 L929.689 1069.25 L919.449 1124.67 L909.209 1173.04 L898.969 1213.71 L888.729 1246.24 L878.489 1270.39 L868.249 1286.11 
  L858.008 1293.58 L847.768 1293.16 L837.528 1285.4 L827.288 1270.99 L817.048 1250.77 L806.808 1225.68 L796.568 1196.73 L786.328 1165 L776.088 1131.56 L765.848 1097.49 
  L755.607 1063.81 L745.367 1031.47 L735.127 1001.35 L724.887 974.187 L714.647 950.604 L704.407 931.078 L694.167 915.936 L683.927 905.348 L673.687 899.333 L663.447 897.763 
  L653.206 900.371 L642.966 906.765 L632.726 916.448 L622.486 928.837 L612.246 943.286 L602.006 959.11 L591.766 975.609 L581.526 992.093 L571.286 1007.9 L561.046 1022.44 
  L550.805 1035.17 L540.565 1045.67 L530.325 1053.59 L520.085 1058.73 L509.845 1060.97 L499.605 1060.33 L489.365 1056.94 L479.125 1051.03 L468.885 1042.93 L458.645 1033.03 
  L448.404 1021.78 L438.164 1009.68 L427.924 997.23 L417.684 984.924 L407.444 973.242 L397.204 962.629 L386.964 953.479 L376.724 946.124 L366.484 940.816 L356.244 937.703 
  L346.003 936.816 L335.763 938.045 L325.523 941.118 L315.283 945.567 L305.043 950.672 L294.803 955.407 L284.563 958.539 L274.323 958.876 L264.083 955.383 L253.843 947.064 
   Z
  " fill="#3da44d" fill-rule="evenodd" fill-opacity="0.5"/>
<polyline clip-path="url(#clip502)" style="stroke:#3da44d; stroke-linecap:butt; stroke-linejoin:round; stroke-width:12; stroke-opacity:1; fill:none" points="
  253.843,969.601 264.083,972.225 274.323,971.471 284.563,968.312 294.803,963.666 305.043,958.381 315.283,953.216 325.523,948.825 335.763,945.744 346.003,944.386 
  356.244,945.032 366.484,947.832 376.724,952.808 386.964,959.861 397.204,968.779 407.444,979.251 417.684,990.884 427.924,1003.22 438.164,1015.76 448.404,1027.98 
  458.645,1039.36 468.885,1049.38 479.125,1057.6 489.365,1063.61 499.605,1067.1 509.845,1067.82 520.085,1065.66 530.325,1060.6 540.565,1052.76 550.805,1042.34 
  561.046,1029.68 571.286,1015.2 581.526,999.441 591.766,982.984 602.006,966.487 612.246,950.635 622.486,936.127 632.726,923.649 642.966,913.849 653.206,907.316 
  663.447,904.553 673.687,905.959 683.927,911.811 694.167,922.246 704.407,937.255 714.647,956.673 724.887,980.18 735.127,1007.3 745.367,1037.41 755.607,1069.76 
  765.848,1103.48 776.088,1137.61 786.328,1171.1 796.568,1202.89 806.808,1231.88 817.048,1257 827.288,1277.23 837.528,1291.63 847.768,1299.37 858.008,1299.74 
  868.249,1292.21 878.489,1276.43 888.729,1252.23 898.969,1219.65 909.209,1178.93 919.449,1130.53 929.689,1075.11 939.929,1013.49 950.169,946.686 960.409,875.845 
  970.65,802.229 980.89,727.185 991.13,652.112 1001.37,578.419 1011.61,507.496 1021.85,440.67 1032.09,379.175 1042.33,324.116 1052.57,276.44 1062.81,236.911 
  1073.05,206.089 1083.29,184.313 1093.53,171.696 1103.77,168.118 1114.01,173.231 1124.25,186.469 1134.49,207.065 1144.73,234.07 1154.97,266.384 1165.21,302.78 
  1175.45,341.949 1185.69,382.527 1195.93,423.139 1206.17,462.437 1216.41,499.14 1226.65,532.064 1236.89,560.164 1247.13,582.558 1257.37,598.552 1267.61,607.664 
  1277.85,609.632 1288.09,604.424 1298.33,592.241 1308.57,573.507 1318.81,548.859 1329.05,519.126 1339.29,485.311 1349.53,448.555 1359.77,410.112 1370.01,371.305 
  1380.25,333.495 1390.49,298.04 1400.73,266.256 1410.97,239.38 1421.21,218.535 1431.45,204.699 1441.69,198.675 1451.93,201.073 1462.17,212.289 1472.41,232.494 
  1482.65,261.634 1492.89,299.424 1503.13,345.363 1513.37,398.743 1523.61,458.673 1533.86,524.097 1544.1,593.828 1554.34,666.58 1564.58,740.997 1574.82,815.696 
  1585.06,889.296 1595.3,960.461 1605.54,1027.93 1615.78,1090.54 1626.02,1147.27 1636.26,1197.26 1646.5,1239.81 1656.74,1274.44 1666.98,1300.85 1677.22,1318.93 
  1687.46,1328.79 1697.7,1330.72 1707.94,1325.19 1718.18,1312.83 1728.42,1294.4 1738.66,1270.77 1748.9,1242.9 1759.14,1211.81 1769.38,1178.53 1779.62,1144.09 
  1789.86,1109.51 1800.1,1075.71 1810.34,1043.56 1820.58,1013.82 1830.82,987.114 1841.06,963.95 1851.3,944.692 1861.54,929.56 1871.78,918.628 1882.02,911.839 
  1892.26,909.002 1902.5,909.817 1912.74,913.883 1922.98,920.719 1933.22,929.787 1943.46,940.51 1953.7,952.297 1963.94,964.561 1974.18,976.742 1984.42,988.327 
  1994.66,998.864 2004.9,1007.97 2015.14,1015.37 2025.38,1020.84 2035.62,1024.3 2045.86,1025.73 2056.1,1025.22 2066.34,1022.93 2076.58,1019.11 2086.82,1014.07 
  2097.06,1008.14 2107.3,1001.71 2117.54,995.16 2127.78,988.859 2138.02,983.156 2148.26,978.349 2158.5,974.672 2168.74,972.28 2178.98,971.236 2189.22,971.503 
  2199.46,972.933 2209.7,975.267 2219.94,978.131 2230.18,981.045 2240.42,983.422 2250.66,984.584 2260.9,983.772 2271.14,980.163 2281.38,972.884 2291.62,961.036 
  
  "/>
<path clip-path="url(#clip500)" d="
M1615.45 557.705 L2280.75 557.705 L2280.75 168.905 L1615.45 168.905  Z
  " fill="#ffffff" fill-rule="evenodd" fill-opacity="1"/>
<polyline clip-path="url(#clip500)" style="stroke:#000000; stroke-linecap:butt; stroke-linejoin:round; stroke-width:4; stroke-opacity:1; fill:none" points="
  1615.45,557.705 2280.75,557.705 2280.75,168.905 1615.45,168.905 1615.45,557.705 
  "/>
<polyline clip-path="url(#clip500)" style="stroke:#009af9; stroke-linecap:butt; stroke-linejoin:round; stroke-width:7.5; stroke-opacity:1; fill:none" points="
  1639.45,266.105 1783.45,266.105 
  "/>
<path clip-path="url(#clip500)" d="M1821.34 236.092 L1821.34 249.894 L1837.79 249.894 L1837.79 256.1 L1821.34 256.1 L1821.34 282.489 Q1821.34 288.435 1822.95 290.128 Q1824.6 291.821 1829.59 291.821 L1837.79 291.821 L1837.79 298.505 L1829.59 298.505 Q1820.34 298.505 1816.83 295.076 Q1813.31 291.604 1813.31 282.489 L1813.31 256.1 L1807.45 256.1 L1807.45 249.894 L1813.31 249.894 L1813.31 236.092 L1821.34 236.092 Z" fill="#000000" fill-rule="evenodd" fill-opacity="1" /><path clip-path="url(#clip500)" d="M1876.46 257.359 Q1875.12 256.578 1873.51 256.231 Q1871.95 255.84 1870.04 255.84 Q1863.27 255.84 1859.62 260.267 Q1856.02 264.651 1856.02 272.897 L1856.02 298.505 L1847.99 298.505 L1847.99 249.894 L1856.02 249.894 L1856.02 257.446 Q1858.54 253.019 1862.57 250.892 Q1866.61 248.722 1872.38 248.722 Q1873.21 248.722 1874.2 248.852 Q1875.2 248.939 1876.42 249.156 L1876.46 257.359 Z" fill="#000000" fill-rule="evenodd" fill-opacity="1" /><path clip-path="url(#clip500)" d="M1884.01 279.321 L1884.01 249.894 L1892 249.894 L1892 279.017 Q1892 285.918 1894.69 289.39 Q1897.38 292.819 1902.76 292.819 Q1909.23 292.819 1912.96 288.696 Q1916.74 284.572 1916.74 277.454 L1916.74 249.894 L1924.73 249.894 L1924.73 298.505 L1916.74 298.505 L1916.74 291.039 Q1913.83 295.466 1909.97 297.637 Q1906.15 299.763 1901.07 299.763 Q1892.69 299.763 1888.35 294.555 Q1884.01 289.347 1884.01 279.321 M1904.11 248.722 L1904.11 248.722 Z" fill="#000000" fill-rule="evenodd" fill-opacity="1" /><path clip-path="url(#clip500)" d="M1982.75 272.203 L1982.75 276.109 L1946.04 276.109 Q1946.56 284.355 1950.98 288.696 Q1955.45 292.993 1963.4 292.993 Q1968 292.993 1972.29 291.864 Q1976.63 290.736 1980.89 288.479 L1980.89 296.031 Q1976.59 297.854 1972.08 298.808 Q1967.56 299.763 1962.92 299.763 Q1951.29 299.763 1944.47 292.993 Q1937.7 286.222 1937.7 274.677 Q1937.7 262.741 1944.13 255.753 Q1950.59 248.722 1961.53 248.722 Q1971.34 248.722 1977.03 255.059 Q1982.75 261.352 1982.75 272.203 M1974.77 269.859 Q1974.68 263.305 1971.08 259.399 Q1967.52 255.493 1961.62 255.493 Q1954.93 255.493 1950.9 259.269 Q1946.9 263.045 1946.3 269.902 L1974.77 269.859 Z" fill="#000000" fill-rule="evenodd" fill-opacity="1" /><path clip-path="url(#clip500)" d="M2048.73 230.97 L2048.73 237.611 L2041.09 237.611 Q2036.79 237.611 2035.1 239.347 Q2033.45 241.083 2033.45 245.597 L2033.45 249.894 L2046.6 249.894 L2046.6 256.1 L2033.45 256.1 L2033.45 298.505 L2025.42 298.505 L2025.42 256.1 L2017.78 256.1 L2017.78 249.894 L2025.42 249.894 L2025.42 246.508 Q2025.42 238.392 2029.2 234.703 Q2032.97 230.97 2041.17 230.97 L2048.73 230.97 Z" fill="#000000" fill-rule="evenodd" fill-opacity="1" /><circle clip-path="url(#clip500)" cx="1711.45" cy="363.305" r="43" fill="#e26f46" fill-rule="evenodd" fill-opacity="1" stroke="#000000" stroke-opacity="1" stroke-width="9.6"/>
<path clip-path="url(#clip500)" d="M1842.91 354.472 L1842.91 328.17 L1850.9 328.17 L1850.9 395.705 L1842.91 395.705 L1842.91 388.413 Q1840.39 392.753 1836.53 394.88 Q1832.71 396.963 1827.33 396.963 Q1818.52 396.963 1812.96 389.932 Q1807.45 382.901 1807.45 371.443 Q1807.45 359.984 1812.96 352.953 Q1818.52 345.922 1827.33 345.922 Q1832.71 345.922 1836.53 348.049 Q1840.39 350.132 1842.91 354.472 M1815.7 371.443 Q1815.7 380.253 1819.3 385.288 Q1822.95 390.279 1829.28 390.279 Q1835.62 390.279 1839.27 385.288 Q1842.91 380.253 1842.91 371.443 Q1842.91 362.632 1839.27 357.641 Q1835.62 352.606 1829.28 352.606 Q1822.95 352.606 1819.3 357.641 Q1815.7 362.632 1815.7 371.443 Z" fill="#000000" fill-rule="evenodd" fill-opacity="1" /><path clip-path="url(#clip500)" d="M1889.44 371.269 Q1879.76 371.269 1876.03 373.483 Q1872.3 375.696 1872.3 381.035 Q1872.3 385.288 1875.07 387.805 Q1877.89 390.279 1882.71 390.279 Q1889.35 390.279 1893.35 385.592 Q1897.38 380.861 1897.38 373.049 L1897.38 371.269 L1889.44 371.269 M1905.37 367.97 L1905.37 395.705 L1897.38 395.705 L1897.38 388.326 Q1894.65 392.753 1890.57 394.88 Q1886.49 396.963 1880.59 396.963 Q1873.12 396.963 1868.69 392.797 Q1864.31 388.587 1864.31 381.555 Q1864.31 373.352 1869.78 369.186 Q1875.29 365.019 1886.18 365.019 L1897.38 365.019 L1897.38 364.238 Q1897.38 358.726 1893.74 355.731 Q1890.13 352.693 1883.58 352.693 Q1879.41 352.693 1875.46 353.691 Q1871.51 354.689 1867.87 356.686 L1867.87 349.307 Q1872.25 347.615 1876.38 346.79 Q1880.5 345.922 1884.4 345.922 Q1894.95 345.922 1900.16 351.391 Q1905.37 356.859 1905.37 367.97 Z" fill="#000000" fill-rule="evenodd" fill-opacity="1" /><path clip-path="url(#clip500)" d="M1929.72 333.292 L1929.72 347.094 L1946.17 347.094 L1946.17 353.3 L1929.72 353.3 L1929.72 379.689 Q1929.72 385.635 1931.32 387.328 Q1932.97 389.021 1937.96 389.021 L1946.17 389.021 L1946.17 395.705 L1937.96 395.705 Q1928.72 395.705 1925.2 392.276 Q1921.69 388.804 1921.69 379.689 L1921.69 353.3 L1915.83 353.3 L1915.83 347.094 L1921.69 347.094 L1921.69 333.292 L1929.72 333.292 Z" fill="#000000" fill-rule="evenodd" fill-opacity="1" /><path clip-path="url(#clip500)" d="M1978.76 371.269 Q1969.08 371.269 1965.35 373.483 Q1961.62 375.696 1961.62 381.035 Q1961.62 385.288 1964.4 387.805 Q1967.22 390.279 1972.03 390.279 Q1978.67 390.279 1982.67 385.592 Q1986.7 380.861 1986.7 373.049 L1986.7 371.269 L1978.76 371.269 M1994.69 367.97 L1994.69 395.705 L1986.7 395.705 L1986.7 388.326 Q1983.97 392.753 1979.89 394.88 Q1975.81 396.963 1969.91 396.963 Q1962.44 396.963 1958.02 392.797 Q1953.63 388.587 1953.63 381.555 Q1953.63 373.352 1959.1 369.186 Q1964.61 365.019 1975.51 365.019 L1986.7 365.019 L1986.7 364.238 Q1986.7 358.726 1983.06 355.731 Q1979.46 352.693 1972.9 352.693 Q1968.74 352.693 1964.79 353.691 Q1960.84 354.689 1957.19 356.686 L1957.19 349.307 Q1961.57 347.615 1965.7 346.79 Q1969.82 345.922 1973.73 345.922 Q1984.27 345.922 1989.48 351.391 Q1994.69 356.859 1994.69 367.97 Z" fill="#000000" fill-rule="evenodd" fill-opacity="1" /><polyline clip-path="url(#clip500)" style="stroke:#3da44d; stroke-linecap:butt; stroke-linejoin:round; stroke-width:7.5; stroke-opacity:1; fill:none" points="
  1639.45,460.505 1783.45,460.505 
  "/>
<path clip-path="url(#clip500)" d="M1816.22 435.309 L1816.22 459.658 L1827.24 459.658 Q1833.36 459.658 1836.71 456.49 Q1840.05 453.322 1840.05 447.462 Q1840.05 441.646 1836.71 438.478 Q1833.36 435.309 1827.24 435.309 L1816.22 435.309 M1807.45 428.105 L1827.24 428.105 Q1838.14 428.105 1843.69 433.053 Q1849.29 437.957 1849.29 447.462 Q1849.29 457.054 1843.69 461.959 Q1838.14 466.863 1827.24 466.863 L1816.22 466.863 L1816.22 492.905 L1807.45 492.905 L1807.45 428.105 Z" fill="#000000" fill-rule="evenodd" fill-opacity="1" /><path clip-path="url(#clip500)" d="M1887.31 451.759 Q1885.97 450.978 1884.36 450.631 Q1882.8 450.24 1880.89 450.24 Q1874.12 450.24 1870.47 454.667 Q1866.87 459.051 1866.87 467.297 L1866.87 492.905 L1858.84 492.905 L1858.84 444.294 L1866.87 444.294 L1866.87 451.846 Q1869.39 447.419 1873.42 445.292 Q1877.46 443.122 1883.23 443.122 Q1884.06 443.122 1885.06 443.252 Q1886.05 443.339 1887.27 443.556 L1887.31 451.759 Z" fill="#000000" fill-rule="evenodd" fill-opacity="1" /><path clip-path="url(#clip500)" d="M1935.32 466.603 L1935.32 470.509 L1898.6 470.509 Q1899.12 478.755 1903.55 483.096 Q1908.02 487.393 1915.96 487.393 Q1920.56 487.393 1924.86 486.264 Q1929.2 485.136 1933.45 482.879 L1933.45 490.431 Q1929.15 492.254 1924.64 493.208 Q1920.12 494.163 1915.48 494.163 Q1903.85 494.163 1897.03 487.393 Q1890.26 480.622 1890.26 469.077 Q1890.26 457.141 1896.69 450.153 Q1903.15 443.122 1914.09 443.122 Q1923.9 443.122 1929.59 449.459 Q1935.32 455.752 1935.32 466.603 M1927.33 464.259 Q1927.24 457.705 1923.64 453.799 Q1920.08 449.893 1914.18 449.893 Q1907.49 449.893 1903.46 453.669 Q1899.47 457.445 1898.86 464.302 L1927.33 464.259 Z" fill="#000000" fill-rule="evenodd" fill-opacity="1" /><path clip-path="url(#clip500)" d="M1980.41 451.672 L1980.41 425.37 L1988.4 425.37 L1988.4 492.905 L1980.41 492.905 L1980.41 485.613 Q1977.89 489.953 1974.03 492.08 Q1970.21 494.163 1964.83 494.163 Q1956.02 494.163 1950.46 487.132 Q1944.95 480.101 1944.95 468.643 Q1944.95 457.184 1950.46 450.153 Q1956.02 443.122 1964.83 443.122 Q1970.21 443.122 1974.03 445.249 Q1977.89 447.332 1980.41 451.672 M1953.2 468.643 Q1953.2 477.453 1956.8 482.488 Q1960.45 487.479 1966.78 487.479 Q1973.12 487.479 1976.77 482.488 Q1980.41 477.453 1980.41 468.643 Q1980.41 459.832 1976.77 454.841 Q1973.12 449.806 1966.78 449.806 Q1960.45 449.806 1956.8 454.841 Q1953.2 459.832 1953.2 468.643 Z" fill="#000000" fill-rule="evenodd" fill-opacity="1" /><path clip-path="url(#clip500)" d="M2004.85 444.294 L2012.83 444.294 L2012.83 492.905 L2004.85 492.905 L2004.85 444.294 M2004.85 425.37 L2012.83 425.37 L2012.83 435.483 L2004.85 435.483 L2004.85 425.37 Z" fill="#000000" fill-rule="evenodd" fill-opacity="1" /><path clip-path="url(#clip500)" d="M2064.53 446.16 L2064.53 453.625 Q2061.14 451.759 2057.71 450.848 Q2054.33 449.893 2050.85 449.893 Q2043.08 449.893 2038.79 454.841 Q2034.49 459.745 2034.49 468.643 Q2034.49 477.54 2038.79 482.488 Q2043.08 487.393 2050.85 487.393 Q2054.33 487.393 2057.71 486.481 Q2061.14 485.526 2064.53 483.66 L2064.53 491.038 Q2061.18 492.601 2057.58 493.382 Q2054.02 494.163 2049.99 494.163 Q2039 494.163 2032.54 487.262 Q2026.07 480.361 2026.07 468.643 Q2026.07 456.75 2032.58 449.936 Q2039.13 443.122 2050.51 443.122 Q2054.2 443.122 2057.71 443.903 Q2061.23 444.641 2064.53 446.16 Z" fill="#000000" fill-rule="evenodd" fill-opacity="1" /><path clip-path="url(#clip500)" d="M2086.31 430.492 L2086.31 444.294 L2102.76 444.294 L2102.76 450.5 L2086.31 450.5 L2086.31 476.889 Q2086.31 482.835 2087.92 484.528 Q2089.57 486.221 2094.56 486.221 L2102.76 486.221 L2102.76 492.905 L2094.56 492.905 Q2085.31 492.905 2081.8 489.476 Q2078.28 486.004 2078.28 476.889 L2078.28 450.5 L2072.42 450.5 L2072.42 444.294 L2078.28 444.294 L2078.28 430.492 L2086.31 430.492 Z" fill="#000000" fill-rule="evenodd" fill-opacity="1" /><path clip-path="url(#clip500)" d="M2113.27 444.294 L2121.25 444.294 L2121.25 492.905 L2113.27 492.905 L2113.27 444.294 M2113.27 425.37 L2121.25 425.37 L2121.25 435.483 L2113.27 435.483 L2113.27 425.37 Z" fill="#000000" fill-rule="evenodd" fill-opacity="1" /><path clip-path="url(#clip500)" d="M2156.8 449.893 Q2150.38 449.893 2146.64 454.927 Q2142.91 459.919 2142.91 468.643 Q2142.91 477.367 2146.6 482.401 Q2150.33 487.393 2156.8 487.393 Q2163.18 487.393 2166.91 482.358 Q2170.64 477.323 2170.64 468.643 Q2170.64 460.006 2166.91 454.971 Q2163.18 449.893 2156.8 449.893 M2156.8 443.122 Q2167.22 443.122 2173.16 449.893 Q2179.11 456.664 2179.11 468.643 Q2179.11 480.578 2173.16 487.393 Q2167.22 494.163 2156.8 494.163 Q2146.34 494.163 2140.39 487.393 Q2134.49 480.578 2134.49 468.643 Q2134.49 456.664 2140.39 449.893 Q2146.34 443.122 2156.8 443.122 Z" fill="#000000" fill-rule="evenodd" fill-opacity="1" /><path clip-path="url(#clip500)" d="M2232.75 463.565 L2232.75 492.905 L2224.77 492.905 L2224.77 463.825 Q2224.77 456.924 2222.08 453.495 Q2219.39 450.066 2214 450.066 Q2207.54 450.066 2203.8 454.19 Q2200.07 458.313 2200.07 465.431 L2200.07 492.905 L2192.04 492.905 L2192.04 444.294 L2200.07 444.294 L2200.07 451.846 Q2202.94 447.462 2206.8 445.292 Q2210.7 443.122 2215.78 443.122 Q2224.16 443.122 2228.46 448.33 Q2232.75 453.495 2232.75 463.565 Z" fill="#000000" fill-rule="evenodd" fill-opacity="1" /></svg>
