<?xml version="1.0" encoding="utf-8"?>
<svg xmlns="http://www.w3.org/2000/svg" xmlns:xlink="http://www.w3.org/1999/xlink" width="600" height="400" viewBox="0 0 2400 1600">
<defs>
  <clipPath id="clip990">
    <rect x="0" y="0" width="2400" height="1600"/>
  </clipPath>
</defs>
<path clip-path="url(#clip990)" d="
M0 1600 L2400 1600 L2400 0 L0 0  Z
  " fill="#ffffff" fill-rule="evenodd" fill-opacity="1"/>
<defs>
  <clipPath id="clip991">
    <rect x="480" y="0" width="1681" height="1600"/>
  </clipPath>
</defs>
<path clip-path="url(#clip990)" d="
M192.709 1486.45 L2352.76 1486.45 L2352.76 123.472 L192.709 123.472  Z
  " fill="#ffffff" fill-rule="evenodd" fill-opacity="1"/>
<defs>
  <clipPath id="clip992">
    <rect x="192" y="123" width="2161" height="1364"/>
  </clipPath>
</defs>
<polyline clip-path="url(#clip992)" style="stroke:#000000; stroke-linecap:butt; stroke-linejoin:round; stroke-width:2; stroke-opacity:0.1; fill:none" points="
  253.843,1486.45 253.843,123.472 
  "/>
<polyline clip-path="url(#clip992)" style="stroke:#000000; stroke-linecap:butt; stroke-linejoin:round; stroke-width:2; stroke-opacity:0.1; fill:none" points="
  593.473,1486.45 593.473,123.472 
  "/>
<polyline clip-path="url(#clip992)" style="stroke:#000000; stroke-linecap:butt; stroke-linejoin:round; stroke-width:2; stroke-opacity:0.1; fill:none" points="
  933.103,1486.45 933.103,123.472 
  "/>
<polyline clip-path="url(#clip992)" style="stroke:#000000; stroke-linecap:butt; stroke-linejoin:round; stroke-width:2; stroke-opacity:0.1; fill:none" points="
  1272.73,1486.45 1272.73,123.472 
  "/>
<polyline clip-path="url(#clip992)" style="stroke:#000000; stroke-linecap:butt; stroke-linejoin:round; stroke-width:2; stroke-opacity:0.1; fill:none" points="
  1612.36,1486.45 1612.36,123.472 
  "/>
<polyline clip-path="url(#clip992)" style="stroke:#000000; stroke-linecap:butt; stroke-linejoin:round; stroke-width:2; stroke-opacity:0.1; fill:none" points="
  1951.99,1486.45 1951.99,123.472 
  "/>
<polyline clip-path="url(#clip992)" style="stroke:#000000; stroke-linecap:butt; stroke-linejoin:round; stroke-width:2; stroke-opacity:0.1; fill:none" points="
  2291.62,1486.45 2291.62,123.472 
  "/>
<polyline clip-path="url(#clip990)" style="stroke:#000000; stroke-linecap:butt; stroke-linejoin:round; stroke-width:4; stroke-opacity:1; fill:none" points="
  192.709,1486.45 2352.76,1486.45 
  "/>
<polyline clip-path="url(#clip990)" style="stroke:#000000; stroke-linecap:butt; stroke-linejoin:round; stroke-width:4; stroke-opacity:1; fill:none" points="
  253.843,1486.45 253.843,1467.55 
  "/>
<polyline clip-path="url(#clip990)" style="stroke:#000000; stroke-linecap:butt; stroke-linejoin:round; stroke-width:4; stroke-opacity:1; fill:none" points="
  593.473,1486.45 593.473,1467.55 
  "/>
<polyline clip-path="url(#clip990)" style="stroke:#000000; stroke-linecap:butt; stroke-linejoin:round; stroke-width:4; stroke-opacity:1; fill:none" points="
  933.103,1486.45 933.103,1467.55 
  "/>
<polyline clip-path="url(#clip990)" style="stroke:#000000; stroke-linecap:butt; stroke-linejoin:round; stroke-width:4; stroke-opacity:1; fill:none" points="
  1272.73,1486.45 1272.73,1467.55 
  "/>
<polyline clip-path="url(#clip990)" style="stroke:#000000; stroke-linecap:butt; stroke-linejoin:round; stroke-width:4; stroke-opacity:1; fill:none" points="
  1612.36,1486.45 1612.36,1467.55 
  "/>
<polyline clip-path="url(#clip990)" style="stroke:#000000; stroke-linecap:butt; stroke-linejoin:round; stroke-width:4; stroke-opacity:1; fill:none" points="
  1951.99,1486.45 1951.99,1467.55 
  "/>
<polyline clip-path="url(#clip990)" style="stroke:#000000; stroke-linecap:butt; stroke-linejoin:round; stroke-width:4; stroke-opacity:1; fill:none" points="
  2291.62,1486.45 2291.62,1467.55 
  "/>
<path clip-path="url(#clip990)" d="M223.31 1532.02 L252.986 1532.02 L252.986 1535.95 L223.31 1535.95 L223.31 1532.02 Z" fill="#000000" fill-rule="evenodd" fill-opacity="1" /><path clip-path="url(#clip990)" d="M277.245 1530.21 Q280.602 1530.93 282.477 1533.2 Q284.375 1535.47 284.375 1538.8 Q284.375 1543.92 280.856 1546.72 Q277.338 1549.52 270.856 1549.52 Q268.68 1549.52 266.366 1549.08 Q264.074 1548.66 261.62 1547.81 L261.62 1543.29 Q263.565 1544.43 265.88 1545.01 Q268.194 1545.58 270.717 1545.58 Q275.116 1545.58 277.407 1543.85 Q279.722 1542.11 279.722 1538.8 Q279.722 1535.75 277.569 1534.03 Q275.44 1532.3 271.62 1532.3 L267.592 1532.3 L267.592 1528.45 L271.805 1528.45 Q275.254 1528.45 277.083 1527.09 Q278.912 1525.7 278.912 1523.11 Q278.912 1520.45 277.014 1519.03 Q275.139 1517.6 271.62 1517.6 Q269.699 1517.6 267.5 1518.01 Q265.301 1518.43 262.662 1519.31 L262.662 1515.14 Q265.324 1514.4 267.639 1514.03 Q269.977 1513.66 272.037 1513.66 Q277.361 1513.66 280.463 1516.09 Q283.565 1518.5 283.565 1522.62 Q283.565 1525.49 281.921 1527.48 Q280.278 1529.45 277.245 1530.21 Z" fill="#000000" fill-rule="evenodd" fill-opacity="1" /><path clip-path="url(#clip990)" d="M563.415 1532.02 L593.091 1532.02 L593.091 1535.95 L563.415 1535.95 L563.415 1532.02 Z" fill="#000000" fill-rule="evenodd" fill-opacity="1" /><path clip-path="url(#clip990)" d="M607.211 1544.91 L623.53 1544.91 L623.53 1548.85 L601.586 1548.85 L601.586 1544.91 Q604.248 1542.16 608.831 1537.53 Q613.438 1532.88 614.618 1531.53 Q616.864 1529.01 617.743 1527.27 Q618.646 1525.51 618.646 1523.82 Q618.646 1521.07 616.702 1519.33 Q614.78 1517.6 611.678 1517.6 Q609.479 1517.6 607.026 1518.36 Q604.595 1519.13 601.817 1520.68 L601.817 1515.95 Q604.641 1514.82 607.095 1514.24 Q609.549 1513.66 611.586 1513.66 Q616.956 1513.66 620.151 1516.35 Q623.345 1519.03 623.345 1523.52 Q623.345 1525.65 622.535 1527.57 Q621.748 1529.47 619.641 1532.07 Q619.063 1532.74 615.961 1535.95 Q612.859 1539.15 607.211 1544.91 Z" fill="#000000" fill-rule="evenodd" fill-opacity="1" /><path clip-path="url(#clip990)" d="M902.86 1532.02 L932.535 1532.02 L932.535 1535.95 L902.86 1535.95 L902.86 1532.02 Z" fill="#000000" fill-rule="evenodd" fill-opacity="1" /><path clip-path="url(#clip990)" d="M943.438 1544.91 L951.077 1544.91 L951.077 1518.55 L942.767 1520.21 L942.767 1515.95 L951.031 1514.29 L955.707 1514.29 L955.707 1544.91 L963.345 1544.91 L963.345 1548.85 L943.438 1548.85 L943.438 1544.91 Z" fill="#000000" fill-rule="evenodd" fill-opacity="1" /><path clip-path="url(#clip990)" d="M1272.73 1517.37 Q1269.12 1517.37 1267.29 1520.93 Q1265.49 1524.47 1265.49 1531.6 Q1265.49 1538.71 1267.29 1542.27 Q1269.12 1545.82 1272.73 1545.82 Q1276.37 1545.82 1278.17 1542.27 Q1280 1538.71 1280 1531.6 Q1280 1524.47 1278.17 1520.93 Q1276.37 1517.37 1272.73 1517.37 M1272.73 1513.66 Q1278.54 1513.66 1281.6 1518.27 Q1284.68 1522.85 1284.68 1531.6 Q1284.68 1540.33 1281.6 1544.94 Q1278.54 1549.52 1272.73 1549.52 Q1266.92 1549.52 1263.84 1544.94 Q1260.79 1540.33 1260.79 1531.6 Q1260.79 1522.85 1263.84 1518.27 Q1266.92 1513.66 1272.73 1513.66 Z" fill="#000000" fill-rule="evenodd" fill-opacity="1" /><path clip-path="url(#clip990)" d="M1602.74 1544.91 L1610.38 1544.91 L1610.38 1518.55 L1602.07 1520.21 L1602.07 1515.95 L1610.34 1514.29 L1615.01 1514.29 L1615.01 1544.91 L1622.65 1544.91 L1622.65 1548.85 L1602.74 1548.85 L1602.74 1544.91 Z" fill="#000000" fill-rule="evenodd" fill-opacity="1" /><path clip-path="url(#clip990)" d="M1946.65 1544.91 L1962.96 1544.91 L1962.96 1548.85 L1941.02 1548.85 L1941.02 1544.91 Q1943.68 1542.16 1948.27 1537.53 Q1952.87 1532.88 1954.05 1531.53 Q1956.3 1529.01 1957.18 1527.27 Q1958.08 1525.51 1958.08 1523.82 Q1958.08 1521.07 1956.14 1519.33 Q1954.21 1517.6 1951.11 1517.6 Q1948.91 1517.6 1946.46 1518.36 Q1944.03 1519.13 1941.25 1520.68 L1941.25 1515.95 Q1944.08 1514.82 1946.53 1514.24 Q1948.98 1513.66 1951.02 1513.66 Q1956.39 1513.66 1959.59 1516.35 Q1962.78 1519.03 1962.78 1523.52 Q1962.78 1525.65 1961.97 1527.57 Q1961.18 1529.47 1959.08 1532.07 Q1958.5 1532.74 1955.4 1535.95 Q1952.29 1539.15 1946.65 1544.91 Z" fill="#000000" fill-rule="evenodd" fill-opacity="1" /><path clip-path="url(#clip990)" d="M2295.87 1530.21 Q2299.23 1530.93 2301.1 1533.2 Q2303 1535.47 2303 1538.8 Q2303 1543.92 2299.48 1546.72 Q2295.96 1549.52 2289.48 1549.52 Q2287.31 1549.52 2284.99 1549.08 Q2282.7 1548.66 2280.25 1547.81 L2280.25 1543.29 Q2282.19 1544.43 2284.5 1545.01 Q2286.82 1545.58 2289.34 1545.58 Q2293.74 1545.58 2296.03 1543.85 Q2298.35 1542.11 2298.35 1538.8 Q2298.35 1535.75 2296.19 1534.03 Q2294.06 1532.3 2290.25 1532.3 L2286.22 1532.3 L2286.22 1528.45 L2290.43 1528.45 Q2293.88 1528.45 2295.71 1527.09 Q2297.54 1525.7 2297.54 1523.11 Q2297.54 1520.45 2295.64 1519.03 Q2293.76 1517.6 2290.25 1517.6 Q2288.32 1517.6 2286.12 1518.01 Q2283.93 1518.43 2281.29 1519.31 L2281.29 1515.14 Q2283.95 1514.4 2286.26 1514.03 Q2288.6 1513.66 2290.66 1513.66 Q2295.99 1513.66 2299.09 1516.09 Q2302.19 1518.5 2302.19 1522.62 Q2302.19 1525.49 2300.55 1527.48 Q2298.9 1529.45 2295.87 1530.21 Z" fill="#000000" fill-rule="evenodd" fill-opacity="1" /><polyline clip-path="url(#clip992)" style="stroke:#000000; stroke-linecap:butt; stroke-linejoin:round; stroke-width:2; stroke-opacity:0.1; fill:none" points="
  192.709,1411.2 2352.76,1411.2 
  "/>
<polyline clip-path="url(#clip992)" style="stroke:#000000; stroke-linecap:butt; stroke-linejoin:round; stroke-width:2; stroke-opacity:0.1; fill:none" points="
  192.709,1198.27 2352.76,1198.27 
  "/>
<polyline clip-path="url(#clip992)" style="stroke:#000000; stroke-linecap:butt; stroke-linejoin:round; stroke-width:2; stroke-opacity:0.1; fill:none" points="
  192.709,985.344 2352.76,985.344 
  "/>
<polyline clip-path="url(#clip992)" style="stroke:#000000; stroke-linecap:butt; stroke-linejoin:round; stroke-width:2; stroke-opacity:0.1; fill:none" points="
  192.709,772.416 2352.76,772.416 
  "/>
<polyline clip-path="url(#clip992)" style="stroke:#000000; stroke-linecap:butt; stroke-linejoin:round; stroke-width:2; stroke-opacity:0.1; fill:none" points="
  192.709,559.489 2352.76,559.489 
  "/>
<polyline clip-path="url(#clip992)" style="stroke:#000000; stroke-linecap:butt; stroke-linejoin:round; stroke-width:2; stroke-opacity:0.1; fill:none" points="
  192.709,346.561 2352.76,346.561 
  "/>
<polyline clip-path="url(#clip992)" style="stroke:#000000; stroke-linecap:butt; stroke-linejoin:round; stroke-width:2; stroke-opacity:0.1; fill:none" points="
  192.709,133.633 2352.76,133.633 
  "/>
<polyline clip-path="url(#clip990)" style="stroke:#000000; stroke-linecap:butt; stroke-linejoin:round; stroke-width:4; stroke-opacity:1; fill:none" points="
  192.709,1486.45 192.709,123.472 
  "/>
<polyline clip-path="url(#clip990)" style="stroke:#000000; stroke-linecap:butt; stroke-linejoin:round; stroke-width:4; stroke-opacity:1; fill:none" points="
  192.709,1411.2 211.607,1411.2 
  "/>
<polyline clip-path="url(#clip990)" style="stroke:#000000; stroke-linecap:butt; stroke-linejoin:round; stroke-width:4; stroke-opacity:1; fill:none" points="
  192.709,1198.27 211.607,1198.27 
  "/>
<polyline clip-path="url(#clip990)" style="stroke:#000000; stroke-linecap:butt; stroke-linejoin:round; stroke-width:4; stroke-opacity:1; fill:none" points="
  192.709,985.344 211.607,985.344 
  "/>
<polyline clip-path="url(#clip990)" style="stroke:#000000; stroke-linecap:butt; stroke-linejoin:round; stroke-width:4; stroke-opacity:1; fill:none" points="
  192.709,772.416 211.607,772.416 
  "/>
<polyline clip-path="url(#clip990)" style="stroke:#000000; stroke-linecap:butt; stroke-linejoin:round; stroke-width:4; stroke-opacity:1; fill:none" points="
  192.709,559.489 211.607,559.489 
  "/>
<polyline clip-path="url(#clip990)" style="stroke:#000000; stroke-linecap:butt; stroke-linejoin:round; stroke-width:4; stroke-opacity:1; fill:none" points="
  192.709,346.561 211.607,346.561 
  "/>
<polyline clip-path="url(#clip990)" style="stroke:#000000; stroke-linecap:butt; stroke-linejoin:round; stroke-width:4; stroke-opacity:1; fill:none" points="
  192.709,133.633 211.607,133.633 
  "/>
<path clip-path="url(#clip990)" d="M51.3625 1411.65 L81.0383 1411.65 L81.0383 1415.59 L51.3625 1415.59 L51.3625 1411.65 Z" fill="#000000" fill-rule="evenodd" fill-opacity="1" /><path clip-path="url(#clip990)" d="M101.131 1397 Q97.5197 1397 95.691 1400.56 Q93.8854 1404.1 93.8854 1411.23 Q93.8854 1418.34 95.691 1421.91 Q97.5197 1425.45 101.131 1425.45 Q104.765 1425.45 106.571 1421.91 Q108.399 1418.34 108.399 1411.23 Q108.399 1404.1 106.571 1400.56 Q104.765 1397 101.131 1397 M101.131 1393.29 Q106.941 1393.29 109.996 1397.9 Q113.075 1402.48 113.075 1411.23 Q113.075 1419.96 109.996 1424.57 Q106.941 1429.15 101.131 1429.15 Q95.3206 1429.15 92.2419 1424.57 Q89.1864 1419.96 89.1864 1411.23 Q89.1864 1402.48 92.2419 1397.9 Q95.3206 1393.29 101.131 1393.29 Z" fill="#000000" fill-rule="evenodd" fill-opacity="1" /><path clip-path="url(#clip990)" d="M121.293 1422.6 L126.177 1422.6 L126.177 1428.48 L121.293 1428.48 L121.293 1422.6 Z" fill="#000000" fill-rule="evenodd" fill-opacity="1" /><path clip-path="url(#clip990)" d="M140.39 1424.54 L156.709 1424.54 L156.709 1428.48 L134.765 1428.48 L134.765 1424.54 Q137.427 1421.79 142.01 1417.16 Q146.617 1412.51 147.797 1411.17 Q150.043 1408.64 150.922 1406.91 Q151.825 1405.15 151.825 1403.46 Q151.825 1400.7 149.88 1398.97 Q147.959 1397.23 144.857 1397.23 Q142.658 1397.23 140.205 1397.99 Q137.774 1398.76 134.996 1400.31 L134.996 1395.59 Q137.82 1394.45 140.274 1393.87 Q142.728 1393.29 144.765 1393.29 Q150.135 1393.29 153.33 1395.98 Q156.524 1398.67 156.524 1403.16 Q156.524 1405.29 155.714 1407.21 Q154.927 1409.1 152.82 1411.7 Q152.242 1412.37 149.14 1415.59 Q146.038 1418.78 140.39 1424.54 Z" fill="#000000" fill-rule="evenodd" fill-opacity="1" /><path clip-path="url(#clip990)" d="M50.9921 1198.72 L80.6679 1198.72 L80.6679 1202.66 L50.9921 1202.66 L50.9921 1198.72 Z" fill="#000000" fill-rule="evenodd" fill-opacity="1" /><path clip-path="url(#clip990)" d="M100.76 1184.07 Q97.1493 1184.07 95.3206 1187.64 Q93.515 1191.18 93.515 1198.31 Q93.515 1205.41 95.3206 1208.98 Q97.1493 1212.52 100.76 1212.52 Q104.395 1212.52 106.2 1208.98 Q108.029 1205.41 108.029 1198.31 Q108.029 1191.18 106.2 1187.64 Q104.395 1184.07 100.76 1184.07 M100.76 1180.37 Q106.571 1180.37 109.626 1184.97 Q112.705 1189.56 112.705 1198.31 Q112.705 1207.03 109.626 1211.64 Q106.571 1216.22 100.76 1216.22 Q94.9502 1216.22 91.8715 1211.64 Q88.816 1207.03 88.816 1198.31 Q88.816 1189.56 91.8715 1184.97 Q94.9502 1180.37 100.76 1180.37 Z" fill="#000000" fill-rule="evenodd" fill-opacity="1" /><path clip-path="url(#clip990)" d="M120.922 1209.67 L125.807 1209.67 L125.807 1215.55 L120.922 1215.55 L120.922 1209.67 Z" fill="#000000" fill-rule="evenodd" fill-opacity="1" /><path clip-path="url(#clip990)" d="M136.802 1211.62 L144.441 1211.62 L144.441 1185.25 L136.131 1186.92 L136.131 1182.66 L144.394 1180.99 L149.07 1180.99 L149.07 1211.62 L156.709 1211.62 L156.709 1215.55 L136.802 1215.55 L136.802 1211.62 Z" fill="#000000" fill-rule="evenodd" fill-opacity="1" /><path clip-path="url(#clip990)" d="M99.5335 971.143 Q95.9224 971.143 94.0937 974.708 Q92.2882 978.249 92.2882 985.379 Q92.2882 992.485 94.0937 996.05 Q95.9224 999.592 99.5335 999.592 Q103.168 999.592 104.973 996.05 Q106.802 992.485 106.802 985.379 Q106.802 978.249 104.973 974.708 Q103.168 971.143 99.5335 971.143 M99.5335 967.439 Q105.344 967.439 108.399 972.046 Q111.478 976.629 111.478 985.379 Q111.478 994.106 108.399 998.712 Q105.344 1003.3 99.5335 1003.3 Q93.7234 1003.3 90.6447 998.712 Q87.5892 994.106 87.5892 985.379 Q87.5892 976.629 90.6447 972.046 Q93.7234 967.439 99.5335 967.439 Z" fill="#000000" fill-rule="evenodd" fill-opacity="1" /><path clip-path="url(#clip990)" d="M119.695 996.745 L124.58 996.745 L124.58 1002.62 L119.695 1002.62 L119.695 996.745 Z" fill="#000000" fill-rule="evenodd" fill-opacity="1" /><path clip-path="url(#clip990)" d="M144.765 971.143 Q141.154 971.143 139.325 974.708 Q137.519 978.249 137.519 985.379 Q137.519 992.485 139.325 996.05 Q141.154 999.592 144.765 999.592 Q148.399 999.592 150.205 996.05 Q152.033 992.485 152.033 985.379 Q152.033 978.249 150.205 974.708 Q148.399 971.143 144.765 971.143 M144.765 967.439 Q150.575 967.439 153.63 972.046 Q156.709 976.629 156.709 985.379 Q156.709 994.106 153.63 998.712 Q150.575 1003.3 144.765 1003.3 Q138.955 1003.3 135.876 998.712 Q132.82 994.106 132.82 985.379 Q132.82 976.629 135.876 972.046 Q138.955 967.439 144.765 967.439 Z" fill="#000000" fill-rule="evenodd" fill-opacity="1" /><path clip-path="url(#clip990)" d="M100.76 758.215 Q97.1493 758.215 95.3206 761.78 Q93.515 765.322 93.515 772.451 Q93.515 779.558 95.3206 783.122 Q97.1493 786.664 100.76 786.664 Q104.395 786.664 106.2 783.122 Q108.029 779.558 108.029 772.451 Q108.029 765.322 106.2 761.78 Q104.395 758.215 100.76 758.215 M100.76 754.511 Q106.571 754.511 109.626 759.118 Q112.705 763.701 112.705 772.451 Q112.705 781.178 109.626 785.784 Q106.571 790.368 100.76 790.368 Q94.9502 790.368 91.8715 785.784 Q88.816 781.178 88.816 772.451 Q88.816 763.701 91.8715 759.118 Q94.9502 754.511 100.76 754.511 Z" fill="#000000" fill-rule="evenodd" fill-opacity="1" /><path clip-path="url(#clip990)" d="M120.922 783.817 L125.807 783.817 L125.807 789.696 L120.922 789.696 L120.922 783.817 Z" fill="#000000" fill-rule="evenodd" fill-opacity="1" /><path clip-path="url(#clip990)" d="M136.802 785.761 L144.441 785.761 L144.441 759.396 L136.131 761.062 L136.131 756.803 L144.394 755.136 L149.07 755.136 L149.07 785.761 L156.709 785.761 L156.709 789.696 L136.802 789.696 L136.802 785.761 Z" fill="#000000" fill-rule="evenodd" fill-opacity="1" /><path clip-path="url(#clip990)" d="M101.131 545.287 Q97.5197 545.287 95.691 548.852 Q93.8854 552.394 93.8854 559.523 Q93.8854 566.63 95.691 570.195 Q97.5197 573.736 101.131 573.736 Q104.765 573.736 106.571 570.195 Q108.399 566.63 108.399 559.523 Q108.399 552.394 106.571 548.852 Q104.765 545.287 101.131 545.287 M101.131 541.584 Q106.941 541.584 109.996 546.19 Q113.075 550.773 113.075 559.523 Q113.075 568.25 109.996 572.857 Q106.941 577.44 101.131 577.44 Q95.3206 577.44 92.2419 572.857 Q89.1864 568.25 89.1864 559.523 Q89.1864 550.773 92.2419 546.19 Q95.3206 541.584 101.131 541.584 Z" fill="#000000" fill-rule="evenodd" fill-opacity="1" /><path clip-path="url(#clip990)" d="M121.293 570.889 L126.177 570.889 L126.177 576.769 L121.293 576.769 L121.293 570.889 Z" fill="#000000" fill-rule="evenodd" fill-opacity="1" /><path clip-path="url(#clip990)" d="M140.39 572.834 L156.709 572.834 L156.709 576.769 L134.765 576.769 L134.765 572.834 Q137.427 570.079 142.01 565.449 Q146.617 560.797 147.797 559.454 Q150.043 556.931 150.922 555.195 Q151.825 553.435 151.825 551.746 Q151.825 548.991 149.88 547.255 Q147.959 545.519 144.857 545.519 Q142.658 545.519 140.205 546.283 Q137.774 547.047 134.996 548.598 L134.996 543.875 Q137.82 542.741 140.274 542.162 Q142.728 541.584 144.765 541.584 Q150.135 541.584 153.33 544.269 Q156.524 546.954 156.524 551.445 Q156.524 553.574 155.714 555.496 Q154.927 557.394 152.82 559.986 Q152.242 560.658 149.14 563.875 Q146.038 567.07 140.39 572.834 Z" fill="#000000" fill-rule="evenodd" fill-opacity="1" /><path clip-path="url(#clip990)" d="M100.182 332.36 Q96.5706 332.36 94.7419 335.924 Q92.9363 339.466 92.9363 346.596 Q92.9363 353.702 94.7419 357.267 Q96.5706 360.809 100.182 360.809 Q103.816 360.809 105.621 357.267 Q107.45 353.702 107.45 346.596 Q107.45 339.466 105.621 335.924 Q103.816 332.36 100.182 332.36 M100.182 328.656 Q105.992 328.656 109.047 333.262 Q112.126 337.846 112.126 346.596 Q112.126 355.322 109.047 359.929 Q105.992 364.512 100.182 364.512 Q94.3715 364.512 91.2928 359.929 Q88.2373 355.322 88.2373 346.596 Q88.2373 337.846 91.2928 333.262 Q94.3715 328.656 100.182 328.656 Z" fill="#000000" fill-rule="evenodd" fill-opacity="1" /><path clip-path="url(#clip990)" d="M120.344 357.961 L125.228 357.961 L125.228 363.841 L120.344 363.841 L120.344 357.961 Z" fill="#000000" fill-rule="evenodd" fill-opacity="1" /><path clip-path="url(#clip990)" d="M149.58 345.207 Q152.936 345.924 154.811 348.193 Q156.709 350.461 156.709 353.795 Q156.709 358.91 153.191 361.711 Q149.672 364.512 143.191 364.512 Q141.015 364.512 138.7 364.072 Q136.408 363.656 133.955 362.799 L133.955 358.285 Q135.899 359.42 138.214 359.998 Q140.529 360.577 143.052 360.577 Q147.45 360.577 149.742 358.841 Q152.056 357.105 152.056 353.795 Q152.056 350.739 149.904 349.026 Q147.774 347.29 143.955 347.29 L139.927 347.29 L139.927 343.448 L144.14 343.448 Q147.589 343.448 149.418 342.082 Q151.246 340.693 151.246 338.1 Q151.246 335.438 149.348 334.026 Q147.473 332.591 143.955 332.591 Q142.033 332.591 139.834 333.008 Q137.635 333.424 134.996 334.304 L134.996 330.137 Q137.658 329.397 139.973 329.026 Q142.311 328.656 144.371 328.656 Q149.695 328.656 152.797 331.086 Q155.899 333.494 155.899 337.614 Q155.899 340.485 154.255 342.475 Q152.612 344.443 149.58 345.207 Z" fill="#000000" fill-rule="evenodd" fill-opacity="1" /><path clip-path="url(#clip990)" d="M99.0474 119.432 Q95.4363 119.432 93.6076 122.997 Q91.8021 126.538 91.8021 133.668 Q91.8021 140.774 93.6076 144.339 Q95.4363 147.881 99.0474 147.881 Q102.682 147.881 104.487 144.339 Q106.316 140.774 106.316 133.668 Q106.316 126.538 104.487 122.997 Q102.682 119.432 99.0474 119.432 M99.0474 115.728 Q104.858 115.728 107.913 120.335 Q110.992 124.918 110.992 133.668 Q110.992 142.395 107.913 147.001 Q104.858 151.584 99.0474 151.584 Q93.2373 151.584 90.1586 147.001 Q87.103 142.395 87.103 133.668 Q87.103 124.918 90.1586 120.335 Q93.2373 115.728 99.0474 115.728 Z" fill="#000000" fill-rule="evenodd" fill-opacity="1" /><path clip-path="url(#clip990)" d="M119.209 145.034 L124.094 145.034 L124.094 150.913 L119.209 150.913 L119.209 145.034 Z" fill="#000000" fill-rule="evenodd" fill-opacity="1" /><path clip-path="url(#clip990)" d="M147.126 120.427 L135.32 138.876 L147.126 138.876 L147.126 120.427 M145.899 116.353 L151.779 116.353 L151.779 138.876 L156.709 138.876 L156.709 142.765 L151.779 142.765 L151.779 150.913 L147.126 150.913 L147.126 142.765 L131.524 142.765 L131.524 138.251 L145.899 116.353 Z" fill="#000000" fill-rule="evenodd" fill-opacity="1" /><path clip-path="url(#clip990)" d="M666.474 12.096 L674.657 12.096 L674.657 65.6895 L704.107 65.6895 L704.107 72.576 L666.474 72.576 L666.474 12.096 Z" fill="#000000" fill-rule="evenodd" fill-opacity="1" /><path clip-path="url(#clip990)" d="M728.494 32.4315 Q722.498 32.4315 719.014 37.1306 Q715.531 41.7891 715.531 49.9314 Q715.531 58.0738 718.974 62.7728 Q722.458 67.4314 728.494 67.4314 Q734.448 67.4314 737.932 62.7323 Q741.416 58.0333 741.416 49.9314 Q741.416 41.8701 737.932 37.1711 Q734.448 32.4315 728.494 32.4315 M728.494 26.1121 Q738.216 26.1121 743.765 32.4315 Q749.315 38.7509 749.315 49.9314 Q749.315 61.0714 743.765 67.4314 Q738.216 73.7508 728.494 73.7508 Q718.731 73.7508 713.181 67.4314 Q707.672 61.0714 707.672 49.9314 Q707.672 38.7509 713.181 32.4315 Q718.731 26.1121 728.494 26.1121 Z" fill="#000000" fill-rule="evenodd" fill-opacity="1" /><path clip-path="url(#clip990)" d="M790.594 28.5427 L790.594 35.5912 Q787.434 33.9709 784.031 33.1607 Q780.629 32.3505 776.983 32.3505 Q771.433 32.3505 768.638 34.0519 Q765.883 35.7533 765.883 39.156 Q765.883 41.7486 767.868 43.2475 Q769.853 44.7058 775.849 46.0426 L778.401 46.6097 Q786.34 48.3111 789.662 51.4303 Q793.024 54.509 793.024 60.0587 Q793.024 66.3781 788.001 70.0644 Q783.019 73.7508 774.269 73.7508 Q770.623 73.7508 766.653 73.0216 Q762.724 72.3329 758.349 70.9151 L758.349 63.2184 Q762.481 65.3654 766.491 66.4591 Q770.501 67.5124 774.431 67.5124 Q779.697 67.5124 782.533 65.73 Q785.368 63.9071 785.368 60.6258 Q785.368 57.5877 783.302 55.9673 Q781.277 54.3469 774.35 52.8481 L771.757 52.2405 Q764.83 50.7821 761.751 47.7845 Q758.673 44.7463 758.673 39.4801 Q758.673 33.0797 763.21 29.5959 Q767.747 26.1121 776.092 26.1121 Q780.224 26.1121 783.869 26.7198 Q787.515 27.3274 790.594 28.5427 Z" fill="#000000" fill-rule="evenodd" fill-opacity="1" /><path clip-path="url(#clip990)" d="M833.817 28.5427 L833.817 35.5912 Q830.657 33.9709 827.255 33.1607 Q823.852 32.3505 820.206 32.3505 Q814.656 32.3505 811.861 34.0519 Q809.107 35.7533 809.107 39.156 Q809.107 41.7486 811.091 43.2475 Q813.076 44.7058 819.072 46.0426 L821.624 46.6097 Q829.564 48.3111 832.885 51.4303 Q836.248 54.509 836.248 60.0587 Q836.248 66.3781 831.224 70.0644 Q826.242 73.7508 817.492 73.7508 Q813.846 73.7508 809.876 73.0216 Q805.947 72.3329 801.572 70.9151 L801.572 63.2184 Q805.704 65.3654 809.714 66.4591 Q813.725 67.5124 817.654 67.5124 Q822.92 67.5124 825.756 65.73 Q828.591 63.9071 828.591 60.6258 Q828.591 57.5877 826.525 55.9673 Q824.5 54.3469 817.573 52.8481 L814.98 52.2405 Q808.053 50.7821 804.975 47.7845 Q801.896 44.7463 801.896 39.4801 Q801.896 33.0797 806.433 29.5959 Q810.97 26.1121 819.315 26.1121 Q823.447 26.1121 827.093 26.7198 Q830.738 27.3274 833.817 28.5427 Z" fill="#000000" fill-rule="evenodd" fill-opacity="1" /><path clip-path="url(#clip990)" d="M875.46 34.9026 L927.393 34.9026 L927.393 41.7081 L875.46 41.7081 L875.46 34.9026 M875.46 51.4303 L927.393 51.4303 L927.393 58.3168 L875.46 58.3168 L875.46 51.4303 Z" fill="#000000" fill-rule="evenodd" fill-opacity="1" /><path clip-path="url(#clip990)" d="M989.939 39.075 Q984.43 39.075 981.189 42.8424 Q977.989 46.6097 977.989 53.1722 Q977.989 59.6941 981.189 63.502 Q984.43 67.2693 989.939 67.2693 Q995.448 67.2693 998.648 63.502 Q1001.89 59.6941 1001.89 53.1722 Q1001.89 46.6097 998.648 42.8424 Q995.448 39.075 989.939 39.075 M1006.18 13.4328 L1006.18 20.8865 Q1003.1 19.4281 999.945 18.6585 Q996.825 17.8888 993.747 17.8888 Q985.645 17.8888 981.351 23.3575 Q977.098 28.8262 976.49 39.8852 Q978.88 36.3609 982.485 34.4975 Q986.091 32.5936 990.425 32.5936 Q999.54 32.5936 1004.81 38.1433 Q1010.11 43.6525 1010.11 53.1722 Q1010.11 62.4892 1004.6 68.12 Q999.094 73.7508 989.939 73.7508 Q979.447 73.7508 973.897 65.73 Q968.348 57.6687 968.348 42.3968 Q968.348 28.0566 975.153 19.5497 Q981.959 11.0023 993.423 11.0023 Q996.501 11.0023 999.621 11.6099 Q1002.78 12.2175 1006.18 13.4328 Z" fill="#000000" fill-rule="evenodd" fill-opacity="1" /><path clip-path="url(#clip990)" d="M1031.26 65.6895 L1059.82 65.6895 L1059.82 72.576 L1021.41 72.576 L1021.41 65.6895 Q1026.07 60.8689 1034.09 52.7671 Q1042.16 44.6248 1044.22 42.2752 Q1048.15 37.8598 1049.69 34.8216 Q1051.27 31.7429 1051.27 28.7857 Q1051.27 23.9651 1047.87 20.927 Q1044.5 17.8888 1039.08 17.8888 Q1035.23 17.8888 1030.93 19.2256 Q1026.68 20.5624 1021.82 23.2765 L1021.82 15.0127 Q1026.76 13.0277 1031.06 12.015 Q1035.35 11.0023 1038.91 11.0023 Q1048.31 11.0023 1053.9 15.7013 Q1059.49 20.4004 1059.49 28.2591 Q1059.49 31.9859 1058.08 35.3482 Q1056.7 38.6699 1053.01 43.2069 Q1052 44.3817 1046.57 50.0125 Q1041.14 55.6027 1031.26 65.6895 Z" fill="#000000" fill-rule="evenodd" fill-opacity="1" /><path clip-path="url(#clip990)" d="M1077.24 71.3202 L1077.24 63.8666 Q1080.31 65.3249 1083.47 66.0946 Q1086.63 66.8642 1089.67 66.8642 Q1097.77 66.8642 1102.03 61.436 Q1106.32 55.9673 1106.93 44.8678 Q1104.58 48.3516 1100.97 50.215 Q1097.37 52.0784 1092.99 52.0784 Q1083.92 52.0784 1078.61 46.6097 Q1073.35 41.1005 1073.35 31.5808 Q1073.35 22.2638 1078.86 16.633 Q1084.37 11.0023 1093.52 11.0023 Q1104.01 11.0023 1109.52 19.0636 Q1115.07 27.0843 1115.07 42.3968 Q1115.07 56.6965 1108.27 65.2439 Q1101.5 73.7508 1090.04 73.7508 Q1086.96 73.7508 1083.8 73.1431 Q1080.64 72.5355 1077.24 71.3202 M1093.52 45.678 Q1099.03 45.678 1102.23 41.9107 Q1105.47 38.1433 1105.47 31.5808 Q1105.47 25.0589 1102.23 21.2916 Q1099.03 17.4837 1093.52 17.4837 Q1088.01 17.4837 1084.77 21.2916 Q1081.57 25.0589 1081.57 31.5808 Q1081.57 38.1433 1084.77 41.9107 Q1088.01 45.678 1093.52 45.678 Z" fill="#000000" fill-rule="evenodd" fill-opacity="1" /><path clip-path="url(#clip990)" d="M1147.28 43.8551 Q1141.44 43.8551 1138.08 46.9743 Q1134.76 50.0935 1134.76 55.5622 Q1134.76 61.0309 1138.08 64.1501 Q1141.44 67.2693 1147.28 67.2693 Q1153.11 67.2693 1156.47 64.1501 Q1159.83 60.9904 1159.83 55.5622 Q1159.83 50.0935 1156.47 46.9743 Q1153.15 43.8551 1147.28 43.8551 M1139.09 40.3713 Q1133.83 39.075 1130.87 35.4697 Q1127.95 31.8644 1127.95 26.6793 Q1127.95 19.4281 1133.1 15.2152 Q1138.28 11.0023 1147.28 11.0023 Q1156.31 11.0023 1161.45 15.2152 Q1166.6 19.4281 1166.6 26.6793 Q1166.6 31.8644 1163.64 35.4697 Q1160.73 39.075 1155.5 40.3713 Q1161.41 41.7486 1164.69 45.759 Q1168.02 49.7694 1168.02 55.5622 Q1168.02 64.3527 1162.63 69.0517 Q1157.28 73.7508 1147.28 73.7508 Q1137.27 73.7508 1131.88 69.0517 Q1126.54 64.3527 1126.54 55.5622 Q1126.54 49.7694 1129.86 45.759 Q1133.18 41.7486 1139.09 40.3713 M1136.1 27.4489 Q1136.1 32.148 1139.01 34.7811 Q1141.97 37.4142 1147.28 37.4142 Q1152.54 37.4142 1155.5 34.7811 Q1158.5 32.148 1158.5 27.4489 Q1158.5 22.7499 1155.5 20.1168 Q1152.54 17.4837 1147.28 17.4837 Q1141.97 17.4837 1139.01 20.1168 Q1136.1 22.7499 1136.1 27.4489 Z" fill="#000000" fill-rule="evenodd" fill-opacity="1" /><path clip-path="url(#clip990)" d="M1182.56 62.2867 L1191.11 62.2867 L1191.11 72.576 L1182.56 72.576 L1182.56 62.2867 Z" fill="#000000" fill-rule="evenodd" fill-opacity="1" /><path clip-path="url(#clip990)" d="M1209.01 12.096 L1241.14 12.096 L1241.14 18.9825 L1216.51 18.9825 L1216.51 33.8088 Q1218.29 33.2012 1220.07 32.9176 Q1221.85 32.5936 1223.64 32.5936 Q1233.76 32.5936 1239.68 38.1433 Q1245.59 43.6931 1245.59 53.1722 Q1245.59 62.9348 1239.52 68.3631 Q1233.44 73.7508 1222.38 73.7508 Q1218.57 73.7508 1214.6 73.1026 Q1210.67 72.4545 1206.46 71.1582 L1206.46 62.9348 Q1210.11 64.9198 1213.99 65.892 Q1217.88 66.8642 1222.22 66.8642 Q1229.23 66.8642 1233.32 63.1779 Q1237.41 59.4916 1237.41 53.1722 Q1237.41 46.8528 1233.32 43.1664 Q1229.23 39.4801 1222.22 39.4801 Q1218.94 39.4801 1215.66 40.2093 Q1212.41 40.9384 1209.01 42.4778 L1209.01 12.096 Z" fill="#000000" fill-rule="evenodd" fill-opacity="1" /><path clip-path="url(#clip990)" d="M1279.21 43.8551 Q1273.38 43.8551 1270.02 46.9743 Q1266.7 50.0935 1266.7 55.5622 Q1266.7 61.0309 1270.02 64.1501 Q1273.38 67.2693 1279.21 67.2693 Q1285.05 67.2693 1288.41 64.1501 Q1291.77 60.9904 1291.77 55.5622 Q1291.77 50.0935 1288.41 46.9743 Q1285.09 43.8551 1279.21 43.8551 M1271.03 40.3713 Q1265.76 39.075 1262.81 35.4697 Q1259.89 31.8644 1259.89 26.6793 Q1259.89 19.4281 1265.04 15.2152 Q1270.22 11.0023 1279.21 11.0023 Q1288.25 11.0023 1293.39 15.2152 Q1298.54 19.4281 1298.54 26.6793 Q1298.54 31.8644 1295.58 35.4697 Q1292.66 39.075 1287.44 40.3713 Q1293.35 41.7486 1296.63 45.759 Q1299.95 49.7694 1299.95 55.5622 Q1299.95 64.3527 1294.57 69.0517 Q1289.22 73.7508 1279.21 73.7508 Q1269.21 73.7508 1263.82 69.0517 Q1258.47 64.3527 1258.47 55.5622 Q1258.47 49.7694 1261.8 45.759 Q1265.12 41.7486 1271.03 40.3713 M1268.03 27.4489 Q1268.03 32.148 1270.95 34.7811 Q1273.91 37.4142 1279.21 37.4142 Q1284.48 37.4142 1287.44 34.7811 Q1290.43 32.148 1290.43 27.4489 Q1290.43 22.7499 1287.44 20.1168 Q1284.48 17.4837 1279.21 17.4837 Q1273.91 17.4837 1270.95 20.1168 Q1268.03 22.7499 1268.03 27.4489 Z" fill="#000000" fill-rule="evenodd" fill-opacity="1" /><path clip-path="url(#clip990)" d="M1333.01 39.075 Q1327.5 39.075 1324.26 42.8424 Q1321.06 46.6097 1321.06 53.1722 Q1321.06 59.6941 1324.26 63.502 Q1327.5 67.2693 1333.01 67.2693 Q1338.52 67.2693 1341.72 63.502 Q1344.96 59.6941 1344.96 53.1722 Q1344.96 46.6097 1341.72 42.8424 Q1338.52 39.075 1333.01 39.075 M1349.25 13.4328 L1349.25 20.8865 Q1346.18 19.4281 1343.02 18.6585 Q1339.9 17.8888 1336.82 17.8888 Q1328.72 17.8888 1324.42 23.3575 Q1320.17 28.8262 1319.56 39.8852 Q1321.95 36.3609 1325.56 34.4975 Q1329.16 32.5936 1333.5 32.5936 Q1342.61 32.5936 1347.88 38.1433 Q1353.18 43.6525 1353.18 53.1722 Q1353.18 62.4892 1347.67 68.12 Q1342.17 73.7508 1333.01 73.7508 Q1322.52 73.7508 1316.97 65.73 Q1311.42 57.6687 1311.42 42.3968 Q1311.42 28.0566 1318.22 19.5497 Q1325.03 11.0023 1336.49 11.0023 Q1339.57 11.0023 1342.69 11.6099 Q1345.85 12.2175 1349.25 13.4328 Z" fill="#000000" fill-rule="evenodd" fill-opacity="1" /><path clip-path="url(#clip990)" d="M1368.7 65.6895 L1382.07 65.6895 L1382.07 19.5497 L1367.52 22.4663 L1367.52 15.0127 L1381.99 12.096 L1390.17 12.096 L1390.17 65.6895 L1403.54 65.6895 L1403.54 72.576 L1368.7 72.576 L1368.7 65.6895 Z" fill="#000000" fill-rule="evenodd" fill-opacity="1" /><path clip-path="url(#clip990)" d="M1437.56 17.4837 Q1431.24 17.4837 1428.04 23.7221 Q1424.88 29.92 1424.88 42.3968 Q1424.88 54.833 1428.04 61.0714 Q1431.24 67.2693 1437.56 67.2693 Q1443.92 67.2693 1447.08 61.0714 Q1450.28 54.833 1450.28 42.3968 Q1450.28 29.92 1447.08 23.7221 Q1443.92 17.4837 1437.56 17.4837 M1437.56 11.0023 Q1447.73 11.0023 1453.08 19.0636 Q1458.47 27.0843 1458.47 42.3968 Q1458.47 57.6687 1453.08 65.73 Q1447.73 73.7508 1437.56 73.7508 Q1427.4 73.7508 1422.01 65.73 Q1416.66 57.6687 1416.66 42.3968 Q1416.66 27.0843 1422.01 19.0636 Q1427.4 11.0023 1437.56 11.0023 Z" fill="#000000" fill-rule="evenodd" fill-opacity="1" /><path clip-path="url(#clip990)" d="M1490.35 43.8551 Q1484.51 43.8551 1481.15 46.9743 Q1477.83 50.0935 1477.83 55.5622 Q1477.83 61.0309 1481.15 64.1501 Q1484.51 67.2693 1490.35 67.2693 Q1496.18 67.2693 1499.54 64.1501 Q1502.9 60.9904 1502.9 55.5622 Q1502.9 50.0935 1499.54 46.9743 Q1496.22 43.8551 1490.35 43.8551 M1482.16 40.3713 Q1476.9 39.075 1473.94 35.4697 Q1471.02 31.8644 1471.02 26.6793 Q1471.02 19.4281 1476.17 15.2152 Q1481.35 11.0023 1490.35 11.0023 Q1499.38 11.0023 1504.53 15.2152 Q1509.67 19.4281 1509.67 26.6793 Q1509.67 31.8644 1506.71 35.4697 Q1503.8 39.075 1498.57 40.3713 Q1504.48 41.7486 1507.77 45.759 Q1511.09 49.7694 1511.09 55.5622 Q1511.09 64.3527 1505.7 69.0517 Q1500.35 73.7508 1490.35 73.7508 Q1480.34 73.7508 1474.95 69.0517 Q1469.61 64.3527 1469.61 55.5622 Q1469.61 49.7694 1472.93 45.759 Q1476.25 41.7486 1482.16 40.3713 M1479.17 27.4489 Q1479.17 32.148 1482.08 34.7811 Q1485.04 37.4142 1490.35 37.4142 Q1495.61 37.4142 1498.57 34.7811 Q1501.57 32.148 1501.57 27.4489 Q1501.57 22.7499 1498.57 20.1168 Q1495.61 17.4837 1490.35 17.4837 Q1485.04 17.4837 1482.08 20.1168 Q1479.17 22.7499 1479.17 27.4489 Z" fill="#000000" fill-rule="evenodd" fill-opacity="1" /><path clip-path="url(#clip990)" d="M1527.05 65.6895 L1540.42 65.6895 L1540.42 19.5497 L1525.87 22.4663 L1525.87 15.0127 L1540.34 12.096 L1548.52 12.096 L1548.52 65.6895 L1561.89 65.6895 L1561.89 72.576 L1527.05 72.576 L1527.05 65.6895 Z" fill="#000000" fill-rule="evenodd" fill-opacity="1" /><path clip-path="url(#clip990)" d="M1578.66 71.3202 L1578.66 63.8666 Q1581.74 65.3249 1584.9 66.0946 Q1588.05 66.8642 1591.09 66.8642 Q1599.19 66.8642 1603.45 61.436 Q1607.74 55.9673 1608.35 44.8678 Q1606 48.3516 1602.4 50.215 Q1598.79 52.0784 1594.41 52.0784 Q1585.34 52.0784 1580.03 46.6097 Q1574.77 41.1005 1574.77 31.5808 Q1574.77 22.2638 1580.28 16.633 Q1585.79 11.0023 1594.94 11.0023 Q1605.43 11.0023 1610.94 19.0636 Q1616.49 27.0843 1616.49 42.3968 Q1616.49 56.6965 1609.69 65.2439 Q1602.92 73.7508 1591.46 73.7508 Q1588.38 73.7508 1585.22 73.1431 Q1582.06 72.5355 1578.66 71.3202 M1594.94 45.678 Q1600.45 45.678 1603.65 41.9107 Q1606.89 38.1433 1606.89 31.5808 Q1606.89 25.0589 1603.65 21.2916 Q1600.45 17.4837 1594.94 17.4837 Q1589.43 17.4837 1586.19 21.2916 Q1582.99 25.0589 1582.99 31.5808 Q1582.99 38.1433 1586.19 41.9107 Q1589.43 45.678 1594.94 45.678 Z" fill="#000000" fill-rule="evenodd" fill-opacity="1" /><path clip-path="url(#clip990)" d="M1648.7 17.4837 Q1642.38 17.4837 1639.18 23.7221 Q1636.02 29.92 1636.02 42.3968 Q1636.02 54.833 1639.18 61.0714 Q1642.38 67.2693 1648.7 67.2693 Q1655.06 67.2693 1658.22 61.0714 Q1661.42 54.833 1661.42 42.3968 Q1661.42 29.92 1658.22 23.7221 Q1655.06 17.4837 1648.7 17.4837 M1648.7 11.0023 Q1658.86 11.0023 1664.21 19.0636 Q1669.6 27.0843 1669.6 42.3968 Q1669.6 57.6687 1664.21 65.73 Q1658.86 73.7508 1648.7 73.7508 Q1638.53 73.7508 1633.14 65.73 Q1627.79 57.6687 1627.79 42.3968 Q1627.79 27.0843 1633.14 19.0636 Q1638.53 11.0023 1648.7 11.0023 Z" fill="#000000" fill-rule="evenodd" fill-opacity="1" /><path clip-path="url(#clip990)" d="M1708.77 39.9662 Q1714.65 41.222 1717.93 45.1919 Q1721.25 49.1618 1721.25 54.9951 Q1721.25 63.9476 1715.09 68.8492 Q1708.93 73.7508 1697.59 73.7508 Q1693.78 73.7508 1689.73 72.9811 Q1685.72 72.2519 1681.43 70.7531 L1681.43 62.8538 Q1684.83 64.8388 1688.88 65.8515 Q1692.93 66.8642 1697.35 66.8642 Q1705.05 66.8642 1709.06 63.826 Q1713.11 60.7879 1713.11 54.9951 Q1713.11 49.6479 1709.34 46.6502 Q1705.61 43.612 1698.93 43.612 L1691.88 43.612 L1691.88 36.8875 L1699.25 36.8875 Q1705.29 36.8875 1708.49 34.4975 Q1711.69 32.067 1711.69 27.5299 Q1711.69 22.8714 1708.37 20.4004 Q1705.09 17.8888 1698.93 17.8888 Q1695.57 17.8888 1691.72 18.618 Q1687.87 19.3471 1683.25 20.8865 L1683.25 13.5948 Q1687.91 12.2985 1691.96 11.6504 Q1696.05 11.0023 1699.66 11.0023 Q1708.97 11.0023 1714.4 15.2557 Q1719.83 19.4686 1719.83 26.6793 Q1719.83 31.7024 1716.95 35.1862 Q1714.08 38.6294 1708.77 39.9662 Z" fill="#000000" fill-rule="evenodd" fill-opacity="1" /><path clip-path="url(#clip990)" d="M1738.18 65.6895 L1751.55 65.6895 L1751.55 19.5497 L1737.01 22.4663 L1737.01 15.0127 L1751.47 12.096 L1759.65 12.096 L1759.65 65.6895 L1773.02 65.6895 L1773.02 72.576 L1738.18 72.576 L1738.18 65.6895 Z" fill="#000000" fill-rule="evenodd" fill-opacity="1" /><path clip-path="url(#clip990)" d="M1789.79 71.3202 L1789.79 63.8666 Q1792.87 65.3249 1796.03 66.0946 Q1799.19 66.8642 1802.23 66.8642 Q1810.33 66.8642 1814.58 61.436 Q1818.88 55.9673 1819.48 44.8678 Q1817.13 48.3516 1813.53 50.215 Q1809.92 52.0784 1805.55 52.0784 Q1796.47 52.0784 1791.17 46.6097 Q1785.9 41.1005 1785.9 31.5808 Q1785.9 22.2638 1791.41 16.633 Q1796.92 11.0023 1806.07 11.0023 Q1816.57 11.0023 1822.08 19.0636 Q1827.63 27.0843 1827.63 42.3968 Q1827.63 56.6965 1820.82 65.2439 Q1814.05 73.7508 1802.59 73.7508 Q1799.51 73.7508 1796.35 73.1431 Q1793.19 72.5355 1789.79 71.3202 M1806.07 45.678 Q1811.58 45.678 1814.78 41.9107 Q1818.02 38.1433 1818.02 31.5808 Q1818.02 25.0589 1814.78 21.2916 Q1811.58 17.4837 1806.07 17.4837 Q1800.57 17.4837 1797.32 21.2916 Q1794.12 25.0589 1794.12 31.5808 Q1794.12 38.1433 1797.32 41.9107 Q1800.57 45.678 1806.07 45.678 Z" fill="#000000" fill-rule="evenodd" fill-opacity="1" /><path clip-path="url(#clip990)" d="M1842.41 12.096 L1874.53 12.096 L1874.53 18.9825 L1849.91 18.9825 L1849.91 33.8088 Q1851.69 33.2012 1853.47 32.9176 Q1855.25 32.5936 1857.03 32.5936 Q1867.16 32.5936 1873.08 38.1433 Q1878.99 43.6931 1878.99 53.1722 Q1878.99 62.9348 1872.91 68.3631 Q1866.84 73.7508 1855.78 73.7508 Q1851.97 73.7508 1848 73.1026 Q1844.07 72.4545 1839.86 71.1582 L1839.86 62.9348 Q1843.5 64.9198 1847.39 65.892 Q1851.28 66.8642 1855.62 66.8642 Q1862.63 66.8642 1866.72 63.1779 Q1870.81 59.4916 1870.81 53.1722 Q1870.81 46.8528 1866.72 43.1664 Q1862.63 39.4801 1855.62 39.4801 Q1852.34 39.4801 1849.05 40.2093 Q1845.81 40.9384 1842.41 42.4778 L1842.41 12.096 Z" fill="#000000" fill-rule="evenodd" fill-opacity="1" /><polyline clip-path="url(#clip992)" style="stroke:#009af9; stroke-linecap:butt; stroke-linejoin:round; stroke-width:12; stroke-opacity:1; fill:none" points="
  253.843,985.344 264.083,1009.11 274.323,1001.71 284.563,957.816 294.803,986.776 305.043,1009.36 315.283,949.832 325.523,1023.97 335.763,944.888 346.003,1028.98 
  356.244,939.852 366.484,1023.4 376.724,973.37 386.964,955.053 397.204,1044.3 407.444,954.125 417.684,942.839 427.924,1048.2 438.164,1010.29 448.404,910.694 
  458.645,952.406 468.885,1059.2 479.125,1054.55 489.365,947.182 499.605,881.158 509.845,932.893 520.085,1043.75 530.325,1107.58 540.565,1073.37 550.805,971.331 
  561.046,872.363 571.286,834.367 581.526,873.642 591.766,967.326 602.006,1073.41 612.246,1152.2 622.486,1179.79 632.726,1151.6 642.966,1078.67 653.206,980.789 
  663.447,879.654 673.687,793.817 683.927,736.012 694.167,712.483 704.407,723.704 714.647,765.805 724.887,832.201 735.127,915.057 745.367,1006.46 755.607,1099.21 
  765.848,1187.31 776.088,1266.11 786.328,1332.39 796.568,1384.18 806.808,1420.59 817.048,1441.61 827.288,1447.87 837.528,1440.49 847.768,1420.85 858.008,1390.52 
  868.249,1351.11 878.489,1304.24 888.729,1251.4 898.969,1194.03 909.209,1133.39 919.449,1070.63 929.689,1006.74 939.929,942.581 950.169,878.886 960.409,816.27 
  970.65,755.243 980.89,696.223 991.13,639.551 1001.37,585.496 1011.61,534.277 1021.85,486.064 1032.09,440.991 1042.33,399.167 1052.57,360.682 1062.81,325.613 
  1073.05,294.037 1083.29,266.03 1093.53,241.681 1103.77,221.094 1114.01,204.4 1124.25,191.763 1134.49,183.391 1144.73,179.551 1154.97,180.579 1165.21,186.91 
  1175.45,199.095 1185.69,217.848 1195.93,244.096 1206.17,279.057 1216.41,324.366 1226.65,382.275 1236.89,456.007 1247.13,550.489 1257.37,674.224 1267.61,847.204 
  1277.85,847.204 1288.09,674.224 1298.33,550.489 1308.57,456.007 1318.81,382.275 1329.05,324.366 1339.29,279.057 1349.53,244.096 1359.77,217.848 1370.01,199.095 
  1380.25,186.91 1390.49,180.579 1400.73,179.551 1410.97,183.391 1421.21,191.763 1431.45,204.4 1441.69,221.094 1451.93,241.681 1462.17,266.03 1472.41,294.037 
  1482.65,325.613 1492.89,360.682 1503.13,399.167 1513.37,440.991 1523.61,486.064 1533.86,534.277 1544.1,585.496 1554.34,639.551 1564.58,696.223 1574.82,755.243 
  1585.06,816.27 1595.3,878.886 1605.54,942.581 1615.78,1006.74 1626.02,1070.63 1636.26,1133.39 1646.5,1194.03 1656.74,1251.4 1666.98,1304.24 1677.22,1351.11 
  1687.46,1390.52 1697.7,1420.85 1707.94,1440.49 1718.18,1447.87 1728.42,1441.61 1738.66,1420.59 1748.9,1384.18 1759.14,1332.39 1769.38,1266.11 1779.62,1187.31 
  1789.86,1099.21 1800.1,1006.46 1810.34,915.057 1820.58,832.201 1830.82,765.805 1841.06,723.704 1851.3,712.483 1861.54,736.012 1871.78,793.817 1882.02,879.654 
  1892.26,980.789 1902.5,1078.67 1912.74,1151.6 1922.98,1179.79 1933.22,1152.2 1943.46,1073.41 1953.7,967.326 1963.94,873.642 1974.18,834.367 1984.42,872.363 
  1994.66,971.331 2004.9,1073.37 2015.14,1107.58 2025.38,1043.75 2035.62,932.893 2045.86,881.158 2056.1,947.182 2066.34,1054.55 2076.58,1059.2 2086.82,952.406 
  2097.06,910.694 2107.3,1010.29 2117.54,1048.2 2127.78,942.839 2138.02,954.125 2148.26,1044.3 2158.5,955.053 2168.74,973.37 2178.98,1023.4 2189.22,939.852 
  2199.46,1028.98 2209.7,944.888 2219.94,1023.97 2230.18,949.832 2240.42,1009.36 2250.66,986.776 2260.9,957.816 2271.14,1001.71 2281.38,1009.11 2291.62,985.344 
  
  "/>
<circle clip-path="url(#clip992)" cx="1720.04" cy="1438.4" r="14" fill="#e26f46" fill-rule="evenodd" fill-opacity="1" stroke="#000000" stroke-opacity="1" stroke-width="3.2"/>
<circle clip-path="url(#clip992)" cx="1648.4" cy="1194.59" r="14" fill="#e26f46" fill-rule="evenodd" fill-opacity="1" stroke="#000000" stroke-opacity="1" stroke-width="3.2"/>
<circle clip-path="url(#clip992)" cx="1228.47" cy="437.243" r="14" fill="#e26f46" fill-rule="evenodd" fill-opacity="1" stroke="#000000" stroke-opacity="1" stroke-width="3.2"/>
<circle clip-path="url(#clip992)" cx="798.619" cy="1365.95" r="14" fill="#e26f46" fill-rule="evenodd" fill-opacity="1" stroke="#000000" stroke-opacity="1" stroke-width="3.2"/>
<circle clip-path="url(#clip992)" cx="1719.58" cy="1427.49" r="14" fill="#e26f46" fill-rule="evenodd" fill-opacity="1" stroke="#000000" stroke-opacity="1" stroke-width="3.2"/>
<circle clip-path="url(#clip992)" cx="1866.57" cy="769.208" r="14" fill="#e26f46" fill-rule="evenodd" fill-opacity="1" stroke="#000000" stroke-opacity="1" stroke-width="3.2"/>
<circle clip-path="url(#clip992)" cx="1553.17" cy="634.975" r="14" fill="#e26f46" fill-rule="evenodd" fill-opacity="1" stroke="#000000" stroke-opacity="1" stroke-width="3.2"/>
<circle clip-path="url(#clip992)" cx="1295.19" cy="577.47" r="14" fill="#e26f46" fill-rule="evenodd" fill-opacity="1" stroke="#000000" stroke-opacity="1" stroke-width="3.2"/>
<circle clip-path="url(#clip992)" cx="1318.09" cy="365.038" r="14" fill="#e26f46" fill-rule="evenodd" fill-opacity="1" stroke="#000000" stroke-opacity="1" stroke-width="3.2"/>
<circle clip-path="url(#clip992)" cx="1116.89" cy="193.217" r="14" fill="#e26f46" fill-rule="evenodd" fill-opacity="1" stroke="#000000" stroke-opacity="1" stroke-width="3.2"/>
<circle clip-path="url(#clip992)" cx="1859.92" cy="716.218" r="14" fill="#e26f46" fill-rule="evenodd" fill-opacity="1" stroke="#000000" stroke-opacity="1" stroke-width="3.2"/>
<circle clip-path="url(#clip992)" cx="721.184" cy="803.96" r="14" fill="#e26f46" fill-rule="evenodd" fill-opacity="1" stroke="#000000" stroke-opacity="1" stroke-width="3.2"/>
<circle clip-path="url(#clip992)" cx="549.719" cy="980.012" r="14" fill="#e26f46" fill-rule="evenodd" fill-opacity="1" stroke="#000000" stroke-opacity="1" stroke-width="3.2"/>
<circle clip-path="url(#clip992)" cx="1478.47" cy="284.669" r="14" fill="#e26f46" fill-rule="evenodd" fill-opacity="1" stroke="#000000" stroke-opacity="1" stroke-width="3.2"/>
<circle clip-path="url(#clip992)" cx="463.418" cy="1049.27" r="14" fill="#e26f46" fill-rule="evenodd" fill-opacity="1" stroke="#000000" stroke-opacity="1" stroke-width="3.2"/>
<circle clip-path="url(#clip992)" cx="1089.68" cy="227.653" r="14" fill="#e26f46" fill-rule="evenodd" fill-opacity="1" stroke="#000000" stroke-opacity="1" stroke-width="3.2"/>
<circle clip-path="url(#clip992)" cx="1154.5" cy="187.859" r="14" fill="#e26f46" fill-rule="evenodd" fill-opacity="1" stroke="#000000" stroke-opacity="1" stroke-width="3.2"/>
<circle clip-path="url(#clip992)" cx="1555.64" cy="654.843" r="14" fill="#e26f46" fill-rule="evenodd" fill-opacity="1" stroke="#000000" stroke-opacity="1" stroke-width="3.2"/>
<circle clip-path="url(#clip992)" cx="1276.89" cy="864.776" r="14" fill="#e26f46" fill-rule="evenodd" fill-opacity="1" stroke="#000000" stroke-opacity="1" stroke-width="3.2"/>
<circle clip-path="url(#clip992)" cx="1978.19" cy="842.227" r="14" fill="#e26f46" fill-rule="evenodd" fill-opacity="1" stroke="#000000" stroke-opacity="1" stroke-width="3.2"/>
<circle clip-path="url(#clip992)" cx="2183.7" cy="999.675" r="14" fill="#e26f46" fill-rule="evenodd" fill-opacity="1" stroke="#000000" stroke-opacity="1" stroke-width="3.2"/>
<circle clip-path="url(#clip992)" cx="1609.34" cy="1001.95" r="14" fill="#e26f46" fill-rule="evenodd" fill-opacity="1" stroke="#000000" stroke-opacity="1" stroke-width="3.2"/>
<circle clip-path="url(#clip992)" cx="1562.5" cy="655.253" r="14" fill="#e26f46" fill-rule="evenodd" fill-opacity="1" stroke="#000000" stroke-opacity="1" stroke-width="3.2"/>
<circle clip-path="url(#clip992)" cx="321.598" cy="1015.47" r="14" fill="#e26f46" fill-rule="evenodd" fill-opacity="1" stroke="#000000" stroke-opacity="1" stroke-width="3.2"/>
<circle clip-path="url(#clip992)" cx="1673.45" cy="1331.65" r="14" fill="#e26f46" fill-rule="evenodd" fill-opacity="1" stroke="#000000" stroke-opacity="1" stroke-width="3.2"/>
<circle clip-path="url(#clip992)" cx="2054.56" cy="925.841" r="14" fill="#e26f46" fill-rule="evenodd" fill-opacity="1" stroke="#000000" stroke-opacity="1" stroke-width="3.2"/>
<circle clip-path="url(#clip992)" cx="430.993" cy="1069.28" r="14" fill="#e26f46" fill-rule="evenodd" fill-opacity="1" stroke="#000000" stroke-opacity="1" stroke-width="3.2"/>
<circle clip-path="url(#clip992)" cx="1617.79" cy="1022.83" r="14" fill="#e26f46" fill-rule="evenodd" fill-opacity="1" stroke="#000000" stroke-opacity="1" stroke-width="3.2"/>
<circle clip-path="url(#clip992)" cx="359.059" cy="899.777" r="14" fill="#e26f46" fill-rule="evenodd" fill-opacity="1" stroke="#000000" stroke-opacity="1" stroke-width="3.2"/>
<circle clip-path="url(#clip992)" cx="308.595" cy="1021.8" r="14" fill="#e26f46" fill-rule="evenodd" fill-opacity="1" stroke="#000000" stroke-opacity="1" stroke-width="3.2"/>
<circle clip-path="url(#clip992)" cx="1862.86" cy="759.05" r="14" fill="#e26f46" fill-rule="evenodd" fill-opacity="1" stroke="#000000" stroke-opacity="1" stroke-width="3.2"/>
<circle clip-path="url(#clip992)" cx="289.435" cy="969.627" r="14" fill="#e26f46" fill-rule="evenodd" fill-opacity="1" stroke="#000000" stroke-opacity="1" stroke-width="3.2"/>
<circle clip-path="url(#clip992)" cx="1447.81" cy="218.922" r="14" fill="#e26f46" fill-rule="evenodd" fill-opacity="1" stroke="#000000" stroke-opacity="1" stroke-width="3.2"/>
<circle clip-path="url(#clip992)" cx="1904.55" cy="1087.11" r="14" fill="#e26f46" fill-rule="evenodd" fill-opacity="1" stroke="#000000" stroke-opacity="1" stroke-width="3.2"/>
<circle clip-path="url(#clip992)" cx="1199.56" cy="239.351" r="14" fill="#e26f46" fill-rule="evenodd" fill-opacity="1" stroke="#000000" stroke-opacity="1" stroke-width="3.2"/>
<circle clip-path="url(#clip992)" cx="750.532" cy="1059.95" r="14" fill="#e26f46" fill-rule="evenodd" fill-opacity="1" stroke="#000000" stroke-opacity="1" stroke-width="3.2"/>
<circle clip-path="url(#clip992)" cx="1787.43" cy="1132.7" r="14" fill="#e26f46" fill-rule="evenodd" fill-opacity="1" stroke="#000000" stroke-opacity="1" stroke-width="3.2"/>
<circle clip-path="url(#clip992)" cx="1889.03" cy="949.963" r="14" fill="#e26f46" fill-rule="evenodd" fill-opacity="1" stroke="#000000" stroke-opacity="1" stroke-width="3.2"/>
<circle clip-path="url(#clip992)" cx="1289.9" cy="662.176" r="14" fill="#e26f46" fill-rule="evenodd" fill-opacity="1" stroke="#000000" stroke-opacity="1" stroke-width="3.2"/>
<circle clip-path="url(#clip992)" cx="1540.17" cy="538.789" r="14" fill="#e26f46" fill-rule="evenodd" fill-opacity="1" stroke="#000000" stroke-opacity="1" stroke-width="3.2"/>
<circle clip-path="url(#clip992)" cx="1540.29" cy="575.406" r="14" fill="#e26f46" fill-rule="evenodd" fill-opacity="1" stroke="#000000" stroke-opacity="1" stroke-width="3.2"/>
<circle clip-path="url(#clip992)" cx="943.832" cy="940.458" r="14" fill="#e26f46" fill-rule="evenodd" fill-opacity="1" stroke="#000000" stroke-opacity="1" stroke-width="3.2"/>
<circle clip-path="url(#clip992)" cx="1981.22" cy="869.544" r="14" fill="#e26f46" fill-rule="evenodd" fill-opacity="1" stroke="#000000" stroke-opacity="1" stroke-width="3.2"/>
<circle clip-path="url(#clip992)" cx="637.789" cy="1125.12" r="14" fill="#e26f46" fill-rule="evenodd" fill-opacity="1" stroke="#000000" stroke-opacity="1" stroke-width="3.2"/>
<circle clip-path="url(#clip992)" cx="717.295" cy="824.486" r="14" fill="#e26f46" fill-rule="evenodd" fill-opacity="1" stroke="#000000" stroke-opacity="1" stroke-width="3.2"/>
<circle clip-path="url(#clip992)" cx="2165.95" cy="932.889" r="14" fill="#e26f46" fill-rule="evenodd" fill-opacity="1" stroke="#000000" stroke-opacity="1" stroke-width="3.2"/>
<circle clip-path="url(#clip992)" cx="1216.18" cy="319.692" r="14" fill="#e26f46" fill-rule="evenodd" fill-opacity="1" stroke="#000000" stroke-opacity="1" stroke-width="3.2"/>
<circle clip-path="url(#clip992)" cx="515.061" cy="986.77" r="14" fill="#e26f46" fill-rule="evenodd" fill-opacity="1" stroke="#000000" stroke-opacity="1" stroke-width="3.2"/>
<circle clip-path="url(#clip992)" cx="799.032" cy="1425.95" r="14" fill="#e26f46" fill-rule="evenodd" fill-opacity="1" stroke="#000000" stroke-opacity="1" stroke-width="3.2"/>
<circle clip-path="url(#clip992)" cx="546.296" cy="1046.33" r="14" fill="#e26f46" fill-rule="evenodd" fill-opacity="1" stroke="#000000" stroke-opacity="1" stroke-width="3.2"/>
<circle clip-path="url(#clip992)" cx="1733.36" cy="1431.71" r="14" fill="#e26f46" fill-rule="evenodd" fill-opacity="1" stroke="#000000" stroke-opacity="1" stroke-width="3.2"/>
<circle clip-path="url(#clip992)" cx="667.314" cy="842.017" r="14" fill="#e26f46" fill-rule="evenodd" fill-opacity="1" stroke="#000000" stroke-opacity="1" stroke-width="3.2"/>
<circle clip-path="url(#clip992)" cx="1612.04" cy="976.673" r="14" fill="#e26f46" fill-rule="evenodd" fill-opacity="1" stroke="#000000" stroke-opacity="1" stroke-width="3.2"/>
<circle clip-path="url(#clip992)" cx="2047.67" cy="905.785" r="14" fill="#e26f46" fill-rule="evenodd" fill-opacity="1" stroke="#000000" stroke-opacity="1" stroke-width="3.2"/>
<circle clip-path="url(#clip992)" cx="445.313" cy="917.791" r="14" fill="#e26f46" fill-rule="evenodd" fill-opacity="1" stroke="#000000" stroke-opacity="1" stroke-width="3.2"/>
<circle clip-path="url(#clip992)" cx="567.889" cy="831.13" r="14" fill="#e26f46" fill-rule="evenodd" fill-opacity="1" stroke="#000000" stroke-opacity="1" stroke-width="3.2"/>
<circle clip-path="url(#clip992)" cx="2015.37" cy="1157.8" r="14" fill="#e26f46" fill-rule="evenodd" fill-opacity="1" stroke="#000000" stroke-opacity="1" stroke-width="3.2"/>
<circle clip-path="url(#clip992)" cx="1694.03" cy="1430.39" r="14" fill="#e26f46" fill-rule="evenodd" fill-opacity="1" stroke="#000000" stroke-opacity="1" stroke-width="3.2"/>
<circle clip-path="url(#clip992)" cx="952.324" cy="840.325" r="14" fill="#e26f46" fill-rule="evenodd" fill-opacity="1" stroke="#000000" stroke-opacity="1" stroke-width="3.2"/>
<circle clip-path="url(#clip992)" cx="1172.17" cy="202.167" r="14" fill="#e26f46" fill-rule="evenodd" fill-opacity="1" stroke="#000000" stroke-opacity="1" stroke-width="3.2"/>
<circle clip-path="url(#clip992)" cx="2092.92" cy="949.034" r="14" fill="#e26f46" fill-rule="evenodd" fill-opacity="1" stroke="#000000" stroke-opacity="1" stroke-width="3.2"/>
<circle clip-path="url(#clip992)" cx="1375.61" cy="206.272" r="14" fill="#e26f46" fill-rule="evenodd" fill-opacity="1" stroke="#000000" stroke-opacity="1" stroke-width="3.2"/>
<circle clip-path="url(#clip992)" cx="984.018" cy="670.593" r="14" fill="#e26f46" fill-rule="evenodd" fill-opacity="1" stroke="#000000" stroke-opacity="1" stroke-width="3.2"/>
<circle clip-path="url(#clip992)" cx="2074.22" cy="1084.17" r="14" fill="#e26f46" fill-rule="evenodd" fill-opacity="1" stroke="#000000" stroke-opacity="1" stroke-width="3.2"/>
<circle clip-path="url(#clip992)" cx="1181.26" cy="208.184" r="14" fill="#e26f46" fill-rule="evenodd" fill-opacity="1" stroke="#000000" stroke-opacity="1" stroke-width="3.2"/>
<circle clip-path="url(#clip992)" cx="1779.02" cy="1169.86" r="14" fill="#e26f46" fill-rule="evenodd" fill-opacity="1" stroke="#000000" stroke-opacity="1" stroke-width="3.2"/>
<circle clip-path="url(#clip992)" cx="1066.99" cy="311.56" r="14" fill="#e26f46" fill-rule="evenodd" fill-opacity="1" stroke="#000000" stroke-opacity="1" stroke-width="3.2"/>
<circle clip-path="url(#clip992)" cx="1554" cy="615.205" r="14" fill="#e26f46" fill-rule="evenodd" fill-opacity="1" stroke="#000000" stroke-opacity="1" stroke-width="3.2"/>
<circle clip-path="url(#clip992)" cx="523.054" cy="1091.27" r="14" fill="#e26f46" fill-rule="evenodd" fill-opacity="1" stroke="#000000" stroke-opacity="1" stroke-width="3.2"/>
<circle clip-path="url(#clip992)" cx="1407.58" cy="217.916" r="14" fill="#e26f46" fill-rule="evenodd" fill-opacity="1" stroke="#000000" stroke-opacity="1" stroke-width="3.2"/>
<circle clip-path="url(#clip992)" cx="1817.85" cy="845.487" r="14" fill="#e26f46" fill-rule="evenodd" fill-opacity="1" stroke="#000000" stroke-opacity="1" stroke-width="3.2"/>
<circle clip-path="url(#clip992)" cx="258.957" cy="976.835" r="14" fill="#e26f46" fill-rule="evenodd" fill-opacity="1" stroke="#000000" stroke-opacity="1" stroke-width="3.2"/>
<circle clip-path="url(#clip992)" cx="2028.95" cy="988.406" r="14" fill="#e26f46" fill-rule="evenodd" fill-opacity="1" stroke="#000000" stroke-opacity="1" stroke-width="3.2"/>
<circle clip-path="url(#clip992)" cx="2185.56" cy="972.979" r="14" fill="#e26f46" fill-rule="evenodd" fill-opacity="1" stroke="#000000" stroke-opacity="1" stroke-width="3.2"/>
<circle clip-path="url(#clip992)" cx="1943.6" cy="1087.87" r="14" fill="#e26f46" fill-rule="evenodd" fill-opacity="1" stroke="#000000" stroke-opacity="1" stroke-width="3.2"/>
<circle clip-path="url(#clip992)" cx="515.16" cy="963.624" r="14" fill="#e26f46" fill-rule="evenodd" fill-opacity="1" stroke="#000000" stroke-opacity="1" stroke-width="3.2"/>
<circle clip-path="url(#clip992)" cx="970.938" cy="730.101" r="14" fill="#e26f46" fill-rule="evenodd" fill-opacity="1" stroke="#000000" stroke-opacity="1" stroke-width="3.2"/>
<circle clip-path="url(#clip992)" cx="1402.09" cy="162.047" r="14" fill="#e26f46" fill-rule="evenodd" fill-opacity="1" stroke="#000000" stroke-opacity="1" stroke-width="3.2"/>
<circle clip-path="url(#clip992)" cx="1269.01" cy="854.454" r="14" fill="#e26f46" fill-rule="evenodd" fill-opacity="1" stroke="#000000" stroke-opacity="1" stroke-width="3.2"/>
<circle clip-path="url(#clip992)" cx="891.346" cy="1269.56" r="14" fill="#e26f46" fill-rule="evenodd" fill-opacity="1" stroke="#000000" stroke-opacity="1" stroke-width="3.2"/>
<circle clip-path="url(#clip992)" cx="1220.22" cy="341.295" r="14" fill="#e26f46" fill-rule="evenodd" fill-opacity="1" stroke="#000000" stroke-opacity="1" stroke-width="3.2"/>
<circle clip-path="url(#clip992)" cx="1018.33" cy="483.338" r="14" fill="#e26f46" fill-rule="evenodd" fill-opacity="1" stroke="#000000" stroke-opacity="1" stroke-width="3.2"/>
<circle clip-path="url(#clip992)" cx="455.617" cy="950.169" r="14" fill="#e26f46" fill-rule="evenodd" fill-opacity="1" stroke="#000000" stroke-opacity="1" stroke-width="3.2"/>
<circle clip-path="url(#clip992)" cx="1282.1" cy="758.642" r="14" fill="#e26f46" fill-rule="evenodd" fill-opacity="1" stroke="#000000" stroke-opacity="1" stroke-width="3.2"/>
<circle clip-path="url(#clip992)" cx="758.119" cy="1116.09" r="14" fill="#e26f46" fill-rule="evenodd" fill-opacity="1" stroke="#000000" stroke-opacity="1" stroke-width="3.2"/>
<circle clip-path="url(#clip992)" cx="1098.41" cy="222.299" r="14" fill="#e26f46" fill-rule="evenodd" fill-opacity="1" stroke="#000000" stroke-opacity="1" stroke-width="3.2"/>
<circle clip-path="url(#clip992)" cx="1536.55" cy="527.026" r="14" fill="#e26f46" fill-rule="evenodd" fill-opacity="1" stroke="#000000" stroke-opacity="1" stroke-width="3.2"/>
<circle clip-path="url(#clip992)" cx="1445.73" cy="223.82" r="14" fill="#e26f46" fill-rule="evenodd" fill-opacity="1" stroke="#000000" stroke-opacity="1" stroke-width="3.2"/>
<circle clip-path="url(#clip992)" cx="699.503" cy="750.356" r="14" fill="#e26f46" fill-rule="evenodd" fill-opacity="1" stroke="#000000" stroke-opacity="1" stroke-width="3.2"/>
<circle clip-path="url(#clip992)" cx="574.336" cy="831.646" r="14" fill="#e26f46" fill-rule="evenodd" fill-opacity="1" stroke="#000000" stroke-opacity="1" stroke-width="3.2"/>
<circle clip-path="url(#clip992)" cx="760.658" cy="1135.08" r="14" fill="#e26f46" fill-rule="evenodd" fill-opacity="1" stroke="#000000" stroke-opacity="1" stroke-width="3.2"/>
<circle clip-path="url(#clip992)" cx="1335.06" cy="283.738" r="14" fill="#e26f46" fill-rule="evenodd" fill-opacity="1" stroke="#000000" stroke-opacity="1" stroke-width="3.2"/>
<circle clip-path="url(#clip992)" cx="1763.54" cy="1281.1" r="14" fill="#e26f46" fill-rule="evenodd" fill-opacity="1" stroke="#000000" stroke-opacity="1" stroke-width="3.2"/>
<circle clip-path="url(#clip992)" cx="1275.52" cy="914.29" r="14" fill="#e26f46" fill-rule="evenodd" fill-opacity="1" stroke="#000000" stroke-opacity="1" stroke-width="3.2"/>
<circle clip-path="url(#clip992)" cx="1626.59" cy="1075.77" r="14" fill="#e26f46" fill-rule="evenodd" fill-opacity="1" stroke="#000000" stroke-opacity="1" stroke-width="3.2"/>
<circle clip-path="url(#clip992)" cx="1569.25" cy="701.594" r="14" fill="#e26f46" fill-rule="evenodd" fill-opacity="1" stroke="#000000" stroke-opacity="1" stroke-width="3.2"/>
<circle clip-path="url(#clip992)" cx="989.903" cy="659.7" r="14" fill="#e26f46" fill-rule="evenodd" fill-opacity="1" stroke="#000000" stroke-opacity="1" stroke-width="3.2"/>
<circle clip-path="url(#clip992)" cx="1143.02" cy="171.594" r="14" fill="#e26f46" fill-rule="evenodd" fill-opacity="1" stroke="#000000" stroke-opacity="1" stroke-width="3.2"/>
<circle clip-path="url(#clip992)" cx="1337.1" cy="289.994" r="14" fill="#e26f46" fill-rule="evenodd" fill-opacity="1" stroke="#000000" stroke-opacity="1" stroke-width="3.2"/>
<circle clip-path="url(#clip992)" cx="935.82" cy="977.651" r="14" fill="#e26f46" fill-rule="evenodd" fill-opacity="1" stroke="#000000" stroke-opacity="1" stroke-width="3.2"/>
<circle clip-path="url(#clip992)" cx="744.062" cy="949.671" r="14" fill="#e26f46" fill-rule="evenodd" fill-opacity="1" stroke="#000000" stroke-opacity="1" stroke-width="3.2"/>
<circle clip-path="url(#clip992)" cx="276.96" cy="994.469" r="14" fill="#e26f46" fill-rule="evenodd" fill-opacity="1" stroke="#000000" stroke-opacity="1" stroke-width="3.2"/>
<circle clip-path="url(#clip992)" cx="1063.26" cy="302.965" r="14" fill="#e26f46" fill-rule="evenodd" fill-opacity="1" stroke="#000000" stroke-opacity="1" stroke-width="3.2"/>
<circle clip-path="url(#clip992)" cx="830.428" cy="1416.75" r="14" fill="#e26f46" fill-rule="evenodd" fill-opacity="1" stroke="#000000" stroke-opacity="1" stroke-width="3.2"/>
<circle clip-path="url(#clip992)" cx="1753.71" cy="1342.38" r="14" fill="#e26f46" fill-rule="evenodd" fill-opacity="1" stroke="#000000" stroke-opacity="1" stroke-width="3.2"/>
<circle clip-path="url(#clip992)" cx="1196.76" cy="247.673" r="14" fill="#e26f46" fill-rule="evenodd" fill-opacity="1" stroke="#000000" stroke-opacity="1" stroke-width="3.2"/>
<circle clip-path="url(#clip992)" cx="1913.56" cy="1148.11" r="14" fill="#e26f46" fill-rule="evenodd" fill-opacity="1" stroke="#000000" stroke-opacity="1" stroke-width="3.2"/>
<circle clip-path="url(#clip992)" cx="721.023" cy="820.441" r="14" fill="#e26f46" fill-rule="evenodd" fill-opacity="1" stroke="#000000" stroke-opacity="1" stroke-width="3.2"/>
<circle clip-path="url(#clip992)" cx="1372.26" cy="174.379" r="14" fill="#e26f46" fill-rule="evenodd" fill-opacity="1" stroke="#000000" stroke-opacity="1" stroke-width="3.2"/>
<circle clip-path="url(#clip992)" cx="1494.33" cy="352.878" r="14" fill="#e26f46" fill-rule="evenodd" fill-opacity="1" stroke="#000000" stroke-opacity="1" stroke-width="3.2"/>
<circle clip-path="url(#clip992)" cx="1348.94" cy="254.645" r="14" fill="#e26f46" fill-rule="evenodd" fill-opacity="1" stroke="#000000" stroke-opacity="1" stroke-width="3.2"/>
<circle clip-path="url(#clip992)" cx="1120.52" cy="206.414" r="14" fill="#e26f46" fill-rule="evenodd" fill-opacity="1" stroke="#000000" stroke-opacity="1" stroke-width="3.2"/>
<circle clip-path="url(#clip992)" cx="2006.22" cy="1072.32" r="14" fill="#e26f46" fill-rule="evenodd" fill-opacity="1" stroke="#000000" stroke-opacity="1" stroke-width="3.2"/>
<circle clip-path="url(#clip992)" cx="1482.14" cy="353.459" r="14" fill="#e26f46" fill-rule="evenodd" fill-opacity="1" stroke="#000000" stroke-opacity="1" stroke-width="3.2"/>
<circle clip-path="url(#clip992)" cx="850.514" cy="1433.23" r="14" fill="#e26f46" fill-rule="evenodd" fill-opacity="1" stroke="#000000" stroke-opacity="1" stroke-width="3.2"/>
<circle clip-path="url(#clip992)" cx="1761.28" cy="1332.43" r="14" fill="#e26f46" fill-rule="evenodd" fill-opacity="1" stroke="#000000" stroke-opacity="1" stroke-width="3.2"/>
<circle clip-path="url(#clip992)" cx="448.544" cy="891.078" r="14" fill="#e26f46" fill-rule="evenodd" fill-opacity="1" stroke="#000000" stroke-opacity="1" stroke-width="3.2"/>
<circle clip-path="url(#clip992)" cx="1188.87" cy="211.122" r="14" fill="#e26f46" fill-rule="evenodd" fill-opacity="1" stroke="#000000" stroke-opacity="1" stroke-width="3.2"/>
<circle clip-path="url(#clip992)" cx="1853.53" cy="717.249" r="14" fill="#e26f46" fill-rule="evenodd" fill-opacity="1" stroke="#000000" stroke-opacity="1" stroke-width="3.2"/>
<circle clip-path="url(#clip992)" cx="1676.06" cy="1301.73" r="14" fill="#e26f46" fill-rule="evenodd" fill-opacity="1" stroke="#000000" stroke-opacity="1" stroke-width="3.2"/>
<circle clip-path="url(#clip992)" cx="1497.24" cy="412.499" r="14" fill="#e26f46" fill-rule="evenodd" fill-opacity="1" stroke="#000000" stroke-opacity="1" stroke-width="3.2"/>
<circle clip-path="url(#clip992)" cx="465.12" cy="1038.26" r="14" fill="#e26f46" fill-rule="evenodd" fill-opacity="1" stroke="#000000" stroke-opacity="1" stroke-width="3.2"/>
<circle clip-path="url(#clip992)" cx="1959.45" cy="909.291" r="14" fill="#e26f46" fill-rule="evenodd" fill-opacity="1" stroke="#000000" stroke-opacity="1" stroke-width="3.2"/>
<circle clip-path="url(#clip992)" cx="1010.45" cy="528.317" r="14" fill="#e26f46" fill-rule="evenodd" fill-opacity="1" stroke="#000000" stroke-opacity="1" stroke-width="3.2"/>
<circle clip-path="url(#clip992)" cx="659.965" cy="893.564" r="14" fill="#e26f46" fill-rule="evenodd" fill-opacity="1" stroke="#000000" stroke-opacity="1" stroke-width="3.2"/>
<circle clip-path="url(#clip992)" cx="360.966" cy="955.657" r="14" fill="#e26f46" fill-rule="evenodd" fill-opacity="1" stroke="#000000" stroke-opacity="1" stroke-width="3.2"/>
<circle clip-path="url(#clip992)" cx="1261.31" cy="750.198" r="14" fill="#e26f46" fill-rule="evenodd" fill-opacity="1" stroke="#000000" stroke-opacity="1" stroke-width="3.2"/>
<circle clip-path="url(#clip992)" cx="2001.19" cy="1018.78" r="14" fill="#e26f46" fill-rule="evenodd" fill-opacity="1" stroke="#000000" stroke-opacity="1" stroke-width="3.2"/>
<circle clip-path="url(#clip992)" cx="2220.59" cy="1021.13" r="14" fill="#e26f46" fill-rule="evenodd" fill-opacity="1" stroke="#000000" stroke-opacity="1" stroke-width="3.2"/>
<circle clip-path="url(#clip992)" cx="901.091" cy="1192.22" r="14" fill="#e26f46" fill-rule="evenodd" fill-opacity="1" stroke="#000000" stroke-opacity="1" stroke-width="3.2"/>
<circle clip-path="url(#clip992)" cx="595.405" cy="1012.36" r="14" fill="#e26f46" fill-rule="evenodd" fill-opacity="1" stroke="#000000" stroke-opacity="1" stroke-width="3.2"/>
<circle clip-path="url(#clip992)" cx="2041.62" cy="861.212" r="14" fill="#e26f46" fill-rule="evenodd" fill-opacity="1" stroke="#000000" stroke-opacity="1" stroke-width="3.2"/>
<circle clip-path="url(#clip992)" cx="678.432" cy="761.83" r="14" fill="#e26f46" fill-rule="evenodd" fill-opacity="1" stroke="#000000" stroke-opacity="1" stroke-width="3.2"/>
<circle clip-path="url(#clip992)" cx="1966.67" cy="844.09" r="14" fill="#e26f46" fill-rule="evenodd" fill-opacity="1" stroke="#000000" stroke-opacity="1" stroke-width="3.2"/>
<circle clip-path="url(#clip992)" cx="733.94" cy="886.141" r="14" fill="#e26f46" fill-rule="evenodd" fill-opacity="1" stroke="#000000" stroke-opacity="1" stroke-width="3.2"/>
<circle clip-path="url(#clip992)" cx="751.403" cy="1078.54" r="14" fill="#e26f46" fill-rule="evenodd" fill-opacity="1" stroke="#000000" stroke-opacity="1" stroke-width="3.2"/>
<circle clip-path="url(#clip992)" cx="506.585" cy="893.727" r="14" fill="#e26f46" fill-rule="evenodd" fill-opacity="1" stroke="#000000" stroke-opacity="1" stroke-width="3.2"/>
<circle clip-path="url(#clip992)" cx="1599.91" cy="931.341" r="14" fill="#e26f46" fill-rule="evenodd" fill-opacity="1" stroke="#000000" stroke-opacity="1" stroke-width="3.2"/>
<circle clip-path="url(#clip992)" cx="2071.73" cy="1087.73" r="14" fill="#e26f46" fill-rule="evenodd" fill-opacity="1" stroke="#000000" stroke-opacity="1" stroke-width="3.2"/>
<circle clip-path="url(#clip992)" cx="1913.22" cy="1154.69" r="14" fill="#e26f46" fill-rule="evenodd" fill-opacity="1" stroke="#000000" stroke-opacity="1" stroke-width="3.2"/>
<circle clip-path="url(#clip992)" cx="1795.96" cy="1054.44" r="14" fill="#e26f46" fill-rule="evenodd" fill-opacity="1" stroke="#000000" stroke-opacity="1" stroke-width="3.2"/>
<circle clip-path="url(#clip992)" cx="581.113" cy="829.593" r="14" fill="#e26f46" fill-rule="evenodd" fill-opacity="1" stroke="#000000" stroke-opacity="1" stroke-width="3.2"/>
<circle clip-path="url(#clip992)" cx="1767.99" cy="1267.76" r="14" fill="#e26f46" fill-rule="evenodd" fill-opacity="1" stroke="#000000" stroke-opacity="1" stroke-width="3.2"/>
<circle clip-path="url(#clip992)" cx="1082.32" cy="286.014" r="14" fill="#e26f46" fill-rule="evenodd" fill-opacity="1" stroke="#000000" stroke-opacity="1" stroke-width="3.2"/>
<circle clip-path="url(#clip992)" cx="2005.69" cy="1086.15" r="14" fill="#e26f46" fill-rule="evenodd" fill-opacity="1" stroke="#000000" stroke-opacity="1" stroke-width="3.2"/>
<circle clip-path="url(#clip992)" cx="712.399" cy="747.314" r="14" fill="#e26f46" fill-rule="evenodd" fill-opacity="1" stroke="#000000" stroke-opacity="1" stroke-width="3.2"/>
<circle clip-path="url(#clip992)" cx="1322.12" cy="350.531" r="14" fill="#e26f46" fill-rule="evenodd" fill-opacity="1" stroke="#000000" stroke-opacity="1" stroke-width="3.2"/>
<circle clip-path="url(#clip992)" cx="1915.18" cy="1164.17" r="14" fill="#e26f46" fill-rule="evenodd" fill-opacity="1" stroke="#000000" stroke-opacity="1" stroke-width="3.2"/>
<circle clip-path="url(#clip992)" cx="1029.32" cy="463.352" r="14" fill="#e26f46" fill-rule="evenodd" fill-opacity="1" stroke="#000000" stroke-opacity="1" stroke-width="3.2"/>
<circle clip-path="url(#clip992)" cx="407.579" cy="959.913" r="14" fill="#e26f46" fill-rule="evenodd" fill-opacity="1" stroke="#000000" stroke-opacity="1" stroke-width="3.2"/>
<path clip-path="url(#clip992)" d="
M253.843 919.871 L264.083 953.834 L274.323 982.003 L284.563 1004.78 L294.803 1022.57 L305.043 1035.75 L315.283 1044.66 L325.523 1049.67 L335.763 1051.15 L346.003 1049.5 
  L356.244 1045.13 L366.484 1038.46 L376.724 1029.91 L386.964 1019.9 L397.204 1008.82 L407.444 997.049 L417.684 984.955 L427.924 972.865 L438.164 961.086 L448.404 949.89 
  L458.645 939.52 L468.885 930.186 L479.125 922.061 L489.365 915.284 L499.605 909.962 L509.845 906.165 L520.085 903.933 L530.325 903.275 L540.565 904.173 L550.805 906.58 
  L561.046 910.427 L571.286 915.621 L581.526 922.051 L591.766 929.587 L602.006 938.084 L612.246 947.383 L622.486 957.318 L632.726 967.709 L642.966 978.376 L653.206 989.132 
  L663.447 999.792 L673.687 1010.17 L683.927 1020.08 L694.167 1029.36 L704.407 1037.82 L714.647 1045.32 L724.887 1051.71 L735.127 1056.84 L745.367 1060.6 L755.607 1062.89 
  L765.848 1063.61 L776.088 1062.68 L786.328 1060.05 L796.568 1055.69 L806.808 1049.58 L817.048 1041.7 L827.288 1032.08 L837.528 1020.75 L847.768 1007.75 L858.008 993.145 
  L868.249 977.018 L878.489 959.455 L888.729 940.555 L898.969 920.429 L909.209 899.195 L919.449 876.979 L929.689 853.912 L939.929 830.126 L950.169 805.759 L960.409 780.946 
  L970.65 755.824 L980.89 730.526 L991.13 705.183 L1001.37 679.919 L1011.61 654.854 L1021.85 630.103 L1032.09 605.771 L1042.33 581.958 L1052.57 558.753 L1062.81 536.239 
  L1073.05 514.491 L1083.29 493.574 L1093.53 473.545 L1103.77 454.454 L1114.01 436.344 L1124.25 419.249 L1134.49 403.2 L1144.73 388.219 L1154.97 374.325 L1165.21 361.532 
  L1175.45 349.852 L1185.69 339.292 L1195.93 329.859 L1206.17 321.558 L1216.41 314.394 L1226.65 308.37 L1236.89 303.492 L1247.13 299.764 L1257.37 297.194 L1267.61 295.79 
  L1277.85 295.56 L1288.09 296.517 L1298.33 298.672 L1308.57 302.04 L1318.81 306.635 L1329.05 312.472 L1339.29 319.566 L1349.53 327.933 L1359.77 337.587 L1370.01 348.538 
  L1380.25 360.797 L1390.49 374.369 L1400.73 389.256 L1410.97 405.453 L1421.21 422.952 L1431.45 441.735 L1441.69 461.779 L1451.93 483.05 L1462.17 505.506 L1472.41 529.096 
  L1482.65 553.759 L1492.89 579.422 L1503.13 606.003 L1513.37 633.408 L1523.61 661.533 L1533.86 690.265 L1544.1 719.478 L1554.34 749.039 L1564.58 778.807 L1574.82 808.631 
  L1585.06 838.356 L1595.3 867.819 L1605.54 896.858 L1615.78 925.303 L1626.02 952.989 L1636.26 979.748 L1646.5 1005.42 L1656.74 1029.84 L1666.98 1052.87 L1677.22 1074.35 
  L1687.46 1094.16 L1697.7 1112.18 L1707.94 1128.31 L1718.18 1142.44 L1728.42 1154.52 L1738.66 1164.48 L1748.9 1172.29 L1759.14 1177.93 L1769.38 1181.42 L1779.62 1182.76 
  L1789.86 1182.01 L1800.1 1179.24 L1810.34 1174.53 L1820.58 1168 L1830.82 1159.76 L1841.06 1149.97 L1851.3 1138.79 L1861.54 1126.39 L1871.78 1112.96 L1882.02 1098.72 
  L1892.26 1083.87 L1902.5 1068.62 L1912.74 1053.22 L1922.98 1037.88 L1933.22 1022.83 L1943.46 1008.29 L1953.7 994.486 L1963.94 981.619 L1974.18 969.884 L1984.42 959.458 
  L1994.66 950.497 L2004.9 943.136 L2015.14 937.477 L2025.38 933.598 L2035.62 931.54 L2045.86 931.311 L2056.1 932.885 L2066.34 936.198 L2076.58 941.151 L2086.82 947.607 
  L2097.06 955.394 L2107.3 964.304 L2117.54 974.097 L2127.78 984.503 L2138.02 995.224 L2148.26 1005.94 L2158.5 1016.33 L2168.74 1026.03 L2178.98 1034.69 L2189.22 1041.92 
  L2199.46 1047.33 L2209.7 1050.46 L2219.94 1050.83 L2230.18 1047.93 L2240.42 1041.23 L2250.66 1030.2 L2260.9 1014.31 L2271.14 993.028 L2281.38 965.843 L2291.62 932.25 
  L2291.62 842.125 L2281.38 887.715 L2271.14 925.68 L2260.9 956.566 L2250.66 980.93 L2240.42 999.335 L2230.18 1012.35 L2219.94 1020.53 L2209.7 1024.45 L2199.46 1024.67 
  L2189.22 1021.74 L2178.98 1016.24 L2168.74 1008.74 L2158.5 999.772 L2148.26 989.865 L2138.02 979.491 L2127.78 969.074 L2117.54 958.989 L2107.3 949.561 L2097.06 941.073 
  L2086.82 933.761 L2076.58 927.82 L2066.34 923.408 L2056.1 920.639 L2045.86 919.594 L2035.62 920.315 L2025.38 922.813 L2015.14 927.067 L2004.9 933.025 L1994.66 940.609 
  L1984.42 949.719 L1974.18 960.227 L1963.94 971.99 L1953.7 984.844 L1943.46 998.606 L1933.22 1013.08 L1922.98 1028.07 L1912.74 1043.35 L1902.5 1058.7 L1892.26 1073.91 
  L1882.02 1088.74 L1871.78 1102.97 L1861.54 1116.4 L1851.3 1128.82 L1841.06 1140.03 L1830.82 1149.86 L1820.58 1158.14 L1810.34 1164.71 L1800.1 1169.46 L1789.86 1172.27 
  L1779.62 1173.05 L1769.38 1171.74 L1759.14 1168.29 L1748.9 1162.67 L1738.66 1154.88 L1728.42 1144.94 L1718.18 1132.88 L1707.94 1118.76 L1697.7 1102.66 L1687.46 1084.67 
  L1677.22 1064.88 L1666.98 1043.43 L1656.74 1020.43 L1646.5 996.044 L1636.26 970.409 L1626.02 943.683 L1615.78 916.028 L1605.54 887.609 L1595.3 858.591 L1585.06 829.141 
  L1574.82 799.422 L1564.58 769.594 L1554.34 739.814 L1544.1 710.231 L1533.86 680.989 L1523.61 652.221 L1513.37 624.054 L1503.13 596.604 L1492.89 569.977 L1482.65 544.269 
  L1472.41 519.564 L1462.17 495.937 L1451.93 473.45 L1441.69 452.158 L1431.45 432.104 L1421.21 413.32 L1410.97 395.831 L1400.73 379.656 L1390.49 364.802 L1380.25 351.272 
  L1370.01 339.065 L1359.77 328.172 L1349.53 318.583 L1339.29 310.284 L1329.05 303.258 L1318.81 297.489 L1308.57 292.96 L1298.33 289.652 L1288.09 287.549 L1277.85 286.636 
  L1267.61 286.899 L1257.37 288.327 L1247.13 290.909 L1236.89 294.638 L1226.65 299.506 L1216.41 305.51 L1206.17 312.645 L1195.93 320.908 L1185.69 330.296 L1175.45 340.806 
  L1165.21 352.432 L1154.97 365.166 L1144.73 378.999 L1134.49 393.917 L1124.25 409.902 L1114.01 426.93 L1103.77 444.972 L1093.53 463.993 L1083.29 483.951 L1073.05 504.794 
  L1062.81 526.466 L1052.57 548.901 L1042.33 572.023 L1032.09 595.751 L1021.85 619.995 L1011.61 644.656 L1001.37 669.628 L991.13 694.8 L980.89 720.052 L970.65 745.26 
  L960.409 770.298 L950.169 795.032 L939.929 819.328 L929.689 843.054 L919.449 866.074 L909.209 888.255 L898.969 909.47 L888.729 929.594 L878.489 948.509 L868.249 966.106 
  L858.008 982.283 L847.768 996.952 L837.528 1010.03 L827.288 1021.46 L817.048 1031.19 L806.808 1039.18 L796.568 1045.42 L786.328 1049.9 L776.088 1052.64 L765.848 1053.67 
  L755.607 1053.04 L745.367 1050.83 L735.127 1047.12 L724.887 1042.01 L714.647 1035.62 L704.407 1028.09 L694.167 1019.57 L683.927 1010.22 L673.687 1000.21 L663.447 989.726 
  L653.206 978.951 L642.966 968.078 L632.726 957.298 L622.486 946.804 L612.246 936.782 L602.006 927.413 L591.766 918.869 L581.526 911.307 L571.286 904.872 L561.046 899.691 
  L550.805 895.87 L540.565 893.492 L530.325 892.62 L520.085 893.285 L509.845 895.495 L499.605 899.228 L489.365 904.434 L479.125 911.031 L468.885 918.912 L458.645 927.937 
  L448.404 937.938 L438.164 948.72 L427.924 960.056 L417.684 971.691 L407.444 983.345 L397.204 994.706 L386.964 1005.44 L376.724 1015.18 L366.484 1023.54 L356.244 1030.11 
  L346.003 1034.45 L335.763 1036.1 L325.523 1034.58 L315.283 1029.35 L305.043 1019.86 L294.803 1005.56 L284.563 985.872 L274.323 960.285 L264.083 928.317 L253.843 889.527 
   Z
  " fill="#3da44d" fill-rule="evenodd" fill-opacity="0.5"/>
<polyline clip-path="url(#clip992)" style="stroke:#3da44d; stroke-linecap:butt; stroke-linejoin:round; stroke-width:12; stroke-opacity:1; fill:none" points="
  253.843,904.699 264.083,941.076 274.323,971.144 284.563,995.328 294.803,1014.06 305.043,1027.8 315.283,1037 325.523,1042.12 335.763,1043.63 346.003,1041.98 
  356.244,1037.62 366.484,1031 376.724,1022.54 386.964,1012.67 397.204,1001.76 407.444,990.197 417.684,978.323 427.924,966.46 438.164,954.903 448.404,943.914 
  458.645,933.728 468.885,924.549 479.125,916.546 489.365,909.859 499.605,904.595 509.845,900.83 520.085,898.609 530.325,897.947 540.565,898.833 550.805,901.225 
  561.046,905.059 571.286,910.247 581.526,916.679 591.766,924.228 602.006,932.749 612.246,942.083 622.486,952.061 632.726,962.504 642.966,973.227 653.206,984.042 
  663.447,994.759 673.687,1005.19 683.927,1015.15 694.167,1024.46 704.407,1032.96 714.647,1040.47 724.887,1046.86 735.127,1051.98 745.367,1055.72 755.607,1057.97 
  765.848,1058.64 776.088,1057.66 786.328,1054.98 796.568,1050.56 806.808,1044.38 817.048,1036.45 827.288,1026.77 837.528,1015.39 847.768,1002.35 858.008,987.714 
  868.249,971.562 878.489,953.982 888.729,935.074 898.969,914.949 909.209,893.725 919.449,871.526 929.689,848.483 939.929,824.727 950.169,800.395 960.409,775.622 
  970.65,750.542 980.89,725.289 991.13,699.991 1001.37,674.773 1011.61,649.755 1021.85,625.049 1032.09,600.761 1042.33,576.99 1052.57,553.827 1062.81,531.353 
  1073.05,509.643 1083.29,488.762 1093.53,468.769 1103.77,449.713 1114.01,431.637 1124.25,414.575 1134.49,398.558 1144.73,383.609 1154.97,369.745 1165.21,356.982 
  1175.45,345.329 1185.69,334.794 1195.93,325.384 1206.17,317.102 1216.41,309.952 1226.65,303.938 1236.89,299.065 1247.13,295.337 1257.37,292.761 1267.61,291.345 
  1277.85,291.098 1288.09,292.033 1298.33,294.162 1308.57,297.5 1318.81,302.062 1329.05,307.865 1339.29,314.925 1349.53,323.258 1359.77,332.879 1370.01,343.801 
  1380.25,356.035 1390.49,369.585 1400.73,384.456 1410.97,400.642 1421.21,418.136 1431.45,436.919 1441.69,456.969 1451.93,478.25 1462.17,500.721 1472.41,524.33 
  1482.65,549.014 1492.89,574.699 1503.13,601.303 1513.37,628.731 1523.61,656.877 1533.86,685.627 1544.1,714.855 1554.34,744.427 1564.58,774.201 1574.82,804.026 
  1585.06,833.748 1595.3,863.205 1605.54,892.233 1615.78,920.665 1626.02,948.336 1636.26,975.078 1646.5,1000.73 1656.74,1025.14 1666.98,1048.15 1677.22,1069.61 
  1687.46,1089.41 1697.7,1107.42 1707.94,1123.53 1718.18,1137.66 1728.42,1149.73 1738.66,1159.68 1748.9,1167.48 1759.14,1173.11 1769.38,1176.58 1779.62,1177.91 
  1789.86,1177.14 1800.1,1174.35 1810.34,1169.62 1820.58,1163.07 1830.82,1154.81 1841.06,1145 1851.3,1133.8 1861.54,1121.4 1871.78,1107.97 1882.02,1093.73 
  1892.26,1078.89 1902.5,1063.66 1912.74,1048.28 1922.98,1032.97 1933.22,1017.96 1943.46,1003.45 1953.7,989.665 1963.94,976.805 1974.18,965.056 1984.42,954.588 
  1994.66,945.553 2004.9,938.08 2015.14,932.272 2025.38,928.206 2035.62,925.927 2045.86,925.452 2056.1,926.762 2066.34,929.803 2076.58,934.486 2086.82,940.684 
  2097.06,948.233 2107.3,956.933 2117.54,966.543 2127.78,976.788 2138.02,987.357 2148.26,997.904 2158.5,1008.05 2168.74,1017.38 2178.98,1025.46 2189.22,1031.83 
  2199.46,1036 2209.7,1037.46 2219.94,1035.68 2230.18,1030.14 2240.42,1020.28 2250.66,1005.56 2260.9,985.437 2271.14,959.354 2281.38,926.779 2291.62,887.188 
  
  "/>
<path clip-path="url(#clip990)" d="
M1615.45 557.705 L2280.75 557.705 L2280.75 168.905 L1615.45 168.905  Z
  " fill="#ffffff" fill-rule="evenodd" fill-opacity="1"/>
<polyline clip-path="url(#clip990)" style="stroke:#000000; stroke-linecap:butt; stroke-linejoin:round; stroke-width:4; stroke-opacity:1; fill:none" points="
  1615.45,557.705 2280.75,557.705 2280.75,168.905 1615.45,168.905 1615.45,557.705 
  "/>
<polyline clip-path="url(#clip990)" style="stroke:#009af9; stroke-linecap:butt; stroke-linejoin:round; stroke-width:7.5; stroke-opacity:1; fill:none" points="
  1639.45,266.105 1783.45,266.105 
  "/>
<path clip-path="url(#clip990)" d="M1821.34 236.092 L1821.34 249.894 L1837.79 249.894 L1837.79 256.1 L1821.34 256.1 L1821.34 282.489 Q1821.34 288.435 1822.95 290.128 Q1824.6 291.821 1829.59 291.821 L1837.79 291.821 L1837.79 298.505 L1829.59 298.505 Q1820.34 298.505 1816.83 295.076 Q1813.31 291.604 1813.31 282.489 L1813.31 256.1 L1807.45 256.1 L1807.45 249.894 L1813.31 249.894 L1813.31 236.092 L1821.34 236.092 Z" fill="#000000" fill-rule="evenodd" fill-opacity="1" /><path clip-path="url(#clip990)" d="M1876.46 257.359 Q1875.12 256.578 1873.51 256.231 Q1871.95 255.84 1870.04 255.84 Q1863.27 255.84 1859.62 260.267 Q1856.02 264.651 1856.02 272.897 L1856.02 298.505 L1847.99 298.505 L1847.99 249.894 L1856.02 249.894 L1856.02 257.446 Q1858.54 253.019 1862.57 250.892 Q1866.61 248.722 1872.38 248.722 Q1873.21 248.722 1874.2 248.852 Q1875.2 248.939 1876.42 249.156 L1876.46 257.359 Z" fill="#000000" fill-rule="evenodd" fill-opacity="1" /><path clip-path="url(#clip990)" d="M1884.01 279.321 L1884.01 249.894 L1892 249.894 L1892 279.017 Q1892 285.918 1894.69 289.39 Q1897.38 292.819 1902.76 292.819 Q1909.23 292.819 1912.96 288.696 Q1916.74 284.572 1916.74 277.454 L1916.74 249.894 L1924.73 249.894 L1924.73 298.505 L1916.74 298.505 L1916.74 291.039 Q1913.83 295.466 1909.97 297.637 Q1906.15 299.763 1901.07 299.763 Q1892.69 299.763 1888.35 294.555 Q1884.01 289.347 1884.01 279.321 M1904.11 248.722 L1904.11 248.722 Z" fill="#000000" fill-rule="evenodd" fill-opacity="1" /><path clip-path="url(#clip990)" d="M1982.75 272.203 L1982.75 276.109 L1946.04 276.109 Q1946.56 284.355 1950.98 288.696 Q1955.45 292.993 1963.4 292.993 Q1968 292.993 1972.29 291.864 Q1976.63 290.736 1980.89 288.479 L1980.89 296.031 Q1976.59 297.854 1972.08 298.808 Q1967.56 299.763 1962.92 299.763 Q1951.29 299.763 1944.47 292.993 Q1937.7 286.222 1937.7 274.677 Q1937.7 262.741 1944.13 255.753 Q1950.59 248.722 1961.53 248.722 Q1971.34 248.722 1977.03 255.059 Q1982.75 261.352 1982.75 272.203 M1974.77 269.859 Q1974.68 263.305 1971.08 259.399 Q1967.52 255.493 1961.62 255.493 Q1954.93 255.493 1950.9 259.269 Q1946.9 263.045 1946.3 269.902 L1974.77 269.859 Z" fill="#000000" fill-rule="evenodd" fill-opacity="1" /><path clip-path="url(#clip990)" d="M2048.73 230.97 L2048.73 237.611 L2041.09 237.611 Q2036.79 237.611 2035.1 239.347 Q2033.45 241.083 2033.45 245.597 L2033.45 249.894 L2046.6 249.894 L2046.6 256.1 L2033.45 256.1 L2033.45 298.505 L2025.42 298.505 L2025.42 256.1 L2017.78 256.1 L2017.78 249.894 L2025.42 249.894 L2025.42 246.508 Q2025.42 238.392 2029.2 234.703 Q2032.97 230.97 2041.17 230.97 L2048.73 230.97 Z" fill="#000000" fill-rule="evenodd" fill-opacity="1" /><circle clip-path="url(#clip990)" cx="1711.45" cy="363.305" r="43" fill="#e26f46" fill-rule="evenodd" fill-opacity="1" stroke="#000000" stroke-opacity="1" stroke-width="9.6"/>
<path clip-path="url(#clip990)" d="M1842.91 354.472 L1842.91 328.17 L1850.9 328.17 L1850.9 395.705 L1842.91 395.705 L1842.91 388.413 Q1840.39 392.753 1836.53 394.88 Q1832.71 396.963 1827.33 396.963 Q1818.52 396.963 1812.96 389.932 Q1807.45 382.901 1807.45 371.443 Q1807.45 359.984 1812.96 352.953 Q1818.52 345.922 1827.33 345.922 Q1832.71 345.922 1836.53 348.049 Q1840.39 350.132 1842.91 354.472 M1815.7 371.443 Q1815.7 380.253 1819.3 385.288 Q1822.95 390.279 1829.28 390.279 Q1835.62 390.279 1839.27 385.288 Q1842.91 380.253 1842.91 371.443 Q1842.91 362.632 1839.27 357.641 Q1835.62 352.606 1829.28 352.606 Q1822.95 352.606 1819.3 357.641 Q1815.7 362.632 1815.7 371.443 Z" fill="#000000" fill-rule="evenodd" fill-opacity="1" /><path clip-path="url(#clip990)" d="M1889.44 371.269 Q1879.76 371.269 1876.03 373.483 Q1872.3 375.696 1872.3 381.035 Q1872.3 385.288 1875.07 387.805 Q1877.89 390.279 1882.71 390.279 Q1889.35 390.279 1893.35 385.592 Q1897.38 380.861 1897.38 373.049 L1897.38 371.269 L1889.44 371.269 M1905.37 367.97 L1905.37 395.705 L1897.38 395.705 L1897.38 388.326 Q1894.65 392.753 1890.57 394.88 Q1886.49 396.963 1880.59 396.963 Q1873.12 396.963 1868.69 392.797 Q1864.31 388.587 1864.31 381.555 Q1864.31 373.352 1869.78 369.186 Q1875.29 365.019 1886.18 365.019 L1897.38 365.019 L1897.38 364.238 Q1897.38 358.726 1893.74 355.731 Q1890.13 352.693 1883.58 352.693 Q1879.41 352.693 1875.46 353.691 Q1871.51 354.689 1867.87 356.686 L1867.87 349.307 Q1872.25 347.615 1876.38 346.79 Q1880.5 345.922 1884.4 345.922 Q1894.95 345.922 1900.16 351.391 Q1905.37 356.859 1905.37 367.97 Z" fill="#000000" fill-rule="evenodd" fill-opacity="1" /><path clip-path="url(#clip990)" d="M1929.72 333.292 L1929.72 347.094 L1946.17 347.094 L1946.17 353.3 L1929.72 353.3 L1929.72 379.689 Q1929.72 385.635 1931.32 387.328 Q1932.97 389.021 1937.96 389.021 L1946.17 389.021 L1946.17 395.705 L1937.96 395.705 Q1928.72 395.705 1925.2 392.276 Q1921.69 388.804 1921.69 379.689 L1921.69 353.3 L1915.83 353.3 L1915.83 347.094 L1921.69 347.094 L1921.69 333.292 L1929.72 333.292 Z" fill="#000000" fill-rule="evenodd" fill-opacity="1" /><path clip-path="url(#clip990)" d="M1978.76 371.269 Q1969.08 371.269 1965.35 373.483 Q1961.62 375.696 1961.62 381.035 Q1961.62 385.288 1964.4 387.805 Q1967.22 390.279 1972.03 390.279 Q1978.67 390.279 1982.67 385.592 Q1986.7 380.861 1986.7 373.049 L1986.7 371.269 L1978.76 371.269 M1994.69 367.97 L1994.69 395.705 L1986.7 395.705 L1986.7 388.326 Q1983.97 392.753 1979.89 394.88 Q1975.81 396.963 1969.91 396.963 Q1962.44 396.963 1958.02 392.797 Q1953.63 388.587 1953.63 381.555 Q1953.63 373.352 1959.1 369.186 Q1964.61 365.019 1975.51 365.019 L1986.7 365.019 L1986.7 364.238 Q1986.7 358.726 1983.06 355.731 Q1979.46 352.693 1972.9 352.693 Q1968.74 352.693 1964.79 353.691 Q1960.84 354.689 1957.19 356.686 L1957.19 349.307 Q1961.57 347.615 1965.7 346.79 Q1969.82 345.922 1973.73 345.922 Q1984.27 345.922 1989.48 351.391 Q1994.69 356.859 1994.69 367.97 Z" fill="#000000" fill-rule="evenodd" fill-opacity="1" /><polyline clip-path="url(#clip990)" style="stroke:#3da44d; stroke-linecap:butt; stroke-linejoin:round; stroke-width:7.5; stroke-opacity:1; fill:none" points="
  1639.45,460.505 1783.45,460.505 
  "/>
<path clip-path="url(#clip990)" d="M1816.22 435.309 L1816.22 459.658 L1827.24 459.658 Q1833.36 459.658 1836.71 456.49 Q1840.05 453.322 1840.05 447.462 Q1840.05 441.646 1836.71 438.478 Q1833.36 435.309 1827.24 435.309 L1816.22 435.309 M1807.45 428.105 L1827.24 428.105 Q1838.14 428.105 1843.69 433.053 Q1849.29 437.957 1849.29 447.462 Q1849.29 457.054 1843.69 461.959 Q1838.14 466.863 1827.24 466.863 L1816.22 466.863 L1816.22 492.905 L1807.45 492.905 L1807.45 428.105 Z" fill="#000000" fill-rule="evenodd" fill-opacity="1" /><path clip-path="url(#clip990)" d="M1887.31 451.759 Q1885.97 450.978 1884.36 450.631 Q1882.8 450.24 1880.89 450.24 Q1874.12 450.24 1870.47 454.667 Q1866.87 459.051 1866.87 467.297 L1866.87 492.905 L1858.84 492.905 L1858.84 444.294 L1866.87 444.294 L1866.87 451.846 Q1869.39 447.419 1873.42 445.292 Q1877.46 443.122 1883.23 443.122 Q1884.06 443.122 1885.06 443.252 Q1886.05 443.339 1887.27 443.556 L1887.31 451.759 Z" fill="#000000" fill-rule="evenodd" fill-opacity="1" /><path clip-path="url(#clip990)" d="M1935.32 466.603 L1935.32 470.509 L1898.6 470.509 Q1899.12 478.755 1903.55 483.096 Q1908.02 487.393 1915.96 487.393 Q1920.56 487.393 1924.86 486.264 Q1929.2 485.136 1933.45 482.879 L1933.45 490.431 Q1929.15 492.254 1924.64 493.208 Q1920.12 494.163 1915.48 494.163 Q1903.85 494.163 1897.03 487.393 Q1890.26 480.622 1890.26 469.077 Q1890.26 457.141 1896.69 450.153 Q1903.15 443.122 1914.09 443.122 Q1923.9 443.122 1929.59 449.459 Q1935.32 455.752 1935.32 466.603 M1927.33 464.259 Q1927.24 457.705 1923.64 453.799 Q1920.08 449.893 1914.18 449.893 Q1907.49 449.893 1903.46 453.669 Q1899.47 457.445 1898.86 464.302 L1927.33 464.259 Z" fill="#000000" fill-rule="evenodd" fill-opacity="1" /><path clip-path="url(#clip990)" d="M1980.41 451.672 L1980.41 425.37 L1988.4 425.37 L1988.4 492.905 L1980.41 492.905 L1980.41 485.613 Q1977.89 489.953 1974.03 492.08 Q1970.21 494.163 1964.83 494.163 Q1956.02 494.163 1950.46 487.132 Q1944.95 480.101 1944.95 468.643 Q1944.95 457.184 1950.46 450.153 Q1956.02 443.122 1964.83 443.122 Q1970.21 443.122 1974.03 445.249 Q1977.89 447.332 1980.41 451.672 M1953.2 468.643 Q1953.2 477.453 1956.8 482.488 Q1960.45 487.479 1966.78 487.479 Q1973.12 487.479 1976.77 482.488 Q1980.41 477.453 1980.41 468.643 Q1980.41 459.832 1976.77 454.841 Q1973.12 449.806 1966.78 449.806 Q1960.45 449.806 1956.8 454.841 Q1953.2 459.832 1953.2 468.643 Z" fill="#000000" fill-rule="evenodd" fill-opacity="1" /><path clip-path="url(#clip990)" d="M2004.85 444.294 L2012.83 444.294 L2012.83 492.905 L2004.85 492.905 L2004.85 444.294 M2004.85 425.37 L2012.83 425.37 L2012.83 435.483 L2004.85 435.483 L2004.85 425.37 Z" fill="#000000" fill-rule="evenodd" fill-opacity="1" /><path clip-path="url(#clip990)" d="M2064.53 446.16 L2064.53 453.625 Q2061.14 451.759 2057.71 450.848 Q2054.33 449.893 2050.85 449.893 Q2043.08 449.893 2038.79 454.841 Q2034.49 459.745 2034.49 468.643 Q2034.49 477.54 2038.79 482.488 Q2043.08 487.393 2050.85 487.393 Q2054.33 487.393 2057.71 486.481 Q2061.14 485.526 2064.53 483.66 L2064.53 491.038 Q2061.18 492.601 2057.58 493.382 Q2054.02 494.163 2049.99 494.163 Q2039 494.163 2032.54 487.262 Q2026.07 480.361 2026.07 468.643 Q2026.07 456.75 2032.58 449.936 Q2039.13 443.122 2050.51 443.122 Q2054.2 443.122 2057.71 443.903 Q2061.23 444.641 2064.53 446.16 Z" fill="#000000" fill-rule="evenodd" fill-opacity="1" /><path clip-path="url(#clip990)" d="M2086.31 430.492 L2086.31 444.294 L2102.76 444.294 L2102.76 450.5 L2086.31 450.5 L2086.31 476.889 Q2086.31 482.835 2087.92 484.528 Q2089.57 486.221 2094.56 486.221 L2102.76 486.221 L2102.76 492.905 L2094.56 492.905 Q2085.31 492.905 2081.8 489.476 Q2078.28 486.004 2078.28 476.889 L2078.28 450.5 L2072.42 450.5 L2072.42 444.294 L2078.28 444.294 L2078.28 430.492 L2086.31 430.492 Z" fill="#000000" fill-rule="evenodd" fill-opacity="1" /><path clip-path="url(#clip990)" d="M2113.27 444.294 L2121.25 444.294 L2121.25 492.905 L2113.27 492.905 L2113.27 444.294 M2113.27 425.37 L2121.25 425.37 L2121.25 435.483 L2113.27 435.483 L2113.27 425.37 Z" fill="#000000" fill-rule="evenodd" fill-opacity="1" /><path clip-path="url(#clip990)" d="M2156.8 449.893 Q2150.38 449.893 2146.64 454.927 Q2142.91 459.919 2142.91 468.643 Q2142.91 477.367 2146.6 482.401 Q2150.33 487.393 2156.8 487.393 Q2163.18 487.393 2166.91 482.358 Q2170.64 477.323 2170.64 468.643 Q2170.64 460.006 2166.91 454.971 Q2163.18 449.893 2156.8 449.893 M2156.8 443.122 Q2167.22 443.122 2173.16 449.893 Q2179.11 456.664 2179.11 468.643 Q2179.11 480.578 2173.16 487.393 Q2167.22 494.163 2156.8 494.163 Q2146.34 494.163 2140.39 487.393 Q2134.49 480.578 2134.49 468.643 Q2134.49 456.664 2140.39 449.893 Q2146.34 443.122 2156.8 443.122 Z" fill="#000000" fill-rule="evenodd" fill-opacity="1" /><path clip-path="url(#clip990)" d="M2232.75 463.565 L2232.75 492.905 L2224.77 492.905 L2224.77 463.825 Q2224.77 456.924 2222.08 453.495 Q2219.39 450.066 2214 450.066 Q2207.54 450.066 2203.8 454.19 Q2200.07 458.313 2200.07 465.431 L2200.07 492.905 L2192.04 492.905 L2192.04 444.294 L2200.07 444.294 L2200.07 451.846 Q2202.94 447.462 2206.8 445.292 Q2210.7 443.122 2215.78 443.122 Q2224.16 443.122 2228.46 448.33 Q2232.75 453.495 2232.75 463.565 Z" fill="#000000" fill-rule="evenodd" fill-opacity="1" /></svg>
