<?xml version="1.0" encoding="utf-8"?>
<svg xmlns="http://www.w3.org/2000/svg" xmlns:xlink="http://www.w3.org/1999/xlink" width="600" height="400" viewBox="0 0 2400 1600">
<defs>
  <clipPath id="clip590">
    <rect x="0" y="0" width="2400" height="1600"/>
  </clipPath>
</defs>
<path clip-path="url(#clip590)" d="
M0 1600 L2400 1600 L2400 0 L0 0  Z
  " fill="#ffffff" fill-rule="evenodd" fill-opacity="1"/>
<defs>
  <clipPath id="clip591">
    <rect x="480" y="0" width="1681" height="1600"/>
  </clipPath>
</defs>
<path clip-path="url(#clip590)" d="
M192.709 1486.45 L2352.76 1486.45 L2352.76 123.472 L192.709 123.472  Z
  " fill="#ffffff" fill-rule="evenodd" fill-opacity="1"/>
<defs>
  <clipPath id="clip592">
    <rect x="192" y="123" width="2161" height="1364"/>
  </clipPath>
</defs>
<polyline clip-path="url(#clip592)" style="stroke:#000000; stroke-linecap:butt; stroke-linejoin:round; stroke-width:2; stroke-opacity:0.1; fill:none" points="
  253.843,1486.45 253.843,123.472 
  "/>
<polyline clip-path="url(#clip592)" style="stroke:#000000; stroke-linecap:butt; stroke-linejoin:round; stroke-width:2; stroke-opacity:0.1; fill:none" points="
  593.473,1486.45 593.473,123.472 
  "/>
<polyline clip-path="url(#clip592)" style="stroke:#000000; stroke-linecap:butt; stroke-linejoin:round; stroke-width:2; stroke-opacity:0.1; fill:none" points="
  933.103,1486.45 933.103,123.472 
  "/>
<polyline clip-path="url(#clip592)" style="stroke:#000000; stroke-linecap:butt; stroke-linejoin:round; stroke-width:2; stroke-opacity:0.1; fill:none" points="
  1272.73,1486.45 1272.73,123.472 
  "/>
<polyline clip-path="url(#clip592)" style="stroke:#000000; stroke-linecap:butt; stroke-linejoin:round; stroke-width:2; stroke-opacity:0.1; fill:none" points="
  1612.36,1486.45 1612.36,123.472 
  "/>
<polyline clip-path="url(#clip592)" style="stroke:#000000; stroke-linecap:butt; stroke-linejoin:round; stroke-width:2; stroke-opacity:0.1; fill:none" points="
  1951.99,1486.45 1951.99,123.472 
  "/>
<polyline clip-path="url(#clip592)" style="stroke:#000000; stroke-linecap:butt; stroke-linejoin:round; stroke-width:2; stroke-opacity:0.1; fill:none" points="
  2291.62,1486.45 2291.62,123.472 
  "/>
<polyline clip-path="url(#clip590)" style="stroke:#000000; stroke-linecap:butt; stroke-linejoin:round; stroke-width:4; stroke-opacity:1; fill:none" points="
  192.709,1486.45 2352.76,1486.45 
  "/>
<polyline clip-path="url(#clip590)" style="stroke:#000000; stroke-linecap:butt; stroke-linejoin:round; stroke-width:4; stroke-opacity:1; fill:none" points="
  253.843,1486.45 253.843,1467.55 
  "/>
<polyline clip-path="url(#clip590)" style="stroke:#000000; stroke-linecap:butt; stroke-linejoin:round; stroke-width:4; stroke-opacity:1; fill:none" points="
  593.473,1486.45 593.473,1467.55 
  "/>
<polyline clip-path="url(#clip590)" style="stroke:#000000; stroke-linecap:butt; stroke-linejoin:round; stroke-width:4; stroke-opacity:1; fill:none" points="
  933.103,1486.45 933.103,1467.55 
  "/>
<polyline clip-path="url(#clip590)" style="stroke:#000000; stroke-linecap:butt; stroke-linejoin:round; stroke-width:4; stroke-opacity:1; fill:none" points="
  1272.73,1486.45 1272.73,1467.55 
  "/>
<polyline clip-path="url(#clip590)" style="stroke:#000000; stroke-linecap:butt; stroke-linejoin:round; stroke-width:4; stroke-opacity:1; fill:none" points="
  1612.36,1486.45 1612.36,1467.55 
  "/>
<polyline clip-path="url(#clip590)" style="stroke:#000000; stroke-linecap:butt; stroke-linejoin:round; stroke-width:4; stroke-opacity:1; fill:none" points="
  1951.99,1486.45 1951.99,1467.55 
  "/>
<polyline clip-path="url(#clip590)" style="stroke:#000000; stroke-linecap:butt; stroke-linejoin:round; stroke-width:4; stroke-opacity:1; fill:none" points="
  2291.62,1486.45 2291.62,1467.55 
  "/>
<path clip-path="url(#clip590)" d="M223.31 1532.02 L252.986 1532.02 L252.986 1535.95 L223.31 1535.95 L223.31 1532.02 Z" fill="#000000" fill-rule="evenodd" fill-opacity="1" /><path clip-path="url(#clip590)" d="M277.245 1530.21 Q280.602 1530.93 282.477 1533.2 Q284.375 1535.47 284.375 1538.8 Q284.375 1543.92 280.856 1546.72 Q277.338 1549.52 270.856 1549.52 Q268.68 1549.52 266.366 1549.08 Q264.074 1548.66 261.62 1547.81 L261.62 1543.29 Q263.565 1544.43 265.88 1545.01 Q268.194 1545.58 270.717 1545.58 Q275.116 1545.58 277.407 1543.85 Q279.722 1542.11 279.722 1538.8 Q279.722 1535.75 277.569 1534.03 Q275.44 1532.3 271.62 1532.3 L267.592 1532.3 L267.592 1528.45 L271.805 1528.45 Q275.254 1528.45 277.083 1527.09 Q278.912 1525.7 278.912 1523.11 Q278.912 1520.45 277.014 1519.03 Q275.139 1517.6 271.62 1517.6 Q269.699 1517.6 267.5 1518.01 Q265.301 1518.43 262.662 1519.31 L262.662 1515.14 Q265.324 1514.4 267.639 1514.03 Q269.977 1513.66 272.037 1513.66 Q277.361 1513.66 280.463 1516.09 Q283.565 1518.5 283.565 1522.62 Q283.565 1525.49 281.921 1527.48 Q280.278 1529.45 277.245 1530.21 Z" fill="#000000" fill-rule="evenodd" fill-opacity="1" /><path clip-path="url(#clip590)" d="M563.415 1532.02 L593.091 1532.02 L593.091 1535.95 L563.415 1535.95 L563.415 1532.02 Z" fill="#000000" fill-rule="evenodd" fill-opacity="1" /><path clip-path="url(#clip590)" d="M607.211 1544.91 L623.53 1544.91 L623.53 1548.85 L601.586 1548.85 L601.586 1544.91 Q604.248 1542.16 608.831 1537.53 Q613.438 1532.88 614.618 1531.53 Q616.864 1529.01 617.743 1527.27 Q618.646 1525.51 618.646 1523.82 Q618.646 1521.07 616.702 1519.33 Q614.78 1517.6 611.678 1517.6 Q609.479 1517.6 607.026 1518.36 Q604.595 1519.13 601.817 1520.68 L601.817 1515.95 Q604.641 1514.82 607.095 1514.24 Q609.549 1513.66 611.586 1513.66 Q616.956 1513.66 620.151 1516.35 Q623.345 1519.03 623.345 1523.52 Q623.345 1525.65 622.535 1527.57 Q621.748 1529.47 619.641 1532.07 Q619.063 1532.74 615.961 1535.95 Q612.859 1539.15 607.211 1544.91 Z" fill="#000000" fill-rule="evenodd" fill-opacity="1" /><path clip-path="url(#clip590)" d="M902.86 1532.02 L932.535 1532.02 L932.535 1535.95 L902.86 1535.95 L902.86 1532.02 Z" fill="#000000" fill-rule="evenodd" fill-opacity="1" /><path clip-path="url(#clip590)" d="M943.438 1544.91 L951.077 1544.91 L951.077 1518.55 L942.767 1520.21 L942.767 1515.95 L951.031 1514.29 L955.707 1514.29 L955.707 1544.91 L963.345 1544.91 L963.345 1548.85 L943.438 1548.85 L943.438 1544.91 Z" fill="#000000" fill-rule="evenodd" fill-opacity="1" /><path clip-path="url(#clip590)" d="M1272.73 1517.37 Q1269.12 1517.37 1267.29 1520.93 Q1265.49 1524.47 1265.49 1531.6 Q1265.49 1538.71 1267.29 1542.27 Q1269.12 1545.82 1272.73 1545.82 Q1276.37 1545.82 1278.17 1542.27 Q1280 1538.71 1280 1531.6 Q1280 1524.47 1278.17 1520.93 Q1276.37 1517.37 1272.73 1517.37 M1272.73 1513.66 Q1278.54 1513.66 1281.6 1518.27 Q1284.68 1522.85 1284.68 1531.6 Q1284.68 1540.33 1281.6 1544.94 Q1278.54 1549.52 1272.73 1549.52 Q1266.92 1549.52 1263.84 1544.94 Q1260.79 1540.33 1260.79 1531.6 Q1260.79 1522.85 1263.84 1518.27 Q1266.92 1513.66 1272.73 1513.66 Z" fill="#000000" fill-rule="evenodd" fill-opacity="1" /><path clip-path="url(#clip590)" d="M1602.74 1544.91 L1610.38 1544.91 L1610.38 1518.55 L1602.07 1520.21 L1602.07 1515.95 L1610.34 1514.29 L1615.01 1514.29 L1615.01 1544.91 L1622.65 1544.91 L1622.65 1548.85 L1602.74 1548.85 L1602.74 1544.91 Z" fill="#000000" fill-rule="evenodd" fill-opacity="1" /><path clip-path="url(#clip590)" d="M1946.65 1544.91 L1962.96 1544.91 L1962.96 1548.85 L1941.02 1548.85 L1941.02 1544.91 Q1943.68 1542.16 1948.27 1537.53 Q1952.87 1532.88 1954.05 1531.53 Q1956.3 1529.01 1957.18 1527.27 Q1958.08 1525.51 1958.08 1523.82 Q1958.08 1521.07 1956.14 1519.33 Q1954.21 1517.6 1951.11 1517.6 Q1948.91 1517.6 1946.46 1518.36 Q1944.03 1519.13 1941.25 1520.68 L1941.25 1515.95 Q1944.08 1514.82 1946.53 1514.24 Q1948.98 1513.66 1951.02 1513.66 Q1956.39 1513.66 1959.59 1516.35 Q1962.78 1519.03 1962.78 1523.52 Q1962.78 1525.65 1961.97 1527.57 Q1961.18 1529.47 1959.08 1532.07 Q1958.5 1532.74 1955.4 1535.95 Q1952.29 1539.15 1946.65 1544.91 Z" fill="#000000" fill-rule="evenodd" fill-opacity="1" /><path clip-path="url(#clip590)" d="M2295.87 1530.21 Q2299.23 1530.93 2301.1 1533.2 Q2303 1535.47 2303 1538.8 Q2303 1543.92 2299.48 1546.72 Q2295.96 1549.52 2289.48 1549.52 Q2287.31 1549.52 2284.99 1549.08 Q2282.7 1548.66 2280.25 1547.81 L2280.25 1543.29 Q2282.19 1544.43 2284.5 1545.01 Q2286.82 1545.58 2289.34 1545.58 Q2293.74 1545.58 2296.03 1543.85 Q2298.35 1542.11 2298.35 1538.8 Q2298.35 1535.75 2296.19 1534.03 Q2294.06 1532.3 2290.25 1532.3 L2286.22 1532.3 L2286.22 1528.45 L2290.43 1528.45 Q2293.88 1528.45 2295.71 1527.09 Q2297.54 1525.7 2297.54 1523.11 Q2297.54 1520.45 2295.64 1519.03 Q2293.76 1517.6 2290.25 1517.6 Q2288.32 1517.6 2286.12 1518.01 Q2283.93 1518.43 2281.29 1519.31 L2281.29 1515.14 Q2283.95 1514.4 2286.26 1514.03 Q2288.6 1513.66 2290.66 1513.66 Q2295.99 1513.66 2299.09 1516.09 Q2302.19 1518.5 2302.19 1522.62 Q2302.19 1525.49 2300.55 1527.48 Q2298.9 1529.45 2295.87 1530.21 Z" fill="#000000" fill-rule="evenodd" fill-opacity="1" /><polyline clip-path="url(#clip592)" style="stroke:#000000; stroke-linecap:butt; stroke-linejoin:round; stroke-width:2; stroke-opacity:0.1; fill:none" points="
  192.709,1385.02 2352.76,1385.02 
  "/>
<polyline clip-path="url(#clip592)" style="stroke:#000000; stroke-linecap:butt; stroke-linejoin:round; stroke-width:2; stroke-opacity:0.1; fill:none" points="
  192.709,1178.04 2352.76,1178.04 
  "/>
<polyline clip-path="url(#clip592)" style="stroke:#000000; stroke-linecap:butt; stroke-linejoin:round; stroke-width:2; stroke-opacity:0.1; fill:none" points="
  192.709,971.062 2352.76,971.062 
  "/>
<polyline clip-path="url(#clip592)" style="stroke:#000000; stroke-linecap:butt; stroke-linejoin:round; stroke-width:2; stroke-opacity:0.1; fill:none" points="
  192.709,764.082 2352.76,764.082 
  "/>
<polyline clip-path="url(#clip592)" style="stroke:#000000; stroke-linecap:butt; stroke-linejoin:round; stroke-width:2; stroke-opacity:0.1; fill:none" points="
  192.709,557.101 2352.76,557.101 
  "/>
<polyline clip-path="url(#clip592)" style="stroke:#000000; stroke-linecap:butt; stroke-linejoin:round; stroke-width:2; stroke-opacity:0.1; fill:none" points="
  192.709,350.121 2352.76,350.121 
  "/>
<polyline clip-path="url(#clip592)" style="stroke:#000000; stroke-linecap:butt; stroke-linejoin:round; stroke-width:2; stroke-opacity:0.1; fill:none" points="
  192.709,143.14 2352.76,143.14 
  "/>
<polyline clip-path="url(#clip590)" style="stroke:#000000; stroke-linecap:butt; stroke-linejoin:round; stroke-width:4; stroke-opacity:1; fill:none" points="
  192.709,1486.45 192.709,123.472 
  "/>
<polyline clip-path="url(#clip590)" style="stroke:#000000; stroke-linecap:butt; stroke-linejoin:round; stroke-width:4; stroke-opacity:1; fill:none" points="
  192.709,1385.02 211.607,1385.02 
  "/>
<polyline clip-path="url(#clip590)" style="stroke:#000000; stroke-linecap:butt; stroke-linejoin:round; stroke-width:4; stroke-opacity:1; fill:none" points="
  192.709,1178.04 211.607,1178.04 
  "/>
<polyline clip-path="url(#clip590)" style="stroke:#000000; stroke-linecap:butt; stroke-linejoin:round; stroke-width:4; stroke-opacity:1; fill:none" points="
  192.709,971.062 211.607,971.062 
  "/>
<polyline clip-path="url(#clip590)" style="stroke:#000000; stroke-linecap:butt; stroke-linejoin:round; stroke-width:4; stroke-opacity:1; fill:none" points="
  192.709,764.082 211.607,764.082 
  "/>
<polyline clip-path="url(#clip590)" style="stroke:#000000; stroke-linecap:butt; stroke-linejoin:round; stroke-width:4; stroke-opacity:1; fill:none" points="
  192.709,557.101 211.607,557.101 
  "/>
<polyline clip-path="url(#clip590)" style="stroke:#000000; stroke-linecap:butt; stroke-linejoin:round; stroke-width:4; stroke-opacity:1; fill:none" points="
  192.709,350.121 211.607,350.121 
  "/>
<polyline clip-path="url(#clip590)" style="stroke:#000000; stroke-linecap:butt; stroke-linejoin:round; stroke-width:4; stroke-opacity:1; fill:none" points="
  192.709,143.14 211.607,143.14 
  "/>
<path clip-path="url(#clip590)" d="M51.3625 1385.47 L81.0383 1385.47 L81.0383 1389.41 L51.3625 1389.41 L51.3625 1385.47 Z" fill="#000000" fill-rule="evenodd" fill-opacity="1" /><path clip-path="url(#clip590)" d="M101.131 1370.82 Q97.5197 1370.82 95.691 1374.39 Q93.8854 1377.93 93.8854 1385.06 Q93.8854 1392.16 95.691 1395.73 Q97.5197 1399.27 101.131 1399.27 Q104.765 1399.27 106.571 1395.73 Q108.399 1392.16 108.399 1385.06 Q108.399 1377.93 106.571 1374.39 Q104.765 1370.82 101.131 1370.82 M101.131 1367.12 Q106.941 1367.12 109.996 1371.72 Q113.075 1376.31 113.075 1385.06 Q113.075 1393.78 109.996 1398.39 Q106.941 1402.97 101.131 1402.97 Q95.3206 1402.97 92.2419 1398.39 Q89.1864 1393.78 89.1864 1385.06 Q89.1864 1376.31 92.2419 1371.72 Q95.3206 1367.12 101.131 1367.12 Z" fill="#000000" fill-rule="evenodd" fill-opacity="1" /><path clip-path="url(#clip590)" d="M121.293 1396.42 L126.177 1396.42 L126.177 1402.3 L121.293 1402.3 L121.293 1396.42 Z" fill="#000000" fill-rule="evenodd" fill-opacity="1" /><path clip-path="url(#clip590)" d="M140.39 1398.37 L156.709 1398.37 L156.709 1402.3 L134.765 1402.3 L134.765 1398.37 Q137.427 1395.61 142.01 1390.98 Q146.617 1386.33 147.797 1384.99 Q150.043 1382.46 150.922 1380.73 Q151.825 1378.97 151.825 1377.28 Q151.825 1374.53 149.88 1372.79 Q147.959 1371.05 144.857 1371.05 Q142.658 1371.05 140.205 1371.82 Q137.774 1372.58 134.996 1374.13 L134.996 1369.41 Q137.82 1368.28 140.274 1367.7 Q142.728 1367.12 144.765 1367.12 Q150.135 1367.12 153.33 1369.8 Q156.524 1372.49 156.524 1376.98 Q156.524 1379.11 155.714 1381.03 Q154.927 1382.93 152.82 1385.52 Q152.242 1386.19 149.14 1389.41 Q146.038 1392.6 140.39 1398.37 Z" fill="#000000" fill-rule="evenodd" fill-opacity="1" /><path clip-path="url(#clip590)" d="M50.9921 1178.49 L80.6679 1178.49 L80.6679 1182.43 L50.9921 1182.43 L50.9921 1178.49 Z" fill="#000000" fill-rule="evenodd" fill-opacity="1" /><path clip-path="url(#clip590)" d="M100.76 1163.84 Q97.1493 1163.84 95.3206 1167.41 Q93.515 1170.95 93.515 1178.08 Q93.515 1185.18 95.3206 1188.75 Q97.1493 1192.29 100.76 1192.29 Q104.395 1192.29 106.2 1188.75 Q108.029 1185.18 108.029 1178.08 Q108.029 1170.95 106.2 1167.41 Q104.395 1163.84 100.76 1163.84 M100.76 1160.14 Q106.571 1160.14 109.626 1164.74 Q112.705 1169.33 112.705 1178.08 Q112.705 1186.8 109.626 1191.41 Q106.571 1195.99 100.76 1195.99 Q94.9502 1195.99 91.8715 1191.41 Q88.816 1186.8 88.816 1178.08 Q88.816 1169.33 91.8715 1164.74 Q94.9502 1160.14 100.76 1160.14 Z" fill="#000000" fill-rule="evenodd" fill-opacity="1" /><path clip-path="url(#clip590)" d="M120.922 1189.44 L125.807 1189.44 L125.807 1195.32 L120.922 1195.32 L120.922 1189.44 Z" fill="#000000" fill-rule="evenodd" fill-opacity="1" /><path clip-path="url(#clip590)" d="M136.802 1191.39 L144.441 1191.39 L144.441 1165.02 L136.131 1166.69 L136.131 1162.43 L144.394 1160.76 L149.07 1160.76 L149.07 1191.39 L156.709 1191.39 L156.709 1195.32 L136.802 1195.32 L136.802 1191.39 Z" fill="#000000" fill-rule="evenodd" fill-opacity="1" /><path clip-path="url(#clip590)" d="M99.5335 956.861 Q95.9224 956.861 94.0937 960.425 Q92.2882 963.967 92.2882 971.097 Q92.2882 978.203 94.0937 981.768 Q95.9224 985.31 99.5335 985.31 Q103.168 985.31 104.973 981.768 Q106.802 978.203 106.802 971.097 Q106.802 963.967 104.973 960.425 Q103.168 956.861 99.5335 956.861 M99.5335 953.157 Q105.344 953.157 108.399 957.763 Q111.478 962.347 111.478 971.097 Q111.478 979.824 108.399 984.43 Q105.344 989.013 99.5335 989.013 Q93.7234 989.013 90.6447 984.43 Q87.5892 979.824 87.5892 971.097 Q87.5892 962.347 90.6447 957.763 Q93.7234 953.157 99.5335 953.157 Z" fill="#000000" fill-rule="evenodd" fill-opacity="1" /><path clip-path="url(#clip590)" d="M119.695 982.462 L124.58 982.462 L124.58 988.342 L119.695 988.342 L119.695 982.462 Z" fill="#000000" fill-rule="evenodd" fill-opacity="1" /><path clip-path="url(#clip590)" d="M144.765 956.861 Q141.154 956.861 139.325 960.425 Q137.519 963.967 137.519 971.097 Q137.519 978.203 139.325 981.768 Q141.154 985.31 144.765 985.31 Q148.399 985.31 150.205 981.768 Q152.033 978.203 152.033 971.097 Q152.033 963.967 150.205 960.425 Q148.399 956.861 144.765 956.861 M144.765 953.157 Q150.575 953.157 153.63 957.763 Q156.709 962.347 156.709 971.097 Q156.709 979.824 153.63 984.43 Q150.575 989.013 144.765 989.013 Q138.955 989.013 135.876 984.43 Q132.82 979.824 132.82 971.097 Q132.82 962.347 135.876 957.763 Q138.955 953.157 144.765 953.157 Z" fill="#000000" fill-rule="evenodd" fill-opacity="1" /><path clip-path="url(#clip590)" d="M100.76 749.88 Q97.1493 749.88 95.3206 753.445 Q93.515 756.987 93.515 764.116 Q93.515 771.223 95.3206 774.788 Q97.1493 778.329 100.76 778.329 Q104.395 778.329 106.2 774.788 Q108.029 771.223 108.029 764.116 Q108.029 756.987 106.2 753.445 Q104.395 749.88 100.76 749.88 M100.76 746.177 Q106.571 746.177 109.626 750.783 Q112.705 755.366 112.705 764.116 Q112.705 772.843 109.626 777.45 Q106.571 782.033 100.76 782.033 Q94.9502 782.033 91.8715 777.45 Q88.816 772.843 88.816 764.116 Q88.816 755.366 91.8715 750.783 Q94.9502 746.177 100.76 746.177 Z" fill="#000000" fill-rule="evenodd" fill-opacity="1" /><path clip-path="url(#clip590)" d="M120.922 775.482 L125.807 775.482 L125.807 781.362 L120.922 781.362 L120.922 775.482 Z" fill="#000000" fill-rule="evenodd" fill-opacity="1" /><path clip-path="url(#clip590)" d="M136.802 777.426 L144.441 777.426 L144.441 751.061 L136.131 752.727 L136.131 748.468 L144.394 746.802 L149.07 746.802 L149.07 777.426 L156.709 777.426 L156.709 781.362 L136.802 781.362 L136.802 777.426 Z" fill="#000000" fill-rule="evenodd" fill-opacity="1" /><path clip-path="url(#clip590)" d="M101.131 542.9 Q97.5197 542.9 95.691 546.465 Q93.8854 550.006 93.8854 557.136 Q93.8854 564.242 95.691 567.807 Q97.5197 571.349 101.131 571.349 Q104.765 571.349 106.571 567.807 Q108.399 564.242 108.399 557.136 Q108.399 550.006 106.571 546.465 Q104.765 542.9 101.131 542.9 M101.131 539.196 Q106.941 539.196 109.996 543.803 Q113.075 548.386 113.075 557.136 Q113.075 565.863 109.996 570.469 Q106.941 575.052 101.131 575.052 Q95.3206 575.052 92.2419 570.469 Q89.1864 565.863 89.1864 557.136 Q89.1864 548.386 92.2419 543.803 Q95.3206 539.196 101.131 539.196 Z" fill="#000000" fill-rule="evenodd" fill-opacity="1" /><path clip-path="url(#clip590)" d="M121.293 568.502 L126.177 568.502 L126.177 574.381 L121.293 574.381 L121.293 568.502 Z" fill="#000000" fill-rule="evenodd" fill-opacity="1" /><path clip-path="url(#clip590)" d="M140.39 570.446 L156.709 570.446 L156.709 574.381 L134.765 574.381 L134.765 570.446 Q137.427 567.691 142.01 563.062 Q146.617 558.409 147.797 557.066 Q150.043 554.543 150.922 552.807 Q151.825 551.048 151.825 549.358 Q151.825 546.604 149.88 544.867 Q147.959 543.131 144.857 543.131 Q142.658 543.131 140.205 543.895 Q137.774 544.659 134.996 546.21 L134.996 541.488 Q137.82 540.354 140.274 539.775 Q142.728 539.196 144.765 539.196 Q150.135 539.196 153.33 541.881 Q156.524 544.567 156.524 549.057 Q156.524 551.187 155.714 553.108 Q154.927 555.006 152.82 557.599 Q152.242 558.27 149.14 561.488 Q146.038 564.682 140.39 570.446 Z" fill="#000000" fill-rule="evenodd" fill-opacity="1" /><path clip-path="url(#clip590)" d="M100.182 335.919 Q96.5706 335.919 94.7419 339.484 Q92.9363 343.026 92.9363 350.156 Q92.9363 357.262 94.7419 360.827 Q96.5706 364.368 100.182 364.368 Q103.816 364.368 105.621 360.827 Q107.45 357.262 107.45 350.156 Q107.45 343.026 105.621 339.484 Q103.816 335.919 100.182 335.919 M100.182 332.216 Q105.992 332.216 109.047 336.822 Q112.126 341.406 112.126 350.156 Q112.126 358.882 109.047 363.489 Q105.992 368.072 100.182 368.072 Q94.3715 368.072 91.2928 363.489 Q88.2373 358.882 88.2373 350.156 Q88.2373 341.406 91.2928 336.822 Q94.3715 332.216 100.182 332.216 Z" fill="#000000" fill-rule="evenodd" fill-opacity="1" /><path clip-path="url(#clip590)" d="M120.344 361.521 L125.228 361.521 L125.228 367.401 L120.344 367.401 L120.344 361.521 Z" fill="#000000" fill-rule="evenodd" fill-opacity="1" /><path clip-path="url(#clip590)" d="M149.58 348.767 Q152.936 349.484 154.811 351.753 Q156.709 354.021 156.709 357.355 Q156.709 362.47 153.191 365.271 Q149.672 368.072 143.191 368.072 Q141.015 368.072 138.7 367.632 Q136.408 367.216 133.955 366.359 L133.955 361.845 Q135.899 362.98 138.214 363.558 Q140.529 364.137 143.052 364.137 Q147.45 364.137 149.742 362.401 Q152.056 360.665 152.056 357.355 Q152.056 354.299 149.904 352.586 Q147.774 350.85 143.955 350.85 L139.927 350.85 L139.927 347.007 L144.14 347.007 Q147.589 347.007 149.418 345.642 Q151.246 344.253 151.246 341.66 Q151.246 338.998 149.348 337.586 Q147.473 336.151 143.955 336.151 Q142.033 336.151 139.834 336.568 Q137.635 336.984 134.996 337.864 L134.996 333.697 Q137.658 332.957 139.973 332.586 Q142.311 332.216 144.371 332.216 Q149.695 332.216 152.797 334.646 Q155.899 337.054 155.899 341.174 Q155.899 344.044 154.255 346.035 Q152.612 348.003 149.58 348.767 Z" fill="#000000" fill-rule="evenodd" fill-opacity="1" /><path clip-path="url(#clip590)" d="M99.0474 128.939 Q95.4363 128.939 93.6076 132.504 Q91.8021 136.046 91.8021 143.175 Q91.8021 150.282 93.6076 153.846 Q95.4363 157.388 99.0474 157.388 Q102.682 157.388 104.487 153.846 Q106.316 150.282 106.316 143.175 Q106.316 136.046 104.487 132.504 Q102.682 128.939 99.0474 128.939 M99.0474 125.235 Q104.858 125.235 107.913 129.842 Q110.992 134.425 110.992 143.175 Q110.992 151.902 107.913 156.508 Q104.858 161.092 99.0474 161.092 Q93.2373 161.092 90.1586 156.508 Q87.103 151.902 87.103 143.175 Q87.103 134.425 90.1586 129.842 Q93.2373 125.235 99.0474 125.235 Z" fill="#000000" fill-rule="evenodd" fill-opacity="1" /><path clip-path="url(#clip590)" d="M119.209 154.541 L124.094 154.541 L124.094 160.42 L119.209 160.42 L119.209 154.541 Z" fill="#000000" fill-rule="evenodd" fill-opacity="1" /><path clip-path="url(#clip590)" d="M147.126 129.934 L135.32 148.383 L147.126 148.383 L147.126 129.934 M145.899 125.86 L151.779 125.86 L151.779 148.383 L156.709 148.383 L156.709 152.272 L151.779 152.272 L151.779 160.42 L147.126 160.42 L147.126 152.272 L131.524 152.272 L131.524 147.758 L145.899 125.86 Z" fill="#000000" fill-rule="evenodd" fill-opacity="1" /><path clip-path="url(#clip590)" d="M719.257 12.096 L727.44 12.096 L727.44 65.6895 L756.89 65.6895 L756.89 72.576 L719.257 72.576 L719.257 12.096 Z" fill="#000000" fill-rule="evenodd" fill-opacity="1" /><path clip-path="url(#clip590)" d="M781.277 32.4315 Q775.281 32.4315 771.798 37.1306 Q768.314 41.7891 768.314 49.9314 Q768.314 58.0738 771.757 62.7728 Q775.241 67.4314 781.277 67.4314 Q787.232 67.4314 790.715 62.7323 Q794.199 58.0333 794.199 49.9314 Q794.199 41.8701 790.715 37.1711 Q787.232 32.4315 781.277 32.4315 M781.277 26.1121 Q790.999 26.1121 796.549 32.4315 Q802.098 38.7509 802.098 49.9314 Q802.098 61.0714 796.549 67.4314 Q790.999 73.7508 781.277 73.7508 Q771.514 73.7508 765.964 67.4314 Q760.455 61.0714 760.455 49.9314 Q760.455 38.7509 765.964 32.4315 Q771.514 26.1121 781.277 26.1121 Z" fill="#000000" fill-rule="evenodd" fill-opacity="1" /><path clip-path="url(#clip590)" d="M843.377 28.5427 L843.377 35.5912 Q840.217 33.9709 836.815 33.1607 Q833.412 32.3505 829.766 32.3505 Q824.216 32.3505 821.421 34.0519 Q818.667 35.7533 818.667 39.156 Q818.667 41.7486 820.652 43.2475 Q822.637 44.7058 828.632 46.0426 L831.184 46.6097 Q839.124 48.3111 842.445 51.4303 Q845.808 54.509 845.808 60.0587 Q845.808 66.3781 840.785 70.0644 Q835.802 73.7508 827.052 73.7508 Q823.406 73.7508 819.436 73.0216 Q815.507 72.3329 811.132 70.9151 L811.132 63.2184 Q815.264 65.3654 819.274 66.4591 Q823.285 67.5124 827.214 67.5124 Q832.48 67.5124 835.316 65.73 Q838.152 63.9071 838.152 60.6258 Q838.152 57.5877 836.086 55.9673 Q834.06 54.3469 827.133 52.8481 L824.54 52.2405 Q817.613 50.7821 814.535 47.7845 Q811.456 44.7463 811.456 39.4801 Q811.456 33.0797 815.993 29.5959 Q820.53 26.1121 828.875 26.1121 Q833.007 26.1121 836.653 26.7198 Q840.299 27.3274 843.377 28.5427 Z" fill="#000000" fill-rule="evenodd" fill-opacity="1" /><path clip-path="url(#clip590)" d="M886.6 28.5427 L886.6 35.5912 Q883.441 33.9709 880.038 33.1607 Q876.635 32.3505 872.989 32.3505 Q867.44 32.3505 864.644 34.0519 Q861.89 35.7533 861.89 39.156 Q861.89 41.7486 863.875 43.2475 Q865.86 44.7058 871.855 46.0426 L874.407 46.6097 Q882.347 48.3111 885.669 51.4303 Q889.031 54.509 889.031 60.0587 Q889.031 66.3781 884.008 70.0644 Q879.025 73.7508 870.275 73.7508 Q866.629 73.7508 862.659 73.0216 Q858.73 72.3329 854.355 70.9151 L854.355 63.2184 Q858.487 65.3654 862.497 66.4591 Q866.508 67.5124 870.437 67.5124 Q875.703 67.5124 878.539 65.73 Q881.375 63.9071 881.375 60.6258 Q881.375 57.5877 879.309 55.9673 Q877.283 54.3469 870.356 52.8481 L867.764 52.2405 Q860.837 50.7821 857.758 47.7845 Q854.679 44.7463 854.679 39.4801 Q854.679 33.0797 859.216 29.5959 Q863.753 26.1121 872.098 26.1121 Q876.23 26.1121 879.876 26.7198 Q883.522 27.3274 886.6 28.5427 Z" fill="#000000" fill-rule="evenodd" fill-opacity="1" /><path clip-path="url(#clip590)" d="M928.244 34.9026 L980.176 34.9026 L980.176 41.7081 L928.244 41.7081 L928.244 34.9026 M928.244 51.4303 L980.176 51.4303 L980.176 58.3168 L928.244 58.3168 L928.244 51.4303 Z" fill="#000000" fill-rule="evenodd" fill-opacity="1" /><path clip-path="url(#clip590)" d="M1024.29 12.096 L1056.41 12.096 L1056.41 18.9825 L1031.78 18.9825 L1031.78 33.8088 Q1033.57 33.2012 1035.35 32.9176 Q1037.13 32.5936 1038.91 32.5936 Q1049.04 32.5936 1054.96 38.1433 Q1060.87 43.6931 1060.87 53.1722 Q1060.87 62.9348 1054.79 68.3631 Q1048.72 73.7508 1037.66 73.7508 Q1033.85 73.7508 1029.88 73.1026 Q1025.95 72.4545 1021.74 71.1582 L1021.74 62.9348 Q1025.38 64.9198 1029.27 65.892 Q1033.16 66.8642 1037.5 66.8642 Q1044.5 66.8642 1048.6 63.1779 Q1052.69 59.4916 1052.69 53.1722 Q1052.69 46.8528 1048.6 43.1664 Q1044.5 39.4801 1037.5 39.4801 Q1034.22 39.4801 1030.93 40.2093 Q1027.69 40.9384 1024.29 42.4778 L1024.29 12.096 Z" fill="#000000" fill-rule="evenodd" fill-opacity="1" /><path clip-path="url(#clip590)" d="M1084.04 65.6895 L1112.6 65.6895 L1112.6 72.576 L1074.2 72.576 L1074.2 65.6895 Q1078.86 60.8689 1086.88 52.7671 Q1094.94 44.6248 1097 42.2752 Q1100.93 37.8598 1102.47 34.8216 Q1104.05 31.7429 1104.05 28.7857 Q1104.05 23.9651 1100.65 20.927 Q1097.29 17.8888 1091.86 17.8888 Q1088.01 17.8888 1083.72 19.2256 Q1079.46 20.5624 1074.6 23.2765 L1074.6 15.0127 Q1079.54 13.0277 1083.84 12.015 Q1088.13 11.0023 1091.7 11.0023 Q1101.1 11.0023 1106.69 15.7013 Q1112.28 20.4004 1112.28 28.2591 Q1112.28 31.9859 1110.86 35.3482 Q1109.48 38.6699 1105.79 43.2069 Q1104.78 44.3817 1099.35 50.0125 Q1093.93 55.6027 1084.04 65.6895 Z" fill="#000000" fill-rule="evenodd" fill-opacity="1" /><path clip-path="url(#clip590)" d="M1136.82 65.6895 L1165.38 65.6895 L1165.38 72.576 L1126.98 72.576 L1126.98 65.6895 Q1131.64 60.8689 1139.66 52.7671 Q1147.72 44.6248 1149.79 42.2752 Q1153.72 37.8598 1155.26 34.8216 Q1156.84 31.7429 1156.84 28.7857 Q1156.84 23.9651 1153.43 20.927 Q1150.07 17.8888 1144.64 17.8888 Q1140.79 17.8888 1136.5 19.2256 Q1132.25 20.5624 1127.39 23.2765 L1127.39 15.0127 Q1132.33 13.0277 1136.62 12.015 Q1140.92 11.0023 1144.48 11.0023 Q1153.88 11.0023 1159.47 15.7013 Q1165.06 20.4004 1165.06 28.2591 Q1165.06 31.9859 1163.64 35.3482 Q1162.26 38.6699 1158.58 43.2069 Q1157.57 44.3817 1152.14 50.0125 Q1146.71 55.6027 1136.82 65.6895 Z" fill="#000000" fill-rule="evenodd" fill-opacity="1" /><path clip-path="url(#clip590)" d="M1180.49 12.096 L1219.38 12.096 L1219.38 15.5798 L1197.43 72.576 L1188.88 72.576 L1209.54 18.9825 L1180.49 18.9825 L1180.49 12.096 Z" fill="#000000" fill-rule="evenodd" fill-opacity="1" /><path clip-path="url(#clip590)" d="M1235.34 62.2867 L1243.89 62.2867 L1243.89 72.576 L1235.34 72.576 L1235.34 62.2867 Z" fill="#000000" fill-rule="evenodd" fill-opacity="1" /><path clip-path="url(#clip590)" d="M1279.21 17.4837 Q1272.89 17.4837 1269.69 23.7221 Q1266.53 29.92 1266.53 42.3968 Q1266.53 54.833 1269.69 61.0714 Q1272.89 67.2693 1279.21 67.2693 Q1285.57 67.2693 1288.73 61.0714 Q1291.93 54.833 1291.93 42.3968 Q1291.93 29.92 1288.73 23.7221 Q1285.57 17.4837 1279.21 17.4837 M1279.21 11.0023 Q1289.38 11.0023 1294.73 19.0636 Q1300.12 27.0843 1300.12 42.3968 Q1300.12 57.6687 1294.73 65.73 Q1289.38 73.7508 1279.21 73.7508 Q1269.05 73.7508 1263.66 65.73 Q1258.31 57.6687 1258.31 42.3968 Q1258.31 27.0843 1263.66 19.0636 Q1269.05 11.0023 1279.21 11.0023 Z" fill="#000000" fill-rule="evenodd" fill-opacity="1" /><path clip-path="url(#clip590)" d="M1314.74 71.3202 L1314.74 63.8666 Q1317.82 65.3249 1320.98 66.0946 Q1324.14 66.8642 1327.18 66.8642 Q1335.28 66.8642 1339.53 61.436 Q1343.83 55.9673 1344.43 44.8678 Q1342.08 48.3516 1338.48 50.215 Q1334.87 52.0784 1330.5 52.0784 Q1321.42 52.0784 1316.12 46.6097 Q1310.85 41.1005 1310.85 31.5808 Q1310.85 22.2638 1316.36 16.633 Q1321.87 11.0023 1331.03 11.0023 Q1341.52 11.0023 1347.03 19.0636 Q1352.58 27.0843 1352.58 42.3968 Q1352.58 56.6965 1345.77 65.2439 Q1339.01 73.7508 1327.54 73.7508 Q1324.46 73.7508 1321.3 73.1431 Q1318.14 72.5355 1314.74 71.3202 M1331.03 45.678 Q1336.53 45.678 1339.73 41.9107 Q1342.98 38.1433 1342.98 31.5808 Q1342.98 25.0589 1339.73 21.2916 Q1336.53 17.4837 1331.03 17.4837 Q1325.52 17.4837 1322.28 21.2916 Q1319.07 25.0589 1319.07 31.5808 Q1319.07 38.1433 1322.28 41.9107 Q1325.52 45.678 1331.03 45.678 Z" fill="#000000" fill-rule="evenodd" fill-opacity="1" /><path clip-path="url(#clip590)" d="M1367.36 12.096 L1399.49 12.096 L1399.49 18.9825 L1374.86 18.9825 L1374.86 33.8088 Q1376.64 33.2012 1378.42 32.9176 Q1380.2 32.5936 1381.99 32.5936 Q1392.11 32.5936 1398.03 38.1433 Q1403.94 43.6931 1403.94 53.1722 Q1403.94 62.9348 1397.86 68.3631 Q1391.79 73.7508 1380.73 73.7508 Q1376.92 73.7508 1372.95 73.1026 Q1369.02 72.4545 1364.81 71.1582 L1364.81 62.9348 Q1368.46 64.9198 1372.34 65.892 Q1376.23 66.8642 1380.57 66.8642 Q1387.58 66.8642 1391.67 63.1779 Q1395.76 59.4916 1395.76 53.1722 Q1395.76 46.8528 1391.67 43.1664 Q1387.58 39.4801 1380.57 39.4801 Q1377.29 39.4801 1374.01 40.2093 Q1370.76 40.9384 1367.36 42.4778 L1367.36 12.096 Z" fill="#000000" fill-rule="evenodd" fill-opacity="1" /><path clip-path="url(#clip590)" d="M1442.55 19.2256 L1421.89 51.5113 L1442.55 51.5113 L1442.55 19.2256 M1440.4 12.096 L1450.69 12.096 L1450.69 51.5113 L1459.32 51.5113 L1459.32 58.3168 L1450.69 58.3168 L1450.69 72.576 L1442.55 72.576 L1442.55 58.3168 L1415.24 58.3168 L1415.24 50.4176 L1440.4 12.096 Z" fill="#000000" fill-rule="evenodd" fill-opacity="1" /><path clip-path="url(#clip590)" d="M1479.9 65.6895 L1508.45 65.6895 L1508.45 72.576 L1470.05 72.576 L1470.05 65.6895 Q1474.71 60.8689 1482.73 52.7671 Q1490.79 44.6248 1492.86 42.2752 Q1496.79 37.8598 1498.33 34.8216 Q1499.91 31.7429 1499.91 28.7857 Q1499.91 23.9651 1496.5 20.927 Q1493.14 17.8888 1487.71 17.8888 Q1483.87 17.8888 1479.57 19.2256 Q1475.32 20.5624 1470.46 23.2765 L1470.46 15.0127 Q1475.4 13.0277 1479.69 12.015 Q1483.99 11.0023 1487.55 11.0023 Q1496.95 11.0023 1502.54 15.7013 Q1508.13 20.4004 1508.13 28.2591 Q1508.13 31.9859 1506.71 35.3482 Q1505.34 38.6699 1501.65 43.2069 Q1500.64 44.3817 1495.21 50.0125 Q1489.78 55.6027 1479.9 65.6895 Z" fill="#000000" fill-rule="evenodd" fill-opacity="1" /><path clip-path="url(#clip590)" d="M1525.87 71.3202 L1525.87 63.8666 Q1528.95 65.3249 1532.11 66.0946 Q1535.27 66.8642 1538.31 66.8642 Q1546.41 66.8642 1550.67 61.436 Q1554.96 55.9673 1555.57 44.8678 Q1553.22 48.3516 1549.61 50.215 Q1546.01 52.0784 1541.63 52.0784 Q1532.56 52.0784 1527.25 46.6097 Q1521.98 41.1005 1521.98 31.5808 Q1521.98 22.2638 1527.49 16.633 Q1533 11.0023 1542.16 11.0023 Q1552.65 11.0023 1558.16 19.0636 Q1563.71 27.0843 1563.71 42.3968 Q1563.71 56.6965 1556.9 65.2439 Q1550.14 73.7508 1538.67 73.7508 Q1535.6 73.7508 1532.44 73.1431 Q1529.28 72.5355 1525.87 71.3202 M1542.16 45.678 Q1547.67 45.678 1550.87 41.9107 Q1554.11 38.1433 1554.11 31.5808 Q1554.11 25.0589 1550.87 21.2916 Q1547.67 17.4837 1542.16 17.4837 Q1536.65 17.4837 1533.41 21.2916 Q1530.21 25.0589 1530.21 31.5808 Q1530.21 38.1433 1533.41 41.9107 Q1536.65 45.678 1542.16 45.678 Z" fill="#000000" fill-rule="evenodd" fill-opacity="1" /><path clip-path="url(#clip590)" d="M1578.49 12.096 L1610.62 12.096 L1610.62 18.9825 L1585.99 18.9825 L1585.99 33.8088 Q1587.77 33.2012 1589.55 32.9176 Q1591.34 32.5936 1593.12 32.5936 Q1603.25 32.5936 1609.16 38.1433 Q1615.07 43.6931 1615.07 53.1722 Q1615.07 62.9348 1609 68.3631 Q1602.92 73.7508 1591.86 73.7508 Q1588.05 73.7508 1584.09 73.1026 Q1580.16 72.4545 1575.94 71.1582 L1575.94 62.9348 Q1579.59 64.9198 1583.48 65.892 Q1587.37 66.8642 1591.7 66.8642 Q1598.71 66.8642 1602.8 63.1779 Q1606.89 59.4916 1606.89 53.1722 Q1606.89 46.8528 1602.8 43.1664 Q1598.71 39.4801 1591.7 39.4801 Q1588.42 39.4801 1585.14 40.2093 Q1581.9 40.9384 1578.49 42.4778 L1578.49 12.096 Z" fill="#000000" fill-rule="evenodd" fill-opacity="1" /><path clip-path="url(#clip590)" d="M1648.7 43.8551 Q1642.86 43.8551 1639.5 46.9743 Q1636.18 50.0935 1636.18 55.5622 Q1636.18 61.0309 1639.5 64.1501 Q1642.86 67.2693 1648.7 67.2693 Q1654.53 67.2693 1657.89 64.1501 Q1661.25 60.9904 1661.25 55.5622 Q1661.25 50.0935 1657.89 46.9743 Q1654.57 43.8551 1648.7 43.8551 M1640.51 40.3713 Q1635.25 39.075 1632.29 35.4697 Q1629.37 31.8644 1629.37 26.6793 Q1629.37 19.4281 1634.52 15.2152 Q1639.7 11.0023 1648.7 11.0023 Q1657.73 11.0023 1662.88 15.2152 Q1668.02 19.4281 1668.02 26.6793 Q1668.02 31.8644 1665.06 35.4697 Q1662.15 39.075 1656.92 40.3713 Q1662.83 41.7486 1666.12 45.759 Q1669.44 49.7694 1669.44 55.5622 Q1669.44 64.3527 1664.05 69.0517 Q1658.7 73.7508 1648.7 73.7508 Q1638.69 73.7508 1633.3 69.0517 Q1627.96 64.3527 1627.96 55.5622 Q1627.96 49.7694 1631.28 45.759 Q1634.6 41.7486 1640.51 40.3713 M1637.52 27.4489 Q1637.52 32.148 1640.43 34.7811 Q1643.39 37.4142 1648.7 37.4142 Q1653.96 37.4142 1656.92 34.7811 Q1659.92 32.148 1659.92 27.4489 Q1659.92 22.7499 1656.92 20.1168 Q1653.96 17.4837 1648.7 17.4837 Q1643.39 17.4837 1640.43 20.1168 Q1637.52 22.7499 1637.52 27.4489 Z" fill="#000000" fill-rule="evenodd" fill-opacity="1" /><path clip-path="url(#clip590)" d="M1681.91 12.096 L1720.8 12.096 L1720.8 15.5798 L1698.85 72.576 L1690.3 72.576 L1710.96 18.9825 L1681.91 18.9825 L1681.91 12.096 Z" fill="#000000" fill-rule="evenodd" fill-opacity="1" /><path clip-path="url(#clip590)" d="M1734.7 12.096 L1773.59 12.096 L1773.59 15.5798 L1751.63 72.576 L1743.08 72.576 L1763.74 18.9825 L1734.7 18.9825 L1734.7 12.096 Z" fill="#000000" fill-rule="evenodd" fill-opacity="1" /><path clip-path="url(#clip590)" d="M1789.63 12.096 L1821.75 12.096 L1821.75 18.9825 L1797.12 18.9825 L1797.12 33.8088 Q1798.9 33.2012 1800.69 32.9176 Q1802.47 32.5936 1804.25 32.5936 Q1814.38 32.5936 1820.29 38.1433 Q1826.21 43.6931 1826.21 53.1722 Q1826.21 62.9348 1820.13 68.3631 Q1814.05 73.7508 1803 73.7508 Q1799.19 73.7508 1795.22 73.1026 Q1791.29 72.4545 1787.08 71.1582 L1787.08 62.9348 Q1790.72 64.9198 1794.61 65.892 Q1798.5 66.8642 1802.83 66.8642 Q1809.84 66.8642 1813.93 63.1779 Q1818.02 59.4916 1818.02 53.1722 Q1818.02 46.8528 1813.93 43.1664 Q1809.84 39.4801 1802.83 39.4801 Q1799.55 39.4801 1796.27 40.2093 Q1793.03 40.9384 1789.63 42.4778 L1789.63 12.096 Z" fill="#000000" fill-rule="evenodd" fill-opacity="1" /><polyline clip-path="url(#clip592)" style="stroke:#009af9; stroke-linecap:butt; stroke-linejoin:round; stroke-width:12; stroke-opacity:1; fill:none" points="
  253.843,971.062 264.083,994.159 274.323,986.973 284.563,944.303 294.803,972.454 305.043,994.407 315.283,936.542 325.523,1008.61 335.763,931.736 346.003,1013.48 
  356.244,926.84 366.484,1008.05 376.724,959.422 386.964,941.616 397.204,1028.37 407.444,940.715 417.684,929.744 427.924,1032.17 438.164,995.309 448.404,898.497 
  458.645,939.044 468.885,1042.86 479.125,1038.34 489.365,933.965 499.605,869.786 509.845,920.076 520.085,1027.84 530.325,1089.88 540.565,1056.62 550.805,957.44 
  561.046,861.237 571.286,824.302 581.526,862.479 591.766,953.547 602.006,1056.67 612.246,1133.26 622.486,1160.08 632.726,1132.67 642.966,1061.78 653.206,966.634 
  663.447,868.324 673.687,784.884 683.927,728.694 694.167,705.822 704.407,716.729 714.647,757.655 724.887,822.196 735.127,902.738 745.367,991.588 755.607,1081.75 
  765.848,1167.38 776.088,1243.99 786.328,1308.42 796.568,1358.76 806.808,1394.15 817.048,1414.58 827.288,1420.67 837.528,1413.49 847.768,1394.4 858.008,1364.92 
  868.249,1326.62 878.489,1281.05 888.729,1229.69 898.969,1173.92 909.209,1114.97 919.449,1053.97 929.689,991.859 939.929,929.493 950.169,867.577 960.409,806.71 
  970.65,747.388 980.89,690.017 991.13,634.927 1001.37,582.382 1011.61,532.594 1021.85,485.727 1032.09,441.913 1042.33,401.257 1052.57,363.847 1062.81,329.758 
  1073.05,299.064 1083.29,271.839 1093.53,248.17 1103.77,228.158 1114.01,211.931 1124.25,199.646 1134.49,191.509 1144.73,187.775 1154.97,188.775 1165.21,194.929 
  1175.45,206.774 1185.69,225.003 1195.93,250.518 1206.17,284.502 1216.41,328.546 1226.65,384.837 1236.89,456.51 1247.13,548.353 1257.37,668.631 1267.61,836.781 
  1277.85,836.781 1288.09,668.631 1298.33,548.353 1308.57,456.51 1318.81,384.837 1329.05,328.546 1339.29,284.502 1349.53,250.518 1359.77,225.003 1370.01,206.774 
  1380.25,194.929 1390.49,188.775 1400.73,187.775 1410.97,191.509 1421.21,199.646 1431.45,211.931 1441.69,228.158 1451.93,248.17 1462.17,271.839 1472.41,299.064 
  1482.65,329.758 1492.89,363.847 1503.13,401.257 1513.37,441.913 1523.61,485.727 1533.86,532.594 1544.1,582.382 1554.34,634.927 1564.58,690.017 1574.82,747.388 
  1585.06,806.71 1595.3,867.577 1605.54,929.493 1615.78,991.859 1626.02,1053.97 1636.26,1114.97 1646.5,1173.92 1656.74,1229.69 1666.98,1281.05 1677.22,1326.62 
  1687.46,1364.92 1697.7,1394.4 1707.94,1413.49 1718.18,1420.67 1728.42,1414.58 1738.66,1394.15 1748.9,1358.76 1759.14,1308.42 1769.38,1243.99 1779.62,1167.38 
  1789.86,1081.75 1800.1,991.588 1810.34,902.738 1820.58,822.196 1830.82,757.655 1841.06,716.729 1851.3,705.822 1861.54,728.694 1871.78,784.884 1882.02,868.324 
  1892.26,966.634 1902.5,1061.78 1912.74,1132.67 1922.98,1160.08 1933.22,1133.26 1943.46,1056.67 1953.7,953.547 1963.94,862.479 1974.18,824.302 1984.42,861.237 
  1994.66,957.44 2004.9,1056.62 2015.14,1089.88 2025.38,1027.84 2035.62,920.076 2045.86,869.786 2056.1,933.965 2066.34,1038.34 2076.58,1042.86 2086.82,939.044 
  2097.06,898.497 2107.3,995.309 2117.54,1032.17 2127.78,929.744 2138.02,940.715 2148.26,1028.37 2158.5,941.616 2168.74,959.422 2178.98,1008.05 2189.22,926.84 
  2199.46,1013.48 2209.7,931.736 2219.94,1008.61 2230.18,936.542 2240.42,994.407 2250.66,972.454 2260.9,944.303 2271.14,986.973 2281.38,994.159 2291.62,971.062 
  
  "/>
<circle clip-path="url(#clip592)" cx="859.902" cy="1382.63" r="14" fill="#e26f46" fill-rule="evenodd" fill-opacity="1" stroke="#000000" stroke-opacity="1" stroke-width="3.2"/>
<circle clip-path="url(#clip592)" cx="1576.33" cy="750.544" r="14" fill="#e26f46" fill-rule="evenodd" fill-opacity="1" stroke="#000000" stroke-opacity="1" stroke-width="3.2"/>
<circle clip-path="url(#clip592)" cx="1199.36" cy="274.665" r="14" fill="#e26f46" fill-rule="evenodd" fill-opacity="1" stroke="#000000" stroke-opacity="1" stroke-width="3.2"/>
<circle clip-path="url(#clip592)" cx="1783.2" cy="1125.28" r="14" fill="#e26f46" fill-rule="evenodd" fill-opacity="1" stroke="#000000" stroke-opacity="1" stroke-width="3.2"/>
<circle clip-path="url(#clip592)" cx="773.981" cy="1197.78" r="14" fill="#e26f46" fill-rule="evenodd" fill-opacity="1" stroke="#000000" stroke-opacity="1" stroke-width="3.2"/>
<circle clip-path="url(#clip592)" cx="610.351" cy="1111.07" r="14" fill="#e26f46" fill-rule="evenodd" fill-opacity="1" stroke="#000000" stroke-opacity="1" stroke-width="3.2"/>
<circle clip-path="url(#clip592)" cx="1667.23" cy="1289.42" r="14" fill="#e26f46" fill-rule="evenodd" fill-opacity="1" stroke="#000000" stroke-opacity="1" stroke-width="3.2"/>
<circle clip-path="url(#clip592)" cx="2170" cy="941.498" r="14" fill="#e26f46" fill-rule="evenodd" fill-opacity="1" stroke="#000000" stroke-opacity="1" stroke-width="3.2"/>
<circle clip-path="url(#clip592)" cx="1510.35" cy="416.812" r="14" fill="#e26f46" fill-rule="evenodd" fill-opacity="1" stroke="#000000" stroke-opacity="1" stroke-width="3.2"/>
<circle clip-path="url(#clip592)" cx="838.443" cy="1430.33" r="14" fill="#e26f46" fill-rule="evenodd" fill-opacity="1" stroke="#000000" stroke-opacity="1" stroke-width="3.2"/>
<circle clip-path="url(#clip592)" cx="316.503" cy="990.231" r="14" fill="#e26f46" fill-rule="evenodd" fill-opacity="1" stroke="#000000" stroke-opacity="1" stroke-width="3.2"/>
<circle clip-path="url(#clip592)" cx="881.448" cy="1320.33" r="14" fill="#e26f46" fill-rule="evenodd" fill-opacity="1" stroke="#000000" stroke-opacity="1" stroke-width="3.2"/>
<circle clip-path="url(#clip592)" cx="868.095" cy="1307.95" r="14" fill="#e26f46" fill-rule="evenodd" fill-opacity="1" stroke="#000000" stroke-opacity="1" stroke-width="3.2"/>
<circle clip-path="url(#clip592)" cx="1428.81" cy="228.57" r="14" fill="#e26f46" fill-rule="evenodd" fill-opacity="1" stroke="#000000" stroke-opacity="1" stroke-width="3.2"/>
<circle clip-path="url(#clip592)" cx="957.761" cy="824.059" r="14" fill="#e26f46" fill-rule="evenodd" fill-opacity="1" stroke="#000000" stroke-opacity="1" stroke-width="3.2"/>
<circle clip-path="url(#clip592)" cx="300.901" cy="920.96" r="14" fill="#e26f46" fill-rule="evenodd" fill-opacity="1" stroke="#000000" stroke-opacity="1" stroke-width="3.2"/>
<circle clip-path="url(#clip592)" cx="2200.25" cy="1018.98" r="14" fill="#e26f46" fill-rule="evenodd" fill-opacity="1" stroke="#000000" stroke-opacity="1" stroke-width="3.2"/>
<circle clip-path="url(#clip592)" cx="1495.83" cy="404.992" r="14" fill="#e26f46" fill-rule="evenodd" fill-opacity="1" stroke="#000000" stroke-opacity="1" stroke-width="3.2"/>
<circle clip-path="url(#clip592)" cx="1402.64" cy="169.735" r="14" fill="#e26f46" fill-rule="evenodd" fill-opacity="1" stroke="#000000" stroke-opacity="1" stroke-width="3.2"/>
<circle clip-path="url(#clip592)" cx="1651" cy="1205.69" r="14" fill="#e26f46" fill-rule="evenodd" fill-opacity="1" stroke="#000000" stroke-opacity="1" stroke-width="3.2"/>
<circle clip-path="url(#clip592)" cx="1576.31" cy="734.425" r="14" fill="#e26f46" fill-rule="evenodd" fill-opacity="1" stroke="#000000" stroke-opacity="1" stroke-width="3.2"/>
<circle clip-path="url(#clip592)" cx="2177.28" cy="1040.99" r="14" fill="#e26f46" fill-rule="evenodd" fill-opacity="1" stroke="#000000" stroke-opacity="1" stroke-width="3.2"/>
<circle clip-path="url(#clip592)" cx="986.671" cy="699.427" r="14" fill="#e26f46" fill-rule="evenodd" fill-opacity="1" stroke="#000000" stroke-opacity="1" stroke-width="3.2"/>
<circle clip-path="url(#clip592)" cx="902.279" cy="1141.79" r="14" fill="#e26f46" fill-rule="evenodd" fill-opacity="1" stroke="#000000" stroke-opacity="1" stroke-width="3.2"/>
<circle clip-path="url(#clip592)" cx="1219.35" cy="363.823" r="14" fill="#e26f46" fill-rule="evenodd" fill-opacity="1" stroke="#000000" stroke-opacity="1" stroke-width="3.2"/>
<circle clip-path="url(#clip592)" cx="1704.75" cy="1392.29" r="14" fill="#e26f46" fill-rule="evenodd" fill-opacity="1" stroke="#000000" stroke-opacity="1" stroke-width="3.2"/>
<circle clip-path="url(#clip592)" cx="631.815" cy="1189.57" r="14" fill="#e26f46" fill-rule="evenodd" fill-opacity="1" stroke="#000000" stroke-opacity="1" stroke-width="3.2"/>
<circle clip-path="url(#clip592)" cx="2066.56" cy="1021.69" r="14" fill="#e26f46" fill-rule="evenodd" fill-opacity="1" stroke="#000000" stroke-opacity="1" stroke-width="3.2"/>
<circle clip-path="url(#clip592)" cx="1123.64" cy="162.047" r="14" fill="#e26f46" fill-rule="evenodd" fill-opacity="1" stroke="#000000" stroke-opacity="1" stroke-width="3.2"/>
<circle clip-path="url(#clip592)" cx="1504.03" cy="413.205" r="14" fill="#e26f46" fill-rule="evenodd" fill-opacity="1" stroke="#000000" stroke-opacity="1" stroke-width="3.2"/>
<circle clip-path="url(#clip592)" cx="2183.93" cy="975.953" r="14" fill="#e26f46" fill-rule="evenodd" fill-opacity="1" stroke="#000000" stroke-opacity="1" stroke-width="3.2"/>
<circle clip-path="url(#clip592)" cx="1114.19" cy="225.901" r="14" fill="#e26f46" fill-rule="evenodd" fill-opacity="1" stroke="#000000" stroke-opacity="1" stroke-width="3.2"/>
<circle clip-path="url(#clip592)" cx="1499.52" cy="432.635" r="14" fill="#e26f46" fill-rule="evenodd" fill-opacity="1" stroke="#000000" stroke-opacity="1" stroke-width="3.2"/>
<circle clip-path="url(#clip592)" cx="432.166" cy="1032.34" r="14" fill="#e26f46" fill-rule="evenodd" fill-opacity="1" stroke="#000000" stroke-opacity="1" stroke-width="3.2"/>
<circle clip-path="url(#clip592)" cx="460.715" cy="961.714" r="14" fill="#e26f46" fill-rule="evenodd" fill-opacity="1" stroke="#000000" stroke-opacity="1" stroke-width="3.2"/>
<circle clip-path="url(#clip592)" cx="469.119" cy="1033.39" r="14" fill="#e26f46" fill-rule="evenodd" fill-opacity="1" stroke="#000000" stroke-opacity="1" stroke-width="3.2"/>
<circle clip-path="url(#clip592)" cx="821.355" cy="1431.62" r="14" fill="#e26f46" fill-rule="evenodd" fill-opacity="1" stroke="#000000" stroke-opacity="1" stroke-width="3.2"/>
<circle clip-path="url(#clip592)" cx="268.679" cy="956.481" r="14" fill="#e26f46" fill-rule="evenodd" fill-opacity="1" stroke="#000000" stroke-opacity="1" stroke-width="3.2"/>
<circle clip-path="url(#clip592)" cx="906.391" cy="1118.95" r="14" fill="#e26f46" fill-rule="evenodd" fill-opacity="1" stroke="#000000" stroke-opacity="1" stroke-width="3.2"/>
<circle clip-path="url(#clip592)" cx="1426.46" cy="220.527" r="14" fill="#e26f46" fill-rule="evenodd" fill-opacity="1" stroke="#000000" stroke-opacity="1" stroke-width="3.2"/>
<circle clip-path="url(#clip592)" cx="1569.02" cy="664.33" r="14" fill="#e26f46" fill-rule="evenodd" fill-opacity="1" stroke="#000000" stroke-opacity="1" stroke-width="3.2"/>
<circle clip-path="url(#clip592)" cx="464.415" cy="1030.67" r="14" fill="#e26f46" fill-rule="evenodd" fill-opacity="1" stroke="#000000" stroke-opacity="1" stroke-width="3.2"/>
<circle clip-path="url(#clip592)" cx="580.049" cy="849.525" r="14" fill="#e26f46" fill-rule="evenodd" fill-opacity="1" stroke="#000000" stroke-opacity="1" stroke-width="3.2"/>
<circle clip-path="url(#clip592)" cx="1853.59" cy="672.615" r="14" fill="#e26f46" fill-rule="evenodd" fill-opacity="1" stroke="#000000" stroke-opacity="1" stroke-width="3.2"/>
<circle clip-path="url(#clip592)" cx="1318.36" cy="390.265" r="14" fill="#e26f46" fill-rule="evenodd" fill-opacity="1" stroke="#000000" stroke-opacity="1" stroke-width="3.2"/>
<circle clip-path="url(#clip592)" cx="1615.94" cy="984.02" r="14" fill="#e26f46" fill-rule="evenodd" fill-opacity="1" stroke="#000000" stroke-opacity="1" stroke-width="3.2"/>
<circle clip-path="url(#clip592)" cx="1289.46" cy="682.491" r="14" fill="#e26f46" fill-rule="evenodd" fill-opacity="1" stroke="#000000" stroke-opacity="1" stroke-width="3.2"/>
<circle clip-path="url(#clip592)" cx="659.986" cy="901.078" r="14" fill="#e26f46" fill-rule="evenodd" fill-opacity="1" stroke="#000000" stroke-opacity="1" stroke-width="3.2"/>
<circle clip-path="url(#clip592)" cx="1489.75" cy="319.807" r="14" fill="#e26f46" fill-rule="evenodd" fill-opacity="1" stroke="#000000" stroke-opacity="1" stroke-width="3.2"/>
<circle clip-path="url(#clip592)" cx="571.101" cy="789.34" r="14" fill="#e26f46" fill-rule="evenodd" fill-opacity="1" stroke="#000000" stroke-opacity="1" stroke-width="3.2"/>
<circle clip-path="url(#clip592)" cx="2142.71" cy="995.872" r="14" fill="#e26f46" fill-rule="evenodd" fill-opacity="1" stroke="#000000" stroke-opacity="1" stroke-width="3.2"/>
<circle clip-path="url(#clip592)" cx="1454.49" cy="299.654" r="14" fill="#e26f46" fill-rule="evenodd" fill-opacity="1" stroke="#000000" stroke-opacity="1" stroke-width="3.2"/>
<circle clip-path="url(#clip592)" cx="1988.14" cy="853.527" r="14" fill="#e26f46" fill-rule="evenodd" fill-opacity="1" stroke="#000000" stroke-opacity="1" stroke-width="3.2"/>
<circle clip-path="url(#clip592)" cx="1103.76" cy="231.572" r="14" fill="#e26f46" fill-rule="evenodd" fill-opacity="1" stroke="#000000" stroke-opacity="1" stroke-width="3.2"/>
<circle clip-path="url(#clip592)" cx="320.841" cy="969.535" r="14" fill="#e26f46" fill-rule="evenodd" fill-opacity="1" stroke="#000000" stroke-opacity="1" stroke-width="3.2"/>
<circle clip-path="url(#clip592)" cx="1993.33" cy="919.952" r="14" fill="#e26f46" fill-rule="evenodd" fill-opacity="1" stroke="#000000" stroke-opacity="1" stroke-width="3.2"/>
<circle clip-path="url(#clip592)" cx="346.214" cy="1015.47" r="14" fill="#e26f46" fill-rule="evenodd" fill-opacity="1" stroke="#000000" stroke-opacity="1" stroke-width="3.2"/>
<circle clip-path="url(#clip592)" cx="513.006" cy="972.291" r="14" fill="#e26f46" fill-rule="evenodd" fill-opacity="1" stroke="#000000" stroke-opacity="1" stroke-width="3.2"/>
<circle clip-path="url(#clip592)" cx="291.208" cy="975.56" r="14" fill="#e26f46" fill-rule="evenodd" fill-opacity="1" stroke="#000000" stroke-opacity="1" stroke-width="3.2"/>
<circle clip-path="url(#clip592)" cx="737.032" cy="938.467" r="14" fill="#e26f46" fill-rule="evenodd" fill-opacity="1" stroke="#000000" stroke-opacity="1" stroke-width="3.2"/>
<circle clip-path="url(#clip592)" cx="2199.28" cy="1000.31" r="14" fill="#e26f46" fill-rule="evenodd" fill-opacity="1" stroke="#000000" stroke-opacity="1" stroke-width="3.2"/>
<circle clip-path="url(#clip592)" cx="1295.05" cy="602.775" r="14" fill="#e26f46" fill-rule="evenodd" fill-opacity="1" stroke="#000000" stroke-opacity="1" stroke-width="3.2"/>
<circle clip-path="url(#clip592)" cx="1156.25" cy="168.458" r="14" fill="#e26f46" fill-rule="evenodd" fill-opacity="1" stroke="#000000" stroke-opacity="1" stroke-width="3.2"/>
<circle clip-path="url(#clip592)" cx="405.491" cy="970.646" r="14" fill="#e26f46" fill-rule="evenodd" fill-opacity="1" stroke="#000000" stroke-opacity="1" stroke-width="3.2"/>
<circle clip-path="url(#clip592)" cx="1870.27" cy="788.257" r="14" fill="#e26f46" fill-rule="evenodd" fill-opacity="1" stroke="#000000" stroke-opacity="1" stroke-width="3.2"/>
<circle clip-path="url(#clip592)" cx="1720.14" cy="1447.87" r="14" fill="#e26f46" fill-rule="evenodd" fill-opacity="1" stroke="#000000" stroke-opacity="1" stroke-width="3.2"/>
<circle clip-path="url(#clip592)" cx="268.198" cy="899.004" r="14" fill="#e26f46" fill-rule="evenodd" fill-opacity="1" stroke="#000000" stroke-opacity="1" stroke-width="3.2"/>
<circle clip-path="url(#clip592)" cx="917.467" cy="1088.64" r="14" fill="#e26f46" fill-rule="evenodd" fill-opacity="1" stroke="#000000" stroke-opacity="1" stroke-width="3.2"/>
<circle clip-path="url(#clip592)" cx="2001.75" cy="1073.99" r="14" fill="#e26f46" fill-rule="evenodd" fill-opacity="1" stroke="#000000" stroke-opacity="1" stroke-width="3.2"/>
<circle clip-path="url(#clip592)" cx="2004.76" cy="1034.36" r="14" fill="#e26f46" fill-rule="evenodd" fill-opacity="1" stroke="#000000" stroke-opacity="1" stroke-width="3.2"/>
<circle clip-path="url(#clip592)" cx="391.209" cy="992.283" r="14" fill="#e26f46" fill-rule="evenodd" fill-opacity="1" stroke="#000000" stroke-opacity="1" stroke-width="3.2"/>
<circle clip-path="url(#clip592)" cx="2186.84" cy="950.271" r="14" fill="#e26f46" fill-rule="evenodd" fill-opacity="1" stroke="#000000" stroke-opacity="1" stroke-width="3.2"/>
<circle clip-path="url(#clip592)" cx="2161.85" cy="879.473" r="14" fill="#e26f46" fill-rule="evenodd" fill-opacity="1" stroke="#000000" stroke-opacity="1" stroke-width="3.2"/>
<circle clip-path="url(#clip592)" cx="288.142" cy="1012.54" r="14" fill="#e26f46" fill-rule="evenodd" fill-opacity="1" stroke="#000000" stroke-opacity="1" stroke-width="3.2"/>
<circle clip-path="url(#clip592)" cx="2234.83" cy="1017.04" r="14" fill="#e26f46" fill-rule="evenodd" fill-opacity="1" stroke="#000000" stroke-opacity="1" stroke-width="3.2"/>
<circle clip-path="url(#clip592)" cx="1225.89" cy="373.563" r="14" fill="#e26f46" fill-rule="evenodd" fill-opacity="1" stroke="#000000" stroke-opacity="1" stroke-width="3.2"/>
<circle clip-path="url(#clip592)" cx="486.581" cy="959.501" r="14" fill="#e26f46" fill-rule="evenodd" fill-opacity="1" stroke="#000000" stroke-opacity="1" stroke-width="3.2"/>
<circle clip-path="url(#clip592)" cx="1522.08" cy="472.67" r="14" fill="#e26f46" fill-rule="evenodd" fill-opacity="1" stroke="#000000" stroke-opacity="1" stroke-width="3.2"/>
<circle clip-path="url(#clip592)" cx="1302.74" cy="506.539" r="14" fill="#e26f46" fill-rule="evenodd" fill-opacity="1" stroke="#000000" stroke-opacity="1" stroke-width="3.2"/>
<circle clip-path="url(#clip592)" cx="1345.58" cy="283.564" r="14" fill="#e26f46" fill-rule="evenodd" fill-opacity="1" stroke="#000000" stroke-opacity="1" stroke-width="3.2"/>
<circle clip-path="url(#clip592)" cx="1549.18" cy="579.202" r="14" fill="#e26f46" fill-rule="evenodd" fill-opacity="1" stroke="#000000" stroke-opacity="1" stroke-width="3.2"/>
<circle clip-path="url(#clip592)" cx="1118.57" cy="203.581" r="14" fill="#e26f46" fill-rule="evenodd" fill-opacity="1" stroke="#000000" stroke-opacity="1" stroke-width="3.2"/>
<circle clip-path="url(#clip592)" cx="1884.83" cy="904.167" r="14" fill="#e26f46" fill-rule="evenodd" fill-opacity="1" stroke="#000000" stroke-opacity="1" stroke-width="3.2"/>
<circle clip-path="url(#clip592)" cx="935.544" cy="947.628" r="14" fill="#e26f46" fill-rule="evenodd" fill-opacity="1" stroke="#000000" stroke-opacity="1" stroke-width="3.2"/>
<circle clip-path="url(#clip592)" cx="2129.25" cy="897.043" r="14" fill="#e26f46" fill-rule="evenodd" fill-opacity="1" stroke="#000000" stroke-opacity="1" stroke-width="3.2"/>
<circle clip-path="url(#clip592)" cx="1501.37" cy="399.466" r="14" fill="#e26f46" fill-rule="evenodd" fill-opacity="1" stroke="#000000" stroke-opacity="1" stroke-width="3.2"/>
<circle clip-path="url(#clip592)" cx="822.829" cy="1417.32" r="14" fill="#e26f46" fill-rule="evenodd" fill-opacity="1" stroke="#000000" stroke-opacity="1" stroke-width="3.2"/>
<circle clip-path="url(#clip592)" cx="1229.22" cy="416.927" r="14" fill="#e26f46" fill-rule="evenodd" fill-opacity="1" stroke="#000000" stroke-opacity="1" stroke-width="3.2"/>
<circle clip-path="url(#clip592)" cx="912.128" cy="1088.9" r="14" fill="#e26f46" fill-rule="evenodd" fill-opacity="1" stroke="#000000" stroke-opacity="1" stroke-width="3.2"/>
<circle clip-path="url(#clip592)" cx="1273.28" cy="941.134" r="14" fill="#e26f46" fill-rule="evenodd" fill-opacity="1" stroke="#000000" stroke-opacity="1" stroke-width="3.2"/>
<circle clip-path="url(#clip592)" cx="669.734" cy="844.976" r="14" fill="#e26f46" fill-rule="evenodd" fill-opacity="1" stroke="#000000" stroke-opacity="1" stroke-width="3.2"/>
<circle clip-path="url(#clip592)" cx="1375.73" cy="176.433" r="14" fill="#e26f46" fill-rule="evenodd" fill-opacity="1" stroke="#000000" stroke-opacity="1" stroke-width="3.2"/>
<circle clip-path="url(#clip592)" cx="1073.44" cy="283.272" r="14" fill="#e26f46" fill-rule="evenodd" fill-opacity="1" stroke="#000000" stroke-opacity="1" stroke-width="3.2"/>
<circle clip-path="url(#clip592)" cx="662.37" cy="899.32" r="14" fill="#e26f46" fill-rule="evenodd" fill-opacity="1" stroke="#000000" stroke-opacity="1" stroke-width="3.2"/>
<circle clip-path="url(#clip592)" cx="2285.46" cy="963.546" r="14" fill="#e26f46" fill-rule="evenodd" fill-opacity="1" stroke="#000000" stroke-opacity="1" stroke-width="3.2"/>
<circle clip-path="url(#clip592)" cx="257.804" cy="962.235" r="14" fill="#e26f46" fill-rule="evenodd" fill-opacity="1" stroke="#000000" stroke-opacity="1" stroke-width="3.2"/>
<circle clip-path="url(#clip592)" cx="1691.27" cy="1364.98" r="14" fill="#e26f46" fill-rule="evenodd" fill-opacity="1" stroke="#000000" stroke-opacity="1" stroke-width="3.2"/>
<circle clip-path="url(#clip592)" cx="451.171" cy="900.098" r="14" fill="#e26f46" fill-rule="evenodd" fill-opacity="1" stroke="#000000" stroke-opacity="1" stroke-width="3.2"/>
<circle clip-path="url(#clip592)" cx="844.46" cy="1372.77" r="14" fill="#e26f46" fill-rule="evenodd" fill-opacity="1" stroke="#000000" stroke-opacity="1" stroke-width="3.2"/>
<circle clip-path="url(#clip592)" cx="1053.3" cy="362.277" r="14" fill="#e26f46" fill-rule="evenodd" fill-opacity="1" stroke="#000000" stroke-opacity="1" stroke-width="3.2"/>
<circle clip-path="url(#clip592)" cx="2051.3" cy="922.396" r="14" fill="#e26f46" fill-rule="evenodd" fill-opacity="1" stroke="#000000" stroke-opacity="1" stroke-width="3.2"/>
<circle clip-path="url(#clip592)" cx="1122.39" cy="201.159" r="14" fill="#e26f46" fill-rule="evenodd" fill-opacity="1" stroke="#000000" stroke-opacity="1" stroke-width="3.2"/>
<circle clip-path="url(#clip592)" cx="391.654" cy="948.759" r="14" fill="#e26f46" fill-rule="evenodd" fill-opacity="1" stroke="#000000" stroke-opacity="1" stroke-width="3.2"/>
<circle clip-path="url(#clip592)" cx="768.563" cy="1191.42" r="14" fill="#e26f46" fill-rule="evenodd" fill-opacity="1" stroke="#000000" stroke-opacity="1" stroke-width="3.2"/>
<circle clip-path="url(#clip592)" cx="646.925" cy="1015.13" r="14" fill="#e26f46" fill-rule="evenodd" fill-opacity="1" stroke="#000000" stroke-opacity="1" stroke-width="3.2"/>
<circle clip-path="url(#clip592)" cx="2152.56" cy="997.936" r="14" fill="#e26f46" fill-rule="evenodd" fill-opacity="1" stroke="#000000" stroke-opacity="1" stroke-width="3.2"/>
<circle clip-path="url(#clip592)" cx="2042.61" cy="883.133" r="14" fill="#e26f46" fill-rule="evenodd" fill-opacity="1" stroke="#000000" stroke-opacity="1" stroke-width="3.2"/>
<circle clip-path="url(#clip592)" cx="1733.87" cy="1383.34" r="14" fill="#e26f46" fill-rule="evenodd" fill-opacity="1" stroke="#000000" stroke-opacity="1" stroke-width="3.2"/>
<circle clip-path="url(#clip592)" cx="2001.15" cy="991.44" r="14" fill="#e26f46" fill-rule="evenodd" fill-opacity="1" stroke="#000000" stroke-opacity="1" stroke-width="3.2"/>
<circle clip-path="url(#clip592)" cx="1800.96" cy="967.87" r="14" fill="#e26f46" fill-rule="evenodd" fill-opacity="1" stroke="#000000" stroke-opacity="1" stroke-width="3.2"/>
<circle clip-path="url(#clip592)" cx="756.681" cy="1109.34" r="14" fill="#e26f46" fill-rule="evenodd" fill-opacity="1" stroke="#000000" stroke-opacity="1" stroke-width="3.2"/>
<circle clip-path="url(#clip592)" cx="2034.8" cy="902.472" r="14" fill="#e26f46" fill-rule="evenodd" fill-opacity="1" stroke="#000000" stroke-opacity="1" stroke-width="3.2"/>
<circle clip-path="url(#clip592)" cx="1965.53" cy="854.716" r="14" fill="#e26f46" fill-rule="evenodd" fill-opacity="1" stroke="#000000" stroke-opacity="1" stroke-width="3.2"/>
<circle clip-path="url(#clip592)" cx="2147.37" cy="1035.14" r="14" fill="#e26f46" fill-rule="evenodd" fill-opacity="1" stroke="#000000" stroke-opacity="1" stroke-width="3.2"/>
<circle clip-path="url(#clip592)" cx="1876.92" cy="840.481" r="14" fill="#e26f46" fill-rule="evenodd" fill-opacity="1" stroke="#000000" stroke-opacity="1" stroke-width="3.2"/>
<circle clip-path="url(#clip592)" cx="2169.54" cy="969.991" r="14" fill="#e26f46" fill-rule="evenodd" fill-opacity="1" stroke="#000000" stroke-opacity="1" stroke-width="3.2"/>
<circle clip-path="url(#clip592)" cx="1586.22" cy="846.345" r="14" fill="#e26f46" fill-rule="evenodd" fill-opacity="1" stroke="#000000" stroke-opacity="1" stroke-width="3.2"/>
<circle clip-path="url(#clip592)" cx="615.435" cy="1158.59" r="14" fill="#e26f46" fill-rule="evenodd" fill-opacity="1" stroke="#000000" stroke-opacity="1" stroke-width="3.2"/>
<circle clip-path="url(#clip592)" cx="254.317" cy="954.016" r="14" fill="#e26f46" fill-rule="evenodd" fill-opacity="1" stroke="#000000" stroke-opacity="1" stroke-width="3.2"/>
<circle clip-path="url(#clip592)" cx="895.752" cy="1183.82" r="14" fill="#e26f46" fill-rule="evenodd" fill-opacity="1" stroke="#000000" stroke-opacity="1" stroke-width="3.2"/>
<circle clip-path="url(#clip592)" cx="610.416" cy="1128.03" r="14" fill="#e26f46" fill-rule="evenodd" fill-opacity="1" stroke="#000000" stroke-opacity="1" stroke-width="3.2"/>
<circle clip-path="url(#clip592)" cx="1867.24" cy="757.216" r="14" fill="#e26f46" fill-rule="evenodd" fill-opacity="1" stroke="#000000" stroke-opacity="1" stroke-width="3.2"/>
<circle clip-path="url(#clip592)" cx="1925.96" cy="1184.98" r="14" fill="#e26f46" fill-rule="evenodd" fill-opacity="1" stroke="#000000" stroke-opacity="1" stroke-width="3.2"/>
<circle clip-path="url(#clip592)" cx="2263.56" cy="974.877" r="14" fill="#e26f46" fill-rule="evenodd" fill-opacity="1" stroke="#000000" stroke-opacity="1" stroke-width="3.2"/>
<circle clip-path="url(#clip592)" cx="1988.47" cy="889.213" r="14" fill="#e26f46" fill-rule="evenodd" fill-opacity="1" stroke="#000000" stroke-opacity="1" stroke-width="3.2"/>
<circle clip-path="url(#clip592)" cx="322.619" cy="998.868" r="14" fill="#e26f46" fill-rule="evenodd" fill-opacity="1" stroke="#000000" stroke-opacity="1" stroke-width="3.2"/>
<circle clip-path="url(#clip592)" cx="1006.73" cy="545.95" r="14" fill="#e26f46" fill-rule="evenodd" fill-opacity="1" stroke="#000000" stroke-opacity="1" stroke-width="3.2"/>
<circle clip-path="url(#clip592)" cx="511.005" cy="966.384" r="14" fill="#e26f46" fill-rule="evenodd" fill-opacity="1" stroke="#000000" stroke-opacity="1" stroke-width="3.2"/>
<circle clip-path="url(#clip592)" cx="996.551" cy="611.752" r="14" fill="#e26f46" fill-rule="evenodd" fill-opacity="1" stroke="#000000" stroke-opacity="1" stroke-width="3.2"/>
<circle clip-path="url(#clip592)" cx="637.239" cy="1078.61" r="14" fill="#e26f46" fill-rule="evenodd" fill-opacity="1" stroke="#000000" stroke-opacity="1" stroke-width="3.2"/>
<circle clip-path="url(#clip592)" cx="301.284" cy="953.981" r="14" fill="#e26f46" fill-rule="evenodd" fill-opacity="1" stroke="#000000" stroke-opacity="1" stroke-width="3.2"/>
<circle clip-path="url(#clip592)" cx="1789.29" cy="1093.63" r="14" fill="#e26f46" fill-rule="evenodd" fill-opacity="1" stroke="#000000" stroke-opacity="1" stroke-width="3.2"/>
<circle clip-path="url(#clip592)" cx="1827.46" cy="784.825" r="14" fill="#e26f46" fill-rule="evenodd" fill-opacity="1" stroke="#000000" stroke-opacity="1" stroke-width="3.2"/>
<circle clip-path="url(#clip592)" cx="331.453" cy="966.49" r="14" fill="#e26f46" fill-rule="evenodd" fill-opacity="1" stroke="#000000" stroke-opacity="1" stroke-width="3.2"/>
<circle clip-path="url(#clip592)" cx="443.224" cy="913.279" r="14" fill="#e26f46" fill-rule="evenodd" fill-opacity="1" stroke="#000000" stroke-opacity="1" stroke-width="3.2"/>
<circle clip-path="url(#clip592)" cx="1828.65" cy="765.714" r="14" fill="#e26f46" fill-rule="evenodd" fill-opacity="1" stroke="#000000" stroke-opacity="1" stroke-width="3.2"/>
<circle clip-path="url(#clip592)" cx="841.618" cy="1383.2" r="14" fill="#e26f46" fill-rule="evenodd" fill-opacity="1" stroke="#000000" stroke-opacity="1" stroke-width="3.2"/>
<circle clip-path="url(#clip592)" cx="369.651" cy="1038.47" r="14" fill="#e26f46" fill-rule="evenodd" fill-opacity="1" stroke="#000000" stroke-opacity="1" stroke-width="3.2"/>
<circle clip-path="url(#clip592)" cx="375.163" cy="926.175" r="14" fill="#e26f46" fill-rule="evenodd" fill-opacity="1" stroke="#000000" stroke-opacity="1" stroke-width="3.2"/>
<circle clip-path="url(#clip592)" cx="2050.2" cy="890.438" r="14" fill="#e26f46" fill-rule="evenodd" fill-opacity="1" stroke="#000000" stroke-opacity="1" stroke-width="3.2"/>
<circle clip-path="url(#clip592)" cx="1432.79" cy="223.602" r="14" fill="#e26f46" fill-rule="evenodd" fill-opacity="1" stroke="#000000" stroke-opacity="1" stroke-width="3.2"/>
<circle clip-path="url(#clip592)" cx="1687.22" cy="1359.13" r="14" fill="#e26f46" fill-rule="evenodd" fill-opacity="1" stroke="#000000" stroke-opacity="1" stroke-width="3.2"/>
<circle clip-path="url(#clip592)" cx="550.693" cy="959.993" r="14" fill="#e26f46" fill-rule="evenodd" fill-opacity="1" stroke="#000000" stroke-opacity="1" stroke-width="3.2"/>
<circle clip-path="url(#clip592)" cx="516.697" cy="988.894" r="14" fill="#e26f46" fill-rule="evenodd" fill-opacity="1" stroke="#000000" stroke-opacity="1" stroke-width="3.2"/>
<circle clip-path="url(#clip592)" cx="1361.49" cy="257.546" r="14" fill="#e26f46" fill-rule="evenodd" fill-opacity="1" stroke="#000000" stroke-opacity="1" stroke-width="3.2"/>
<circle clip-path="url(#clip592)" cx="1292.32" cy="620.918" r="14" fill="#e26f46" fill-rule="evenodd" fill-opacity="1" stroke="#000000" stroke-opacity="1" stroke-width="3.2"/>
<circle clip-path="url(#clip592)" cx="1755.5" cy="1338.67" r="14" fill="#e26f46" fill-rule="evenodd" fill-opacity="1" stroke="#000000" stroke-opacity="1" stroke-width="3.2"/>
<circle clip-path="url(#clip592)" cx="1644.47" cy="1219.49" r="14" fill="#e26f46" fill-rule="evenodd" fill-opacity="1" stroke="#000000" stroke-opacity="1" stroke-width="3.2"/>
<circle clip-path="url(#clip592)" cx="1843.83" cy="711.51" r="14" fill="#e26f46" fill-rule="evenodd" fill-opacity="1" stroke="#000000" stroke-opacity="1" stroke-width="3.2"/>
<circle clip-path="url(#clip592)" cx="998.83" cy="615.135" r="14" fill="#e26f46" fill-rule="evenodd" fill-opacity="1" stroke="#000000" stroke-opacity="1" stroke-width="3.2"/>
<path clip-path="url(#clip592)" d="
M253.843 951.759 L264.083 966.186 L274.323 977.213 L284.563 985.2 L294.803 990.485 L305.043 993.372 L315.283 994.142 L325.523 993.066 L335.763 990.422 L346.003 986.497 
  L356.244 981.583 L366.484 975.966 L376.724 969.928 L386.964 963.734 L397.204 957.633 L407.444 951.855 L417.684 946.609 L427.924 942.083 L438.164 938.438 L448.404 935.816 
  L458.645 934.33 L468.885 934.073 L479.125 935.11 L489.365 937.486 L499.605 941.22 L509.845 946.31 L520.085 952.735 L530.325 960.451 L540.565 969.399 L550.805 979.5 
  L561.046 990.662 L571.286 1002.78 L581.526 1015.72 L591.766 1029.37 L602.006 1043.59 L612.246 1058.21 L622.486 1073.1 L632.726 1088.08 L642.966 1103 L653.206 1117.69 
  L663.447 1131.99 L673.687 1145.73 L683.927 1158.76 L694.167 1170.93 L704.407 1182.07 L714.647 1192.06 L724.887 1200.75 L735.127 1208.03 L745.367 1213.78 L755.607 1217.89 
  L765.848 1220.28 L776.088 1220.87 L786.328 1219.6 L796.568 1216.41 L806.808 1211.26 L817.048 1204.14 L827.288 1195.03 L837.528 1183.94 L847.768 1170.89 L858.008 1155.91 
  L868.249 1139.04 L878.489 1120.34 L888.729 1099.88 L898.969 1077.73 L909.209 1053.99 L919.449 1028.76 L929.689 1002.14 L939.929 974.244 L950.169 945.205 L960.409 915.147 
  L970.65 884.204 L980.89 852.516 L991.13 820.224 L1001.37 787.474 L1011.61 754.413 L1021.85 721.188 L1032.09 687.947 L1042.33 654.837 L1052.57 622.006 L1062.81 589.595 
  L1073.05 557.747 L1083.29 526.598 L1093.53 496.281 L1103.77 466.925 L1114.01 438.653 L1124.25 411.582 L1134.49 385.823 L1144.73 361.479 L1154.97 338.649 L1165.21 317.421 
  L1175.45 297.878 L1185.69 280.094 L1195.93 264.134 L1206.17 250.056 L1216.41 237.91 L1226.65 227.735 L1236.89 219.564 L1247.13 213.42 L1257.37 209.317 L1267.61 207.262 
  L1277.85 207.252 L1288.09 209.276 L1298.33 213.314 L1308.57 219.339 L1318.81 227.314 L1329.05 237.197 L1339.29 248.935 L1349.53 262.469 L1359.77 277.734 L1370.01 294.655 
  L1380.25 313.152 L1390.49 333.139 L1400.73 354.523 L1410.97 377.205 L1421.21 401.08 L1431.45 426.039 L1441.69 451.969 L1451.93 478.751 L1462.17 506.263 L1472.41 534.379 
  L1482.65 562.972 L1492.89 591.911 L1503.13 621.064 L1513.37 650.298 L1523.61 679.479 L1533.86 708.476 L1544.1 737.156 L1554.34 765.388 L1564.58 793.044 L1574.82 820.002 
  L1585.06 846.139 L1595.3 871.34 L1605.54 895.495 L1615.78 918.501 L1626.02 940.26 L1636.26 960.684 L1646.5 979.692 L1656.74 997.214 L1666.98 1013.19 L1677.22 1027.56 
  L1687.46 1040.3 L1697.7 1051.37 L1707.94 1060.75 L1718.18 1068.44 L1728.42 1074.45 L1738.66 1078.8 L1748.9 1081.51 L1759.14 1082.63 L1769.38 1082.22 L1779.62 1080.34 
  L1789.86 1077.07 L1800.1 1072.5 L1810.34 1066.73 L1820.58 1059.86 L1830.82 1052.01 L1841.06 1043.31 L1851.3 1033.88 L1861.54 1023.87 L1871.78 1013.4 L1882.02 1002.63 
  L1892.26 991.696 L1902.5 980.747 L1912.74 969.925 L1922.98 959.372 L1933.22 949.228 L1943.46 939.625 L1953.7 930.69 L1963.94 922.542 L1974.18 915.29 L1984.42 909.033 
  L1994.66 903.857 L2004.9 899.836 L2015.14 897.027 L2025.38 895.473 L2035.62 895.201 L2045.86 896.215 L2056.1 898.506 L2066.34 902.04 L2076.58 906.765 L2086.82 912.607 
  L2097.06 919.47 L2107.3 927.237 L2117.54 935.769 L2127.78 944.906 L2138.02 954.47 L2148.26 964.261 L2158.5 974.066 L2168.74 983.652 L2178.98 992.78 L2189.22 1001.2 
  L2199.46 1008.65 L2209.7 1014.87 L2219.94 1019.59 L2230.18 1022.54 L2240.42 1023.43 L2250.66 1021.96 L2260.9 1017.81 L2271.14 1010.65 L2281.38 1000.16 L2291.62 986.017 
  L2291.62 953.625 L2281.38 972.391 L2271.14 986.837 L2260.9 997.317 L2250.66 1004.19 L2240.42 1007.81 L2230.18 1008.55 L2219.94 1006.77 L2209.7 1002.85 L2199.46 997.141 
  L2189.22 990.004 L2178.98 981.771 L2168.74 972.756 L2158.5 963.246 L2148.26 953.506 L2138.02 943.779 L2127.78 934.284 L2117.54 925.218 L2107.3 916.76 L2097.06 909.064 
  L2086.82 902.266 L2076.58 896.48 L2066.34 891.8 L2056.1 888.298 L2045.86 886.029 L2035.62 885.025 L2025.38 885.302 L2015.14 886.854 L2004.9 889.658 L1994.66 893.676 
  L1984.42 898.85 L1974.18 905.11 L1963.94 912.37 L1953.7 920.532 L1943.46 929.487 L1933.22 939.116 L1922.98 949.291 L1912.74 959.877 L1902.5 970.735 L1892.26 981.721 
  L1882.02 992.69 L1871.78 1003.49 L1861.54 1013.99 L1851.3 1024.03 L1841.06 1033.47 L1830.82 1042.18 L1820.58 1050.04 L1810.34 1056.91 L1800.1 1062.67 L1789.86 1067.24 
  L1779.62 1070.5 L1769.38 1072.36 L1759.14 1072.76 L1748.9 1071.63 L1738.66 1068.91 L1728.42 1064.56 L1718.18 1058.56 L1707.94 1050.87 L1697.7 1041.5 L1687.46 1030.45 
  L1677.22 1017.75 L1666.98 1003.4 L1656.74 987.47 L1646.5 969.992 L1636.26 951.032 L1626.02 930.659 L1615.78 908.952 L1605.54 885.999 L1595.3 861.895 L1585.06 836.742 
  L1574.82 810.65 L1564.58 783.732 L1554.34 756.108 L1544.1 727.903 L1533.86 699.242 L1523.61 670.256 L1513.37 641.076 L1503.13 611.837 L1492.89 582.671 L1482.65 553.713 
  L1472.41 525.094 L1462.17 496.946 L1451.93 469.399 L1441.69 442.578 L1431.45 416.607 L1421.21 391.605 L1410.97 367.686 L1400.73 344.962 L1390.49 323.536 L1380.25 303.509 
  L1370.01 284.973 L1359.77 268.015 L1349.53 252.716 L1339.29 239.148 L1329.05 227.379 L1318.81 217.466 L1308.57 209.461 L1298.33 203.407 L1288.09 199.339 L1277.85 197.286 
  L1267.61 197.265 L1257.37 199.288 L1247.13 203.357 L1236.89 209.466 L1226.65 217.602 L1216.41 227.739 L1206.17 239.849 L1195.93 253.89 L1185.69 269.814 L1175.45 287.565 
  L1165.21 307.078 L1154.97 328.28 L1144.73 351.09 L1134.49 375.419 L1124.25 401.172 L1114.01 428.245 L1103.77 456.528 L1093.53 485.905 L1083.29 516.252 L1073.05 547.442 
  L1062.81 579.34 L1052.57 611.81 L1042.33 644.71 L1032.09 677.894 L1021.85 711.216 L1011.61 744.526 L1001.37 777.675 L991.13 810.513 L980.89 842.891 L970.65 874.662 
  L960.409 905.68 L950.169 935.805 L939.929 964.902 L929.689 992.839 L919.449 1019.49 L909.209 1044.75 L898.969 1068.49 L888.729 1090.63 L878.489 1111.07 L868.249 1129.73 
  L858.008 1146.56 L847.768 1161.48 L837.528 1174.47 L827.288 1185.49 L817.048 1194.53 L806.808 1201.57 L796.568 1206.65 L786.328 1209.77 L776.088 1210.97 L765.848 1210.32 
  L755.607 1207.87 L745.367 1203.7 L735.127 1197.91 L724.887 1190.59 L714.647 1181.86 L704.407 1171.85 L694.167 1160.68 L683.927 1148.5 L673.687 1135.46 L663.447 1121.71 
  L653.206 1107.41 L642.966 1092.72 L632.726 1077.82 L622.486 1062.85 L612.246 1047.99 L602.006 1033.4 L591.766 1019.23 L581.526 1005.62 L571.286 992.718 L561.046 980.653 
  L550.805 969.542 L540.565 959.49 L530.325 950.587 L520.085 942.906 L509.845 936.503 L499.605 931.418 L489.365 927.668 L479.125 925.253 L468.885 924.15 L458.645 924.317 
  L448.404 925.689 L438.164 928.181 L427.924 931.683 L417.684 936.067 L407.444 941.179 L397.204 946.845 L386.964 952.87 L376.724 959.035 L366.484 965.1 L356.244 970.801 
  L346.003 975.854 L335.763 979.946 L325.523 982.74 L315.283 983.864 L305.043 982.915 L294.803 979.463 L284.563 973.07 L274.323 963.313 L264.083 949.793 L253.843 932.131 
   Z
  " fill="#3da44d" fill-rule="evenodd" fill-opacity="0.5"/>
<polyline clip-path="url(#clip592)" style="stroke:#3da44d; stroke-linecap:butt; stroke-linejoin:round; stroke-width:12; stroke-opacity:1; fill:none" points="
  253.843,941.945 264.083,957.989 274.323,970.263 284.563,979.135 294.803,984.974 305.043,988.144 315.283,989.003 325.523,987.903 335.763,985.184 346.003,981.175 
  356.244,976.192 366.484,970.533 376.724,964.482 386.964,958.302 397.204,952.239 407.444,946.517 417.684,941.338 427.924,936.883 438.164,933.31 448.404,930.753 
  458.645,929.324 468.885,929.111 479.125,930.182 489.365,932.577 499.605,936.319 509.845,941.407 520.085,947.82 530.325,955.519 540.565,964.445 550.805,974.521 
  561.046,985.657 571.286,997.747 581.526,1010.67 591.766,1024.3 602.006,1038.49 612.246,1053.1 622.486,1067.97 632.726,1082.95 642.966,1097.86 653.206,1112.55 
  663.447,1126.85 673.687,1140.59 683.927,1153.63 694.167,1165.8 704.407,1176.96 714.647,1186.96 724.887,1195.67 735.127,1202.97 745.367,1208.74 755.607,1212.88 
  765.848,1215.3 776.088,1215.92 786.328,1214.68 796.568,1211.53 806.808,1206.42 817.048,1199.33 827.288,1190.26 837.528,1179.21 847.768,1166.19 858.008,1151.23 
  868.249,1134.39 878.489,1115.7 888.729,1095.25 898.969,1073.11 909.209,1049.37 919.449,1024.12 929.689,997.487 939.929,969.573 950.169,940.505 960.409,910.413 
  970.65,879.433 980.89,847.704 991.13,815.369 1001.37,782.575 1011.61,749.47 1021.85,716.202 1032.09,682.92 1042.33,649.774 1052.57,616.908 1062.81,584.468 
  1073.05,552.594 1083.29,521.425 1093.53,491.093 1103.77,461.727 1114.01,433.449 1124.25,406.377 1134.49,380.621 1144.73,356.285 1154.97,333.464 1165.21,312.25 
  1175.45,292.722 1185.69,274.954 1195.93,259.012 1206.17,244.953 1216.41,232.825 1226.65,222.668 1236.89,214.515 1247.13,208.389 1257.37,204.303 1267.61,202.264 
  1277.85,202.269 1288.09,204.308 1298.33,208.361 1308.57,214.4 1318.81,222.39 1329.05,232.288 1339.29,244.042 1349.53,257.592 1359.77,272.874 1370.01,289.814 
  1380.25,308.33 1390.49,328.338 1400.73,349.742 1410.97,372.445 1421.21,396.342 1431.45,421.323 1441.69,447.274 1451.93,474.075 1462.17,501.605 1472.41,529.737 
  1482.65,558.342 1492.89,587.291 1503.13,616.45 1513.37,645.687 1523.61,674.867 1533.86,703.859 1544.1,732.529 1554.34,760.748 1564.58,788.388 1574.82,815.326 
  1585.06,841.441 1595.3,866.617 1605.54,890.747 1615.78,913.726 1626.02,935.459 1636.26,955.858 1646.5,974.842 1656.74,992.342 1666.98,1008.3 1677.22,1022.65 
  1687.46,1035.38 1697.7,1046.43 1707.94,1055.81 1718.18,1063.5 1728.42,1069.51 1738.66,1073.86 1748.9,1076.57 1759.14,1077.7 1769.38,1077.29 1779.62,1075.42 
  1789.86,1072.15 1800.1,1067.59 1810.34,1061.82 1820.58,1054.95 1830.82,1047.1 1841.06,1038.39 1851.3,1028.95 1861.54,1018.93 1871.78,1008.45 1882.02,997.66 
  1892.26,986.709 1902.5,975.741 1912.74,964.901 1922.98,954.332 1933.22,944.172 1943.46,934.556 1953.7,925.611 1963.94,917.456 1974.18,910.2 1984.42,903.942 
  1994.66,898.766 2004.9,894.747 2015.14,891.94 2025.38,890.388 2035.62,890.113 2045.86,891.122 2056.1,893.402 2066.34,896.92 2076.58,901.623 2086.82,907.437 
  2097.06,914.267 2107.3,921.998 2117.54,930.493 2127.78,939.595 2138.02,949.124 2148.26,958.884 2158.5,968.656 2168.74,978.204 2178.98,987.276 2189.22,995.6 
  2199.46,1002.89 2209.7,1008.86 2219.94,1013.18 2230.18,1015.55 2240.42,1015.62 2250.66,1013.08 2260.9,1007.56 2271.14,998.745 2281.38,986.277 2291.62,969.821 
  
  "/>
<path clip-path="url(#clip590)" d="
M1615.45 557.705 L2280.75 557.705 L2280.75 168.905 L1615.45 168.905  Z
  " fill="#ffffff" fill-rule="evenodd" fill-opacity="1"/>
<polyline clip-path="url(#clip590)" style="stroke:#000000; stroke-linecap:butt; stroke-linejoin:round; stroke-width:4; stroke-opacity:1; fill:none" points="
  1615.45,557.705 2280.75,557.705 2280.75,168.905 1615.45,168.905 1615.45,557.705 
  "/>
<polyline clip-path="url(#clip590)" style="stroke:#009af9; stroke-linecap:butt; stroke-linejoin:round; stroke-width:7.5; stroke-opacity:1; fill:none" points="
  1639.45,266.105 1783.45,266.105 
  "/>
<path clip-path="url(#clip590)" d="M1821.34 236.092 L1821.34 249.894 L1837.79 249.894 L1837.79 256.1 L1821.34 256.1 L1821.34 282.489 Q1821.34 288.435 1822.95 290.128 Q1824.6 291.821 1829.59 291.821 L1837.79 291.821 L1837.79 298.505 L1829.59 298.505 Q1820.34 298.505 1816.83 295.076 Q1813.31 291.604 1813.31 282.489 L1813.31 256.1 L1807.45 256.1 L1807.45 249.894 L1813.31 249.894 L1813.31 236.092 L1821.34 236.092 Z" fill="#000000" fill-rule="evenodd" fill-opacity="1" /><path clip-path="url(#clip590)" d="M1876.46 257.359 Q1875.12 256.578 1873.51 256.231 Q1871.95 255.84 1870.04 255.84 Q1863.27 255.84 1859.62 260.267 Q1856.02 264.651 1856.02 272.897 L1856.02 298.505 L1847.99 298.505 L1847.99 249.894 L1856.02 249.894 L1856.02 257.446 Q1858.54 253.019 1862.57 250.892 Q1866.61 248.722 1872.38 248.722 Q1873.21 248.722 1874.2 248.852 Q1875.2 248.939 1876.42 249.156 L1876.46 257.359 Z" fill="#000000" fill-rule="evenodd" fill-opacity="1" /><path clip-path="url(#clip590)" d="M1884.01 279.321 L1884.01 249.894 L1892 249.894 L1892 279.017 Q1892 285.918 1894.69 289.39 Q1897.38 292.819 1902.76 292.819 Q1909.23 292.819 1912.96 288.696 Q1916.74 284.572 1916.74 277.454 L1916.74 249.894 L1924.73 249.894 L1924.73 298.505 L1916.74 298.505 L1916.74 291.039 Q1913.83 295.466 1909.97 297.637 Q1906.15 299.763 1901.07 299.763 Q1892.69 299.763 1888.35 294.555 Q1884.01 289.347 1884.01 279.321 M1904.11 248.722 L1904.11 248.722 Z" fill="#000000" fill-rule="evenodd" fill-opacity="1" /><path clip-path="url(#clip590)" d="M1982.75 272.203 L1982.75 276.109 L1946.04 276.109 Q1946.56 284.355 1950.98 288.696 Q1955.45 292.993 1963.4 292.993 Q1968 292.993 1972.29 291.864 Q1976.63 290.736 1980.89 288.479 L1980.89 296.031 Q1976.59 297.854 1972.08 298.808 Q1967.56 299.763 1962.92 299.763 Q1951.29 299.763 1944.47 292.993 Q1937.7 286.222 1937.7 274.677 Q1937.7 262.741 1944.13 255.753 Q1950.59 248.722 1961.53 248.722 Q1971.34 248.722 1977.03 255.059 Q1982.75 261.352 1982.75 272.203 M1974.77 269.859 Q1974.68 263.305 1971.08 259.399 Q1967.52 255.493 1961.62 255.493 Q1954.93 255.493 1950.9 259.269 Q1946.9 263.045 1946.3 269.902 L1974.77 269.859 Z" fill="#000000" fill-rule="evenodd" fill-opacity="1" /><path clip-path="url(#clip590)" d="M2048.73 230.97 L2048.73 237.611 L2041.09 237.611 Q2036.79 237.611 2035.1 239.347 Q2033.45 241.083 2033.45 245.597 L2033.45 249.894 L2046.6 249.894 L2046.6 256.1 L2033.45 256.1 L2033.45 298.505 L2025.42 298.505 L2025.42 256.1 L2017.78 256.1 L2017.78 249.894 L2025.42 249.894 L2025.42 246.508 Q2025.42 238.392 2029.2 234.703 Q2032.97 230.97 2041.17 230.97 L2048.73 230.97 Z" fill="#000000" fill-rule="evenodd" fill-opacity="1" /><circle clip-path="url(#clip590)" cx="1711.45" cy="363.305" r="43" fill="#e26f46" fill-rule="evenodd" fill-opacity="1" stroke="#000000" stroke-opacity="1" stroke-width="9.6"/>
<path clip-path="url(#clip590)" d="M1842.91 354.472 L1842.91 328.17 L1850.9 328.17 L1850.9 395.705 L1842.91 395.705 L1842.91 388.413 Q1840.39 392.753 1836.53 394.88 Q1832.71 396.963 1827.33 396.963 Q1818.52 396.963 1812.96 389.932 Q1807.45 382.901 1807.45 371.443 Q1807.45 359.984 1812.96 352.953 Q1818.52 345.922 1827.33 345.922 Q1832.71 345.922 1836.53 348.049 Q1840.39 350.132 1842.91 354.472 M1815.7 371.443 Q1815.7 380.253 1819.3 385.288 Q1822.95 390.279 1829.28 390.279 Q1835.62 390.279 1839.27 385.288 Q1842.91 380.253 1842.91 371.443 Q1842.91 362.632 1839.27 357.641 Q1835.62 352.606 1829.28 352.606 Q1822.95 352.606 1819.3 357.641 Q1815.7 362.632 1815.7 371.443 Z" fill="#000000" fill-rule="evenodd" fill-opacity="1" /><path clip-path="url(#clip590)" d="M1889.44 371.269 Q1879.76 371.269 1876.03 373.483 Q1872.3 375.696 1872.3 381.035 Q1872.3 385.288 1875.07 387.805 Q1877.89 390.279 1882.71 390.279 Q1889.35 390.279 1893.35 385.592 Q1897.38 380.861 1897.38 373.049 L1897.38 371.269 L1889.44 371.269 M1905.37 367.97 L1905.37 395.705 L1897.38 395.705 L1897.38 388.326 Q1894.65 392.753 1890.57 394.88 Q1886.49 396.963 1880.59 396.963 Q1873.12 396.963 1868.69 392.797 Q1864.31 388.587 1864.31 381.555 Q1864.31 373.352 1869.78 369.186 Q1875.29 365.019 1886.18 365.019 L1897.38 365.019 L1897.38 364.238 Q1897.38 358.726 1893.74 355.731 Q1890.13 352.693 1883.58 352.693 Q1879.41 352.693 1875.46 353.691 Q1871.51 354.689 1867.87 356.686 L1867.87 349.307 Q1872.25 347.615 1876.38 346.79 Q1880.5 345.922 1884.4 345.922 Q1894.95 345.922 1900.16 351.391 Q1905.37 356.859 1905.37 367.97 Z" fill="#000000" fill-rule="evenodd" fill-opacity="1" /><path clip-path="url(#clip590)" d="M1929.72 333.292 L1929.72 347.094 L1946.17 347.094 L1946.17 353.3 L1929.72 353.3 L1929.72 379.689 Q1929.72 385.635 1931.32 387.328 Q1932.97 389.021 1937.96 389.021 L1946.17 389.021 L1946.17 395.705 L1937.96 395.705 Q1928.72 395.705 1925.2 392.276 Q1921.69 388.804 1921.69 379.689 L1921.69 353.3 L1915.83 353.3 L1915.83 347.094 L1921.69 347.094 L1921.69 333.292 L1929.72 333.292 Z" fill="#000000" fill-rule="evenodd" fill-opacity="1" /><path clip-path="url(#clip590)" d="M1978.76 371.269 Q1969.08 371.269 1965.35 373.483 Q1961.62 375.696 1961.62 381.035 Q1961.62 385.288 1964.4 387.805 Q1967.22 390.279 1972.03 390.279 Q1978.67 390.279 1982.67 385.592 Q1986.7 380.861 1986.7 373.049 L1986.7 371.269 L1978.76 371.269 M1994.69 367.97 L1994.69 395.705 L1986.7 395.705 L1986.7 388.326 Q1983.97 392.753 1979.89 394.88 Q1975.81 396.963 1969.91 396.963 Q1962.44 396.963 1958.02 392.797 Q1953.63 388.587 1953.63 381.555 Q1953.63 373.352 1959.1 369.186 Q1964.61 365.019 1975.51 365.019 L1986.7 365.019 L1986.7 364.238 Q1986.7 358.726 1983.06 355.731 Q1979.46 352.693 1972.9 352.693 Q1968.74 352.693 1964.79 353.691 Q1960.84 354.689 1957.19 356.686 L1957.19 349.307 Q1961.57 347.615 1965.7 346.79 Q1969.82 345.922 1973.73 345.922 Q1984.27 345.922 1989.48 351.391 Q1994.69 356.859 1994.69 367.97 Z" fill="#000000" fill-rule="evenodd" fill-opacity="1" /><polyline clip-path="url(#clip590)" style="stroke:#3da44d; stroke-linecap:butt; stroke-linejoin:round; stroke-width:7.5; stroke-opacity:1; fill:none" points="
  1639.45,460.505 1783.45,460.505 
  "/>
<path clip-path="url(#clip590)" d="M1816.22 435.309 L1816.22 459.658 L1827.24 459.658 Q1833.36 459.658 1836.71 456.49 Q1840.05 453.322 1840.05 447.462 Q1840.05 441.646 1836.71 438.478 Q1833.36 435.309 1827.24 435.309 L1816.22 435.309 M1807.45 428.105 L1827.24 428.105 Q1838.14 428.105 1843.69 433.053 Q1849.29 437.957 1849.29 447.462 Q1849.29 457.054 1843.69 461.959 Q1838.14 466.863 1827.24 466.863 L1816.22 466.863 L1816.22 492.905 L1807.45 492.905 L1807.45 428.105 Z" fill="#000000" fill-rule="evenodd" fill-opacity="1" /><path clip-path="url(#clip590)" d="M1887.31 451.759 Q1885.97 450.978 1884.36 450.631 Q1882.8 450.24 1880.89 450.24 Q1874.12 450.24 1870.47 454.667 Q1866.87 459.051 1866.87 467.297 L1866.87 492.905 L1858.84 492.905 L1858.84 444.294 L1866.87 444.294 L1866.87 451.846 Q1869.39 447.419 1873.42 445.292 Q1877.46 443.122 1883.23 443.122 Q1884.06 443.122 1885.06 443.252 Q1886.05 443.339 1887.27 443.556 L1887.31 451.759 Z" fill="#000000" fill-rule="evenodd" fill-opacity="1" /><path clip-path="url(#clip590)" d="M1935.32 466.603 L1935.32 470.509 L1898.6 470.509 Q1899.12 478.755 1903.55 483.096 Q1908.02 487.393 1915.96 487.393 Q1920.56 487.393 1924.86 486.264 Q1929.2 485.136 1933.45 482.879 L1933.45 490.431 Q1929.15 492.254 1924.64 493.208 Q1920.12 494.163 1915.48 494.163 Q1903.85 494.163 1897.03 487.393 Q1890.26 480.622 1890.26 469.077 Q1890.26 457.141 1896.69 450.153 Q1903.15 443.122 1914.09 443.122 Q1923.9 443.122 1929.59 449.459 Q1935.32 455.752 1935.32 466.603 M1927.33 464.259 Q1927.24 457.705 1923.64 453.799 Q1920.08 449.893 1914.18 449.893 Q1907.49 449.893 1903.46 453.669 Q1899.47 457.445 1898.86 464.302 L1927.33 464.259 Z" fill="#000000" fill-rule="evenodd" fill-opacity="1" /><path clip-path="url(#clip590)" d="M1980.41 451.672 L1980.41 425.37 L1988.4 425.37 L1988.4 492.905 L1980.41 492.905 L1980.41 485.613 Q1977.89 489.953 1974.03 492.08 Q1970.21 494.163 1964.83 494.163 Q1956.02 494.163 1950.46 487.132 Q1944.95 480.101 1944.95 468.643 Q1944.95 457.184 1950.46 450.153 Q1956.02 443.122 1964.83 443.122 Q1970.21 443.122 1974.03 445.249 Q1977.89 447.332 1980.41 451.672 M1953.2 468.643 Q1953.2 477.453 1956.8 482.488 Q1960.45 487.479 1966.78 487.479 Q1973.12 487.479 1976.77 482.488 Q1980.41 477.453 1980.41 468.643 Q1980.41 459.832 1976.77 454.841 Q1973.12 449.806 1966.78 449.806 Q1960.45 449.806 1956.8 454.841 Q1953.2 459.832 1953.2 468.643 Z" fill="#000000" fill-rule="evenodd" fill-opacity="1" /><path clip-path="url(#clip590)" d="M2004.85 444.294 L2012.83 444.294 L2012.83 492.905 L2004.85 492.905 L2004.85 444.294 M2004.85 425.37 L2012.83 425.37 L2012.83 435.483 L2004.85 435.483 L2004.85 425.37 Z" fill="#000000" fill-rule="evenodd" fill-opacity="1" /><path clip-path="url(#clip590)" d="M2064.53 446.16 L2064.53 453.625 Q2061.14 451.759 2057.71 450.848 Q2054.33 449.893 2050.85 449.893 Q2043.08 449.893 2038.79 454.841 Q2034.49 459.745 2034.49 468.643 Q2034.49 477.54 2038.79 482.488 Q2043.08 487.393 2050.85 487.393 Q2054.33 487.393 2057.71 486.481 Q2061.14 485.526 2064.53 483.66 L2064.53 491.038 Q2061.18 492.601 2057.58 493.382 Q2054.02 494.163 2049.99 494.163 Q2039 494.163 2032.54 487.262 Q2026.07 480.361 2026.07 468.643 Q2026.07 456.75 2032.58 449.936 Q2039.13 443.122 2050.51 443.122 Q2054.2 443.122 2057.71 443.903 Q2061.23 444.641 2064.53 446.16 Z" fill="#000000" fill-rule="evenodd" fill-opacity="1" /><path clip-path="url(#clip590)" d="M2086.31 430.492 L2086.31 444.294 L2102.76 444.294 L2102.76 450.5 L2086.31 450.5 L2086.31 476.889 Q2086.31 482.835 2087.92 484.528 Q2089.57 486.221 2094.56 486.221 L2102.76 486.221 L2102.76 492.905 L2094.56 492.905 Q2085.31 492.905 2081.8 489.476 Q2078.28 486.004 2078.28 476.889 L2078.28 450.5 L2072.42 450.5 L2072.42 444.294 L2078.28 444.294 L2078.28 430.492 L2086.31 430.492 Z" fill="#000000" fill-rule="evenodd" fill-opacity="1" /><path clip-path="url(#clip590)" d="M2113.27 444.294 L2121.25 444.294 L2121.25 492.905 L2113.27 492.905 L2113.27 444.294 M2113.27 425.37 L2121.25 425.37 L2121.25 435.483 L2113.27 435.483 L2113.27 425.37 Z" fill="#000000" fill-rule="evenodd" fill-opacity="1" /><path clip-path="url(#clip590)" d="M2156.8 449.893 Q2150.38 449.893 2146.64 454.927 Q2142.91 459.919 2142.91 468.643 Q2142.91 477.367 2146.6 482.401 Q2150.33 487.393 2156.8 487.393 Q2163.18 487.393 2166.91 482.358 Q2170.64 477.323 2170.64 468.643 Q2170.64 460.006 2166.91 454.971 Q2163.18 449.893 2156.8 449.893 M2156.8 443.122 Q2167.22 443.122 2173.16 449.893 Q2179.11 456.664 2179.11 468.643 Q2179.11 480.578 2173.16 487.393 Q2167.22 494.163 2156.8 494.163 Q2146.34 494.163 2140.39 487.393 Q2134.49 480.578 2134.49 468.643 Q2134.49 456.664 2140.39 449.893 Q2146.34 443.122 2156.8 443.122 Z" fill="#000000" fill-rule="evenodd" fill-opacity="1" /><path clip-path="url(#clip590)" d="M2232.75 463.565 L2232.75 492.905 L2224.77 492.905 L2224.77 463.825 Q2224.77 456.924 2222.08 453.495 Q2219.39 450.066 2214 450.066 Q2207.54 450.066 2203.8 454.19 Q2200.07 458.313 2200.07 465.431 L2200.07 492.905 L2192.04 492.905 L2192.04 444.294 L2200.07 444.294 L2200.07 451.846 Q2202.94 447.462 2206.8 445.292 Q2210.7 443.122 2215.78 443.122 Q2224.16 443.122 2228.46 448.33 Q2232.75 453.495 2232.75 463.565 Z" fill="#000000" fill-rule="evenodd" fill-opacity="1" /></svg>
